<svg width="866" height="695" viewBox="0 0 866 695" fill="none" xmlns="http://www.w3.org/2000/svg">
<path d="M44.424 393.421C43.27 382.505 31.7612 304.283 30.6072 295.643C26.5837 266.887 19.6909 230.645 18.5369 192.687C15.6675 113.311 1.85063 75.3532 0.135217 62.7216C-1.58019 47.7819 13.3595 37.9885 26.0223 37.9885C37.5312 37.9885 50.1628 46.6279 53.6248 78.2539C57.0868 109.318 62.2642 197.303 63.3871 213.99C64.5411 229.522 76.0499 291.058 77.7653 312.329C79.4807 333.6 84.0968 384.221 86.4048 395.137C88.1202 405.492 98.475 411.823 98.475 395.698C98.475 381.32 126.67 246.177 132.97 220.851C139.271 195.526 143.325 189.225 143.325 176.562C143.325 162.746 158.265 140.913 173.236 140.913C188.207 140.913 208.885 147.245 213.501 159.907C217.524 172.57 227.879 230.645 242.819 276.087C252.581 306.559 259.505 341.647 264.683 367.534C268.145 384.782 275.599 379.043 275.599 366.38C275.599 353.718 285.361 278.957 287.669 262.271C291.693 234.668 295.716 207.066 302.047 177.155C305.509 161.061 311.248 145.529 316.426 116.18C319.888 96.063 330.242 46.5968 332.519 33.9339C334.827 21.2711 337.135 0 353.79 0C370.445 0 377.931 1.93339e-05 383.108 16.6863C388.286 32.7799 385.978 59.2596 371.599 82.2461C356.66 105.264 350.89 160.469 344.558 183.455C341.096 195.526 336.512 253.039 329.619 280.641C322.726 308.244 319.264 341.024 316.956 368.626C315.24 391.644 322.695 401.967 314.648 413.476C301.985 431.316 274.975 454.896 251.957 442.233C239.887 435.901 226.07 385.281 216.869 335.253C207.669 285.226 190.982 237.475 190.982 230.582C190.982 219.073 180.066 215.643 176.043 225.966C173.173 232.298 159.949 285.787 151.902 339.838C145.009 384.688 134.655 430.131 131.193 450.248C127.731 470.365 118.53 493.383 92.0812 488.206C79.4183 485.898 52.9699 477.851 52.9699 452.556C52.9699 427.262 48.3538 434.155 44.3304 393.328L44.424 393.421Z" fill="#D4DEE5"/>
<path d="M425.623 263.33C422.161 254.129 423.907 252.414 431.361 252.414C437.1 251.852 448.048 253.568 464.141 253.568C476.804 253.568 484.851 253.568 492.898 255.283C534.317 263.922 545.795 265.638 583.752 265.638C591.799 265.638 608.485 266.792 609.639 252.414C611.355 238.035 605.023 220.195 585.499 223.096C566.505 225.965 555.588 227.119 545.233 225.965C536.594 224.811 500.945 218.48 483.697 217.326C475.65 216.764 462.987 217.887 450.917 214.456C440.562 211.587 418.699 203.54 412.398 203.54C406.098 203.54 387.665 208.156 380.772 223.096C374.441 236.913 379.057 252.414 380.772 259.338C387.665 285.786 389.973 400.251 396.866 434.185C411.806 506.637 401.482 615.925 395.712 634.888C389.381 654.443 382.488 675.714 395.151 687.223C404.913 695.863 414.706 696.985 428.492 687.223C437.693 680.33 442.309 664.206 445.74 642.934C449.763 617.047 448.609 600.361 446.301 573.351C442.839 535.394 450.917 498.591 443.993 455.456C442.278 446.255 435.946 429.007 440.531 425.545C445.708 422.083 465.826 422.083 475.619 422.083C485.412 422.083 544.641 415.752 550.972 415.752C562.481 415.752 566.505 408.859 572.243 400.22C578.575 390.457 568.781 370.902 550.972 374.332C538.902 376.64 534.286 378.948 525.678 380.664C517.631 381.818 502.099 384.126 492.336 384.126C483.136 384.126 468.757 384.126 455.533 380.664C443.463 377.794 431.954 368.001 431.954 359.954C431.954 355.931 430.8 335.221 430.8 313.95C430.239 293.833 429.646 272.531 425.623 263.33Z" fill="#D4DEE5"/>
<path d="M681.715 263.33C678.253 254.129 680 252.414 687.454 252.414C693.193 251.852 704.14 253.568 720.234 253.568C732.897 253.568 740.944 253.568 748.991 255.283C790.41 263.922 801.888 265.638 839.845 265.638C847.892 265.638 864.578 266.792 865.732 252.414C867.447 238.035 861.116 220.195 841.592 223.096C822.597 225.965 811.681 227.119 801.326 225.965C792.687 224.811 757.037 218.48 739.79 217.326C731.743 216.764 719.08 217.887 707.01 214.456C696.655 211.587 674.791 203.54 668.491 203.54C662.191 203.54 643.758 208.156 636.865 223.096C630.534 236.913 635.15 252.414 636.865 259.338C643.758 285.786 646.066 400.251 652.959 434.185C667.899 506.637 657.575 615.925 651.805 634.888C645.473 654.443 638.581 675.714 651.243 687.223C661.006 695.863 670.799 696.985 684.585 687.223C693.786 680.33 698.402 664.206 701.832 642.934C705.856 617.047 704.702 600.361 702.394 573.351C698.932 535.394 707.01 498.591 700.086 455.456C698.37 446.255 692.039 429.007 696.624 425.545C701.801 422.083 721.918 422.083 731.712 422.083C741.505 422.083 800.734 415.752 807.065 415.752C818.574 415.752 822.597 408.859 828.336 400.22C834.667 390.457 824.874 370.902 807.065 374.332C794.995 376.64 790.379 378.948 781.771 380.664C773.724 381.818 758.191 384.126 748.429 384.126C739.228 384.126 724.85 384.126 711.626 380.664C699.556 377.794 688.047 368.001 688.047 359.954C688.047 355.931 686.893 335.221 686.893 313.95C686.331 293.833 685.739 272.531 681.715 263.33Z" fill="#D4DEE5"/>
</svg>
