<?xml version="1.0" encoding="utf-8"?>
<!-- Generator: Adobe Illustrator 28.0.0, SVG Export Plug-In . SVG Version: 6.00 Build 0)  -->
<svg version="1.1" id="Layer_1" xmlns="http://www.w3.org/2000/svg" xmlns:xlink="http://www.w3.org/1999/xlink" x="0px" y="0px"
	 viewBox="0 0 1011 342" style="enable-background:new 0 0 1011 342;" xml:space="preserve">
<style type="text/css">
	.st0{clip-path:url(#SVGID_00000179645780761136235160000002488393969849565085_);fill:none;stroke:#D4DEE5;stroke-width:1.5;}
	.st1{clip-path:url(#SVGID_00000179645780761136235160000002488393969849565085_);fill:#D4DEE5;}
	.st2{clip-path:url(#SVGID_00000179645780761136235160000002488393969849565085_);}
	
		.st3{clip-path:url(#SVGID_00000179645780761136235160000002488393969849565085_);fill:none;stroke:#D4DEE5;stroke-width:1.5;stroke-dasharray:6,6;}
</style>
<g>
	<defs>
		<rect id="SVGID_1_" width="1011" height="342"/>
	</defs>
	<clipPath id="SVGID_00000141442785474221666640000002226418889963026564_">
		<use xlink:href="#SVGID_1_"  style="overflow:visible;"/>
	</clipPath>
	
		<line style="clip-path:url(#SVGID_00000141442785474221666640000002226418889963026564_);fill:none;stroke:#D4DEE5;stroke-width:1.5;" x1="505.8" y1="45" x2="505.8" y2="128"/>
	
		<rect style="clip-path:url(#SVGID_00000141442785474221666640000002226418889963026564_);fill:#D4DEE5;" width="1011" height="45"/>
	
		<rect x="342.8" y="128.8" style="clip-path:url(#SVGID_00000141442785474221666640000002226418889963026564_);fill:none;stroke:#D4DEE5;stroke-width:1.5;" width="325.5" height="43.5"/>
	
		<rect x="684.8" y="128.8" style="clip-path:url(#SVGID_00000141442785474221666640000002226418889963026564_);fill:none;stroke:#D4DEE5;stroke-width:1.5;" width="325.5" height="43.5"/>
	
		<rect x="0.8" y="128.8" style="clip-path:url(#SVGID_00000141442785474221666640000002226418889963026564_);fill:none;stroke:#D4DEE5;stroke-width:1.5;" width="325.5" height="43.5"/>
	<path style="clip-path:url(#SVGID_00000141442785474221666640000002226418889963026564_);fill:#D4DEE5;" d="M454.4,151.2v5.8h-2.1
		v-5.8H454.4z M453.3,140.5c1.2,0,2.3,0.3,3.3,0.7c1,0.5,1.7,1.1,2.3,2c0.6,0.9,0.8,1.9,0.9,3c0,1.1-0.3,2.1-0.9,3
		c-0.6,0.9-1.3,1.5-2.3,2c-1,0.5-2.1,0.7-3.3,0.7c-1.3,0-2.4-0.2-3.4-0.7c-1-0.5-1.7-1.1-2.3-2c-0.5-0.9-0.8-1.9-0.8-3
		c0-1.1,0.3-2.1,0.8-3c0.6-0.9,1.3-1.5,2.3-2C450.9,140.8,452.1,140.5,453.3,140.5z M453.3,142.3c-0.8,0-1.6,0.2-2.3,0.5
		c-0.7,0.3-1.2,0.8-1.6,1.4c-0.4,0.6-0.6,1.3-0.6,2c0,0.7,0.2,1.4,0.6,2c0.4,0.6,0.9,1,1.6,1.4c0.7,0.3,1.4,0.5,2.3,0.5
		c0.8,0,1.6-0.2,2.2-0.5c0.7-0.3,1.2-0.8,1.6-1.4c0.4-0.6,0.6-1.3,0.6-2c0-0.7-0.2-1.4-0.6-2c-0.4-0.6-0.9-1-1.6-1.4
		C454.9,142.5,454.1,142.3,453.3,142.3z M464.8,138.9v24.3h-2.1v-24.3H464.8z M468.7,149v1.8h-4.5V149H468.7z M445.7,156.1h1.3
		c1.7,0,3.4,0,4.9-0.1c1.5,0,3.1-0.1,4.7-0.2c1.6-0.1,3.1-0.2,4.5-0.4l0.2,1.6c-1.6,0.3-3.3,0.5-5.1,0.6c-1.8,0.1-3.5,0.2-5.1,0.3
		c-1.6,0-3.3,0-5,0L445.7,156.1z M492.4,152.8v1.8h-22.3v-1.8H492.4z M482.3,153.9v9.3h-2.1v-9.3H482.3z M481.2,139.9
		c1.7,0,3.2,0.2,4.5,0.7c1.3,0.4,2.3,1.1,3,1.9c0.7,0.8,1.1,1.8,1.1,2.8c0,1.1-0.4,2-1.1,2.8c-0.7,0.8-1.7,1.4-3,1.8
		c-1.3,0.4-2.8,0.6-4.5,0.6s-3.2-0.2-4.5-0.6c-1.3-0.4-2.3-1-3-1.8c-0.7-0.8-1.1-1.7-1.1-2.8c0-1.1,0.4-2,1.1-2.8
		c0.7-0.8,1.7-1.4,3-1.9C478,140.1,479.5,139.9,481.2,139.9z M481.2,141.6c-1.3,0-2.4,0.1-3.3,0.4c-1,0.3-1.7,0.7-2.2,1.3
		c-0.5,0.5-0.8,1.2-0.8,1.9c0,0.7,0.3,1.3,0.8,1.9c0.5,0.5,1.3,0.9,2.2,1.2c1,0.3,2.1,0.4,3.3,0.4c1.3,0,2.4-0.1,3.3-0.4
		c1-0.3,1.7-0.7,2.2-1.2c0.5-0.5,0.8-1.2,0.8-1.9c0-0.7-0.3-1.4-0.8-1.9c-0.5-0.5-1.3-1-2.2-1.3
		C483.6,141.8,482.5,141.6,481.2,141.6z M513,142.4v1.8h-7.5v-1.8H513z M513,148.1v1.8h-7.5v-1.8H513z M501.1,140.4
		c1.2,0,2.3,0.2,3.2,0.7c1,0.5,1.7,1.2,2.2,2.1c0.5,0.9,0.8,1.9,0.8,3c0,1.1-0.3,2.1-0.8,3c-0.5,0.9-1.3,1.6-2.2,2.1
		c-1,0.5-2,0.7-3.2,0.7c-1.2,0-2.3-0.2-3.2-0.7c-1-0.5-1.7-1.2-2.3-2.1c-0.5-0.9-0.8-1.9-0.8-3c0-1.1,0.3-2.1,0.8-3
		c0.5-0.9,1.3-1.6,2.3-2.1C498.8,140.6,499.9,140.4,501.1,140.4z M501.1,142.2c-0.8,0-1.5,0.2-2.2,0.5c-0.7,0.3-1.2,0.8-1.5,1.4
		c-0.4,0.6-0.5,1.3-0.5,2c0,0.7,0.2,1.4,0.6,2c0.4,0.6,0.9,1.1,1.5,1.4c0.6,0.3,1.4,0.5,2.2,0.5c0.8,0,1.5-0.2,2.1-0.5
		c0.6-0.3,1.1-0.8,1.5-1.4c0.4-0.6,0.6-1.3,0.6-2c0-0.8-0.2-1.4-0.6-2c-0.4-0.6-0.9-1.1-1.5-1.4
		C502.6,142.4,501.9,142.2,501.1,142.2z M514.5,138.9v14.4h-2.1v-14.4H514.5z M506.5,153.9c1.7,0,3.1,0.2,4.3,0.6
		c1.2,0.4,2.2,0.9,2.8,1.6c0.7,0.7,1,1.5,1,2.5c0,1-0.3,1.8-1,2.5c-0.7,0.7-1.6,1.2-2.8,1.6c-1.2,0.4-2.7,0.6-4.3,0.6
		c-1.7,0-3.1-0.2-4.4-0.6c-1.2-0.4-2.2-0.9-2.8-1.6c-0.7-0.7-1-1.5-1-2.5c0-1,0.3-1.8,1-2.5c0.7-0.7,1.6-1.2,2.8-1.6
		C503.3,154.1,504.8,153.9,506.5,153.9z M506.5,155.6c-1.2,0-2.3,0.1-3.2,0.4c-0.9,0.2-1.6,0.6-2.1,1c-0.5,0.4-0.7,1-0.7,1.6
		c0,0.6,0.2,1.1,0.7,1.6c0.5,0.4,1.2,0.8,2.1,1c0.9,0.2,2,0.3,3.2,0.3c1.2,0,2.3-0.1,3.2-0.3c0.9-0.2,1.6-0.6,2.1-1
		c0.5-0.4,0.7-1,0.7-1.6c0-0.6-0.2-1.1-0.7-1.6c-0.5-0.4-1.2-0.8-2.1-1C508.8,155.7,507.7,155.6,506.5,155.6z M526.4,142.7
		c0,1.5-0.3,3-0.9,4.3c-0.6,1.3-1.3,2.5-2.4,3.5c-1,1-2.2,1.7-3.5,2.3l-1.2-1.7c1.2-0.5,2.3-1.1,3.2-1.9c0.9-0.8,1.6-1.8,2.1-2.9
		c0.5-1.1,0.8-2.3,0.8-3.5v-2.5h1.8V142.7z M526.7,142.8c0,1.1,0.3,2.1,0.8,3.1c0.5,1,1.2,1.9,2.1,2.7c0.9,0.8,2,1.3,3.1,1.8
		l-1.2,1.7c-1.3-0.5-2.4-1.2-3.5-2.1c-1-0.9-1.8-2-2.3-3.2c-0.6-1.2-0.8-2.6-0.8-3.9v-2.7h1.7V142.8z M537.6,138.9v14.8h-2.1v-14.8
		H537.6z M541.2,145.3v1.8H537v-1.8H541.2z M529.8,154.3c1.7,0,3.1,0.2,4.3,0.5c1.2,0.3,2.1,0.9,2.8,1.5c0.6,0.7,1,1.4,1,2.4
		c0,0.9-0.3,1.7-1,2.4c-0.6,0.7-1.6,1.2-2.8,1.5c-1.2,0.3-2.6,0.5-4.3,0.5c-1.7,0-3.1-0.2-4.3-0.5c-1.2-0.3-2.1-0.9-2.8-1.5
		c-0.6-0.7-1-1.5-1-2.4c0-0.9,0.3-1.7,1-2.4c0.6-0.7,1.6-1.2,2.8-1.5C526.7,154.5,528.1,154.3,529.8,154.3z M529.8,156.1
		c-1.2,0-2.3,0.1-3.2,0.3c-0.9,0.2-1.6,0.5-2,0.9c-0.5,0.4-0.7,0.9-0.7,1.4c0,0.6,0.2,1.1,0.7,1.5c0.5,0.4,1.2,0.7,2,0.9
		c0.9,0.2,1.9,0.3,3.2,0.3c1.2,0,2.3-0.1,3.2-0.3c0.9-0.2,1.6-0.5,2-0.9c0.5-0.4,0.7-0.9,0.7-1.5c0-0.5-0.2-1-0.7-1.4
		c-0.5-0.4-1.2-0.7-2-0.9C532.1,156.2,531,156.1,529.8,156.1z M563.6,138.9v24.3h-2v-24.3H563.6z M557.3,147.7v1.8h-4.8v-1.8H557.3z
		 M558.6,139.5v22.5h-2v-22.5H558.6z M549.5,145.8c0,1.8-0.2,3.4-0.7,5.1c-0.5,1.6-1.1,3.1-2,4.4c-0.9,1.3-1.9,2.3-3,3l-1.4-1.6
		c1.1-0.7,2.1-1.6,2.9-2.7c0.8-1.1,1.4-2.4,1.9-3.8c0.4-1.4,0.6-2.9,0.6-4.4v-3.2h1.7V145.8z M549.9,145.8c0,1.4,0.2,2.8,0.6,4.1
		c0.4,1.3,1,2.6,1.8,3.6c0.8,1.1,1.7,1.9,2.8,2.6l-1.3,1.6c-1.2-0.7-2.2-1.7-3-2.9c-0.8-1.2-1.5-2.6-1.9-4.2
		c-0.4-1.6-0.6-3.2-0.6-4.9v-3.2h1.6V145.8z M554.4,141.8v1.8h-11.2v-1.8H554.4z"/>
	<path style="clip-path:url(#SVGID_00000141442785474221666640000002226418889963026564_);fill:#D4DEE5;" d="M771.3,154.7
		c1.8,0,3.3,0.1,4.5,0.4c1.2,0.3,2.2,0.7,2.8,1.3c0.7,0.6,1,1.2,1,2.1c0,0.8-0.3,1.5-1,2c-0.7,0.5-1.6,1-2.8,1.2
		c-1.2,0.3-2.8,0.4-4.5,0.4c-1.8,0-3.3-0.1-4.6-0.4c-1.2-0.3-2.2-0.7-2.9-1.2c-0.7-0.5-1-1.2-1-2c0-0.8,0.3-1.5,1-2.1
		c0.7-0.6,1.6-1,2.9-1.3C768,154.9,769.5,154.7,771.3,154.7z M771.3,156.4c-1.3,0-2.4,0.1-3.4,0.2s-1.6,0.4-2.1,0.7
		c-0.5,0.3-0.7,0.7-0.7,1.2c0,0.4,0.2,0.8,0.7,1.1c0.5,0.3,1.2,0.5,2.1,0.7c0.9,0.2,2,0.2,3.4,0.2c1.3,0,2.4-0.1,3.3-0.2
		c0.9-0.2,1.6-0.4,2.1-0.7c0.5-0.3,0.7-0.7,0.7-1.1c0-0.5-0.2-0.8-0.7-1.2c-0.5-0.3-1.2-0.6-2.1-0.7S772.7,156.4,771.3,156.4z
		 M781.1,140v1.7h-19.7V140H781.1z M771.3,142.7c2.5,0,4.5,0.3,5.8,0.9c1.4,0.6,2,1.5,2,2.6c0,0.7-0.3,1.4-0.9,1.9
		c-0.6,0.5-1.5,0.9-2.7,1.2c-1.2,0.3-2.6,0.4-4.3,0.4c-1.7,0-3.1-0.1-4.3-0.4c-1.2-0.3-2.1-0.7-2.7-1.2c-0.6-0.5-0.9-1.1-0.9-1.9
		c0-1.1,0.7-2,2-2.6C766.8,143,768.8,142.7,771.3,142.7z M771.3,144.2c-1.2,0-2.2,0.1-3,0.2c-0.8,0.2-1.5,0.4-1.9,0.7
		c-0.4,0.3-0.6,0.6-0.6,1.1c0,0.4,0.2,0.8,0.6,1c0.4,0.3,1.1,0.5,1.9,0.6c0.8,0.1,1.9,0.2,3,0.2c1.2,0,2.2-0.1,3-0.2
		c0.8-0.1,1.5-0.4,1.9-0.6c0.4-0.3,0.7-0.6,0.7-1c0-0.4-0.2-0.8-0.7-1.1c-0.4-0.3-1.1-0.5-1.9-0.7
		C773.5,144.3,772.5,144.2,771.3,144.2z M772.4,137.6v3.5h-2.1v-3.5H772.4z M782.4,151.5v1.7h-22.2v-1.7H782.4z M772.4,149v3.4h-2.1
		V149H772.4z M804.5,153.7v8.5h-2.1v-6.7h-14.2v-1.8H804.5z M804.5,137.9v14.5h-2.1v-14.5H804.5z M791.4,139.4
		c1.2,0,2.3,0.2,3.3,0.7c1,0.5,1.7,1.2,2.3,2c0.5,0.9,0.8,1.9,0.8,3c0,1.1-0.3,2.1-0.8,3c-0.5,0.9-1.3,1.5-2.3,2
		c-1,0.5-2,0.7-3.3,0.7c-1.2,0-2.3-0.2-3.3-0.7c-1-0.5-1.7-1.2-2.3-2c-0.5-0.9-0.8-1.9-0.8-3c0-1.1,0.3-2.1,0.8-3
		c0.5-0.9,1.3-1.5,2.3-2C789.1,139.6,790.2,139.4,791.4,139.4z M791.4,141.2c-0.8,0-1.6,0.2-2.2,0.5c-0.7,0.3-1.2,0.8-1.5,1.4
		c-0.4,0.6-0.5,1.3-0.5,2c0,0.8,0.2,1.4,0.5,2c0.4,0.6,0.9,1.1,1.5,1.4c0.7,0.3,1.4,0.5,2.2,0.5c0.8,0,1.6-0.2,2.2-0.5
		c0.7-0.3,1.2-0.8,1.5-1.4c0.4-0.6,0.6-1.3,0.6-2c0-0.8-0.2-1.4-0.6-2c-0.4-0.6-0.9-1.1-1.5-1.4C793,141.4,792.2,141.2,791.4,141.2z
		 M817,144.5c0,1.8-0.3,3.6-0.9,5.3c-0.6,1.7-1.5,3.2-2.5,4.5c-1.1,1.3-2.3,2.3-3.6,2.9l-1.4-1.8c1.2-0.6,2.3-1.4,3.3-2.5
		c1-1.1,1.8-2.4,2.4-3.9c0.6-1.5,0.9-3,0.9-4.5V140h1.8V144.5z M817.3,144.5c0,1.4,0.3,2.9,0.9,4.3c0.6,1.4,1.4,2.7,2.4,3.8
		c1,1.1,2.1,1.9,3.3,2.5l-1.3,1.7c-1.3-0.6-2.5-1.6-3.6-2.8c-1.1-1.3-1.9-2.7-2.6-4.3c-0.6-1.6-0.9-3.3-0.9-5.1V140h1.8V144.5z
		 M828.7,137.9v24.3h-2.1v-24.3H828.7z M852.9,137.9v24.3h-2.1v-24.3H852.9z M836.4,154.4c1.7,0,3.2,0,4.5-0.1
		c1.3,0,2.5-0.1,3.6-0.2c1.2-0.1,2.3-0.3,3.5-0.5l0.2,1.8c-1.8,0.3-3.6,0.5-5.3,0.7c-1.8,0.1-3.9,0.2-6.6,0.2h-2v-1.9H836.4z
		 M846,140.2v1.8h-9.4v13h-2.2v-14.8H846z M870.6,139.8c1.2,0,2.2,0.4,3.1,1.1c0.9,0.7,1.6,1.7,2.1,3c0.5,1.3,0.8,2.8,0.8,4.5
		c0,1.7-0.3,3.2-0.8,4.5c-0.5,1.3-1.2,2.3-2.1,3c-0.9,0.7-2,1-3.1,1c-1.2,0-2.3-0.3-3.2-1c-0.9-0.7-1.6-1.7-2.2-3
		c-0.5-1.3-0.8-2.8-0.8-4.5c0-1.7,0.2-3.2,0.8-4.5c0.5-1.3,1.2-2.3,2.2-3C868.4,140.2,869.4,139.8,870.6,139.8z M870.6,141.7
		c-0.8,0-1.5,0.3-2.1,0.8c-0.6,0.5-1.1,1.3-1.4,2.3c-0.3,1-0.5,2.1-0.5,3.4c0,1.3,0.2,2.5,0.5,3.4c0.3,1,0.8,1.8,1.4,2.3
		c0.6,0.5,1.3,0.8,2.1,0.8c0.8,0,1.5-0.3,2.1-0.8c0.6-0.5,1.1-1.3,1.4-2.3c0.3-1,0.5-2.1,0.5-3.4c0-1.3-0.2-2.4-0.5-3.4
		c-0.3-1-0.8-1.8-1.4-2.3C872.1,142,871.4,141.7,870.6,141.7z M884.2,137.9v24.3h-2.1v-24.3H884.2z M883.1,147.2v1.8H876v-1.8H883.1
		z M897.2,151.5v10H895v-10H897.2z M908.4,137.9v24.3h-2.2v-24.3H908.4z M888.2,150.7c2.2,0,4.1,0,5.7,0c1.6,0,3.3-0.1,5.2-0.2
		c1.8-0.1,3.6-0.3,5.2-0.5l0.1,1.6c-2.4,0.4-5,0.7-7.6,0.8c-2.6,0.1-5.4,0.2-8.4,0.2L888.2,150.7z M906.8,154.5v1.7h-6.2v-1.7H906.8
		z M896.2,139.1c1.2,0,2.2,0.2,3.2,0.6c0.9,0.4,1.7,1,2.2,1.7c0.5,0.7,0.8,1.6,0.8,2.5c0,1-0.3,1.8-0.8,2.5
		c-0.5,0.7-1.2,1.3-2.2,1.7c-0.9,0.4-2,0.6-3.2,0.6c-1.2,0-2.3-0.2-3.2-0.6c-0.9-0.4-1.7-1-2.2-1.7c-0.5-0.7-0.8-1.6-0.8-2.5
		c0-0.9,0.3-1.8,0.8-2.5c0.5-0.7,1.2-1.3,2.2-1.7C893.9,139.3,895,139.1,896.2,139.1z M896.2,140.8c-0.8,0-1.5,0.1-2.2,0.4
		c-0.6,0.3-1.1,0.6-1.5,1.1c-0.3,0.5-0.5,1-0.5,1.6c0,0.6,0.2,1.2,0.5,1.6c0.3,0.5,0.8,0.8,1.5,1.1c0.6,0.3,1.4,0.4,2.2,0.4
		c0.8,0,1.5-0.1,2.1-0.4s1.1-0.6,1.5-1.1c0.4-0.5,0.5-1,0.5-1.6c0-0.6-0.2-1.1-0.5-1.6c-0.3-0.5-0.8-0.8-1.5-1.1
		C897.7,140.9,897,140.8,896.2,140.8z M932.1,149.6v1.8h-16.8v-1.8H932.1z M934.8,157.1v1.8h-22.3v-1.8H934.8z M931.9,140.2v1.8
		h-14.4v8.4h-2.1v-10.2H931.9z"/>
	<path style="clip-path:url(#SVGID_00000141442785474221666640000002226418889963026564_);fill:#D4DEE5;" d="M719.2,279.6v3.8h-2.1
		v-3.8H719.2z M729.2,282.6v1.7h-22.2v-1.7H729.2z M726.4,286.3v5.5h-14.4v2.9h-2.1v-4.5h14.4V288h-14.5v-1.6H726.4z M727.1,294.3
		v1.7h-17.3v-1.7H727.1z M718.7,274.2c0,1.2-0.4,2.3-1.3,3.2c-0.9,1-2.1,1.7-3.5,2.3c-1.5,0.6-3.1,1-4.8,1.1l-0.7-1.6
		c1.5-0.1,2.9-0.4,4.2-0.9c1.3-0.5,2.4-1.1,3.2-1.8c0.8-0.7,1.2-1.5,1.2-2.4v-0.8h1.9V274.2z M719.6,274.2c0,0.9,0.4,1.7,1.2,2.4
		c0.8,0.7,1.9,1.3,3.2,1.8c1.3,0.5,2.7,0.8,4.2,0.9l-0.7,1.6c-1.7-0.2-3.3-0.6-4.8-1.1c-1.5-0.6-2.6-1.4-3.5-2.3
		c-0.9-1-1.3-2-1.3-3.2v-0.8h1.9V274.2z M727.3,272.7v1.7h-18.1v-1.7H727.3z M750.2,277.7v1.8h-6.6v-1.8H750.2z M738,273.1
		c1.2,0,2.3,0.2,3.2,0.7c1,0.5,1.7,1.1,2.2,2c0.5,0.8,0.8,1.8,0.8,2.9c0,1.1-0.3,2.1-0.8,2.9c-0.5,0.9-1.3,1.5-2.2,2
		c-0.9,0.5-2,0.7-3.2,0.7c-1.2,0-2.3-0.2-3.3-0.7c-1-0.5-1.7-1.1-2.2-2c-0.5-0.9-0.8-1.8-0.8-2.9c0-1.1,0.3-2.1,0.8-2.9
		c0.5-0.9,1.3-1.5,2.2-2C735.7,273.3,736.8,273.1,738,273.1z M738,274.9c-0.8,0-1.6,0.2-2.2,0.5c-0.6,0.3-1.1,0.8-1.5,1.3
		c-0.4,0.6-0.5,1.2-0.5,2c0,0.7,0.2,1.4,0.5,2c0.4,0.6,0.9,1,1.5,1.4c0.7,0.3,1.4,0.5,2.2,0.5c0.8,0,1.5-0.2,2.2-0.5
		c0.6-0.3,1.1-0.8,1.5-1.4c0.4-0.6,0.5-1.2,0.5-2c0-0.7-0.2-1.4-0.5-2c-0.4-0.6-0.9-1-1.5-1.3C739.5,275,738.8,274.9,738,274.9z
		 M751.4,271.9v13h-2.1v-13H751.4z M737.9,286.2v3.1h11.4v-3.1h2.1v9.7h-15.7v-9.7H737.9z M737.9,294.1h11.4V291h-11.4V294.1z
		 M774.7,278.7v1.8h-6.2v-1.8H774.7z M775.6,271.9v17.8h-2.1v-17.8H775.6z M776.3,293.9v1.8H760v-1.8H776.3z M762.2,288.2v6.6H760
		v-6.6H762.2z M763.5,276.9c0,1.5-0.3,2.8-0.9,4.1c-0.6,1.3-1.4,2.4-2.4,3.4c-1,1-2.2,1.7-3.6,2.2l-1.1-1.8c1.2-0.4,2.3-1,3.2-1.8
		c0.9-0.8,1.7-1.7,2.2-2.8c0.5-1.1,0.8-2.2,0.8-3.3v-2h1.8V276.9z M763.9,276.9c0,1,0.3,2,0.8,3c0.5,1,1.2,1.9,2.1,2.6
		s2,1.3,3.1,1.8l-1.1,1.7c-1.3-0.5-2.5-1.2-3.5-2.1c-1-0.9-1.8-2-2.3-3.2c-0.6-1.2-0.8-2.5-0.8-3.8v-2h1.8V276.9z M769.4,273.9v1.8
		h-13.1v-1.8H769.4z M788,278.5c0,1.8-0.3,3.6-0.9,5.3c-0.6,1.7-1.5,3.2-2.5,4.5c-1.1,1.3-2.3,2.3-3.6,2.9l-1.4-1.8
		c1.2-0.6,2.3-1.4,3.3-2.5c1-1.1,1.8-2.4,2.4-3.9c0.6-1.5,0.9-3,0.9-4.5V274h1.8V278.5z M788.3,278.5c0,1.4,0.3,2.9,0.9,4.3
		c0.6,1.4,1.4,2.7,2.4,3.8c1,1.1,2.1,1.9,3.3,2.5l-1.3,1.7c-1.3-0.6-2.5-1.6-3.6-2.8c-1.1-1.3-1.9-2.7-2.6-4.3
		c-0.6-1.6-0.9-3.3-0.9-5.1V274h1.8V278.5z M799.7,271.9v24.3h-2.1v-24.3H799.7z M727.5,317.5c0,1.8-0.3,3.6-0.9,5.3
		c-0.6,1.7-1.5,3.2-2.5,4.5c-1.1,1.3-2.3,2.3-3.6,2.9l-1.4-1.8c1.2-0.6,2.3-1.4,3.3-2.5c1-1.1,1.8-2.4,2.4-3.9
		c0.6-1.5,0.9-3,0.9-4.5V313h1.8V317.5z M727.8,317.5c0,1.4,0.3,2.9,0.9,4.3c0.6,1.4,1.4,2.7,2.4,3.8c1,1.1,2.1,1.9,3.3,2.5
		l-1.3,1.7c-1.3-0.6-2.5-1.6-3.6-2.8c-1.1-1.3-1.9-2.7-2.6-4.3c-0.6-1.6-0.9-3.3-0.9-5.1V313h1.8V317.5z M739.2,310.9v24.3h-2.1
		v-24.3H739.2z M751.2,314.7c0,1.5-0.3,3-0.9,4.3c-0.6,1.3-1.3,2.5-2.4,3.5c-1,1-2.2,1.7-3.5,2.3l-1.2-1.7c1.2-0.5,2.3-1.1,3.2-1.9
		s1.6-1.8,2.1-2.9c0.5-1.1,0.8-2.3,0.8-3.5v-2.5h1.8V314.7z M751.5,314.8c0,1.1,0.3,2.1,0.8,3.1c0.5,1,1.2,1.9,2.1,2.7
		c0.9,0.8,2,1.4,3.1,1.8l-1.2,1.7c-1.3-0.5-2.4-1.2-3.5-2.1c-1-0.9-1.8-2-2.3-3.2c-0.6-1.2-0.8-2.6-0.8-3.9v-2.7h1.7V314.8z
		 M762.4,310.9v14.8h-2.1v-14.8H762.4z M766,317.3v1.8h-4.3v-1.8H766z M754.6,326.3c1.7,0,3.1,0.2,4.3,0.5c1.2,0.3,2.1,0.9,2.8,1.5
		c0.6,0.7,1,1.4,1,2.4c0,0.9-0.3,1.7-1,2.4c-0.6,0.7-1.6,1.2-2.8,1.5c-1.2,0.3-2.6,0.5-4.3,0.5c-1.7,0-3.1-0.2-4.3-0.5
		c-1.2-0.3-2.1-0.9-2.8-1.5c-0.6-0.7-1-1.5-1-2.4c0-0.9,0.3-1.7,1-2.4c0.6-0.7,1.6-1.2,2.8-1.5C751.5,326.5,752.9,326.3,754.6,326.3
		z M754.6,328c-1.2,0-2.3,0.1-3.2,0.3c-0.9,0.2-1.6,0.5-2.1,0.9c-0.5,0.4-0.7,0.9-0.7,1.4c0,0.6,0.2,1.1,0.7,1.5
		c0.5,0.4,1.2,0.7,2.1,0.9c0.9,0.2,1.9,0.3,3.2,0.3c1.2,0,2.3-0.1,3.2-0.3c0.9-0.2,1.6-0.5,2-0.9c0.5-0.4,0.7-0.9,0.7-1.5
		c0-0.5-0.2-1-0.7-1.4c-0.5-0.4-1.2-0.7-2-0.9C756.9,328.2,755.8,328,754.6,328z M775.8,314.4c0,1.5-0.3,3-0.9,4.3
		c-0.6,1.3-1.4,2.5-2.4,3.5c-1,1-2.2,1.7-3.6,2.3l-1.1-1.7c1.2-0.4,2.3-1.1,3.2-1.9c0.9-0.9,1.7-1.8,2.2-3c0.5-1.1,0.8-2.3,0.8-3.5
		v-2.3h1.8V314.4z M776.2,314.4c0,1.2,0.3,2.3,0.8,3.3c0.5,1.1,1.3,2,2.2,2.8c0.9,0.8,2,1.4,3.2,1.8l-1.1,1.7
		c-1.4-0.5-2.5-1.2-3.6-2.2c-1-0.9-1.8-2.1-2.4-3.3c-0.6-1.3-0.9-2.7-0.9-4.1v-2.3h1.8V314.4z M787.7,326.8v8.5h-2.1v-6.7h-14.2
		v-1.8H787.7z M787.7,310.9v14.6h-2.1v-14.6H787.7z"/>
	<path style="clip-path:url(#SVGID_00000141442785474221666640000002226418889963026564_);fill:#D4DEE5;" d="M891.4,284.2v5.8h-2.1
		v-5.8H891.4z M890.3,273.5c1.2,0,2.3,0.3,3.3,0.7c1,0.5,1.7,1.1,2.3,2c0.6,0.9,0.8,1.9,0.9,3c0,1.1-0.3,2.1-0.9,3
		c-0.6,0.9-1.3,1.5-2.3,2c-1,0.5-2.1,0.7-3.3,0.7c-1.3,0-2.4-0.2-3.4-0.7c-1-0.5-1.7-1.1-2.3-2c-0.5-0.9-0.8-1.9-0.8-3
		c0-1.1,0.3-2.1,0.8-3c0.6-0.9,1.3-1.5,2.3-2C887.9,273.8,889.1,273.5,890.3,273.5z M890.3,275.3c-0.8,0-1.6,0.2-2.3,0.5
		c-0.7,0.3-1.2,0.8-1.6,1.4c-0.4,0.6-0.6,1.3-0.6,2c0,0.7,0.2,1.4,0.6,2c0.4,0.6,0.9,1,1.6,1.4c0.7,0.3,1.4,0.5,2.3,0.5
		c0.8,0,1.6-0.2,2.2-0.5c0.7-0.3,1.2-0.8,1.6-1.4c0.4-0.6,0.6-1.3,0.6-2c0-0.7-0.2-1.4-0.6-2c-0.4-0.6-0.9-1-1.6-1.4
		C891.9,275.5,891.1,275.3,890.3,275.3z M901.8,271.9v24.3h-2.1v-24.3H901.8z M905.7,282v1.8h-4.5V282H905.7z M882.7,289.1h1.3
		c1.7,0,3.4,0,4.9-0.1c1.5,0,3.1-0.1,4.7-0.2c1.6-0.1,3.1-0.2,4.5-0.4l0.2,1.6c-1.6,0.3-3.3,0.5-5.1,0.6c-1.8,0.1-3.5,0.2-5.1,0.3
		c-1.6,0-3.3,0-5,0L882.7,289.1z M929.4,285.8v1.8h-22.3v-1.8H929.4z M919.3,286.9v9.3h-2.1v-9.3H919.3z M918.2,272.9
		c1.7,0,3.2,0.2,4.5,0.7c1.3,0.4,2.3,1.1,3,1.9c0.7,0.8,1.1,1.8,1.1,2.8c0,1.1-0.4,2-1.1,2.8c-0.7,0.8-1.7,1.4-3,1.8
		c-1.3,0.4-2.8,0.6-4.5,0.6s-3.2-0.2-4.5-0.6c-1.3-0.4-2.3-1-3-1.8c-0.7-0.8-1.1-1.7-1.1-2.8c0-1.1,0.4-2,1.1-2.8
		c0.7-0.8,1.7-1.4,3-1.9C915,273.1,916.5,272.9,918.2,272.9z M918.2,274.6c-1.3,0-2.4,0.1-3.3,0.4c-1,0.3-1.7,0.7-2.2,1.3
		c-0.5,0.5-0.8,1.2-0.8,1.9c0,0.7,0.3,1.3,0.8,1.9c0.5,0.5,1.3,0.9,2.2,1.2c1,0.3,2.1,0.4,3.3,0.4s2.4-0.1,3.3-0.4
		c1-0.3,1.7-0.7,2.2-1.2c0.5-0.5,0.8-1.2,0.8-1.9c0-0.7-0.3-1.4-0.8-1.9c-0.5-0.5-1.3-1-2.2-1.3
		C920.6,274.8,919.5,274.6,918.2,274.6z M950,275.4v1.8h-7.5v-1.8H950z M950,281.1v1.8h-7.5v-1.8H950z M938.1,273.4
		c1.2,0,2.3,0.2,3.2,0.7c1,0.5,1.7,1.2,2.2,2c0.5,0.9,0.8,1.9,0.8,3c0,1.1-0.3,2.1-0.8,3c-0.5,0.9-1.3,1.6-2.2,2
		c-1,0.5-2,0.7-3.2,0.7c-1.2,0-2.3-0.2-3.2-0.7c-1-0.5-1.7-1.2-2.3-2c-0.5-0.9-0.8-1.9-0.8-3c0-1.1,0.3-2.1,0.8-3
		c0.5-0.9,1.3-1.6,2.3-2C935.8,273.6,936.9,273.4,938.1,273.4z M938.1,275.2c-0.8,0-1.5,0.2-2.2,0.5c-0.7,0.3-1.2,0.8-1.5,1.4
		c-0.4,0.6-0.5,1.3-0.5,2c0,0.7,0.2,1.4,0.6,2c0.4,0.6,0.9,1.1,1.5,1.4c0.6,0.3,1.4,0.5,2.2,0.5c0.8,0,1.5-0.2,2.1-0.5
		c0.6-0.3,1.2-0.8,1.5-1.4c0.4-0.6,0.6-1.3,0.6-2c0-0.8-0.2-1.4-0.6-2c-0.4-0.6-0.9-1.1-1.5-1.4
		C939.6,275.4,938.9,275.2,938.1,275.2z M951.5,271.9v14.4h-2.1v-14.4H951.5z M943.5,286.9c1.7,0,3.1,0.2,4.3,0.6
		c1.2,0.4,2.2,0.9,2.8,1.6c0.7,0.7,1,1.5,1,2.5c0,1-0.3,1.8-1,2.5c-0.7,0.7-1.6,1.2-2.8,1.6c-1.2,0.4-2.7,0.6-4.3,0.6
		c-1.7,0-3.1-0.2-4.4-0.6c-1.2-0.4-2.2-0.9-2.8-1.6c-0.7-0.7-1-1.5-1-2.5c0-1,0.3-1.8,1-2.5c0.7-0.7,1.6-1.2,2.8-1.6
		C940.3,287.1,941.8,286.9,943.5,286.9z M943.5,288.6c-1.2,0-2.3,0.1-3.2,0.4c-0.9,0.2-1.6,0.6-2.1,1c-0.5,0.4-0.7,1-0.7,1.6
		c0,0.6,0.2,1.1,0.7,1.6c0.5,0.4,1.2,0.8,2.1,1c0.9,0.2,2,0.3,3.2,0.3c1.2,0,2.3-0.1,3.2-0.3c0.9-0.2,1.6-0.6,2.1-1
		c0.5-0.4,0.7-1,0.7-1.6c0-0.6-0.2-1.1-0.7-1.6c-0.5-0.4-1.2-0.8-2.1-1C945.8,288.7,944.7,288.6,943.5,288.6z M963.4,275.7
		c0,1.5-0.3,3-0.9,4.3c-0.6,1.3-1.3,2.5-2.4,3.5c-1,1-2.2,1.7-3.5,2.3l-1.2-1.7c1.2-0.5,2.3-1.1,3.2-1.9c0.9-0.8,1.6-1.8,2.1-2.9
		c0.5-1.1,0.8-2.3,0.8-3.5v-2.5h1.8V275.7z M963.7,275.8c0,1.1,0.3,2.1,0.8,3.1c0.5,1,1.2,1.9,2.1,2.7c0.9,0.8,2,1.4,3.1,1.8
		l-1.2,1.7c-1.3-0.5-2.4-1.2-3.5-2.1c-1-0.9-1.8-2-2.3-3.2c-0.6-1.2-0.8-2.6-0.8-3.9v-2.7h1.7V275.8z M974.6,271.9v14.8h-2.1v-14.8
		H974.6z M978.2,278.3v1.8H974v-1.8H978.2z M966.8,287.3c1.7,0,3.1,0.2,4.3,0.5c1.2,0.3,2.1,0.9,2.8,1.5c0.6,0.7,1,1.4,1,2.4
		c0,0.9-0.3,1.7-1,2.4c-0.6,0.7-1.6,1.2-2.8,1.5c-1.2,0.3-2.6,0.5-4.3,0.5c-1.7,0-3.1-0.2-4.3-0.5c-1.2-0.3-2.1-0.9-2.8-1.5
		c-0.6-0.7-1-1.5-1-2.4c0-0.9,0.3-1.7,1-2.4c0.6-0.7,1.6-1.2,2.8-1.5C963.7,287.5,965.1,287.3,966.8,287.3z M966.8,289
		c-1.2,0-2.3,0.1-3.2,0.3c-0.9,0.2-1.6,0.5-2,0.9c-0.5,0.4-0.7,0.9-0.7,1.4c0,0.6,0.2,1.1,0.7,1.5c0.5,0.4,1.2,0.7,2,0.9
		c0.9,0.2,1.9,0.3,3.2,0.3c1.2,0,2.3-0.1,3.2-0.3c0.9-0.2,1.6-0.5,2-0.9c0.5-0.4,0.7-0.9,0.7-1.5c0-0.5-0.2-1-0.7-1.4
		c-0.5-0.4-1.2-0.7-2-0.9C969.1,289.2,968,289,966.8,289z M1000.5,271.9v24.3h-2v-24.3H1000.5z M994.3,280.7v1.8h-4.8v-1.8H994.3z
		 M995.6,272.5v22.5h-2v-22.5H995.6z M986.5,278.8c0,1.8-0.2,3.4-0.7,5.1c-0.5,1.6-1.1,3.1-2,4.4c-0.9,1.3-1.9,2.3-3,3l-1.4-1.6
		c1.1-0.7,2.1-1.6,2.9-2.7c0.8-1.1,1.4-2.4,1.9-3.8c0.4-1.4,0.6-2.9,0.6-4.4v-3.2h1.7V278.8z M986.9,278.8c0,1.4,0.2,2.8,0.6,4.1
		c0.4,1.3,1,2.6,1.8,3.6c0.8,1.1,1.7,1.9,2.8,2.6l-1.3,1.6c-1.2-0.7-2.2-1.7-3-2.9c-0.8-1.2-1.5-2.6-1.9-4.2
		c-0.4-1.6-0.6-3.2-0.6-4.9v-3.2h1.6V278.8z M991.4,274.8v1.8h-11.2v-1.8H991.4z M915.5,317.5c0,1.8-0.3,3.6-0.9,5.3
		c-0.6,1.7-1.5,3.2-2.5,4.5c-1.1,1.3-2.3,2.3-3.6,2.9l-1.4-1.8c1.2-0.6,2.3-1.4,3.3-2.5c1-1.1,1.8-2.4,2.4-3.9
		c0.6-1.5,0.9-3,0.9-4.5V313h1.8V317.5z M915.8,317.5c0,1.4,0.3,2.9,0.9,4.3c0.6,1.4,1.4,2.7,2.4,3.8c1,1.1,2.1,1.9,3.3,2.5
		l-1.3,1.7c-1.3-0.6-2.5-1.6-3.6-2.8c-1.1-1.3-1.9-2.7-2.6-4.3c-0.6-1.6-0.9-3.3-0.9-5.1V313h1.8V317.5z M927.2,310.9v24.3h-2.1
		v-24.3H927.2z M939.2,314.7c0,1.5-0.3,3-0.9,4.3c-0.6,1.3-1.3,2.5-2.4,3.5c-1,1-2.2,1.7-3.5,2.3l-1.2-1.7c1.2-0.5,2.3-1.1,3.2-1.9
		s1.6-1.8,2.1-2.9c0.5-1.1,0.8-2.3,0.8-3.5v-2.5h1.8V314.7z M939.5,314.8c0,1.1,0.3,2.1,0.8,3.1c0.5,1,1.2,1.9,2.1,2.7
		c0.9,0.8,2,1.4,3.1,1.8l-1.2,1.7c-1.3-0.5-2.4-1.2-3.5-2.1c-1-0.9-1.8-2-2.3-3.2c-0.6-1.2-0.8-2.6-0.8-3.9v-2.7h1.7V314.8z
		 M950.4,310.9v14.8h-2.1v-14.8H950.4z M954,317.3v1.8h-4.3v-1.8H954z M942.6,326.3c1.7,0,3.1,0.2,4.3,0.5c1.2,0.3,2.1,0.9,2.8,1.5
		c0.6,0.7,1,1.4,1,2.4c0,0.9-0.3,1.7-1,2.4c-0.6,0.7-1.6,1.2-2.8,1.5c-1.2,0.3-2.6,0.5-4.3,0.5c-1.7,0-3.1-0.2-4.3-0.5
		c-1.2-0.3-2.1-0.9-2.8-1.5c-0.6-0.7-1-1.5-1-2.4c0-0.9,0.3-1.7,1-2.4c0.6-0.7,1.6-1.2,2.8-1.5C939.5,326.5,940.9,326.3,942.6,326.3
		z M942.6,328c-1.2,0-2.3,0.1-3.2,0.3c-0.9,0.2-1.6,0.5-2.1,0.9c-0.5,0.4-0.7,0.9-0.7,1.4c0,0.6,0.2,1.1,0.7,1.5
		c0.5,0.4,1.2,0.7,2.1,0.9c0.9,0.2,1.9,0.3,3.2,0.3c1.2,0,2.3-0.1,3.2-0.3c0.9-0.2,1.6-0.5,2-0.9c0.5-0.4,0.7-0.9,0.7-1.5
		c0-0.5-0.2-1-0.7-1.4c-0.5-0.4-1.2-0.7-2-0.9C944.9,328.2,943.8,328,942.6,328z M963.8,314.4c0,1.5-0.3,3-0.9,4.3
		c-0.6,1.3-1.4,2.5-2.4,3.5c-1,1-2.2,1.7-3.6,2.3l-1.1-1.7c1.2-0.4,2.3-1.1,3.2-1.9c0.9-0.9,1.7-1.8,2.2-3c0.5-1.1,0.8-2.3,0.8-3.5
		v-2.3h1.8V314.4z M964.2,314.4c0,1.2,0.3,2.3,0.8,3.3c0.5,1.1,1.3,2,2.2,2.8c0.9,0.8,2,1.4,3.2,1.8l-1.1,1.7
		c-1.4-0.5-2.5-1.2-3.6-2.2c-1-0.9-1.8-2.1-2.4-3.3c-0.6-1.3-0.9-2.7-0.9-4.1v-2.3h1.8V314.4z M975.7,326.8v8.5h-2.1v-6.7h-14.2
		v-1.8H975.7z M975.7,310.9v14.6h-2.1v-14.6H975.7z"/>
	<path style="clip-path:url(#SVGID_00000141442785474221666640000002226418889963026564_);fill:#D4DEE5;" d="M128.2,145.6v3.8h-2.1
		v-3.8H128.2z M138.2,148.6v1.7h-22.2v-1.7H138.2z M135.4,152.3v5.5h-14.4v2.9h-2.1v-4.5h14.4V154h-14.5v-1.6H135.4z M136.1,160.3
		v1.7h-17.3v-1.7H136.1z M127.7,140.2c0,1.2-0.4,2.3-1.3,3.2c-0.9,1-2.1,1.7-3.5,2.3c-1.5,0.6-3.1,1-4.8,1.1l-0.7-1.6
		c1.5-0.1,2.9-0.4,4.2-0.9c1.3-0.5,2.4-1.1,3.2-1.8c0.8-0.7,1.2-1.5,1.2-2.4v-0.8h1.9V140.2z M128.6,140.2c0,0.9,0.4,1.7,1.2,2.4
		c0.8,0.7,1.8,1.3,3.2,1.8c1.3,0.5,2.7,0.8,4.2,0.9l-0.7,1.6c-1.7-0.2-3.3-0.6-4.8-1.1c-1.5-0.6-2.6-1.4-3.5-2.3
		c-0.9-1-1.3-2-1.3-3.2v-0.8h1.9V140.2z M136.3,138.7v1.7h-18.1v-1.7H136.3z M159.2,143.7v1.8h-6.6v-1.8H159.2z M147,139.1
		c1.2,0,2.3,0.2,3.2,0.7c1,0.5,1.7,1.1,2.2,2c0.5,0.9,0.8,1.8,0.8,2.9c0,1.1-0.3,2.1-0.8,2.9c-0.5,0.9-1.3,1.5-2.2,2
		c-0.9,0.5-2,0.7-3.2,0.7c-1.2,0-2.3-0.2-3.3-0.7c-1-0.5-1.7-1.1-2.2-2c-0.5-0.9-0.8-1.8-0.8-2.9c0-1.1,0.3-2.1,0.8-2.9
		c0.5-0.9,1.3-1.5,2.2-2C144.7,139.3,145.8,139.1,147,139.1z M147,140.9c-0.8,0-1.6,0.2-2.2,0.5c-0.6,0.3-1.1,0.8-1.5,1.3
		c-0.4,0.6-0.5,1.2-0.5,2c0,0.7,0.2,1.4,0.5,2c0.4,0.6,0.9,1,1.5,1.4c0.7,0.3,1.4,0.5,2.2,0.5c0.8,0,1.5-0.2,2.2-0.5
		c0.6-0.3,1.1-0.8,1.5-1.4c0.4-0.6,0.5-1.2,0.5-2c0-0.7-0.2-1.4-0.5-2c-0.4-0.6-0.9-1-1.5-1.3C148.5,141,147.8,140.9,147,140.9z
		 M160.4,137.9v13h-2.1v-13H160.4z M146.9,152.2v3.1h11.4v-3.1h2.1v9.7h-15.7v-9.7H146.9z M146.9,160.1h11.4V157h-11.4V160.1z
		 M183.7,144.7v1.8h-6.2v-1.8H183.7z M184.6,137.9v17.8h-2.1v-17.8H184.6z M185.3,159.9v1.8H169v-1.8H185.3z M171.2,154.2v6.6H169
		v-6.6H171.2z M172.6,142.9c0,1.5-0.3,2.8-0.9,4.1c-0.6,1.3-1.4,2.4-2.4,3.4c-1,1-2.2,1.7-3.6,2.2l-1.1-1.8c1.2-0.4,2.3-1,3.2-1.8
		c0.9-0.8,1.7-1.7,2.2-2.8c0.5-1.1,0.8-2.2,0.8-3.3v-2h1.8V142.9z M172.9,142.9c0,1,0.3,2,0.8,3c0.5,1,1.2,1.9,2.1,2.6
		s1.9,1.4,3.1,1.8l-1.1,1.7c-1.3-0.5-2.5-1.2-3.5-2.1c-1-0.9-1.8-2-2.3-3.2c-0.6-1.2-0.8-2.5-0.8-3.8v-2h1.8V142.9z M178.4,139.9
		v1.8h-13.1v-1.8H178.4z M197,144.5c0,1.8-0.3,3.6-0.9,5.3c-0.6,1.7-1.5,3.2-2.5,4.5c-1.1,1.3-2.3,2.3-3.6,2.9l-1.4-1.8
		c1.2-0.6,2.3-1.4,3.3-2.5c1-1.1,1.8-2.4,2.4-3.9c0.6-1.5,0.9-3,0.9-4.5V140h1.8V144.5z M197.3,144.5c0,1.4,0.3,2.9,0.9,4.3
		c0.6,1.4,1.4,2.7,2.4,3.8c1,1.1,2.1,1.9,3.3,2.5l-1.3,1.7c-1.3-0.6-2.5-1.6-3.6-2.8c-1.1-1.3-1.9-2.7-2.6-4.3
		c-0.6-1.6-0.9-3.3-0.9-5.1V140h1.8V144.5z M208.7,137.9v24.3h-2.1v-24.3H208.7z"/>
	<path style="clip-path:url(#SVGID_00000141442785474221666640000002226418889963026564_);" d="M385.3,33l0-2.3l7.4-7.4
		c0.9-0.9,1.6-1.7,2-2.2c0.5-0.6,0.8-1.1,1.1-1.7c0.3-0.5,0.4-1.1,0.4-1.7c0-0.7-0.2-1.3-0.5-1.8c-0.3-0.5-0.8-0.9-1.4-1.2
		c-0.6-0.3-1.3-0.4-2-0.4c-0.8,0-1.5,0.2-2,0.5c-0.6,0.3-1,0.7-1.3,1.3c-0.3,0.6-0.5,1.2-0.5,2h-3.1c0-1.3,0.3-2.4,0.9-3.4
		c0.6-1,1.4-1.7,2.5-2.3c1.1-0.5,2.3-0.8,3.6-0.8c1.3,0,2.5,0.3,3.6,0.8c1,0.5,1.9,1.2,2.5,2.2c0.6,0.9,0.9,1.9,0.9,3.1
		c0,0.8-0.2,1.6-0.5,2.3c-0.3,0.7-0.8,1.6-1.6,2.5c-0.7,0.9-1.8,2-3.1,3.3l-4.3,4.4v0.2h9.8V33H385.3z M410.5,33.3
		c-1.6,0-3-0.4-4.2-1.3c-1.2-0.9-2.1-2.1-2.7-3.7c-0.6-1.6-0.9-3.6-0.9-5.9c0-2.3,0.3-4.2,0.9-5.9c0.6-1.6,1.5-2.9,2.7-3.7
		c1.2-0.9,2.6-1.3,4.2-1.3c1.6,0,3,0.4,4.2,1.3c1.2,0.9,2.1,2.1,2.7,3.7c0.6,1.6,0.9,3.6,0.9,5.9c0,2.3-0.3,4.3-0.9,5.9
		c-0.6,1.6-1.5,2.9-2.7,3.7C413.6,32.9,412.2,33.3,410.5,33.3z M410.5,30.6c1,0,1.8-0.3,2.5-0.9c0.7-0.6,1.2-1.6,1.6-2.8
		c0.4-1.2,0.5-2.7,0.5-4.5c0-1.7-0.2-3.2-0.5-4.4c-0.4-1.2-0.9-2.1-1.6-2.8c-0.7-0.6-1.5-0.9-2.5-0.9c-0.9,0-1.8,0.3-2.4,0.9
		c-0.7,0.6-1.2,1.6-1.6,2.8c-0.4,1.2-0.5,2.7-0.5,4.4c0,1.7,0.2,3.2,0.5,4.5c0.4,1.2,0.9,2.1,1.6,2.8
		C408.8,30.3,409.6,30.6,410.5,30.6z M421.7,33l0-2.3l7.4-7.4c0.9-0.9,1.6-1.7,2-2.2c0.5-0.6,0.8-1.1,1.1-1.7
		c0.3-0.5,0.4-1.1,0.4-1.7c0-0.7-0.2-1.3-0.5-1.8c-0.3-0.5-0.8-0.9-1.4-1.2c-0.6-0.3-1.3-0.4-2-0.4c-0.8,0-1.5,0.2-2,0.5
		c-0.6,0.3-1,0.7-1.3,1.3c-0.3,0.6-0.5,1.2-0.5,2h-3.1c0-1.3,0.3-2.4,0.9-3.4c0.6-1,1.4-1.7,2.5-2.3c1.1-0.5,2.3-0.8,3.6-0.8
		s2.5,0.3,3.6,0.8c1,0.5,1.9,1.2,2.5,2.2c0.6,0.9,0.9,1.9,0.9,3.1c0,0.8-0.2,1.6-0.5,2.3c-0.3,0.7-0.8,1.6-1.6,2.5
		c-0.7,0.9-1.8,2-3.1,3.3l-4.3,4.4v0.2h9.8V33H421.7z M447,33.3c-1.4,0-2.7-0.2-3.9-0.7c-1.1-0.5-2-1.2-2.7-2.1c-0.7-0.9-1-1.9-1-3
		h3.3c0,0.6,0.2,1.1,0.6,1.6c0.4,0.5,0.9,0.8,1.5,1.1c0.6,0.2,1.4,0.4,2.2,0.4c0.9,0,1.6-0.1,2.3-0.4c0.7-0.3,1.2-0.7,1.6-1.2
		c0.4-0.5,0.6-1.1,0.6-1.8c0-0.7-0.2-1.3-0.6-1.9c-0.4-0.5-0.9-1-1.6-1.3c-0.7-0.3-1.6-0.5-2.6-0.5h-1.8v-2.6h1.8
		c0.8,0,1.5-0.1,2.1-0.4c0.6-0.3,1.1-0.7,1.5-1.2c0.4-0.5,0.5-1.1,0.5-1.8c0-0.6-0.2-1.2-0.5-1.7c-0.3-0.5-0.7-0.9-1.3-1.1
		c-0.6-0.3-1.2-0.4-1.9-0.4c-0.7,0-1.4,0.1-2,0.4c-0.6,0.2-1.1,0.6-1.5,1.1c-0.4,0.5-0.6,1-0.6,1.6h-3.1c0-1.1,0.4-2.1,1-3
		c0.6-0.9,1.5-1.6,2.6-2.1c1.1-0.5,2.3-0.7,3.6-0.7c1.4,0,2.5,0.3,3.6,0.8c1,0.5,1.8,1.2,2.4,2.1c0.6,0.9,0.8,1.8,0.8,2.9
		c0,0.8-0.1,1.5-0.5,2.1c-0.3,0.6-0.7,1.2-1.3,1.6c-0.6,0.4-1.2,0.7-2,0.9v0.2c1,0.1,1.8,0.4,2.5,0.9c0.7,0.5,1.2,1,1.6,1.8
		c0.4,0.7,0.5,1.5,0.5,2.4c0,1.2-0.3,2.2-1,3.1c-0.7,0.9-1.6,1.7-2.7,2.2C449.8,33,448.5,33.3,447,33.3z M476.6,27.4
		c1.9,0,3.6,0.2,4.9,0.5c1.4,0.3,2.4,0.8,3.1,1.4c0.7,0.6,1.1,1.4,1.1,2.2c0,0.9-0.4,1.6-1.1,2.2c-0.7,0.6-1.7,1-3.1,1.3
		c-1.3,0.3-3,0.5-4.9,0.5c-1.9,0-3.6-0.2-5-0.5c-1.4-0.3-2.4-0.7-3.1-1.3c-0.7-0.6-1.1-1.3-1.1-2.2c0-0.9,0.4-1.6,1.1-2.2
		c0.7-0.6,1.7-1.1,3.1-1.4C473,27.5,474.6,27.4,476.6,27.4z M476.6,29.4c-1.4,0-2.5,0.1-3.4,0.2c-0.9,0.2-1.6,0.4-2.1,0.7
		c-0.5,0.3-0.7,0.7-0.7,1.1c0,0.4,0.2,0.8,0.7,1.1c0.5,0.3,1.2,0.5,2.1,0.7c0.9,0.1,2.1,0.2,3.4,0.2c1.4,0,2.5-0.1,3.4-0.2
		c0.9-0.1,1.6-0.4,2.1-0.7c0.5-0.3,0.7-0.6,0.7-1.1c0-0.4-0.2-0.8-0.7-1.1c-0.5-0.3-1.2-0.5-2.1-0.7
		C479.1,29.5,477.9,29.4,476.6,29.4z M487.2,11.3v2.2h-21.4v-2.2H487.2z M476.6,14.5c2.8,0,4.9,0.3,6.4,1c1.5,0.6,2.2,1.6,2.2,2.8
		c0,0.8-0.3,1.5-1,2.1c-0.7,0.6-1.6,1-2.9,1.3c-1.3,0.3-2.8,0.4-4.7,0.4c-1.8,0-3.4-0.1-4.7-0.4c-1.3-0.3-2.3-0.7-2.9-1.3
		c-0.7-0.6-1-1.2-1-2.1c0-1.2,0.7-2.2,2.2-2.8C471.7,14.8,473.8,14.5,476.6,14.5z M476.6,16.4c-1.2,0-2.3,0.1-3.1,0.2
		c-0.8,0.1-1.5,0.3-1.9,0.6c-0.4,0.3-0.6,0.6-0.6,1c0,0.4,0.2,0.7,0.6,1c0.4,0.3,1.1,0.5,1.9,0.6c0.8,0.1,1.9,0.2,3.1,0.2
		c1.2,0,2.3-0.1,3.1-0.2c0.8-0.1,1.5-0.3,1.9-0.6c0.4-0.3,0.7-0.6,0.7-1c0-0.4-0.2-0.7-0.7-1c-0.4-0.3-1.1-0.5-1.9-0.6
		C478.9,16.4,477.8,16.4,476.6,16.4z M478,8.9v3.9h-2.8V8.9H478z M488.6,23.7V26h-23.9v-2.2H488.6z M478,21.1v3.7h-2.8v-3.7H478z
		 M512.4,26.1v9.3h-2.8v-7.1h-15v-2.3H512.4z M512.4,9.2v15.5h-2.8V9.2H512.4z M498.1,10.8c1.3,0,2.5,0.3,3.6,0.8
		c1.1,0.5,1.9,1.3,2.5,2.2c0.6,0.9,0.9,2,0.9,3.2c0,1.2-0.3,2.3-0.9,3.3c-0.6,1-1.4,1.7-2.5,2.2c-1.1,0.5-2.2,0.8-3.6,0.8
		s-2.5-0.3-3.6-0.8c-1.1-0.5-1.9-1.3-2.5-2.2c-0.6-1-0.9-2-0.9-3.3c0-1.2,0.3-2.3,0.9-3.2c0.6-1,1.4-1.7,2.5-2.2
		C495.6,11,496.8,10.8,498.1,10.8z M498.1,13.2c-0.8,0-1.6,0.2-2.2,0.5c-0.6,0.3-1.2,0.8-1.5,1.4c-0.4,0.6-0.5,1.3-0.5,2
		c0,0.8,0.2,1.5,0.5,2.1c0.4,0.6,0.9,1.1,1.5,1.4c0.6,0.3,1.4,0.5,2.2,0.5c0.8,0,1.5-0.2,2.2-0.5c0.6-0.3,1.2-0.8,1.5-1.4
		c0.4-0.6,0.5-1.3,0.5-2.1c0-0.8-0.2-1.4-0.5-2c-0.4-0.6-0.9-1-1.5-1.4C499.6,13.3,498.9,13.2,498.1,13.2z M525.6,15.9
		c0,2.1-0.3,4.1-1,5.9c-0.6,1.9-1.5,3.5-2.7,5c-1.2,1.4-2.5,2.5-4,3.3l-1.7-2.3c1.4-0.6,2.6-1.5,3.6-2.8c1.1-1.2,1.9-2.6,2.5-4.2
		c0.6-1.6,0.9-3.2,0.9-4.9v-4.5h2.3V15.9z M526.1,15.9c0,1.6,0.3,3.1,0.9,4.7c0.6,1.5,1.4,2.9,2.5,4.1c1.1,1.2,2.3,2.1,3.6,2.7
		l-1.7,2.2c-1.5-0.7-2.8-1.7-3.9-3.1c-1.1-1.4-2-3-2.7-4.8c-0.6-1.8-1-3.7-1-5.7v-4.5h2.3V15.9z M538.2,9.2v26.3h-2.8V9.2H538.2z
		 M564.2,9.2v26.3h-2.8V9.2H564.2z M546.3,26.7c1.9,0,3.6,0,4.9-0.1c1.3,0,2.6-0.1,3.8-0.2c1.2-0.1,2.5-0.3,3.7-0.5l0.3,2.3
		c-1.9,0.3-3.7,0.6-5.6,0.7c-1.9,0.1-4.3,0.2-7.2,0.2h-2.2v-2.4H546.3z M556.7,11.7V14h-9.8v13.6h-2.8V11.7H556.7z M588.5,12.9
		c0,1.5-0.5,2.9-1.4,4.2c-0.9,1.3-2.2,2.3-3.8,3.2c-1.6,0.8-3.3,1.4-5.3,1.7l-1-2.2c1.6-0.2,3.1-0.7,4.5-1.4
		c1.4-0.7,2.5-1.5,3.3-2.5c0.8-1,1.2-2,1.2-3.1v-1h2.4V12.9z M589.2,12.9c0,1.1,0.4,2.1,1.2,3.1c0.8,1,1.9,1.8,3.3,2.5
		c1.4,0.7,2.9,1.1,4.6,1.4l-1,2.2c-1.9-0.3-3.7-0.9-5.3-1.7c-1.6-0.8-2.8-1.9-3.8-3.2c-0.9-1.3-1.4-2.7-1.4-4.2v-1h2.4V12.9z
		 M589,25.6v9.9h-2.7v-9.9H589z M599.6,24v2.3h-23.9V24H599.6z M597.4,10.8V13h-19.5v-2.2H597.4z M622.2,9.2v19.1h-2.8V9.2H622.2z
		 M626,17v2.3h-4.6V17H626z M615.1,11.2c0,2.3-0.5,4.3-1.5,6.2c-1,1.9-2.4,3.5-4.2,4.8c-1.8,1.3-4.1,2.4-6.6,3.2l-1.2-2.2
		c2.2-0.7,4.1-1.5,5.7-2.6c1.6-1.1,2.8-2.3,3.6-3.7c0.8-1.4,1.3-2.9,1.3-4.4v-1.3H615.1z M613.6,11.2v2.3h-10.9v-2.3H613.6z
		 M623.3,32.7v2.3h-17.8v-2.3H623.3z M608.4,26.4v7.3h-2.8v-7.3H608.4z"/>
	
		<line style="clip-path:url(#SVGID_00000141442785474221666640000002226418889963026564_);fill:none;stroke:#D4DEE5;stroke-width:1.5;stroke-dasharray:6,6;" x1="847.8" y1="173" x2="847.8" y2="214"/>
	
		<path style="clip-path:url(#SVGID_00000141442785474221666640000002226418889963026564_);fill:none;stroke:#D4DEE5;stroke-width:1.5;stroke-dasharray:6,6;" d="
		M942,256v-42H754v42"/>
	
		<path style="clip-path:url(#SVGID_00000141442785474221666640000002226418889963026564_);fill:none;stroke:#D4DEE5;stroke-width:1.5;" d="
		M848,129V87H163v42"/>
</g>
</svg>
