<svg width="1011" height="350" viewBox="0 0 1011 350" fill="none" xmlns="http://www.w3.org/2000/svg">
<g clip-path="url(#clip0_350_310)">
<line x1="1.31134e-07" y1="237.25" x2="1011" y2="237.25" stroke="white" stroke-width="1.5"/>
<path d="M54.3455 110.028V127H51.7598V112.613H51.6604L47.6079 115.257V112.796L51.8261 110.028H54.3455ZM58.6641 127L58.6558 125.127L64.5398 119.185C65.2469 118.456 65.7884 117.862 66.1641 117.403C66.5453 116.945 66.8353 116.5 67.0342 116.069C67.2386 115.633 67.3409 115.174 67.3409 114.693C67.3409 114.146 67.2027 113.666 66.9265 113.251C66.6503 112.837 66.2746 112.519 65.7994 112.298C65.3243 112.072 64.7884 111.959 64.1917 111.959C63.5729 111.959 63.0315 112.083 62.5674 112.331C62.1033 112.575 61.7442 112.925 61.49 113.384C61.2359 113.837 61.1088 114.362 61.1088 114.959H58.6558C58.6558 113.936 58.8933 113.036 59.3685 112.257C59.8491 111.472 60.5121 110.867 61.3574 110.442C62.2083 110.011 63.1696 109.796 64.2414 109.796C65.3132 109.796 66.269 110.006 67.1088 110.425C67.9486 110.84 68.6033 111.414 69.0729 112.149C69.548 112.884 69.7884 113.707 69.7939 114.619C69.7884 115.271 69.6641 115.895 69.421 116.492C69.1779 117.088 68.7635 117.751 68.1779 118.481C67.5978 119.21 66.7718 120.102 65.7 121.157L62.2525 124.663V124.787H70.0674V127H58.6641ZM79.443 109.232L73.9734 129.552H71.7441L77.2137 109.232H79.443ZM80.8932 123.685V121.605L88.3849 110.028H90.0175V113.094H88.9567L83.5948 121.373V121.506H93.8876V123.685H80.8932ZM89.1225 127V123.055L89.139 122.102V110.028H91.5838V127H89.1225ZM109.379 116.616V120.37H107.183V116.616H109.379ZM119.1 108.006V120.32H116.863V108.006H119.1ZM101.573 115.754C104.175 115.76 106.606 115.729 108.865 115.663C111.131 115.597 113.277 115.459 115.305 115.249L115.437 116.674C113.349 116.961 111.178 117.152 108.923 117.246C106.669 117.334 104.305 117.37 101.829 117.354L101.573 115.754ZM119.1 121.025V125.558H106.992V127.721H104.805V124.066H116.887V122.583H104.722V121.025H119.1ZM119.73 127.174V128.79H104.805V127.174H119.73ZM117.584 117.909V119.309H112.769V117.909H117.584ZM108.401 108.37C109.434 108.37 110.346 108.5 111.136 108.76C111.926 109.019 112.539 109.387 112.976 109.862C113.412 110.337 113.633 110.892 113.639 111.528C113.633 112.174 113.412 112.735 112.976 113.21C112.539 113.68 111.926 114.041 111.136 114.296C110.352 114.544 109.44 114.669 108.401 114.669C107.341 114.669 106.415 114.544 105.625 114.296C104.835 114.041 104.222 113.68 103.785 113.21C103.354 112.735 103.139 112.174 103.139 111.528C103.139 110.892 103.354 110.337 103.785 109.862C104.222 109.387 104.835 109.019 105.625 108.76C106.421 108.5 107.346 108.37 108.401 108.37ZM108.401 109.87C107.755 109.87 107.194 109.939 106.719 110.077C106.244 110.21 105.876 110.403 105.617 110.657C105.363 110.906 105.238 111.196 105.244 111.528C105.238 111.859 105.363 112.149 105.617 112.398C105.876 112.646 106.244 112.84 106.719 112.978C107.194 113.11 107.755 113.177 108.401 113.177C109.031 113.177 109.584 113.11 110.059 112.978C110.534 112.84 110.899 112.646 111.153 112.398C111.412 112.149 111.542 111.859 111.542 111.528C111.542 111.196 111.412 110.906 111.153 110.657C110.899 110.403 110.534 110.21 110.059 110.077C109.584 109.939 109.031 109.87 108.401 109.87Z" fill="white"/>
<path d="M223.185 110.028V127H220.6V112.613H220.5L216.448 115.257V112.796L220.666 110.028H223.185ZM227.504 127L227.496 125.127L233.38 119.185C234.087 118.456 234.628 117.862 235.004 117.403C235.385 116.945 235.675 116.5 235.874 116.069C236.078 115.633 236.181 115.174 236.181 114.693C236.181 114.146 236.043 113.666 235.766 113.251C235.49 112.837 235.114 112.519 234.639 112.298C234.164 112.072 233.628 111.959 233.032 111.959C232.413 111.959 231.871 112.083 231.407 112.331C230.943 112.575 230.584 112.925 230.33 113.384C230.076 113.837 229.949 114.362 229.949 114.959H227.496C227.496 113.936 227.733 113.036 228.208 112.257C228.689 111.472 229.352 110.867 230.197 110.442C231.048 110.011 232.009 109.796 233.081 109.796C234.153 109.796 235.109 110.006 235.949 110.425C236.788 110.84 237.443 111.414 237.913 112.149C238.388 112.884 238.628 113.707 238.634 114.619C238.628 115.271 238.504 115.895 238.261 116.492C238.018 117.088 237.603 117.751 237.018 118.481C236.438 119.21 235.612 120.102 234.54 121.157L231.092 124.663V124.787H238.907V127H227.504ZM248.283 109.232L242.813 129.552H240.584L246.054 109.232H248.283ZM255.874 127.232C254.813 127.232 253.852 127.033 252.99 126.635C252.134 126.232 251.451 125.677 250.943 124.97C250.435 124.262 250.164 123.461 250.131 122.566H252.642C252.681 123.041 252.849 123.472 253.147 123.859C253.446 124.24 253.832 124.539 254.308 124.754C254.788 124.964 255.31 125.069 255.874 125.069C256.548 125.069 257.153 124.917 257.689 124.613C258.23 124.309 258.65 123.892 258.948 123.362C259.252 122.831 259.404 122.232 259.404 121.564C259.404 120.89 259.247 120.282 258.932 119.74C258.623 119.193 258.189 118.765 257.631 118.456C257.078 118.146 256.454 117.989 255.758 117.983C255.056 117.978 254.451 118.097 253.943 118.34C253.44 118.583 253.045 118.961 252.758 119.475H250.33L251.44 110.028H261.053V112.24H253.578L252.998 116.981H253.164C253.402 116.76 253.686 116.566 254.018 116.401C254.355 116.229 254.722 116.097 255.12 116.003C255.518 115.903 255.929 115.854 256.355 115.854C257.41 115.854 258.36 116.097 259.205 116.583C260.051 117.064 260.711 117.735 261.186 118.597C261.667 119.459 261.907 120.428 261.907 121.506C261.907 122.599 261.65 123.583 261.136 124.456C260.623 125.323 259.907 126.003 258.99 126.494C258.073 126.986 257.034 127.232 255.874 127.232ZM277.34 120.47V123.892H275.111V120.47H277.34ZM286.249 107.989V128.989H284.012V107.989H286.249ZM289.398 116.79V118.655H285.528V116.79H289.398ZM269.526 123.279C271.332 123.279 272.898 123.268 274.224 123.246C275.55 123.218 276.976 123.157 278.501 123.064C280.031 122.97 281.468 122.829 282.81 122.641L282.968 124.29C281.559 124.539 280.095 124.727 278.575 124.854C277.056 124.975 275.619 125.052 274.266 125.086C272.918 125.119 271.451 125.135 269.865 125.135L269.526 123.279ZM282.512 110.483V112.257H269.915V110.483H282.512ZM276.238 113.343C277.222 113.343 278.095 113.508 278.857 113.84C279.625 114.166 280.222 114.624 280.647 115.215C281.072 115.807 281.288 116.492 281.293 117.271C281.288 118.039 281.07 118.718 280.639 119.309C280.213 119.895 279.619 120.351 278.857 120.677C278.095 120.997 277.222 121.157 276.238 121.157C275.244 121.157 274.365 120.997 273.603 120.677C272.846 120.351 272.255 119.895 271.829 119.309C271.41 118.718 271.202 118.039 271.208 117.271C271.202 116.492 271.41 115.807 271.829 115.215C272.255 114.624 272.846 114.166 273.603 113.84C274.365 113.508 275.244 113.343 276.238 113.343ZM276.238 115.066C275.653 115.066 275.139 115.157 274.697 115.34C274.255 115.522 273.912 115.779 273.669 116.11C273.426 116.442 273.305 116.829 273.305 117.271C273.305 117.707 273.426 118.088 273.669 118.414C273.912 118.74 274.255 118.992 274.697 119.169C275.139 119.345 275.653 119.431 276.238 119.425C276.818 119.431 277.327 119.345 277.763 119.169C278.205 118.992 278.548 118.74 278.791 118.414C279.034 118.088 279.155 117.707 279.155 117.271C279.155 116.829 279.034 116.442 278.791 116.11C278.548 115.779 278.205 115.522 277.763 115.34C277.327 115.157 276.818 115.066 276.238 115.066ZM277.34 108.047V111.702H275.111V108.047H277.34Z" fill="white"/>
<path d="M391.986 110.028V127H389.4V112.613H389.301L385.249 115.257V112.796L389.467 110.028H391.986ZM396.305 127L396.296 125.127L402.18 119.185C402.888 118.456 403.429 117.862 403.805 117.403C404.186 116.945 404.476 116.5 404.675 116.069C404.879 115.633 404.981 115.174 404.981 114.693C404.981 114.146 404.843 113.666 404.567 113.251C404.291 112.837 403.915 112.519 403.44 112.298C402.965 112.072 402.429 111.959 401.832 111.959C401.214 111.959 400.672 112.083 400.208 112.331C399.744 112.575 399.385 112.925 399.131 113.384C398.877 113.837 398.749 114.362 398.749 114.959H396.296C396.296 113.936 396.534 113.036 397.009 112.257C397.49 111.472 398.153 110.867 398.998 110.442C399.849 110.011 400.81 109.796 401.882 109.796C402.954 109.796 403.91 110.006 404.749 110.425C405.589 110.84 406.244 111.414 406.714 112.149C407.189 112.884 407.429 113.707 407.435 114.619C407.429 115.271 407.305 115.895 407.062 116.492C406.819 117.088 406.404 117.751 405.819 118.481C405.238 119.21 404.412 120.102 403.341 121.157L399.893 124.663V124.787H407.708V127H396.305ZM417.084 109.232L411.614 129.552H409.385L414.854 109.232H417.084ZM425.031 127.232C423.882 127.221 422.827 126.959 421.865 126.445C420.909 125.925 420.13 125.061 419.528 123.851C418.926 122.641 418.625 121.05 418.625 119.077C418.625 117.127 418.893 115.459 419.429 114.072C419.965 112.68 420.73 111.619 421.724 110.89C422.719 110.16 423.893 109.796 425.247 109.796C426.269 109.796 427.188 109.994 428.006 110.392C428.824 110.785 429.484 111.331 429.987 112.033C430.495 112.735 430.816 113.536 430.948 114.436H428.404C428.282 113.967 428.081 113.555 427.799 113.202C427.523 112.843 427.166 112.561 426.73 112.356C426.299 112.152 425.805 112.05 425.247 112.05C424.379 112.05 423.633 112.296 423.009 112.787C422.385 113.273 421.909 113.975 421.584 114.892C421.263 115.804 421.103 116.898 421.103 118.174H421.293C421.597 117.693 421.97 117.282 422.412 116.939C422.86 116.591 423.357 116.329 423.904 116.152C424.456 115.97 425.039 115.878 425.653 115.878C426.653 115.878 427.57 116.116 428.404 116.591C429.244 117.066 429.904 117.729 430.385 118.58C430.871 119.431 431.114 120.387 431.114 121.448C431.114 122.541 430.86 123.53 430.351 124.414C429.843 125.298 429.128 125.992 428.205 126.494C427.282 126.997 426.224 127.243 425.031 127.232ZM425.023 125.069C425.691 125.069 426.299 124.912 426.846 124.597C427.393 124.276 427.824 123.843 428.139 123.296C428.454 122.749 428.611 122.146 428.611 121.489C428.611 120.848 428.456 120.26 428.147 119.724C427.843 119.182 427.421 118.754 426.879 118.439C426.343 118.124 425.741 117.967 425.072 117.967C424.404 117.967 423.791 118.133 423.233 118.464C422.675 118.79 422.233 119.227 421.907 119.773C421.586 120.315 421.423 120.898 421.418 121.522C421.418 122.146 421.572 122.732 421.882 123.279C422.197 123.82 422.628 124.254 423.175 124.58C423.727 124.906 424.343 125.069 425.023 125.069ZM449.357 109.837C449.357 111.135 448.973 112.329 448.205 113.417C447.443 114.506 446.407 115.417 445.098 116.152C443.794 116.881 442.357 117.37 440.788 117.619L439.893 115.804C441.258 115.622 442.515 115.238 443.664 114.652C444.813 114.061 445.725 113.343 446.399 112.497C447.073 111.652 447.41 110.765 447.41 109.837V108.693H449.357V109.837ZM449.73 109.837C449.73 110.754 450.07 111.638 450.75 112.489C451.429 113.334 452.344 114.052 453.493 114.644C454.647 115.235 455.907 115.622 457.272 115.804L456.385 117.619C454.81 117.37 453.366 116.878 452.051 116.144C450.741 115.409 449.703 114.497 448.935 113.409C448.172 112.315 447.794 111.124 447.799 109.837V108.693H449.73V109.837ZM449.606 121.075V128.989H447.418V121.075H449.606ZM458.134 119.682V121.522H438.99V119.682H458.134Z" fill="white"/>
<path d="M370.4 327.177V332.959H368.253V327.177H370.4ZM369.317 316.503C370.554 316.509 371.663 316.754 372.643 317.238C373.623 317.715 374.39 318.385 374.944 319.249C375.505 320.112 375.788 321.099 375.795 322.207C375.788 323.316 375.505 324.302 374.944 325.166C374.39 326.029 373.619 326.7 372.633 327.177C371.653 327.654 370.548 327.892 369.317 327.892C368.06 327.892 366.938 327.654 365.952 327.177C364.972 326.7 364.205 326.033 363.651 325.175C363.103 324.312 362.833 323.322 362.839 322.207C362.833 321.092 363.103 320.106 363.651 319.249C364.205 318.385 364.972 317.715 365.952 317.238C366.938 316.754 368.06 316.509 369.317 316.503ZM369.317 318.34C368.472 318.346 367.715 318.514 367.045 318.843C366.381 319.165 365.859 319.619 365.478 320.206C365.105 320.792 364.921 321.459 364.927 322.207C364.921 322.955 365.105 323.622 365.478 324.209C365.859 324.795 366.381 325.253 367.045 325.581C367.715 325.904 368.472 326.062 369.317 326.055C370.148 326.062 370.893 325.904 371.55 325.581C372.214 325.253 372.733 324.795 373.107 324.209C373.487 323.622 373.681 322.955 373.687 322.207C373.681 321.459 373.487 320.792 373.107 320.206C372.733 319.619 372.214 319.165 371.55 318.843C370.893 318.514 370.148 318.346 369.317 318.34ZM380.764 314.917V339.224H378.637V314.917H380.764ZM384.728 324.953V326.79H380.184V324.953H384.728ZM361.679 332.127H363.013C364.74 332.114 366.365 332.088 367.886 332.05C369.407 332.011 370.967 331.94 372.565 331.837C374.164 331.734 375.666 331.592 377.071 331.412L377.226 333.036C375.621 333.307 373.935 333.51 372.169 333.645C370.409 333.78 368.714 333.864 367.083 333.896C365.459 333.929 363.78 333.938 362.046 333.925L361.679 332.127ZM408.406 328.84V330.657H386.149V328.84H408.406ZM398.273 329.923V339.224H396.165V329.923H398.273ZM397.229 315.884C398.924 315.89 400.416 316.113 401.705 316.551C403.001 316.983 404.006 317.602 404.722 318.407C405.437 319.213 405.795 320.157 405.795 321.24C405.795 322.31 405.437 323.245 404.722 324.044C404.006 324.843 403.001 325.459 401.705 325.891C400.416 326.323 398.924 326.539 397.229 326.539C395.534 326.539 394.038 326.323 392.743 325.891C391.453 325.459 390.454 324.843 389.745 324.044C389.036 323.245 388.682 322.31 388.682 321.24C388.682 320.157 389.036 319.213 389.745 318.407C390.454 317.602 391.453 316.983 392.743 316.551C394.038 316.113 395.534 315.89 397.229 315.884ZM397.229 317.644C395.972 317.644 394.863 317.792 393.903 318.088C392.949 318.385 392.204 318.804 391.669 319.345C391.141 319.887 390.88 320.518 390.886 321.24C390.88 321.956 391.141 322.584 391.669 323.126C392.204 323.661 392.949 324.073 393.903 324.363C394.863 324.653 395.972 324.798 397.229 324.798C398.486 324.798 399.594 324.653 400.555 324.363C401.522 324.073 402.269 323.661 402.798 323.126C403.326 322.584 403.591 321.956 403.591 321.24C403.591 320.518 403.326 319.887 402.798 319.345C402.269 318.804 401.522 318.385 400.555 318.088C399.594 317.792 398.486 317.644 397.229 317.644ZM429.047 318.436V320.196H421.583V318.436H429.047ZM429.047 324.064V325.843H421.583V324.064H429.047ZM417.077 316.387C418.263 316.38 419.333 316.622 420.287 317.112C421.241 317.595 421.989 318.279 422.53 319.162C423.078 320.038 423.355 321.034 423.362 322.149C423.355 323.258 423.078 324.25 422.53 325.127C421.989 326.004 421.241 326.687 420.287 327.177C419.333 327.66 418.263 327.899 417.077 327.892C415.878 327.899 414.799 327.66 413.838 327.177C412.878 326.687 412.124 326.004 411.576 325.127C411.034 324.25 410.767 323.258 410.773 322.149C410.767 321.034 411.034 320.038 411.576 319.162C412.124 318.279 412.878 317.595 413.838 317.112C414.799 316.622 415.878 316.38 417.077 316.387ZM417.077 318.243C416.265 318.237 415.533 318.401 414.882 318.736C414.231 319.065 413.725 319.529 413.364 320.128C413.004 320.721 412.823 321.395 412.823 322.149C412.823 322.897 413.007 323.567 413.374 324.16C413.742 324.753 414.248 325.221 414.892 325.562C415.537 325.897 416.265 326.062 417.077 326.055C417.87 326.062 418.585 325.897 419.224 325.562C419.868 325.221 420.374 324.753 420.742 324.16C421.109 323.561 421.293 322.89 421.293 322.149C421.293 321.395 421.109 320.721 420.742 320.128C420.374 319.529 419.871 319.065 419.233 318.736C418.595 318.401 417.876 318.237 417.077 318.243ZM430.536 314.917V329.323H428.389V314.917H430.536ZM422.472 329.884C424.142 329.884 425.585 330.068 426.804 330.435C428.028 330.802 428.969 331.334 429.627 332.03C430.284 332.727 430.613 333.558 430.613 334.525C430.613 335.492 430.284 336.323 429.627 337.019C428.969 337.715 428.028 338.247 426.804 338.615C425.585 338.982 424.142 339.166 422.472 339.166C420.796 339.166 419.346 338.982 418.121 338.615C416.897 338.247 415.956 337.715 415.298 337.019C414.647 336.323 414.325 335.492 414.331 334.525C414.325 333.558 414.647 332.727 415.298 332.03C415.956 331.334 416.897 330.802 418.121 330.435C419.346 330.068 420.796 329.884 422.472 329.884ZM422.472 331.566C421.235 331.566 420.161 331.686 419.253 331.924C418.344 332.163 417.644 332.504 417.155 332.949C416.671 333.387 416.433 333.913 416.439 334.525C416.433 335.124 416.671 335.646 417.155 336.091C417.644 336.529 418.344 336.865 419.253 337.097C420.161 337.329 421.235 337.445 422.472 337.445C423.71 337.445 424.783 337.329 425.692 337.097C426.601 336.865 427.3 336.529 427.79 336.091C428.28 335.646 428.525 335.124 428.525 334.525C428.525 333.913 428.28 333.387 427.79 332.949C427.3 332.504 426.601 332.163 425.692 331.924C424.783 331.686 423.71 331.566 422.472 331.566ZM442.379 318.688C442.372 320.228 442.089 321.672 441.528 323.019C440.973 324.36 440.187 325.523 439.169 326.51C438.157 327.496 436.984 328.247 435.649 328.762L434.489 327.041C435.701 326.59 436.768 325.946 437.689 325.108C438.611 324.27 439.323 323.3 439.826 322.198C440.335 321.095 440.593 319.925 440.6 318.688V316.174H442.379V318.688ZM442.707 318.843C442.707 319.925 442.965 320.97 443.481 321.975C443.996 322.981 444.709 323.867 445.618 324.634C446.533 325.401 447.574 325.984 448.74 326.384L447.58 328.086C446.285 327.609 445.134 326.913 444.129 325.997C443.13 325.082 442.353 324.009 441.799 322.778C441.244 321.54 440.967 320.228 440.967 318.843V316.174H442.707V318.843ZM453.594 314.917V329.71H451.448V314.917H453.594ZM457.249 321.26V323.058H452.995V321.26H457.249ZM445.801 330.329C447.458 330.329 448.886 330.503 450.084 330.851C451.29 331.199 452.211 331.705 452.85 332.369C453.488 333.026 453.807 333.816 453.807 334.738C453.807 335.672 453.488 336.468 452.85 337.126C452.211 337.79 451.29 338.296 450.084 338.644C448.886 338.992 447.458 339.166 445.801 339.166C444.132 339.166 442.691 338.992 441.479 338.644C440.274 338.296 439.349 337.79 438.705 337.126C438.06 336.468 437.738 335.672 437.738 334.738C437.738 333.816 438.06 333.026 438.705 332.369C439.349 331.705 440.277 331.199 441.489 330.851C442.701 330.503 444.138 330.329 445.801 330.329ZM445.801 332.05C444.583 332.05 443.526 332.159 442.63 332.378C441.74 332.598 441.057 332.91 440.58 333.316C440.11 333.716 439.878 334.19 439.884 334.738C439.878 335.305 440.11 335.791 440.58 336.198C441.057 336.604 441.74 336.913 442.63 337.126C443.519 337.345 444.577 337.458 445.801 337.464C447.026 337.458 448.083 337.345 448.973 337.126C449.862 336.913 450.542 336.604 451.013 336.198C451.483 335.791 451.718 335.305 451.718 334.738C451.718 334.19 451.48 333.716 451.003 333.316C450.526 332.91 449.843 332.598 448.953 332.378C448.07 332.159 447.019 332.05 445.801 332.05ZM479.553 314.917V339.224H477.503V314.917H479.553ZM473.268 323.677V325.436H468.512V323.677H473.268ZM474.641 315.497V337.948H472.611V315.497H474.641ZM465.534 321.84C465.527 323.593 465.292 325.288 464.828 326.925C464.37 328.563 463.716 330.029 462.865 331.325C462.014 332.614 461.009 333.622 459.849 334.351L458.495 332.746C459.597 332.082 460.551 331.18 461.357 330.039C462.169 328.891 462.788 327.609 463.213 326.191C463.639 324.773 463.851 323.322 463.851 321.84V318.669H465.534V321.84ZM465.92 321.84C465.92 323.258 466.127 324.637 466.539 325.978C466.952 327.319 467.551 328.53 468.338 329.613C469.13 330.696 470.071 331.553 471.161 332.185L469.865 333.771C468.705 333.075 467.703 332.114 466.858 330.89C466.014 329.665 465.372 328.273 464.934 326.713C464.502 325.153 464.29 323.529 464.296 321.84V318.669H465.92V321.84ZM470.368 317.779V319.558H459.152V317.779H470.368Z" fill="white"/>
<path d="M561.248 110.028V127H558.662V112.613H558.563L554.51 115.257V112.796L558.728 110.028H561.248ZM565.566 127L565.558 125.127L571.442 119.185C572.149 118.456 572.691 117.862 573.066 117.403C573.448 116.945 573.738 116.5 573.937 116.069C574.141 115.633 574.243 115.174 574.243 114.693C574.243 114.146 574.105 113.666 573.829 113.251C573.553 112.837 573.177 112.519 572.702 112.298C572.227 112.072 571.691 111.959 571.094 111.959C570.475 111.959 569.934 112.083 569.47 112.331C569.006 112.575 568.647 112.925 568.392 113.384C568.138 113.837 568.011 114.362 568.011 114.959H565.558C565.558 113.936 565.796 113.036 566.271 112.257C566.751 111.472 567.414 110.867 568.26 110.442C569.111 110.011 570.072 109.796 571.144 109.796C572.216 109.796 573.171 110.006 574.011 110.425C574.851 110.84 575.506 111.414 575.975 112.149C576.45 112.884 576.691 113.707 576.696 114.619C576.691 115.271 576.566 115.895 576.323 116.492C576.08 117.088 575.666 117.751 575.08 118.481C574.5 119.21 573.674 120.102 572.602 121.157L569.155 124.663V124.787H576.97V127H565.566ZM586.345 109.232L580.876 129.552H578.646L584.116 109.232H586.345ZM588.74 127L596.315 112.365V112.24H587.563V110.028H598.992V112.323L591.434 127H588.74ZM623.427 108.859V116.061H609.165V108.859H623.427ZM611.344 110.616V114.279H621.231V110.616H611.344ZM625.872 118.506V120.304H606.728V118.506H625.872ZM617.394 115.63V119.152H615.181V115.63H617.394ZM623.518 122.293V128.989H621.281V124.058H608.85V122.293H623.518Z" fill="white"/>
<path d="M729.045 110.028V127H726.459V112.613H726.36L722.307 115.257V112.796L726.525 110.028H729.045ZM733.363 127L733.355 125.127L739.239 119.185C739.946 118.456 740.488 117.862 740.863 117.403C741.244 116.945 741.535 116.5 741.733 116.069C741.938 115.633 742.04 115.174 742.04 114.693C742.04 114.146 741.902 113.666 741.626 113.251C741.349 112.837 740.974 112.519 740.499 112.298C740.024 112.072 739.488 111.959 738.891 111.959C738.272 111.959 737.731 112.083 737.267 112.331C736.803 112.575 736.443 112.925 736.189 113.384C735.935 113.837 735.808 114.362 735.808 114.959H733.355C733.355 113.936 733.593 113.036 734.068 112.257C734.548 111.472 735.211 110.867 736.057 110.442C736.907 110.011 737.869 109.796 738.941 109.796C740.012 109.796 740.968 110.006 741.808 110.425C742.648 110.84 743.303 111.414 743.772 112.149C744.247 112.884 744.488 113.707 744.493 114.619C744.488 115.271 744.363 115.895 744.12 116.492C743.877 117.088 743.463 117.751 742.877 118.481C742.297 119.21 741.471 120.102 740.399 121.157L736.952 124.663V124.787H744.767V127H733.363ZM754.142 109.232L748.673 129.552H746.443L751.913 109.232H754.142ZM761.882 127.232C760.673 127.232 759.592 127.028 758.642 126.619C757.692 126.21 756.952 125.646 756.421 124.928C755.896 124.204 755.637 123.387 755.642 122.475C755.637 121.768 755.789 121.108 756.098 120.494C756.407 119.876 756.833 119.365 757.374 118.961C757.921 118.558 758.523 118.304 759.181 118.199V118.108C758.612 117.981 758.106 117.738 757.664 117.378C757.228 117.014 756.888 116.566 756.645 116.036C756.402 115.506 756.28 114.934 756.28 114.32C756.28 113.464 756.521 112.691 757.001 112C757.487 111.309 758.156 110.771 759.007 110.384C759.863 109.992 760.822 109.796 761.882 109.796C762.938 109.796 763.888 109.992 764.733 110.384C765.579 110.771 766.244 111.309 766.731 112C767.217 112.691 767.46 113.464 767.46 114.32C767.46 114.934 767.335 115.506 767.087 116.036C766.844 116.566 766.504 117.014 766.068 117.378C765.631 117.738 765.131 117.981 764.568 118.108V118.199C765.219 118.304 765.816 118.558 766.358 118.961C766.899 119.365 767.327 119.876 767.642 120.494C767.957 121.108 768.117 121.768 768.123 122.475C768.117 123.387 767.847 124.204 767.311 124.928C766.775 125.646 766.034 126.21 765.09 126.619C764.145 127.028 763.076 127.232 761.882 127.232ZM761.882 125.127C762.606 125.127 763.239 125.011 763.78 124.779C764.327 124.541 764.75 124.21 765.048 123.785C765.347 123.354 765.496 122.859 765.496 122.301C765.496 121.727 765.338 121.213 765.023 120.76C764.714 120.301 764.283 119.942 763.731 119.682C763.184 119.417 762.568 119.285 761.882 119.285C761.192 119.285 760.568 119.417 760.01 119.682C759.457 119.942 759.026 120.301 758.717 120.76C758.407 121.218 758.258 121.732 758.269 122.301C758.258 122.859 758.399 123.354 758.692 123.785C758.985 124.21 759.405 124.541 759.952 124.779C760.504 125.011 761.148 125.127 761.882 125.127ZM761.882 117.238C762.468 117.238 762.993 117.124 763.457 116.898C763.927 116.666 764.291 116.348 764.551 115.945C764.816 115.536 764.949 115.069 764.949 114.544C764.949 114.025 764.819 113.566 764.559 113.169C764.305 112.765 763.943 112.453 763.474 112.232C763.01 112.011 762.479 111.901 761.882 111.901C761.269 111.901 760.731 112.011 760.266 112.232C759.802 112.453 759.44 112.765 759.181 113.169C758.927 113.566 758.8 114.025 758.8 114.544C758.8 115.069 758.929 115.536 759.189 115.945C759.454 116.348 759.819 116.666 760.283 116.898C760.753 117.124 761.286 117.238 761.882 117.238ZM791.909 109.058V110.865H778.335V109.058H791.909ZM795.15 116.724V118.539H775.931V116.724H795.15ZM792.713 110.649V110.715C792.713 111.5 792.702 112.196 792.68 112.804C792.658 113.406 792.597 114.094 792.498 114.867C792.398 115.635 792.241 116.456 792.025 117.329L789.813 117.229C790.023 116.362 790.174 115.55 790.268 114.793C790.368 114.03 790.431 113.354 790.459 112.762C790.487 112.171 790.5 111.489 790.5 110.715V110.649V109.058H792.713V110.649ZM792.738 121.207V128.724H778.268V121.207H792.738ZM780.448 122.956V126.917H790.534V122.956H780.448Z" fill="white"/>
<path d="M682.336 332.74C684.115 332.74 685.627 332.882 686.871 333.166C688.115 333.449 689.062 333.872 689.713 334.432C690.371 334.993 690.703 335.68 690.709 336.492C690.703 337.291 690.371 337.965 689.713 338.512C689.062 339.06 688.115 339.473 686.871 339.75C685.627 340.027 684.115 340.166 682.336 340.166C680.544 340.166 679.023 340.027 677.772 339.75C676.522 339.473 675.571 339.06 674.92 338.512C674.269 337.965 673.944 337.291 673.944 336.492C673.944 335.68 674.269 334.993 674.92 334.432C675.571 333.872 676.522 333.449 677.772 333.166C679.023 332.882 680.544 332.74 682.336 332.74ZM682.336 334.365C681.021 334.365 679.903 334.445 678.981 334.606C678.059 334.767 677.357 335.009 676.873 335.331C676.39 335.647 676.148 336.034 676.148 336.492C676.148 336.936 676.39 337.314 676.873 337.623C677.357 337.926 678.059 338.155 678.981 338.309C679.909 338.471 681.028 338.548 682.336 338.541C683.644 338.548 684.76 338.471 685.681 338.309C686.61 338.155 687.315 337.926 687.799 337.623C688.282 337.314 688.524 336.936 688.524 336.492C688.524 336.034 688.282 335.647 687.799 335.331C687.315 335.009 686.613 334.767 685.691 334.606C684.769 334.445 683.651 334.365 682.336 334.365ZM692.14 317.967V319.669H672.435V317.967H692.14ZM682.336 320.674C684.882 320.674 686.832 320.971 688.185 321.564C689.546 322.15 690.226 323.014 690.226 324.155C690.226 324.902 689.919 325.534 689.307 326.05C688.695 326.565 687.799 326.955 686.619 327.22C685.446 327.484 684.018 327.616 682.336 327.616C680.66 327.616 679.232 327.484 678.053 327.22C676.873 326.955 675.977 326.565 675.365 326.05C674.753 325.534 674.447 324.902 674.447 324.155C674.447 323.014 675.127 322.15 676.487 321.564C677.847 320.971 679.796 320.674 682.336 320.674ZM682.336 322.182C681.15 322.182 680.138 322.26 679.3 322.414C678.462 322.569 677.824 322.791 677.386 323.081C676.954 323.372 676.741 323.729 676.748 324.155C676.741 324.561 676.954 324.909 677.386 325.199C677.824 325.483 678.462 325.698 679.3 325.847C680.144 325.995 681.156 326.069 682.336 326.069C683.522 326.069 684.534 325.995 685.372 325.847C686.21 325.698 686.848 325.483 687.286 325.199C687.725 324.909 687.944 324.561 687.944 324.155C687.944 323.729 687.725 323.372 687.286 323.081C686.848 322.791 686.21 322.569 685.372 322.414C684.54 322.26 683.528 322.182 682.336 322.182ZM683.419 315.569V319.05H681.292V315.569H683.419ZM693.435 329.492V331.232H671.275V329.492H693.435ZM683.419 326.978V330.381H681.292V326.978H683.419ZM715.546 331.696V340.224H713.4V333.475H699.187V331.696H715.546ZM715.546 315.917V330.381H713.4V315.917H715.546ZM702.416 317.387C703.635 317.38 704.724 317.622 705.684 318.112C706.651 318.595 707.409 319.272 707.957 320.142C708.504 321.006 708.778 321.995 708.778 323.11C708.778 324.226 708.504 325.221 707.957 326.098C707.409 326.968 706.651 327.645 705.684 328.128C704.724 328.612 703.635 328.854 702.416 328.854C701.198 328.854 700.102 328.612 699.129 328.128C698.162 327.645 697.405 326.968 696.857 326.098C696.309 325.221 696.035 324.226 696.035 323.11C696.035 322.002 696.309 321.012 696.857 320.142C697.405 319.272 698.162 318.595 699.129 318.112C700.102 317.622 701.198 317.38 702.416 317.387ZM702.416 319.224C701.591 319.224 700.853 319.388 700.202 319.717C699.551 320.046 699.042 320.506 698.675 321.099C698.314 321.686 698.137 322.356 698.143 323.11C698.137 323.871 698.314 324.548 698.675 325.141C699.042 325.734 699.551 326.198 700.202 326.533C700.853 326.862 701.591 327.023 702.416 327.017C703.235 327.023 703.967 326.862 704.611 326.533C705.262 326.198 705.771 325.734 706.139 325.141C706.506 324.548 706.69 323.871 706.69 323.11C706.69 322.356 706.506 321.686 706.139 321.099C705.771 320.506 705.262 320.046 704.611 319.717C703.967 319.388 703.235 319.224 702.416 319.224ZM727.95 322.453C727.95 324.258 727.641 326.011 727.022 327.713C726.403 329.414 725.555 330.916 724.479 332.218C723.409 333.514 722.213 334.494 720.892 335.157L719.538 333.359C720.737 332.805 721.843 331.96 722.855 330.826C723.867 329.692 724.669 328.39 725.262 326.92C725.862 325.444 726.164 323.955 726.171 322.453V318.025H727.95V322.453ZM728.317 322.453C728.311 323.89 728.601 325.318 729.188 326.736C729.781 328.148 730.583 329.405 731.595 330.507C732.607 331.609 733.706 332.431 734.892 332.972L733.577 334.674C732.275 334.036 731.086 333.095 730.009 331.851C728.933 330.6 728.082 329.157 727.457 327.519C726.832 325.882 726.519 324.193 726.519 322.453V318.025H728.317V322.453ZM739.707 315.917V340.262H737.56V315.917H739.707ZM763.906 315.917V340.262H761.76V315.917H763.906ZM747.431 332.373C749.158 332.373 750.654 332.35 751.917 332.305C753.18 332.26 754.389 332.18 755.543 332.064C756.703 331.948 757.886 331.78 759.091 331.561L759.323 333.378C757.525 333.701 755.746 333.92 753.986 334.036C752.226 334.152 750.041 334.216 747.431 334.229H745.459V332.373H747.431ZM757.022 318.238V320.036H747.624V333.05H745.459V318.238H757.022ZM781.635 317.793C782.815 317.799 783.862 318.151 784.778 318.847C785.699 319.536 786.415 320.523 786.924 321.805C787.44 323.081 787.701 324.567 787.707 326.262C787.701 327.964 787.44 329.453 786.924 330.729C786.415 332.006 785.699 332.992 784.778 333.688C783.862 334.384 782.815 334.732 781.635 334.732C780.443 334.732 779.383 334.384 778.454 333.688C777.533 332.992 776.814 332.006 776.298 330.729C775.789 329.453 775.538 327.964 775.544 326.262C775.538 324.567 775.789 323.081 776.298 321.805C776.814 320.523 777.533 319.536 778.454 318.847C779.383 318.151 780.443 317.799 781.635 317.793ZM781.635 319.707C780.843 319.714 780.14 319.991 779.528 320.539C778.922 321.08 778.448 321.847 778.106 322.84C777.765 323.826 777.594 324.967 777.594 326.262C777.594 327.564 777.765 328.712 778.106 329.704C778.448 330.697 778.922 331.464 779.528 332.006C780.14 332.547 780.843 332.818 781.635 332.818C782.422 332.818 783.121 332.547 783.733 332.006C784.346 331.464 784.823 330.697 785.164 329.704C785.506 328.712 785.677 327.564 785.677 326.262C785.677 324.967 785.506 323.826 785.164 322.84C784.823 321.847 784.346 321.08 783.733 320.539C783.121 319.991 782.422 319.714 781.635 319.707ZM795.249 315.917V340.262H793.122V315.917H795.249ZM794.069 325.199V326.978H786.992V325.199H794.069ZM808.155 329.453V339.47H806.009V329.453H808.155ZM819.409 315.936V340.243H817.224V315.936H819.409ZM799.183 328.738C801.394 328.731 803.301 328.715 804.906 328.689C806.518 328.657 808.249 328.583 810.098 328.467C811.948 328.351 813.698 328.177 815.348 327.945L815.484 329.55C813.041 329.962 810.514 330.233 807.904 330.362C805.3 330.491 802.496 330.555 799.492 330.555L799.183 328.738ZM817.804 332.547V334.21H811.636V332.547H817.804ZM807.208 317.135C808.394 317.135 809.451 317.335 810.379 317.735C811.307 318.134 812.032 318.698 812.554 319.427C813.076 320.149 813.337 320.977 813.337 321.912C813.337 322.866 813.08 323.7 812.564 324.416C812.048 325.131 811.323 325.689 810.388 326.088C809.46 326.482 808.4 326.681 807.208 326.688C805.996 326.681 804.923 326.482 803.988 326.088C803.053 325.689 802.328 325.131 801.812 324.416C801.297 323.7 801.039 322.866 801.039 321.912C801.039 320.977 801.3 320.149 801.822 319.427C802.344 318.698 803.069 318.134 803.998 317.735C804.932 317.335 806.002 317.135 807.208 317.135ZM807.208 318.818C806.402 318.818 805.683 318.95 805.051 319.214C804.426 319.478 803.936 319.846 803.582 320.316C803.234 320.78 803.063 321.312 803.069 321.912C803.063 322.524 803.231 323.069 803.572 323.546C803.92 324.016 804.41 324.38 805.042 324.638C805.673 324.896 806.395 325.025 807.208 325.025C807.994 325.025 808.696 324.896 809.315 324.638C809.934 324.38 810.417 324.016 810.766 323.546C811.12 323.069 811.301 322.524 811.307 321.912C811.301 321.312 811.12 320.78 810.766 320.316C810.417 319.846 809.934 319.478 809.315 319.214C808.696 318.95 807.994 318.818 807.208 318.818ZM843.125 327.597V329.376H826.34V327.597H843.125ZM845.755 335.099V336.898H823.498V335.099H845.755ZM842.893 318.18V319.959H828.468V328.409H826.34V318.18H842.893Z" fill="white"/>
<path d="M896.986 110.028V127H894.4V112.613H894.301L890.249 115.257V112.796L894.467 110.028H896.986ZM901.305 127L901.296 125.127L907.18 119.185C907.888 118.456 908.429 117.862 908.805 117.403C909.186 116.945 909.476 116.5 909.675 116.069C909.879 115.633 909.981 115.174 909.981 114.693C909.981 114.146 909.843 113.666 909.567 113.251C909.291 112.837 908.915 112.519 908.44 112.298C907.965 112.072 907.429 111.959 906.832 111.959C906.214 111.959 905.672 112.083 905.208 112.331C904.744 112.575 904.385 112.925 904.131 113.384C903.877 113.837 903.749 114.362 903.749 114.959H901.296C901.296 113.936 901.534 113.036 902.009 112.257C902.49 111.472 903.153 110.867 903.998 110.442C904.849 110.011 905.81 109.796 906.882 109.796C907.954 109.796 908.91 110.006 909.749 110.425C910.589 110.84 911.244 111.414 911.714 112.149C912.189 112.884 912.429 113.707 912.435 114.619C912.429 115.271 912.305 115.895 912.062 116.492C911.819 117.088 911.404 117.751 910.819 118.481C910.238 119.21 909.412 120.102 908.341 121.157L904.893 124.663V124.787H912.708V127H901.305ZM922.084 109.232L916.614 129.552H914.385L919.854 109.232H922.084ZM929.741 109.796C930.879 109.807 931.926 110.072 932.882 110.591C933.838 111.105 934.617 111.964 935.219 113.169C935.827 114.373 936.13 115.953 936.13 117.909C936.13 119.87 935.863 121.55 935.327 122.948C934.791 124.345 934.026 125.409 933.031 126.138C932.037 126.867 930.86 127.232 929.501 127.232C928.479 127.232 927.559 127.036 926.741 126.644C925.929 126.246 925.266 125.693 924.752 124.986C924.244 124.279 923.923 123.467 923.791 122.55H926.335C926.456 123.03 926.655 123.453 926.932 123.818C927.213 124.182 927.572 124.467 928.009 124.671C928.445 124.876 928.943 124.978 929.501 124.978C930.368 124.978 931.111 124.735 931.73 124.249C932.354 123.757 932.832 123.05 933.164 122.127C933.495 121.204 933.664 120.099 933.669 118.812H933.462C933.158 119.293 932.782 119.707 932.335 120.055C931.893 120.398 931.396 120.66 930.843 120.843C930.296 121.025 929.722 121.116 929.119 121.116C928.114 121.116 927.191 120.878 926.351 120.403C925.517 119.923 924.857 119.257 924.371 118.406C923.885 117.555 923.642 116.602 923.642 115.547C923.642 114.47 923.893 113.492 924.396 112.613C924.904 111.729 925.619 111.036 926.542 110.533C927.47 110.03 928.537 109.785 929.741 109.796ZM929.741 111.959C929.072 111.959 928.462 112.119 927.909 112.439C927.363 112.754 926.932 113.182 926.617 113.724C926.302 114.265 926.147 114.859 926.153 115.506C926.153 116.152 926.305 116.743 926.608 117.279C926.912 117.815 927.332 118.24 927.868 118.555C928.409 118.865 929.017 119.019 929.691 119.019C930.36 119.019 930.97 118.856 931.523 118.53C932.081 118.204 932.52 117.768 932.84 117.221C933.161 116.674 933.321 116.091 933.321 115.472C933.321 114.859 933.164 114.285 932.849 113.749C932.539 113.207 932.111 112.773 931.564 112.448C931.023 112.122 930.415 111.959 929.741 111.959ZM961.029 118.746V120.536H946.402V118.746H961.029ZM963.208 124.638V126.453H943.99V124.638H963.208ZM954.672 119.657V125.459H952.443V119.657H954.672ZM960.821 109.622V111.436H948.647V119.442H946.402V109.622H960.821ZM960.357 114.122V115.903H947.968V114.122H960.357Z" fill="white"/>
<path d="M421.887 244.772C425.69 244.772 428.773 241.689 428.773 237.886C428.773 234.083 425.69 231 421.887 231C418.083 231 415 234.083 415 237.886C415 241.689 418.083 244.772 421.887 244.772Z" fill="white"/>
<path d="M758.887 244.772C762.69 244.772 765.773 241.689 765.773 237.886C765.773 234.083 762.69 231 758.887 231C755.083 231 752 234.083 752 237.886C752 241.689 755.083 244.772 758.887 244.772Z" fill="white"/>
<line x1="421.75" y1="237" x2="421.75" y2="292" stroke="white" stroke-width="1.5"/>
<line x1="758.75" y1="237" x2="758.75" y2="292" stroke="white" stroke-width="1.5"/>
<path d="M0 187L342 187M1009 187L667 187" stroke="white" stroke-width="2" stroke-dasharray="6 6"/>
<path d="M9.47656 177.5L4.3017e-05 187L9.47656 196.5" stroke="white" stroke-width="1.5"/>
<path d="M999.523 177.5L1009 187L999.523 196.5" stroke="white" stroke-width="1.5"/>
<path d="M372.188 183.613V187.365H370.08V183.613H372.188ZM382.224 186.591V188.331H360.064V186.591H382.224ZM379.362 190.343V195.873H364.917V198.754H362.81V194.268H377.254V191.986H362.752V190.343H379.362ZM380.097 198.251V199.953H362.81V198.251H380.097ZM371.627 178.199C371.627 179.411 371.182 180.494 370.293 181.448C369.403 182.401 368.224 183.172 366.754 183.758C365.285 184.338 363.693 184.715 361.978 184.89L361.243 183.246C362.713 183.11 364.099 182.811 365.401 182.347C366.703 181.876 367.753 181.283 368.553 180.568C369.352 179.852 369.752 179.063 369.752 178.199V177.425H371.627V178.199ZM372.536 178.199C372.53 179.063 372.923 179.852 373.716 180.568C374.515 181.283 375.566 181.876 376.868 182.347C378.17 182.811 379.562 183.11 381.044 183.246L380.329 184.89C378.614 184.715 377.022 184.335 375.553 183.749C374.083 183.156 372.903 182.385 372.014 181.438C371.124 180.484 370.68 179.404 370.68 178.199V177.425H372.536V178.199ZM380.232 176.71V178.45H362.094V176.71H380.232ZM403.194 181.738V183.517H396.581V181.738H403.194ZM390.954 177.058C392.146 177.052 393.216 177.287 394.163 177.764C395.117 178.234 395.865 178.898 396.407 179.756C396.954 180.606 397.232 181.576 397.238 182.666C397.232 183.755 396.954 184.728 396.407 185.586C395.865 186.436 395.117 187.1 394.163 187.577C393.216 188.054 392.146 188.293 390.954 188.293C389.735 188.293 388.646 188.054 387.686 187.577C386.732 187.1 385.984 186.436 385.442 185.586C384.907 184.735 384.643 183.762 384.65 182.666C384.643 181.576 384.907 180.606 385.442 179.756C385.984 178.898 386.732 178.234 387.686 177.764C388.646 177.287 389.735 177.052 390.954 177.058ZM390.954 178.876C390.135 178.869 389.4 179.027 388.749 179.349C388.105 179.665 387.602 180.113 387.241 180.693C386.88 181.267 386.699 181.924 386.699 182.666C386.699 183.394 386.88 184.048 387.241 184.628C387.602 185.202 388.105 185.653 388.749 185.982C389.4 186.311 390.135 186.475 390.954 186.475C391.759 186.475 392.481 186.311 393.119 185.982C393.764 185.653 394.267 185.202 394.628 184.628C394.989 184.048 395.169 183.394 395.169 182.666C395.169 181.931 394.989 181.273 394.628 180.693C394.267 180.113 393.767 179.665 393.129 179.349C392.491 179.027 391.766 178.869 390.954 178.876ZM404.412 175.917V188.95H402.266V175.917H404.412ZM390.896 190.188V193.262H402.266V190.188H404.412V199.895H388.749V190.188H390.896ZM390.896 198.135H402.266V194.983H390.896V198.135ZM427.683 182.666V184.425H421.457V182.666H427.683ZM428.611 175.936V193.765H426.465V175.936H428.611ZM429.288 197.903V199.682H413.006V197.903H429.288ZM415.153 192.16V198.773H413.006V192.16H415.153ZM416.526 180.945C416.519 182.401 416.226 183.774 415.646 185.064C415.072 186.353 414.27 187.481 413.238 188.448C412.207 189.414 411.021 190.149 409.68 190.652L408.559 188.892C409.751 188.473 410.815 187.861 411.749 187.055C412.69 186.243 413.425 185.308 413.954 184.251C414.482 183.188 414.747 182.086 414.747 180.945V178.953H416.526V180.945ZM416.912 180.945C416.912 181.976 417.164 182.985 417.667 183.971C418.169 184.957 418.875 185.834 419.784 186.601C420.693 187.368 421.734 187.951 422.907 188.351L421.785 190.072C420.477 189.601 419.32 188.908 418.314 187.993C417.315 187.071 416.539 186.005 415.984 184.793C415.43 183.575 415.153 182.292 415.153 180.945V178.953H416.912V180.945ZM422.346 177.909V179.688H409.255V177.909H422.346ZM440.938 182.453C440.938 184.258 440.628 186.011 440.009 187.713C439.391 189.414 438.543 190.916 437.467 192.218C436.397 193.514 435.201 194.494 433.88 195.157L432.526 193.359C433.725 192.805 434.83 191.96 435.842 190.826C436.854 189.692 437.657 188.39 438.25 186.92C438.849 185.444 439.152 183.955 439.159 182.453V178.025H440.938V182.453ZM441.305 182.453C441.299 183.89 441.589 185.318 442.175 186.736C442.768 188.148 443.571 189.405 444.583 190.507C445.595 191.609 446.694 192.431 447.88 192.972L446.565 194.674C445.263 194.036 444.073 193.095 442.997 191.851C441.921 190.6 441.07 189.157 440.444 187.519C439.819 185.882 439.507 184.193 439.507 182.453V178.025H441.305V182.453ZM452.694 175.917V200.262H450.548V175.917H452.694ZM471.681 200.475H469.612L463.714 188.235V188.041H465.976L471.681 200.475ZM471.681 175.724L465.976 188.157H463.714V187.964L469.612 175.724H471.681ZM475.703 200.475H473.634L467.736 188.235V188.041H469.998L475.703 200.475ZM475.703 175.724L469.998 188.157H467.736V187.964L473.634 175.724H475.703ZM482.009 198V178.199H488.739C490.24 178.199 491.494 178.457 492.5 178.972C493.512 179.488 494.263 180.203 494.752 181.119C495.242 182.028 495.487 183.085 495.487 184.29C495.487 185.489 495.242 186.54 494.752 187.442C494.263 188.344 493.518 189.047 492.519 189.55C491.52 190.052 490.273 190.304 488.777 190.304H483.363V188.08H488.661C489.693 188.08 490.534 187.932 491.185 187.635C491.836 187.339 492.309 186.91 492.606 186.349C492.902 185.782 493.051 185.096 493.051 184.29C493.051 183.478 492.899 182.782 492.596 182.202C492.293 181.622 491.816 181.174 491.165 180.858C490.514 180.542 489.673 180.384 488.642 180.384H484.465V198H482.009ZM491.388 189.105L496.261 198H493.399L488.603 189.105H491.388ZM507.823 191.116C507.746 191.122 507.611 191.132 507.417 191.145C507.23 191.158 506.998 191.174 506.721 191.193C506.206 191.226 505.693 191.261 505.184 191.3C504.675 191.332 504.246 191.361 503.898 191.387C502.783 191.458 501.919 191.699 501.307 192.112C500.701 192.518 500.398 193.114 500.398 193.901C500.398 194.41 500.53 194.842 500.794 195.196C501.059 195.544 501.423 195.808 501.887 195.989C502.351 196.169 502.886 196.26 503.492 196.26C504.349 196.26 505.087 196.089 505.706 195.747C506.331 195.406 506.808 194.958 507.137 194.403C507.466 193.849 507.63 193.256 507.63 192.624V187.983C507.63 187.352 507.504 186.814 507.253 186.369C507.002 185.924 506.625 185.586 506.122 185.354C505.625 185.122 505.007 185.006 504.265 185.006C503.66 185.006 503.125 185.093 502.66 185.267C502.196 185.441 501.819 185.679 501.529 185.982C501.239 186.279 501.036 186.623 500.92 187.017H498.484C498.58 186.224 498.887 185.521 499.402 184.909C499.924 184.29 500.614 183.81 501.471 183.468C502.329 183.127 503.299 182.956 504.381 182.956C505.232 182.956 506.07 183.085 506.895 183.343C507.72 183.6 508.439 184.119 509.051 184.899C509.664 185.679 509.97 186.785 509.97 188.215V198H507.63V195.989H507.514C507.327 196.369 507.047 196.74 506.673 197.101C506.306 197.455 505.819 197.752 505.213 197.99C504.607 198.229 503.904 198.348 503.105 198.348C502.158 198.348 501.297 198.168 500.524 197.807C499.757 197.446 499.151 196.92 498.706 196.231C498.261 195.541 498.039 194.726 498.039 193.785C498.039 192.257 498.564 191.177 499.615 190.546C500.666 189.914 501.997 189.537 503.608 189.414C504.079 189.382 504.617 189.35 505.223 189.318C505.835 189.279 506.418 189.247 506.973 189.221C507.172 189.208 507.34 189.198 507.475 189.192C507.617 189.186 507.72 189.182 507.785 189.182L507.823 191.116ZM517.065 198L512.559 183.149H515.034L518.206 194.461H518.36L521.493 183.149H524.007L527.101 194.423H527.255L530.427 183.149H532.902L528.396 198H526.076L522.847 186.669H522.614L519.405 198H517.065ZM543.711 198H541.12L548.372 178.199H550.963L558.214 198H555.623L549.744 181.39H549.59L543.711 198ZM544.601 190.265H554.753V192.431H544.601V190.265ZM560.587 198V183.149H562.868V185.412H563.023C563.204 184.922 563.484 184.487 563.864 184.106C564.245 183.726 564.696 183.433 565.218 183.227C565.74 183.02 566.291 182.917 566.871 182.917C567.071 182.917 567.28 182.92 567.5 182.927C567.725 182.933 567.922 182.943 568.089 182.956V185.334C567.941 185.302 567.732 185.27 567.461 185.238C567.197 185.199 566.936 185.18 566.678 185.18C565.969 185.18 565.331 185.328 564.763 185.624C564.196 185.921 563.751 186.333 563.429 186.862C563.107 187.39 562.946 187.983 562.946 188.641V198H560.587ZM575.983 198.309C574.61 198.309 573.411 197.984 572.386 197.333C571.368 196.682 570.584 195.776 570.037 194.616C569.489 193.456 569.215 192.134 569.215 190.652C569.215 189.157 569.495 187.826 570.056 186.659C570.617 185.492 571.406 184.583 572.425 183.932C573.443 183.281 574.616 182.956 575.944 182.956C576.982 182.956 577.926 183.149 578.777 183.536C579.634 183.923 580.327 184.474 580.856 185.189C581.391 185.898 581.719 186.714 581.842 187.635H579.502C579.38 187.165 579.164 186.736 578.854 186.349C578.551 185.956 578.155 185.64 577.665 185.402C577.182 185.163 576.621 185.044 575.983 185.044C575.106 185.044 574.336 185.273 573.672 185.731C573.008 186.188 572.492 186.836 572.125 187.674C571.758 188.506 571.574 189.472 571.574 190.575C571.574 191.703 571.754 192.692 572.115 193.543C572.476 194.387 572.989 195.041 573.653 195.506C574.316 195.97 575.093 196.202 575.983 196.202C576.569 196.202 577.101 196.099 577.578 195.892C578.061 195.686 578.467 195.393 578.796 195.012C579.125 194.626 579.36 194.165 579.502 193.63H581.842C581.719 194.519 581.4 195.319 580.885 196.028C580.375 196.737 579.699 197.294 578.854 197.7C578.016 198.106 577.059 198.309 575.983 198.309ZM587.09 189.086V198H584.731V178.199H587.09V185.489H587.284C587.522 184.954 587.835 184.503 588.221 184.135C588.615 183.762 589.095 183.471 589.662 183.265C590.229 183.059 590.893 182.956 591.654 182.956C592.685 182.956 593.578 183.162 594.332 183.575C595.086 183.987 595.673 184.612 596.092 185.45C596.511 186.282 596.72 187.32 596.72 188.564V198H594.361V188.738C594.361 187.964 594.226 187.303 593.955 186.756C593.684 186.208 593.294 185.789 592.785 185.499C592.276 185.209 591.667 185.064 590.958 185.064C590.21 185.064 589.543 185.221 588.956 185.537C588.37 185.853 587.912 186.314 587.583 186.92C587.255 187.526 587.09 188.248 587.09 189.086ZM600.481 198V183.149H602.84V198H600.481ZM601.68 180.693C601.384 180.693 601.106 180.622 600.849 180.481C600.591 180.339 600.388 180.149 600.239 179.91C600.091 179.672 600.017 179.411 600.017 179.127C600.017 178.843 600.091 178.582 600.239 178.344C600.388 178.105 600.591 177.915 600.849 177.773C601.106 177.632 601.384 177.561 601.68 177.561C601.97 177.561 602.241 177.632 602.492 177.773C602.75 177.915 602.953 178.105 603.101 178.344C603.25 178.582 603.324 178.843 603.324 179.127C603.324 179.411 603.25 179.672 603.101 179.91C602.953 180.149 602.75 180.339 602.492 180.481C602.241 180.622 601.97 180.693 601.68 180.693ZM618.8 183.149L613.308 198H610.891L605.419 183.149H607.971L612.032 194.925H612.187L616.247 183.149H618.8ZM627.645 198.309C626.233 198.309 625.002 197.994 623.952 197.362C622.907 196.73 622.105 195.841 621.544 194.693C620.983 193.54 620.703 192.205 620.703 190.691C620.703 189.182 620.983 187.842 621.544 186.669C622.105 185.495 622.891 184.583 623.903 183.932C624.922 183.281 626.092 182.956 627.413 182.956C628.541 182.956 629.588 183.204 630.555 183.7C631.529 184.197 632.318 184.999 632.924 186.108C633.53 187.216 633.833 188.641 633.833 190.381V191.367H622.327V189.356H631.435C631.435 188.531 631.271 187.793 630.942 187.142C630.613 186.491 630.146 185.979 629.54 185.605C628.934 185.231 628.232 185.044 627.432 185.044C626.562 185.044 625.795 185.26 625.131 185.692C624.474 186.124 623.965 186.698 623.604 187.413C623.243 188.122 623.062 188.886 623.062 189.704V191.058C623.062 192.147 623.252 193.082 623.633 193.862C624.013 194.635 624.548 195.222 625.238 195.622C625.927 196.021 626.73 196.221 627.645 196.221C628.212 196.221 628.721 196.147 629.173 195.999C629.624 195.85 630.007 195.647 630.323 195.39C630.645 195.132 630.9 194.842 631.087 194.519H633.601C633.369 195.273 632.976 195.937 632.421 196.511C631.867 197.078 631.18 197.52 630.362 197.836C629.55 198.151 628.644 198.309 627.645 198.309ZM643.098 200.475L648.802 188.041H651.064V188.235L645.167 200.475H643.098ZM643.098 175.724H645.167L651.064 187.964V188.157H648.802L643.098 175.724ZM639.075 200.475L644.78 188.041H647.042V188.235L641.145 200.475H639.075ZM639.075 175.724H641.145L647.042 187.964V188.157H644.78L639.075 175.724Z" fill="white"/>
<rect width="1011" height="45" fill="white"/>
<path d="M407.372 27.375C409.299 27.375 410.936 27.5304 412.283 27.8412C413.636 28.1519 414.665 28.6112 415.37 29.2189C416.081 29.8267 416.44 30.5691 416.447 31.4461C416.44 32.3163 416.081 33.0483 415.37 33.6423C414.665 34.2431 413.636 34.692 412.283 34.989C410.936 35.2928 409.299 35.4448 407.372 35.4448C405.425 35.4448 403.774 35.2928 402.421 34.989C401.067 34.692 400.035 34.2431 399.323 33.6423C398.619 33.0483 398.267 32.3163 398.267 31.4461C398.267 30.5691 398.619 29.8267 399.323 29.2189C400.035 28.6112 401.067 28.1519 402.421 27.8412C403.781 27.5304 405.432 27.375 407.372 27.375ZM407.372 29.4365C406.012 29.4365 404.865 29.5124 403.933 29.6644C403.008 29.8163 402.307 30.0442 401.83 30.3481C401.354 30.645 401.115 31.011 401.115 31.4461C401.115 31.8743 401.354 32.2334 401.83 32.5235C402.307 32.8135 403.008 33.0311 403.933 33.1761C404.858 33.3211 406.005 33.3902 407.372 33.3833C408.733 33.3902 409.876 33.3211 410.801 33.1761C411.733 33.0311 412.438 32.8135 412.914 32.5235C413.391 32.2334 413.629 31.8743 413.629 31.4461C413.629 31.011 413.387 30.645 412.904 30.3481C412.428 30.0442 411.727 29.8163 410.801 29.6644C409.876 29.5124 408.733 29.4365 407.372 29.4365ZM418.021 11.3391V13.4938H396.651V11.3391H418.021ZM407.383 14.4572C410.173 14.4503 412.307 14.768 413.785 15.4102C415.269 16.0456 416.012 16.9814 416.012 18.2175C416.012 19.0256 415.677 19.7093 415.007 20.2686C414.337 20.828 413.36 21.2493 412.075 21.5325C410.791 21.8156 409.227 21.9572 407.383 21.9572C405.546 21.9572 403.981 21.8156 402.69 21.5325C401.405 21.2493 400.428 20.828 399.758 20.2686C399.088 19.7093 398.757 19.0256 398.764 18.2175C398.757 16.9814 399.496 16.0456 400.981 15.4102C402.472 14.768 404.606 14.4503 407.383 14.4572ZM407.383 16.3633C406.146 16.3633 405.107 16.4358 404.265 16.5808C403.429 16.7189 402.797 16.9261 402.369 17.2023C401.941 17.4717 401.73 17.8101 401.737 18.2175C401.73 18.6043 401.941 18.9323 402.369 19.2017C402.804 19.4641 403.443 19.6644 404.285 19.8025C405.128 19.9406 406.16 20.0097 407.383 20.0097C408.612 20.0097 409.644 19.9406 410.48 19.8025C411.323 19.6644 411.958 19.4641 412.386 19.2017C412.821 18.9323 413.042 18.6043 413.049 18.2175C413.049 17.8101 412.832 17.4717 412.396 17.2023C411.968 16.9261 411.336 16.7189 410.501 16.5808C409.665 16.4358 408.626 16.3633 407.383 16.3633ZM408.781 8.91505V12.7686H406.015V8.91505H408.781ZM419.368 23.739V25.9558H395.439V23.739H419.368ZM408.781 21.1077V24.7956H406.015V21.1077H408.781ZM443.141 26.1423V35.4862H440.355V28.4109H425.344V26.1423H443.141ZM443.141 9.23619V24.7852H440.355V9.23619H443.141ZM428.887 10.7693C430.213 10.7693 431.404 11.0352 432.461 11.567C433.518 12.0988 434.346 12.8412 434.947 13.7942C435.555 14.7403 435.859 15.8177 435.859 17.0262C435.859 18.2417 435.558 19.326 434.957 20.279C434.357 21.232 433.524 21.9744 432.461 22.5062C431.404 23.038 430.213 23.3039 428.887 23.3039C427.561 23.3039 426.366 23.038 425.303 22.5062C424.239 21.9744 423.404 21.232 422.796 20.279C422.195 19.326 421.895 18.2417 421.895 17.0262C421.895 15.8246 422.195 14.7472 422.796 13.7942C423.404 12.8412 424.239 12.0988 425.303 11.567C426.366 11.0352 427.561 10.7693 428.887 10.7693ZM428.887 13.1519C428.058 13.1519 427.319 13.3142 426.67 13.6388C426.021 13.9565 425.513 14.4088 425.147 14.9959C424.788 15.5829 424.612 16.2597 424.619 17.0262C424.612 17.7997 424.788 18.4834 425.147 19.0773C425.513 19.6713 426.021 20.1305 426.67 20.4551C427.319 20.7797 428.058 20.9385 428.887 20.9316C429.702 20.9385 430.431 20.7797 431.073 20.4551C431.722 20.1305 432.226 19.6713 432.585 19.0773C432.951 18.4834 433.134 17.7997 433.134 17.0262C433.134 16.2597 432.951 15.5829 432.585 14.9959C432.226 14.4088 431.722 13.9565 431.073 13.6388C430.431 13.3142 429.702 13.1519 428.887 13.1519ZM456.42 15.9178C456.42 17.9896 456.103 19.9717 455.467 21.864C454.839 23.7493 453.948 25.4137 452.795 26.857C451.641 28.2935 450.309 29.3778 448.796 30.1098L447.077 27.7894C448.43 27.1816 449.642 26.2631 450.713 25.0338C451.783 23.8046 452.619 22.3957 453.219 20.8073C453.82 19.2189 454.124 17.5891 454.131 15.9178V11.422H456.42V15.9178ZM456.928 15.9178C456.921 17.5062 457.211 19.0635 457.798 20.5898C458.385 22.116 459.207 23.4765 460.264 24.6713C461.327 25.8591 462.529 26.7465 463.869 27.3336L462.19 29.5504C460.706 28.846 459.39 27.8032 458.244 26.422C457.097 25.0338 456.206 23.4351 455.571 21.6257C454.936 19.8094 454.618 17.9068 454.618 15.9178V11.422H456.928V15.9178ZM469.038 9.23619V35.538H466.241V9.23619H469.038ZM494.966 9.23619V35.538H492.169V9.23619H494.966ZM477.065 26.7327C479.006 26.7327 480.649 26.712 481.996 26.6706C483.343 26.6222 484.624 26.5394 485.839 26.422C487.062 26.3046 488.301 26.1319 489.558 25.904L489.838 28.2244C487.98 28.5628 486.112 28.7942 484.234 28.9185C482.355 29.0359 479.966 29.0981 477.065 29.105H474.89V26.7327H477.065ZM487.466 11.6809V13.9807H477.687V27.6133H474.89V11.6809H487.466ZM519.288 12.9344C519.281 14.4606 518.811 15.8626 517.879 17.1402C516.954 18.4109 515.7 19.471 514.119 20.3204C512.537 21.163 510.783 21.7362 508.856 22.0401L507.81 19.8439C509.447 19.6229 510.956 19.1706 512.337 18.4869C513.725 17.7963 514.823 16.9675 515.631 16.0007C516.446 15.0269 516.857 14.0048 516.864 12.9344V11.9399H519.288V12.9344ZM520.013 12.9344C520.006 14.0048 520.407 15.0269 521.215 16.0007C522.03 16.9675 523.131 17.7963 524.519 18.4869C525.907 19.1706 527.427 19.6229 529.077 19.8439L528.052 22.0401C526.111 21.7362 524.347 21.163 522.758 20.3204C521.17 19.471 519.91 18.4109 518.977 17.1402C518.052 15.8695 517.589 14.4675 517.589 12.9344V11.9399H520.013V12.9344ZM519.744 25.5725V35.4758H517.009V25.5725H519.744ZM530.403 24.029V26.2977H506.474V24.029H530.403ZM528.155 10.8004V13.0173H508.691V10.8004H528.155ZM553.026 9.23619V28.3177H550.209V9.23619H553.026ZM556.828 16.9952V19.326H552.187V16.9952H556.828ZM545.899 11.2355C545.899 13.5007 545.406 15.5656 544.418 17.4302C543.437 19.288 542.022 20.8936 540.171 22.2472C538.327 23.5939 536.12 24.654 533.551 25.4275L532.37 23.2106C534.573 22.5546 536.466 21.6948 538.047 20.6312C539.629 19.5608 540.837 18.3384 541.673 16.9641C542.509 15.5898 542.93 14.1119 542.937 12.5304V11.2355H545.899ZM544.408 11.2355V13.5456H533.468V11.2355H544.408ZM554.114 32.6685V34.9475H536.359V32.6685H554.114ZM539.156 26.3598V33.6215H536.359V26.3598H539.156ZM573.091 10.1374C574.397 10.1374 575.567 10.3895 576.603 10.8936C577.646 11.3978 578.464 12.0953 579.058 12.9862C579.659 13.8702 579.963 14.8819 579.97 16.0214C579.963 17.154 579.659 18.1657 579.058 19.0566C578.464 19.9406 577.646 20.6312 576.603 21.1285C575.567 21.6188 574.397 21.864 573.091 21.864C571.772 21.864 570.588 21.6188 569.538 21.1285C568.488 20.6312 567.667 19.9406 567.073 19.0566C566.479 18.1657 566.182 17.154 566.182 16.0214C566.182 14.8819 566.479 13.8702 567.073 12.9862C567.667 12.0953 568.488 11.3978 569.538 10.8936C570.588 10.3895 571.772 10.1374 573.091 10.1374ZM573.091 12.4475C572.29 12.4475 571.568 12.596 570.926 12.893C570.291 13.1899 569.79 13.6112 569.424 14.1568C569.065 14.6954 568.889 15.317 568.896 16.0214C568.889 16.7258 569.065 17.3508 569.424 17.8964C569.79 18.442 570.291 18.8633 570.926 19.1602C571.568 19.4572 572.29 19.6057 573.091 19.6057C573.885 19.6057 574.6 19.4572 575.236 19.1602C575.871 18.8633 576.368 18.442 576.727 17.8964C577.093 17.3508 577.276 16.7258 577.276 16.0214C577.276 15.317 577.093 14.6954 576.727 14.1568C576.368 13.6112 575.871 13.1899 575.236 12.893C574.6 12.596 573.885 12.4475 573.091 12.4475ZM587.428 9.23619V22.5994H584.642V9.23619H587.428ZM587.428 23.8115V30.4102H572.946V34.1395H570.243V28.3384H584.662V26.018H570.16V23.8115H587.428ZM588.288 32.9275V35.1547H570.243V32.9275H588.288ZM611.481 15.9282V18.2175H605.784V15.9282H611.481ZM613.46 9.23619V24.8577H610.683V9.23619H613.46ZM604.665 25.5932C606.488 25.5932 608.066 25.7901 609.399 26.1837C610.739 26.5704 611.764 27.1367 612.476 27.8826C613.187 28.6215 613.543 29.509 613.543 30.5449C613.543 31.5739 613.187 32.4579 612.476 33.1968C611.764 33.9358 610.742 34.4986 609.409 34.8854C608.076 35.279 606.495 35.4793 604.665 35.4862C602.828 35.4793 601.243 35.279 599.91 34.8854C598.577 34.4986 597.555 33.9358 596.844 33.1968C596.139 32.4579 595.79 31.5739 595.797 30.5449C595.79 29.509 596.143 28.6215 596.854 27.8826C597.565 27.1367 598.587 26.5704 599.92 26.1837C601.253 25.7901 602.835 25.5932 604.665 25.5932ZM604.665 27.7479C603.38 27.7479 602.279 27.8584 601.36 28.0794C600.442 28.2935 599.741 28.6112 599.257 29.0325C598.781 29.4468 598.546 29.951 598.553 30.5449C598.546 31.125 598.781 31.6257 599.257 32.047C599.741 32.4613 600.442 32.7756 601.36 32.9896C602.279 33.2037 603.38 33.3073 604.665 33.3004C605.935 33.3073 607.03 33.2037 607.949 32.9896C608.867 32.7756 609.568 32.4613 610.051 32.047C610.535 31.6257 610.78 31.125 610.787 30.5449C610.78 29.951 610.535 29.4468 610.051 29.0325C609.568 28.6112 608.867 28.2935 607.949 28.0794C607.03 27.8584 605.935 27.7479 604.665 27.7479ZM600.438 13.8978C600.431 15.5207 600.127 17.0504 599.527 18.4869C598.933 19.9164 598.08 21.1733 596.968 22.2576C595.856 23.3349 594.544 24.1499 593.031 24.7023L591.592 22.4959C592.918 22.0331 594.074 21.3598 595.062 20.4758C596.056 19.5849 596.819 18.5698 597.351 17.4302C597.883 16.2907 598.149 15.1133 598.149 13.8978V11.8778H600.438V13.8978ZM600.967 13.8771C600.967 14.9889 601.219 16.0663 601.723 17.1091C602.234 18.1519 602.966 19.0808 603.919 19.8957C604.879 20.7106 606.005 21.3356 607.296 21.7707L605.877 23.9876C604.406 23.4765 603.128 22.7134 602.044 21.6982C600.967 20.6761 600.138 19.4917 599.558 18.145C598.984 16.7983 598.698 15.3757 598.698 13.8771V11.8778H600.967V13.8771ZM606.623 11.049V13.3177H592.451V11.049H606.623Z" fill="black"/>
</g>
<defs>
<clipPath id="clip0_350_310">
<rect width="1011" height="350" fill="white"/>
</clipPath>
</defs>
</svg>
