<svg width="1011" height="342" viewBox="0 0 1011 342" fill="none" xmlns="http://www.w3.org/2000/svg">
<g clip-path="url(#clip0_349_172)">
<line x1="505.75" y1="45" x2="505.75" y2="128" stroke="white" stroke-width="1.5"/>
<rect width="1011" height="45" fill="white"/>
<rect x="342.75" y="128.75" width="325.5" height="43.5" stroke="white" stroke-width="1.5"/>
<rect x="684.75" y="128.75" width="325.5" height="43.5" stroke="white" stroke-width="1.5"/>
<rect x="0.75" y="128.75" width="325.5" height="43.5" stroke="white" stroke-width="1.5"/>
<path d="M454.4 151.177V156.959H452.253V151.177H454.4ZM453.317 140.503C454.554 140.509 455.663 140.754 456.643 141.238C457.623 141.715 458.39 142.385 458.944 143.249C459.505 144.112 459.788 145.099 459.795 146.207C459.788 147.316 459.505 148.302 458.944 149.166C458.39 150.029 457.619 150.7 456.633 151.177C455.653 151.654 454.548 151.892 453.317 151.892C452.06 151.892 450.938 151.654 449.952 151.177C448.972 150.7 448.205 150.033 447.651 149.175C447.103 148.312 446.833 147.322 446.839 146.207C446.833 145.092 447.103 144.106 447.651 143.249C448.205 142.385 448.972 141.715 449.952 141.238C450.938 140.754 452.06 140.509 453.317 140.503ZM453.317 142.34C452.472 142.346 451.715 142.514 451.045 142.843C450.381 143.165 449.859 143.619 449.478 144.206C449.105 144.792 448.921 145.459 448.927 146.207C448.921 146.955 449.105 147.622 449.478 148.209C449.859 148.795 450.381 149.253 451.045 149.581C451.715 149.904 452.472 150.062 453.317 150.055C454.148 150.062 454.893 149.904 455.55 149.581C456.214 149.253 456.733 148.795 457.107 148.209C457.487 147.622 457.681 146.955 457.687 146.207C457.681 145.459 457.487 144.792 457.107 144.206C456.733 143.619 456.214 143.165 455.55 142.843C454.893 142.514 454.148 142.346 453.317 142.34ZM464.764 138.917V163.224H462.637V138.917H464.764ZM468.728 148.953V150.79H464.184V148.953H468.728ZM445.679 156.127H447.013C448.74 156.114 450.365 156.088 451.886 156.05C453.407 156.011 454.967 155.94 456.565 155.837C458.164 155.734 459.666 155.592 461.071 155.412L461.226 157.036C459.621 157.307 457.935 157.51 456.169 157.645C454.409 157.78 452.714 157.864 451.083 157.896C449.459 157.929 447.78 157.938 446.046 157.925L445.679 156.127ZM492.406 152.84V154.657H470.149V152.84H492.406ZM482.273 153.923V163.224H480.165V153.923H482.273ZM481.229 139.884C482.924 139.89 484.416 140.113 485.705 140.551C487.001 140.983 488.006 141.602 488.722 142.407C489.437 143.213 489.795 144.157 489.795 145.24C489.795 146.31 489.437 147.245 488.722 148.044C488.006 148.843 487.001 149.459 485.705 149.891C484.416 150.323 482.924 150.539 481.229 150.539C479.534 150.539 478.038 150.323 476.743 149.891C475.453 149.459 474.454 148.843 473.745 148.044C473.036 147.245 472.682 146.31 472.682 145.24C472.682 144.157 473.036 143.213 473.745 142.407C474.454 141.602 475.453 140.983 476.743 140.551C478.038 140.113 479.534 139.89 481.229 139.884ZM481.229 141.644C479.972 141.644 478.863 141.792 477.903 142.088C476.949 142.385 476.204 142.804 475.669 143.345C475.141 143.887 474.88 144.518 474.886 145.24C474.88 145.956 475.141 146.584 475.669 147.126C476.204 147.661 476.949 148.073 477.903 148.363C478.863 148.653 479.972 148.798 481.229 148.798C482.486 148.798 483.594 148.653 484.555 148.363C485.522 148.073 486.269 147.661 486.798 147.126C487.326 146.584 487.591 145.956 487.591 145.24C487.591 144.518 487.326 143.887 486.798 143.345C486.269 142.804 485.522 142.385 484.555 142.088C483.594 141.792 482.486 141.644 481.229 141.644ZM513.047 142.436V144.196H505.583V142.436H513.047ZM513.047 148.064V149.843H505.583V148.064H513.047ZM501.077 140.387C502.263 140.38 503.333 140.622 504.287 141.112C505.241 141.595 505.989 142.279 506.53 143.162C507.078 144.038 507.355 145.034 507.362 146.149C507.355 147.258 507.078 148.25 506.53 149.127C505.989 150.004 505.241 150.687 504.287 151.177C503.333 151.66 502.263 151.899 501.077 151.892C499.878 151.899 498.799 151.66 497.838 151.177C496.878 150.687 496.124 150.004 495.576 149.127C495.034 148.25 494.767 147.258 494.773 146.149C494.767 145.034 495.034 144.038 495.576 143.162C496.124 142.279 496.878 141.595 497.838 141.112C498.799 140.622 499.878 140.38 501.077 140.387ZM501.077 142.243C500.265 142.237 499.533 142.401 498.882 142.736C498.231 143.065 497.725 143.529 497.364 144.128C497.004 144.721 496.823 145.395 496.823 146.149C496.823 146.897 497.007 147.567 497.374 148.16C497.742 148.753 498.248 149.221 498.892 149.562C499.537 149.897 500.265 150.062 501.077 150.055C501.87 150.062 502.585 149.897 503.224 149.562C503.868 149.221 504.374 148.753 504.742 148.16C505.109 147.561 505.293 146.89 505.293 146.149C505.293 145.395 505.109 144.721 504.742 144.128C504.374 143.529 503.871 143.065 503.233 142.736C502.595 142.401 501.876 142.237 501.077 142.243ZM514.536 138.917V153.323H512.389V138.917H514.536ZM506.472 153.884C508.142 153.884 509.585 154.068 510.804 154.435C512.028 154.802 512.969 155.334 513.627 156.03C514.284 156.727 514.613 157.558 514.613 158.525C514.613 159.492 514.284 160.323 513.627 161.019C512.969 161.715 512.028 162.247 510.804 162.615C509.585 162.982 508.142 163.166 506.472 163.166C504.796 163.166 503.346 162.982 502.121 162.615C500.897 162.247 499.956 161.715 499.298 161.019C498.647 160.323 498.325 159.492 498.331 158.525C498.325 157.558 498.647 156.727 499.298 156.03C499.956 155.334 500.897 154.802 502.121 154.435C503.346 154.068 504.796 153.884 506.472 153.884ZM506.472 155.566C505.235 155.566 504.161 155.686 503.253 155.924C502.344 156.163 501.644 156.504 501.155 156.949C500.671 157.387 500.433 157.913 500.439 158.525C500.433 159.124 500.671 159.646 501.155 160.091C501.644 160.529 502.344 160.865 503.253 161.097C504.161 161.329 505.235 161.445 506.472 161.445C507.71 161.445 508.783 161.329 509.692 161.097C510.601 160.865 511.3 160.529 511.79 160.091C512.28 159.646 512.525 159.124 512.525 158.525C512.525 157.913 512.28 157.387 511.79 156.949C511.3 156.504 510.601 156.163 509.692 155.924C508.783 155.686 507.71 155.566 506.472 155.566ZM526.379 142.688C526.372 144.228 526.089 145.672 525.528 147.019C524.973 148.36 524.187 149.523 523.169 150.51C522.157 151.496 520.984 152.247 519.649 152.762L518.489 151.041C519.701 150.59 520.768 149.946 521.689 149.108C522.611 148.27 523.323 147.3 523.826 146.198C524.335 145.095 524.593 143.925 524.6 142.688V140.174H526.379V142.688ZM526.707 142.843C526.707 143.925 526.965 144.97 527.481 145.975C527.996 146.981 528.709 147.867 529.618 148.634C530.533 149.401 531.574 149.984 532.74 150.384L531.58 152.086C530.285 151.609 529.134 150.913 528.129 149.997C527.13 149.082 526.353 148.009 525.799 146.778C525.244 145.54 524.967 144.228 524.967 142.843V140.174H526.707V142.843ZM537.594 138.917V153.71H535.448V138.917H537.594ZM541.249 145.26V147.058H536.995V145.26H541.249ZM529.801 154.329C531.458 154.329 532.886 154.503 534.084 154.851C535.29 155.199 536.211 155.705 536.85 156.369C537.488 157.026 537.807 157.816 537.807 158.738C537.807 159.672 537.488 160.468 536.85 161.126C536.211 161.79 535.29 162.296 534.084 162.644C532.886 162.992 531.458 163.166 529.801 163.166C528.132 163.166 526.691 162.992 525.479 162.644C524.274 162.296 523.349 161.79 522.705 161.126C522.06 160.468 521.738 159.672 521.738 158.738C521.738 157.816 522.06 157.026 522.705 156.369C523.349 155.705 524.277 155.199 525.489 154.851C526.701 154.503 528.138 154.329 529.801 154.329ZM529.801 156.05C528.583 156.05 527.526 156.159 526.63 156.378C525.74 156.598 525.057 156.91 524.58 157.316C524.11 157.716 523.878 158.19 523.884 158.738C523.878 159.305 524.11 159.791 524.58 160.198C525.057 160.604 525.74 160.913 526.63 161.126C527.519 161.345 528.577 161.458 529.801 161.464C531.026 161.458 532.083 161.345 532.973 161.126C533.862 160.913 534.542 160.604 535.013 160.198C535.483 159.791 535.718 159.305 535.718 158.738C535.718 158.19 535.48 157.716 535.003 157.316C534.526 156.91 533.843 156.598 532.953 156.378C532.07 156.159 531.019 156.05 529.801 156.05ZM563.553 138.917V163.224H561.503V138.917H563.553ZM557.268 147.677V149.436H552.512V147.677H557.268ZM558.641 139.497V161.948H556.611V139.497H558.641ZM549.534 145.84C549.527 147.593 549.292 149.288 548.828 150.925C548.37 152.563 547.716 154.029 546.865 155.325C546.014 156.614 545.009 157.622 543.849 158.351L542.495 156.746C543.597 156.082 544.551 155.18 545.357 154.039C546.169 152.891 546.788 151.609 547.213 150.191C547.639 148.773 547.851 147.322 547.851 145.84V142.669H549.534V145.84ZM549.92 145.84C549.92 147.258 550.127 148.637 550.539 149.978C550.952 151.319 551.551 152.53 552.338 153.613C553.13 154.696 554.071 155.553 555.161 156.185L553.865 157.771C552.705 157.075 551.703 156.114 550.858 154.89C550.014 153.665 549.372 152.273 548.934 150.713C548.502 149.153 548.29 147.529 548.296 145.84V142.669H549.92V145.84ZM554.368 141.779V143.558H543.152V141.779H554.368Z" fill="white"/>
<path d="M771.336 154.74C773.115 154.74 774.627 154.882 775.871 155.166C777.115 155.449 778.062 155.872 778.713 156.432C779.371 156.993 779.703 157.68 779.709 158.492C779.703 159.291 779.371 159.965 778.713 160.512C778.062 161.06 777.115 161.473 775.871 161.75C774.627 162.027 773.115 162.166 771.336 162.166C769.544 162.166 768.023 162.027 766.772 161.75C765.522 161.473 764.571 161.06 763.92 160.512C763.269 159.965 762.944 159.291 762.944 158.492C762.944 157.68 763.269 156.993 763.92 156.432C764.571 155.872 765.522 155.449 766.772 155.166C768.023 154.882 769.544 154.74 771.336 154.74ZM771.336 156.365C770.021 156.365 768.903 156.445 767.981 156.606C767.059 156.767 766.357 157.009 765.873 157.331C765.39 157.647 765.148 158.034 765.148 158.492C765.148 158.936 765.39 159.314 765.873 159.623C766.357 159.926 767.059 160.155 767.981 160.309C768.909 160.471 770.028 160.548 771.336 160.541C772.644 160.548 773.76 160.471 774.681 160.309C775.61 160.155 776.315 159.926 776.799 159.623C777.282 159.314 777.524 158.936 777.524 158.492C777.524 158.034 777.282 157.647 776.799 157.331C776.315 157.009 775.613 156.767 774.691 156.606C773.769 156.445 772.651 156.365 771.336 156.365ZM781.14 139.967V141.669H761.435V139.967H781.14ZM771.336 142.674C773.882 142.674 775.832 142.971 777.185 143.564C778.546 144.15 779.226 145.014 779.226 146.155C779.226 146.902 778.919 147.534 778.307 148.05C777.695 148.565 776.799 148.955 775.619 149.22C774.446 149.484 773.018 149.616 771.336 149.616C769.66 149.616 768.232 149.484 767.053 149.22C765.873 148.955 764.977 148.565 764.365 148.05C763.753 147.534 763.447 146.902 763.447 146.155C763.447 145.014 764.127 144.15 765.487 143.564C766.847 142.971 768.796 142.674 771.336 142.674ZM771.336 144.182C770.15 144.182 769.138 144.26 768.3 144.414C767.462 144.569 766.824 144.791 766.386 145.081C765.954 145.372 765.741 145.729 765.748 146.155C765.741 146.561 765.954 146.909 766.386 147.199C766.824 147.483 767.462 147.698 768.3 147.847C769.144 147.995 770.156 148.069 771.336 148.069C772.522 148.069 773.534 147.995 774.372 147.847C775.21 147.698 775.848 147.483 776.286 147.199C776.725 146.909 776.944 146.561 776.944 146.155C776.944 145.729 776.725 145.372 776.286 145.081C775.848 144.791 775.21 144.569 774.372 144.414C773.54 144.26 772.528 144.182 771.336 144.182ZM772.419 137.569V141.05H770.292V137.569H772.419ZM782.435 151.492V153.232H760.275V151.492H782.435ZM772.419 148.978V152.381H770.292V148.978H772.419ZM804.546 153.696V162.224H802.4V155.475H788.187V153.696H804.546ZM804.546 137.917V152.381H802.4V137.917H804.546ZM791.416 139.387C792.635 139.38 793.724 139.622 794.684 140.112C795.651 140.595 796.409 141.272 796.957 142.142C797.504 143.006 797.778 143.995 797.778 145.11C797.778 146.226 797.504 147.221 796.957 148.098C796.409 148.968 795.651 149.645 794.684 150.128C793.724 150.612 792.635 150.854 791.416 150.854C790.198 150.854 789.102 150.612 788.129 150.128C787.162 149.645 786.405 148.968 785.857 148.098C785.309 147.221 785.035 146.226 785.035 145.11C785.035 144.002 785.309 143.012 785.857 142.142C786.405 141.272 787.162 140.595 788.129 140.112C789.102 139.622 790.198 139.38 791.416 139.387ZM791.416 141.224C790.591 141.224 789.853 141.388 789.202 141.717C788.551 142.046 788.042 142.506 787.675 143.099C787.314 143.686 787.137 144.356 787.143 145.11C787.137 145.871 787.314 146.548 787.675 147.141C788.042 147.734 788.551 148.198 789.202 148.533C789.853 148.862 790.591 149.023 791.416 149.017C792.235 149.023 792.967 148.862 793.611 148.533C794.262 148.198 794.771 147.734 795.139 147.141C795.506 146.548 795.69 145.871 795.69 145.11C795.69 144.356 795.506 143.686 795.139 143.099C794.771 142.506 794.262 142.046 793.611 141.717C792.967 141.388 792.235 141.224 791.416 141.224ZM816.95 144.453C816.95 146.258 816.641 148.011 816.022 149.713C815.403 151.414 814.555 152.916 813.479 154.218C812.409 155.514 811.213 156.494 809.892 157.157L808.538 155.359C809.737 154.805 810.843 153.96 811.855 152.826C812.867 151.692 813.669 150.39 814.262 148.92C814.862 147.444 815.164 145.955 815.171 144.453V140.025H816.95V144.453ZM817.317 144.453C817.311 145.89 817.601 147.318 818.188 148.736C818.781 150.148 819.583 151.405 820.595 152.507C821.607 153.609 822.706 154.431 823.892 154.972L822.577 156.674C821.275 156.036 820.086 155.095 819.009 153.851C817.933 152.6 817.082 151.157 816.457 149.519C815.832 147.882 815.519 146.193 815.519 144.453V140.025H817.317V144.453ZM828.707 137.917V162.262H826.56V137.917H828.707ZM852.906 137.917V162.262H850.76V137.917H852.906ZM836.431 154.373C838.158 154.373 839.654 154.35 840.917 154.305C842.18 154.26 843.389 154.18 844.543 154.064C845.703 153.948 846.886 153.78 848.091 153.561L848.323 155.378C846.525 155.701 844.746 155.92 842.986 156.036C841.226 156.152 839.041 156.216 836.431 156.229H834.459V154.373H836.431ZM846.022 140.238V142.036H836.624V155.05H834.459V140.238H846.022ZM870.635 139.793C871.815 139.799 872.862 140.151 873.778 140.847C874.699 141.536 875.415 142.523 875.924 143.805C876.44 145.081 876.701 146.567 876.707 148.262C876.701 149.964 876.44 151.453 875.924 152.729C875.415 154.006 874.699 154.992 873.778 155.688C872.862 156.384 871.815 156.732 870.635 156.732C869.443 156.732 868.383 156.384 867.454 155.688C866.533 154.992 865.814 154.006 865.298 152.729C864.789 151.453 864.538 149.964 864.544 148.262C864.538 146.567 864.789 145.081 865.298 143.805C865.814 142.523 866.533 141.536 867.454 140.847C868.383 140.151 869.443 139.799 870.635 139.793ZM870.635 141.707C869.843 141.714 869.14 141.991 868.528 142.539C867.922 143.08 867.448 143.847 867.106 144.84C866.765 145.826 866.594 146.967 866.594 148.262C866.594 149.564 866.765 150.712 867.106 151.704C867.448 152.697 867.922 153.464 868.528 154.006C869.14 154.547 869.843 154.818 870.635 154.818C871.422 154.818 872.121 154.547 872.733 154.006C873.346 153.464 873.823 152.697 874.164 151.704C874.506 150.712 874.677 149.564 874.677 148.262C874.677 146.967 874.506 145.826 874.164 144.84C873.823 143.847 873.346 143.08 872.733 142.539C872.121 141.991 871.422 141.714 870.635 141.707ZM884.249 137.917V162.262H882.122V137.917H884.249ZM883.069 147.199V148.978H875.992V147.199H883.069ZM897.155 151.453V161.47H895.009V151.453H897.155ZM908.409 137.936V162.243H906.224V137.936H908.409ZM888.183 150.738C890.394 150.731 892.301 150.715 893.906 150.689C895.518 150.657 897.249 150.583 899.098 150.467C900.948 150.351 902.698 150.177 904.348 149.945L904.484 151.55C902.041 151.962 899.514 152.233 896.904 152.362C894.3 152.491 891.496 152.555 888.492 152.555L888.183 150.738ZM906.804 154.547V156.21H900.636V154.547H906.804ZM896.208 139.135C897.394 139.135 898.451 139.335 899.379 139.735C900.307 140.134 901.032 140.698 901.554 141.427C902.076 142.149 902.337 142.977 902.337 143.912C902.337 144.866 902.08 145.7 901.564 146.416C901.048 147.131 900.323 147.689 899.388 148.088C898.46 148.482 897.4 148.681 896.208 148.688C894.996 148.681 893.923 148.482 892.988 148.088C892.053 147.689 891.328 147.131 890.812 146.416C890.297 145.7 890.039 144.866 890.039 143.912C890.039 142.977 890.3 142.149 890.822 141.427C891.344 140.698 892.069 140.134 892.998 139.735C893.932 139.335 895.002 139.135 896.208 139.135ZM896.208 140.818C895.402 140.818 894.683 140.95 894.051 141.214C893.426 141.478 892.936 141.846 892.582 142.316C892.234 142.78 892.063 143.312 892.069 143.912C892.063 144.524 892.231 145.069 892.572 145.546C892.92 146.016 893.41 146.38 894.042 146.638C894.673 146.896 895.395 147.025 896.208 147.025C896.994 147.025 897.696 146.896 898.315 146.638C898.934 146.38 899.417 146.016 899.766 145.546C900.12 145.069 900.301 144.524 900.307 143.912C900.301 143.312 900.12 142.78 899.766 142.316C899.417 141.846 898.934 141.478 898.315 141.214C897.696 140.95 896.994 140.818 896.208 140.818ZM932.125 149.597V151.376H915.34V149.597H932.125ZM934.755 157.099V158.898H912.498V157.099H934.755ZM931.893 140.18V141.959H917.468V150.409H915.34V140.18H931.893Z" fill="white"/>
<path d="M719.212 279.613V283.365H717.104V279.613H719.212ZM729.248 282.591V284.331H707.088V282.591H729.248ZM726.386 286.343V291.873H711.941V294.754H709.834V290.268H724.278V287.986H709.776V286.343H726.386ZM727.121 294.251V295.953H709.834V294.251H727.121ZM718.651 274.199C718.651 275.411 718.207 276.494 717.317 277.448C716.428 278.401 715.248 279.172 713.778 279.758C712.309 280.338 710.717 280.715 709.002 280.89L708.267 279.246C709.737 279.11 711.123 278.811 712.425 278.347C713.727 277.876 714.777 277.283 715.577 276.568C716.376 275.852 716.776 275.063 716.776 274.199V273.425H718.651V274.199ZM719.56 274.199C719.554 275.063 719.947 275.852 720.74 276.568C721.539 277.283 722.59 277.876 723.892 278.347C725.194 278.811 726.586 279.11 728.068 279.246L727.353 280.89C725.638 280.715 724.046 280.335 722.577 279.749C721.107 279.156 719.928 278.385 719.038 277.438C718.149 276.484 717.704 275.404 717.704 274.199V273.425H719.56V274.199ZM727.256 272.71V274.45H709.118V272.71H727.256ZM750.218 277.738V279.517H743.605V277.738H750.218ZM737.978 273.058C739.17 273.052 740.24 273.287 741.188 273.764C742.141 274.234 742.889 274.898 743.431 275.756C743.978 276.606 744.256 277.576 744.262 278.666C744.256 279.755 743.978 280.728 743.431 281.586C742.889 282.436 742.141 283.1 741.188 283.577C740.24 284.054 739.17 284.293 737.978 284.293C736.759 284.293 735.67 284.054 734.71 283.577C733.756 283.1 733.008 282.436 732.467 281.586C731.932 280.735 731.667 279.762 731.674 278.666C731.667 277.576 731.932 276.606 732.467 275.756C733.008 274.898 733.756 274.234 734.71 273.764C735.67 273.287 736.759 273.052 737.978 273.058ZM737.978 274.876C737.159 274.869 736.424 275.027 735.773 275.349C735.129 275.665 734.626 276.113 734.265 276.693C733.904 277.267 733.723 277.924 733.723 278.666C733.723 279.394 733.904 280.048 734.265 280.628C734.626 281.202 735.129 281.653 735.773 281.982C736.424 282.311 737.159 282.475 737.978 282.475C738.783 282.475 739.505 282.311 740.143 281.982C740.788 281.653 741.291 281.202 741.652 280.628C742.013 280.048 742.193 279.394 742.193 278.666C742.193 277.931 742.013 277.273 741.652 276.693C741.291 276.113 740.791 275.665 740.153 275.349C739.515 275.027 738.79 274.869 737.978 274.876ZM751.436 271.917V284.95H749.29V271.917H751.436ZM737.92 286.188V289.262H749.29V286.188H751.436V295.895H735.773V286.188H737.92ZM737.92 294.135H749.29V290.983H737.92V294.135ZM774.707 278.666V280.425H768.481V278.666H774.707ZM775.635 271.936V289.765H773.489V271.936H775.635ZM776.312 293.903V295.682H760.03V293.903H776.312ZM762.177 288.16V294.773H760.03V288.16H762.177ZM763.55 276.945C763.543 278.401 763.25 279.774 762.67 281.064C762.096 282.353 761.294 283.481 760.262 284.448C759.231 285.414 758.045 286.149 756.704 286.652L755.583 284.892C756.775 284.473 757.839 283.861 758.773 283.055C759.715 282.243 760.449 281.308 760.978 280.251C761.506 279.188 761.771 278.086 761.771 276.945V274.953H763.55V276.945ZM763.936 276.945C763.936 277.976 764.188 278.985 764.691 279.971C765.193 280.957 765.899 281.834 766.808 282.601C767.717 283.368 768.758 283.951 769.931 284.351L768.809 286.072C767.501 285.601 766.344 284.908 765.338 283.993C764.339 283.071 763.563 282.005 763.008 280.793C762.454 279.575 762.177 278.292 762.177 276.945V274.953H763.936V276.945ZM769.37 273.909V275.688H756.279V273.909H769.37ZM787.962 278.453C787.962 280.258 787.652 282.011 787.033 283.713C786.415 285.414 785.567 286.916 784.491 288.218C783.421 289.514 782.225 290.494 780.904 291.157L779.55 289.359C780.749 288.805 781.854 287.96 782.866 286.826C783.878 285.692 784.681 284.39 785.274 282.92C785.873 281.444 786.176 279.955 786.183 278.453V274.025H787.962V278.453ZM788.329 278.453C788.323 279.89 788.613 281.318 789.199 282.736C789.792 284.148 790.595 285.405 791.607 286.507C792.619 287.609 793.718 288.431 794.904 288.972L793.589 290.674C792.287 290.036 791.097 289.095 790.021 287.851C788.945 286.6 788.094 285.157 787.469 283.519C786.843 281.882 786.531 280.193 786.531 278.453V274.025H788.329V278.453ZM799.719 271.917V296.262H797.572V271.917H799.719ZM727.464 317.453C727.464 319.258 727.154 321.011 726.535 322.713C725.917 324.414 725.069 325.916 723.993 327.218C722.923 328.514 721.727 329.494 720.406 330.157L719.052 328.359C720.251 327.805 721.356 326.96 722.368 325.826C723.38 324.692 724.183 323.39 724.776 321.92C725.375 320.444 725.678 318.955 725.685 317.453V313.025H727.464V317.453ZM727.831 317.453C727.825 318.89 728.115 320.318 728.701 321.736C729.294 323.148 730.097 324.405 731.109 325.507C732.121 326.609 733.22 327.431 734.406 327.972L733.091 329.674C731.789 329.036 730.599 328.095 729.523 326.851C728.447 325.6 727.596 324.157 726.971 322.519C726.345 320.882 726.033 319.193 726.033 317.453V313.025H727.831V317.453ZM739.221 310.917V335.262H737.074V310.917H739.221ZM751.179 314.688C751.173 316.228 750.889 317.672 750.329 319.019C749.774 320.36 748.988 321.523 747.969 322.51C746.957 323.496 745.784 324.247 744.45 324.762L743.29 323.041C744.502 322.59 745.568 321.946 746.49 321.108C747.412 320.27 748.124 319.3 748.627 318.198C749.136 317.095 749.394 315.925 749.4 314.688V312.174H751.179V314.688ZM751.508 314.843C751.508 315.925 751.766 316.97 752.282 317.975C752.797 318.981 753.51 319.867 754.418 320.634C755.334 321.401 756.375 321.984 757.541 322.384L756.381 324.086C755.085 323.609 753.935 322.913 752.929 321.997C751.93 321.082 751.154 320.009 750.599 318.778C750.045 317.54 749.768 316.228 749.768 314.843V312.174H751.508V314.843ZM762.395 310.917V325.71H760.248V310.917H762.395ZM766.05 317.26V319.058H761.795V317.26H766.05ZM754.602 326.329C756.259 326.329 757.686 326.503 758.885 326.851C760.091 327.199 761.012 327.705 761.65 328.369C762.289 329.026 762.608 329.816 762.608 330.738C762.608 331.672 762.289 332.468 761.65 333.126C761.012 333.79 760.091 334.296 758.885 334.644C757.686 334.992 756.259 335.166 754.602 335.166C752.933 335.166 751.492 334.992 750.28 334.644C749.075 334.296 748.15 333.79 747.505 333.126C746.861 332.468 746.539 331.672 746.539 330.738C746.539 329.816 746.861 329.026 747.505 328.369C748.15 327.705 749.078 327.199 750.29 326.851C751.502 326.503 752.939 326.329 754.602 326.329ZM754.602 328.05C753.384 328.05 752.327 328.159 751.431 328.378C750.541 328.598 749.858 328.91 749.381 329.316C748.911 329.716 748.678 330.19 748.685 330.738C748.678 331.305 748.911 331.791 749.381 332.198C749.858 332.604 750.541 332.913 751.431 333.126C752.32 333.345 753.377 333.458 754.602 333.464C755.827 333.458 756.884 333.345 757.773 333.126C758.663 332.913 759.343 332.604 759.813 332.198C760.284 331.791 760.519 331.305 760.519 330.738C760.519 330.19 760.281 329.716 759.804 329.316C759.327 328.91 758.643 328.598 757.754 328.378C756.871 328.159 755.82 328.05 754.602 328.05ZM775.804 314.436C775.798 315.958 775.504 317.392 774.924 318.739C774.351 320.086 773.545 321.256 772.507 322.249C771.476 323.241 770.287 323.995 768.939 324.511L767.818 322.829C769.03 322.384 770.103 321.736 771.037 320.885C771.972 320.028 772.7 319.042 773.223 317.927C773.745 316.805 774.006 315.642 774.006 314.436V312.097H775.804V314.436ZM776.191 314.436C776.184 315.597 776.442 316.705 776.964 317.762C777.493 318.82 778.224 319.751 779.159 320.557C780.094 321.356 781.16 321.965 782.359 322.384L781.257 324.086C779.903 323.589 778.711 322.871 777.68 321.93C776.648 320.982 775.843 319.867 775.263 318.584C774.682 317.295 774.392 315.913 774.392 314.436V312.097H776.191V314.436ZM787.658 326.773V335.224H785.511V328.533H771.299V326.773H787.658ZM787.658 310.917V325.555H785.511V310.917H787.658Z" fill="white"/>
<path d="M891.4 284.177V289.959H889.253V284.177H891.4ZM890.317 273.503C891.554 273.509 892.663 273.754 893.643 274.238C894.623 274.715 895.39 275.385 895.944 276.249C896.505 277.112 896.788 278.099 896.795 279.207C896.788 280.316 896.505 281.302 895.944 282.166C895.39 283.029 894.619 283.7 893.633 284.177C892.653 284.654 891.548 284.892 890.317 284.892C889.06 284.892 887.938 284.654 886.952 284.177C885.972 283.7 885.205 283.033 884.651 282.175C884.103 281.312 883.833 280.322 883.839 279.207C883.833 278.092 884.103 277.106 884.651 276.249C885.205 275.385 885.972 274.715 886.952 274.238C887.938 273.754 889.06 273.509 890.317 273.503ZM890.317 275.34C889.472 275.346 888.715 275.514 888.045 275.843C887.381 276.165 886.859 276.619 886.478 277.206C886.105 277.792 885.921 278.459 885.927 279.207C885.921 279.955 886.105 280.622 886.478 281.209C886.859 281.795 887.381 282.253 888.045 282.581C888.715 282.904 889.472 283.062 890.317 283.055C891.148 283.062 891.893 282.904 892.55 282.581C893.214 282.253 893.733 281.795 894.107 281.209C894.487 280.622 894.681 279.955 894.687 279.207C894.681 278.459 894.487 277.792 894.107 277.206C893.733 276.619 893.214 276.165 892.55 275.843C891.893 275.514 891.148 275.346 890.317 275.34ZM901.764 271.917V296.224H899.637V271.917H901.764ZM905.728 281.953V283.79H901.184V281.953H905.728ZM882.679 289.127H884.013C885.74 289.114 887.365 289.088 888.886 289.05C890.407 289.011 891.967 288.94 893.565 288.837C895.164 288.734 896.666 288.592 898.071 288.412L898.226 290.036C896.621 290.307 894.935 290.51 893.169 290.645C891.409 290.78 889.714 290.864 888.083 290.896C886.459 290.929 884.78 290.938 883.046 290.925L882.679 289.127ZM929.406 285.84V287.657H907.149V285.84H929.406ZM919.273 286.923V296.224H917.165V286.923H919.273ZM918.229 272.884C919.924 272.89 921.416 273.113 922.705 273.551C924.001 273.983 925.006 274.602 925.722 275.407C926.437 276.213 926.795 277.157 926.795 278.24C926.795 279.31 926.437 280.245 925.722 281.044C925.006 281.843 924.001 282.459 922.705 282.891C921.416 283.323 919.924 283.539 918.229 283.539C916.534 283.539 915.038 283.323 913.743 282.891C912.453 282.459 911.454 281.843 910.745 281.044C910.036 280.245 909.682 279.31 909.682 278.24C909.682 277.157 910.036 276.213 910.745 275.407C911.454 274.602 912.453 273.983 913.743 273.551C915.038 273.113 916.534 272.89 918.229 272.884ZM918.229 274.644C916.972 274.644 915.863 274.792 914.903 275.088C913.949 275.385 913.204 275.804 912.669 276.345C912.141 276.887 911.88 277.518 911.886 278.24C911.88 278.956 912.141 279.584 912.669 280.126C913.204 280.661 913.949 281.073 914.903 281.363C915.863 281.653 916.972 281.798 918.229 281.798C919.486 281.798 920.594 281.653 921.555 281.363C922.522 281.073 923.269 280.661 923.798 280.126C924.326 279.584 924.591 278.956 924.591 278.24C924.591 277.518 924.326 276.887 923.798 276.345C923.269 275.804 922.522 275.385 921.555 275.088C920.594 274.792 919.486 274.644 918.229 274.644ZM950.047 275.436V277.196H942.583V275.436H950.047ZM950.047 281.064V282.843H942.583V281.064H950.047ZM938.077 273.387C939.263 273.38 940.333 273.622 941.287 274.112C942.241 274.595 942.989 275.279 943.53 276.162C944.078 277.038 944.355 278.034 944.362 279.149C944.355 280.258 944.078 281.25 943.53 282.127C942.989 283.004 942.241 283.687 941.287 284.177C940.333 284.66 939.263 284.899 938.077 284.892C936.878 284.899 935.799 284.66 934.838 284.177C933.878 283.687 933.124 283.004 932.576 282.127C932.034 281.25 931.767 280.258 931.773 279.149C931.767 278.034 932.034 277.038 932.576 276.162C933.124 275.279 933.878 274.595 934.838 274.112C935.799 273.622 936.878 273.38 938.077 273.387ZM938.077 275.243C937.265 275.237 936.533 275.401 935.882 275.736C935.231 276.065 934.725 276.529 934.364 277.128C934.004 277.721 933.823 278.395 933.823 279.149C933.823 279.897 934.007 280.567 934.374 281.16C934.742 281.753 935.248 282.221 935.892 282.562C936.537 282.897 937.265 283.062 938.077 283.055C938.87 283.062 939.585 282.897 940.224 282.562C940.868 282.221 941.374 281.753 941.742 281.16C942.109 280.561 942.293 279.89 942.293 279.149C942.293 278.395 942.109 277.721 941.742 277.128C941.374 276.529 940.871 276.065 940.233 275.736C939.595 275.401 938.876 275.237 938.077 275.243ZM951.536 271.917V286.323H949.389V271.917H951.536ZM943.472 286.884C945.142 286.884 946.585 287.068 947.804 287.435C949.028 287.802 949.969 288.334 950.627 289.03C951.284 289.727 951.613 290.558 951.613 291.525C951.613 292.492 951.284 293.323 950.627 294.019C949.969 294.715 949.028 295.247 947.804 295.615C946.585 295.982 945.142 296.166 943.472 296.166C941.796 296.166 940.346 295.982 939.121 295.615C937.897 295.247 936.956 294.715 936.298 294.019C935.647 293.323 935.325 292.492 935.331 291.525C935.325 290.558 935.647 289.727 936.298 289.03C936.956 288.334 937.897 287.802 939.121 287.435C940.346 287.068 941.796 286.884 943.472 286.884ZM943.472 288.566C942.235 288.566 941.161 288.686 940.253 288.924C939.344 289.163 938.644 289.504 938.155 289.949C937.671 290.387 937.433 290.913 937.439 291.525C937.433 292.124 937.671 292.646 938.155 293.091C938.644 293.529 939.344 293.865 940.253 294.097C941.161 294.329 942.235 294.445 943.472 294.445C944.71 294.445 945.783 294.329 946.692 294.097C947.601 293.865 948.3 293.529 948.79 293.091C949.28 292.646 949.525 292.124 949.525 291.525C949.525 290.913 949.28 290.387 948.79 289.949C948.3 289.504 947.601 289.163 946.692 288.924C945.783 288.686 944.71 288.566 943.472 288.566ZM963.379 275.688C963.372 277.228 963.089 278.672 962.528 280.019C961.973 281.36 961.187 282.523 960.169 283.51C959.157 284.496 957.984 285.247 956.649 285.762L955.489 284.041C956.701 283.59 957.768 282.946 958.689 282.108C959.611 281.27 960.323 280.3 960.826 279.198C961.335 278.095 961.593 276.925 961.6 275.688V273.174H963.379V275.688ZM963.707 275.843C963.707 276.925 963.965 277.97 964.481 278.975C964.996 279.981 965.709 280.867 966.618 281.634C967.533 282.401 968.574 282.984 969.74 283.384L968.58 285.086C967.285 284.609 966.134 283.913 965.129 282.997C964.13 282.082 963.353 281.009 962.799 279.778C962.244 278.54 961.967 277.228 961.967 275.843V273.174H963.707V275.843ZM974.594 271.917V286.71H972.448V271.917H974.594ZM978.249 278.26V280.058H973.995V278.26H978.249ZM966.801 287.329C968.458 287.329 969.886 287.503 971.084 287.851C972.29 288.199 973.211 288.705 973.85 289.369C974.488 290.026 974.807 290.816 974.807 291.738C974.807 292.672 974.488 293.468 973.85 294.126C973.211 294.79 972.29 295.296 971.084 295.644C969.886 295.992 968.458 296.166 966.801 296.166C965.132 296.166 963.691 295.992 962.479 295.644C961.274 295.296 960.349 294.79 959.705 294.126C959.06 293.468 958.738 292.672 958.738 291.738C958.738 290.816 959.06 290.026 959.705 289.369C960.349 288.705 961.277 288.199 962.489 287.851C963.701 287.503 965.138 287.329 966.801 287.329ZM966.801 289.05C965.583 289.05 964.526 289.159 963.63 289.378C962.74 289.598 962.057 289.91 961.58 290.316C961.11 290.716 960.878 291.19 960.884 291.738C960.878 292.305 961.11 292.791 961.58 293.198C962.057 293.604 962.74 293.913 963.63 294.126C964.519 294.345 965.577 294.458 966.801 294.464C968.026 294.458 969.083 294.345 969.973 294.126C970.862 293.913 971.542 293.604 972.013 293.198C972.483 292.791 972.718 292.305 972.718 291.738C972.718 291.19 972.48 290.716 972.003 290.316C971.526 289.91 970.843 289.598 969.953 289.378C969.07 289.159 968.019 289.05 966.801 289.05ZM1000.55 271.917V296.224H998.503V271.917H1000.55ZM994.268 280.677V282.436H989.512V280.677H994.268ZM995.641 272.497V294.948H993.611V272.497H995.641ZM986.534 278.84C986.527 280.593 986.292 282.288 985.828 283.925C985.37 285.563 984.716 287.029 983.865 288.325C983.014 289.614 982.009 290.622 980.849 291.351L979.495 289.746C980.597 289.082 981.551 288.18 982.357 287.039C983.169 285.891 983.788 284.609 984.213 283.191C984.639 281.773 984.851 280.322 984.851 278.84V275.669H986.534V278.84ZM986.92 278.84C986.92 280.258 987.127 281.637 987.539 282.978C987.952 284.319 988.551 285.53 989.338 286.613C990.13 287.696 991.071 288.553 992.161 289.185L990.865 290.771C989.705 290.075 988.703 289.114 987.858 287.89C987.014 286.665 986.372 285.273 985.934 283.713C985.502 282.153 985.29 280.529 985.296 278.84V275.669H986.92V278.84ZM991.368 274.779V276.558H980.152V274.779H991.368ZM915.464 317.453C915.464 319.258 915.154 321.011 914.535 322.713C913.917 324.414 913.069 325.916 911.993 327.218C910.923 328.514 909.727 329.494 908.406 330.157L907.052 328.359C908.251 327.805 909.356 326.96 910.368 325.826C911.38 324.692 912.183 323.39 912.776 321.92C913.375 320.444 913.678 318.955 913.685 317.453V313.025H915.464V317.453ZM915.831 317.453C915.825 318.89 916.115 320.318 916.701 321.736C917.294 323.148 918.097 324.405 919.109 325.507C920.121 326.609 921.22 327.431 922.406 327.972L921.091 329.674C919.789 329.036 918.599 328.095 917.523 326.851C916.447 325.6 915.596 324.157 914.971 322.519C914.345 320.882 914.033 319.193 914.033 317.453V313.025H915.831V317.453ZM927.221 310.917V335.262H925.074V310.917H927.221ZM939.179 314.688C939.173 316.228 938.889 317.672 938.329 319.019C937.774 320.36 936.988 321.523 935.969 322.51C934.957 323.496 933.784 324.247 932.45 324.762L931.29 323.041C932.502 322.59 933.568 321.946 934.49 321.108C935.412 320.27 936.124 319.3 936.627 318.198C937.136 317.095 937.394 315.925 937.4 314.688V312.174H939.179V314.688ZM939.508 314.843C939.508 315.925 939.766 316.97 940.282 317.975C940.797 318.981 941.51 319.867 942.418 320.634C943.334 321.401 944.375 321.984 945.541 322.384L944.381 324.086C943.085 323.609 941.935 322.913 940.929 321.997C939.93 321.082 939.154 320.009 938.599 318.778C938.045 317.54 937.768 316.228 937.768 314.843V312.174H939.508V314.843ZM950.395 310.917V325.71H948.248V310.917H950.395ZM954.05 317.26V319.058H949.795V317.26H954.05ZM942.602 326.329C944.259 326.329 945.686 326.503 946.885 326.851C948.091 327.199 949.012 327.705 949.65 328.369C950.289 329.026 950.608 329.816 950.608 330.738C950.608 331.672 950.289 332.468 949.65 333.126C949.012 333.79 948.091 334.296 946.885 334.644C945.686 334.992 944.259 335.166 942.602 335.166C940.933 335.166 939.492 334.992 938.28 334.644C937.075 334.296 936.15 333.79 935.505 333.126C934.861 332.468 934.539 331.672 934.539 330.738C934.539 329.816 934.861 329.026 935.505 328.369C936.15 327.705 937.078 327.199 938.29 326.851C939.502 326.503 940.939 326.329 942.602 326.329ZM942.602 328.05C941.384 328.05 940.327 328.159 939.431 328.378C938.541 328.598 937.858 328.91 937.381 329.316C936.911 329.716 936.678 330.19 936.685 330.738C936.678 331.305 936.911 331.791 937.381 332.198C937.858 332.604 938.541 332.913 939.431 333.126C940.32 333.345 941.377 333.458 942.602 333.464C943.827 333.458 944.884 333.345 945.773 333.126C946.663 332.913 947.343 332.604 947.813 332.198C948.284 331.791 948.519 331.305 948.519 330.738C948.519 330.19 948.281 329.716 947.804 329.316C947.327 328.91 946.643 328.598 945.754 328.378C944.871 328.159 943.82 328.05 942.602 328.05ZM963.804 314.436C963.798 315.958 963.504 317.392 962.924 318.739C962.351 320.086 961.545 321.256 960.507 322.249C959.476 323.241 958.287 323.995 956.939 324.511L955.818 322.829C957.03 322.384 958.103 321.736 959.037 320.885C959.972 320.028 960.7 319.042 961.223 317.927C961.745 316.805 962.006 315.642 962.006 314.436V312.097H963.804V314.436ZM964.191 314.436C964.184 315.597 964.442 316.705 964.964 317.762C965.493 318.82 966.224 319.751 967.159 320.557C968.094 321.356 969.16 321.965 970.359 322.384L969.257 324.086C967.903 323.589 966.711 322.871 965.68 321.93C964.648 320.982 963.843 319.867 963.263 318.584C962.682 317.295 962.392 315.913 962.392 314.436V312.097H964.191V314.436ZM975.658 326.773V335.224H973.511V328.533H959.299V326.773H975.658ZM975.658 310.917V325.555H973.511V310.917H975.658Z" fill="white"/>
<path d="M128.212 145.613V149.365H126.104V145.613H128.212ZM138.248 148.591V150.331H116.088V148.591H138.248ZM135.386 152.343V157.873H120.941V160.754H118.834V156.268H133.278V153.986H118.776V152.343H135.386ZM136.121 160.251V161.953H118.834V160.251H136.121ZM127.651 140.199C127.651 141.411 127.207 142.494 126.317 143.448C125.428 144.401 124.248 145.172 122.778 145.758C121.309 146.338 119.717 146.715 118.002 146.89L117.267 145.246C118.737 145.11 120.123 144.811 121.425 144.347C122.727 143.876 123.777 143.283 124.577 142.568C125.376 141.852 125.776 141.063 125.776 140.199V139.425H127.651V140.199ZM128.56 140.199C128.554 141.063 128.947 141.852 129.74 142.568C130.539 143.283 131.59 143.876 132.892 144.347C134.194 144.811 135.586 145.11 137.068 145.246L136.353 146.89C134.638 146.715 133.046 146.335 131.577 145.749C130.107 145.156 128.928 144.385 128.038 143.438C127.149 142.484 126.704 141.404 126.704 140.199V139.425H128.56V140.199ZM136.256 138.71V140.45H118.118V138.71H136.256ZM159.218 143.738V145.517H152.605V143.738H159.218ZM146.978 139.058C148.17 139.052 149.24 139.287 150.188 139.764C151.141 140.234 151.889 140.898 152.431 141.756C152.978 142.606 153.256 143.576 153.262 144.666C153.256 145.755 152.978 146.728 152.431 147.586C151.889 148.436 151.141 149.1 150.188 149.577C149.24 150.054 148.17 150.293 146.978 150.293C145.759 150.293 144.67 150.054 143.71 149.577C142.756 149.1 142.008 148.436 141.467 147.586C140.932 146.735 140.667 145.762 140.674 144.666C140.667 143.576 140.932 142.606 141.467 141.756C142.008 140.898 142.756 140.234 143.71 139.764C144.67 139.287 145.759 139.052 146.978 139.058ZM146.978 140.876C146.159 140.869 145.424 141.027 144.773 141.349C144.129 141.665 143.626 142.113 143.265 142.693C142.904 143.267 142.723 143.924 142.723 144.666C142.723 145.394 142.904 146.048 143.265 146.628C143.626 147.202 144.129 147.653 144.773 147.982C145.424 148.311 146.159 148.475 146.978 148.475C147.783 148.475 148.505 148.311 149.143 147.982C149.788 147.653 150.291 147.202 150.652 146.628C151.013 146.048 151.193 145.394 151.193 144.666C151.193 143.931 151.013 143.273 150.652 142.693C150.291 142.113 149.791 141.665 149.153 141.349C148.515 141.027 147.79 140.869 146.978 140.876ZM160.436 137.917V150.95H158.29V137.917H160.436ZM146.92 152.188V155.262H158.29V152.188H160.436V161.895H144.773V152.188H146.92ZM146.92 160.135H158.29V156.983H146.92V160.135ZM183.707 144.666V146.425H177.481V144.666H183.707ZM184.635 137.936V155.765H182.489V137.936H184.635ZM185.312 159.903V161.682H169.03V159.903H185.312ZM171.177 154.16V160.773H169.03V154.16H171.177ZM172.55 142.945C172.543 144.401 172.25 145.774 171.67 147.064C171.096 148.353 170.294 149.481 169.262 150.448C168.231 151.414 167.045 152.149 165.704 152.652L164.583 150.892C165.775 150.473 166.839 149.861 167.773 149.055C168.715 148.243 169.449 147.308 169.978 146.251C170.506 145.188 170.771 144.086 170.771 142.945V140.953H172.55V142.945ZM172.936 142.945C172.936 143.976 173.188 144.985 173.691 145.971C174.193 146.957 174.899 147.834 175.808 148.601C176.717 149.368 177.758 149.951 178.931 150.351L177.809 152.072C176.501 151.601 175.344 150.908 174.338 149.993C173.339 149.071 172.563 148.005 172.008 146.793C171.454 145.575 171.177 144.292 171.177 142.945V140.953H172.936V142.945ZM178.37 139.909V141.688H165.279V139.909H178.37ZM196.962 144.453C196.962 146.258 196.652 148.011 196.033 149.713C195.415 151.414 194.567 152.916 193.491 154.218C192.421 155.514 191.225 156.494 189.904 157.157L188.55 155.359C189.749 154.805 190.854 153.96 191.866 152.826C192.878 151.692 193.681 150.39 194.274 148.92C194.873 147.444 195.176 145.955 195.183 144.453V140.025H196.962V144.453ZM197.329 144.453C197.323 145.89 197.613 147.318 198.199 148.736C198.792 150.148 199.595 151.405 200.607 152.507C201.619 153.609 202.718 154.431 203.904 154.972L202.589 156.674C201.287 156.036 200.097 155.095 199.021 153.851C197.945 152.6 197.094 151.157 196.469 149.519C195.843 147.882 195.531 146.193 195.531 144.453V140.025H197.329V144.453ZM208.719 137.917V162.262H206.572V137.917H208.719Z" fill="white"/>
<path d="M385.308 33L385.297 30.6588L392.652 23.2314C393.536 22.3198 394.213 21.5773 394.683 21.0041C395.159 20.4309 395.522 19.875 395.77 19.3363C396.026 18.7907 396.154 18.2175 396.154 17.6167C396.154 16.933 395.981 16.3322 395.636 15.8142C395.29 15.2963 394.821 14.8992 394.227 14.6229C393.633 14.3398 392.963 14.1982 392.217 14.1982C391.444 14.1982 390.767 14.3536 390.187 14.6644C389.607 14.9682 389.158 15.4068 388.84 15.98C388.522 16.5463 388.364 17.2023 388.364 17.9482H385.297C385.297 16.6706 385.594 15.5449 386.188 14.5711C386.789 13.5905 387.618 12.8343 388.674 12.3025C389.738 11.7638 390.94 11.4945 392.279 11.4945C393.619 11.4945 394.814 11.7569 395.864 12.2818C396.913 12.7997 397.732 13.518 398.319 14.4365C398.913 15.355 399.213 16.384 399.22 17.5235C399.213 18.3384 399.058 19.1188 398.754 19.8646C398.45 20.6105 397.932 21.4392 397.2 22.3508C396.475 23.2624 395.442 24.3778 394.103 25.6968L389.793 30.0787V30.2341H399.562V33H385.308ZM410.525 33.3419C408.902 33.3419 407.504 32.9137 406.33 32.0573C405.163 31.201 404.272 29.9544 403.657 28.3177C403.049 26.674 402.745 24.7023 402.745 22.4026C402.745 20.1167 403.053 18.1588 403.667 16.529C404.289 14.8923 405.183 13.6457 406.35 12.7894C407.518 11.9261 408.909 11.4945 410.525 11.4945C412.148 11.4945 413.543 11.9261 414.71 12.7894C415.877 13.6526 416.768 14.8992 417.383 16.529C418.004 18.1588 418.315 20.1167 418.315 22.4026C418.315 24.7023 418.008 26.674 417.393 28.3177C416.779 29.9544 415.888 31.201 414.721 32.0573C413.553 32.9137 412.155 33.3419 410.525 33.3419ZM410.525 30.5656C411.485 30.5656 412.307 30.2514 412.991 29.6229C413.674 28.9945 414.196 28.0725 414.555 26.857C414.921 25.6347 415.104 24.1499 415.104 22.4026C415.104 20.6623 414.921 19.1809 414.555 17.9586C414.189 16.7362 413.664 15.8108 412.98 15.1823C412.297 14.5539 411.478 14.2396 410.525 14.2396C409.579 14.2396 408.764 14.5539 408.08 15.1823C407.397 15.8108 406.872 16.7362 406.506 17.9586C406.14 19.1809 405.957 20.6623 405.957 22.4026C405.957 24.1499 406.136 25.6347 406.495 26.857C406.855 28.0725 407.376 28.9945 408.06 29.6229C408.75 30.2514 409.572 30.5656 410.525 30.5656ZM421.665 33L421.655 30.6588L429.01 23.2314C429.894 22.3198 430.57 21.5773 431.04 21.0041C431.517 20.4309 431.879 19.875 432.128 19.3363C432.383 18.7907 432.511 18.2175 432.511 17.6167C432.511 16.933 432.338 16.3322 431.993 15.8142C431.648 15.2963 431.178 14.8992 430.584 14.6229C429.99 14.3398 429.32 14.1982 428.575 14.1982C427.801 14.1982 427.124 14.3536 426.544 14.6644C425.964 14.9682 425.515 15.4068 425.197 15.98C424.88 16.5463 424.721 17.2023 424.721 17.9482H421.655C421.655 16.6706 421.952 15.5449 422.546 14.5711C423.146 13.5905 423.975 12.8343 425.032 12.3025C426.095 11.7638 427.297 11.4945 428.637 11.4945C429.977 11.4945 431.171 11.7569 432.221 12.2818C433.271 12.7997 434.089 13.518 434.676 14.4365C435.27 15.355 435.57 16.384 435.577 17.5235C435.57 18.3384 435.415 19.1188 435.111 19.8646C434.807 20.6105 434.289 21.4392 433.557 22.3508C432.832 23.2624 431.8 24.3778 430.46 25.6968L426.151 30.0787V30.2341H435.919V33H421.665ZM447.028 33.2901C445.584 33.2901 444.289 33.0449 443.143 32.5546C442.003 32.0642 441.102 31.3805 440.439 30.5035C439.783 29.6195 439.438 28.6043 439.403 27.4579H442.666C442.701 28.0656 442.912 28.6008 443.298 29.0635C443.685 29.5262 444.2 29.8854 444.842 30.1409C445.491 30.3895 446.209 30.5138 446.996 30.5138C447.846 30.5138 448.606 30.3722 449.275 30.0891C449.952 29.799 450.481 29.3916 450.86 28.8667C451.24 28.3349 451.427 27.7341 451.42 27.0642C451.427 26.3598 451.24 25.7348 450.86 25.1892C450.487 24.6436 449.938 24.2189 449.213 23.9151C448.495 23.6112 447.639 23.4593 446.644 23.4593H444.842V20.828H446.644C447.445 20.828 448.157 20.6865 448.778 20.4033C449.4 20.1202 449.883 19.7265 450.229 19.2224C450.581 18.7113 450.757 18.1209 450.757 17.451C450.757 16.8087 450.605 16.2424 450.301 15.7521C450.004 15.2548 449.576 14.8715 449.017 14.6022C448.457 14.3329 447.808 14.1982 447.069 14.1982C446.351 14.1982 445.684 14.326 445.07 14.5815C444.455 14.8301 443.954 15.1892 443.568 15.6588C443.188 16.1285 442.984 16.674 442.956 17.2956H439.849C439.883 16.1699 440.222 15.1651 440.864 14.2811C441.513 13.3971 442.383 12.7134 443.474 12.23C444.572 11.7396 445.781 11.4945 447.1 11.4945C448.454 11.4945 449.642 11.7569 450.664 12.2818C451.693 12.7997 452.487 13.5007 453.046 14.3847C453.606 15.2617 453.882 16.2286 453.875 17.2852C453.882 18.0656 453.73 18.7769 453.419 19.4192C453.108 20.0615 452.67 20.6001 452.104 21.0352C451.544 21.4703 450.885 21.7811 450.125 21.9675V22.1333C451.078 22.2714 451.896 22.5684 452.58 23.0242C453.264 23.48 453.785 24.0635 454.144 24.7749C454.503 25.4862 454.679 26.2873 454.673 27.1782C454.679 28.3315 454.351 29.3743 453.688 30.3066C453.032 31.239 452.121 31.971 450.954 32.5028C449.787 33.0276 448.478 33.2901 447.028 33.2901ZM476.584 27.375C478.511 27.375 480.148 27.5304 481.494 27.8412C482.848 28.1519 483.877 28.6112 484.581 29.2189C485.293 29.8267 485.652 30.5691 485.659 31.4461C485.652 32.3163 485.293 33.0483 484.581 33.6423C483.877 34.2431 482.848 34.692 481.494 34.989C480.148 35.2928 478.511 35.4448 476.584 35.4448C474.637 35.4448 472.986 35.2928 471.633 34.989C470.279 34.692 469.247 34.2431 468.535 33.6423C467.831 33.0483 467.479 32.3163 467.479 31.4461C467.479 30.5691 467.831 29.8267 468.535 29.2189C469.247 28.6112 470.279 28.1519 471.633 27.8412C472.993 27.5304 474.644 27.375 476.584 27.375ZM476.584 29.4365C475.224 29.4365 474.077 29.5124 473.145 29.6644C472.22 29.8163 471.519 30.0442 471.042 30.3481C470.566 30.645 470.327 31.011 470.327 31.4461C470.327 31.8743 470.566 32.2334 471.042 32.5235C471.519 32.8135 472.22 33.0311 473.145 33.1761C474.07 33.3211 475.217 33.3902 476.584 33.3833C477.945 33.3902 479.088 33.3211 480.013 33.1761C480.945 33.0311 481.65 32.8135 482.126 32.5235C482.603 32.2334 482.841 31.8743 482.841 31.4461C482.841 31.011 482.599 30.645 482.116 30.3481C481.639 30.0442 480.938 29.8163 480.013 29.6644C479.088 29.5124 477.945 29.4365 476.584 29.4365ZM487.233 11.3391V13.4938H465.863V11.3391H487.233ZM476.595 14.4572C479.385 14.4503 481.519 14.768 482.997 15.4102C484.481 16.0456 485.224 16.9814 485.224 18.2175C485.224 19.0256 484.889 19.7093 484.219 20.2686C483.549 20.828 482.572 21.2493 481.287 21.5325C480.003 21.8156 478.438 21.9572 476.595 21.9572C474.758 21.9572 473.193 21.8156 471.902 21.5325C470.617 21.2493 469.64 20.828 468.97 20.2686C468.3 19.7093 467.969 19.0256 467.976 18.2175C467.969 16.9814 468.708 16.0456 470.193 15.4102C471.684 14.768 473.818 14.4503 476.595 14.4572ZM476.595 16.3633C475.358 16.3633 474.319 16.4358 473.476 16.5808C472.641 16.7189 472.009 16.9261 471.581 17.2023C471.153 17.4717 470.942 17.8101 470.949 18.2175C470.942 18.6043 471.153 18.9323 471.581 19.2017C472.016 19.4641 472.655 19.6644 473.497 19.8025C474.34 19.9406 475.372 20.0097 476.595 20.0097C477.824 20.0097 478.856 19.9406 479.692 19.8025C480.534 19.6644 481.17 19.4641 481.598 19.2017C482.033 18.9323 482.254 18.6043 482.261 18.2175C482.261 17.8101 482.043 17.4717 481.608 17.2023C481.18 16.9261 480.548 16.7189 479.713 16.5808C478.877 16.4358 477.838 16.3633 476.595 16.3633ZM477.993 8.91505V12.7686H475.227V8.91505H477.993ZM488.58 23.739V25.9558H464.651V23.739H488.58ZM477.993 21.1077V24.7956H475.227V21.1077H477.993ZM512.353 26.1423V35.4862H509.567V28.4109H494.556V26.1423H512.353ZM512.353 9.23619V24.7852H509.567V9.23619H512.353ZM498.099 10.7693C499.425 10.7693 500.616 11.0352 501.673 11.567C502.729 12.0988 503.558 12.8412 504.159 13.7942C504.767 14.7403 505.071 15.8177 505.071 17.0262C505.071 18.2417 504.77 19.326 504.169 20.279C503.569 21.232 502.736 21.9744 501.673 22.5062C500.616 23.038 499.425 23.3039 498.099 23.3039C496.773 23.3039 495.578 23.038 494.515 22.5062C493.451 21.9744 492.616 21.232 492.008 20.279C491.407 19.326 491.107 18.2417 491.107 17.0262C491.107 15.8246 491.407 14.7472 492.008 13.7942C492.616 12.8412 493.451 12.0988 494.515 11.567C495.578 11.0352 496.773 10.7693 498.099 10.7693ZM498.099 13.1519C497.27 13.1519 496.531 13.3142 495.882 13.6388C495.233 13.9565 494.725 14.4088 494.359 14.9959C494 15.5829 493.824 16.2597 493.831 17.0262C493.824 17.7997 494 18.4834 494.359 19.0773C494.725 19.6713 495.233 20.1305 495.882 20.4551C496.531 20.7797 497.27 20.9385 498.099 20.9316C498.914 20.9385 499.642 20.7797 500.285 20.4551C500.934 20.1305 501.438 19.6713 501.797 19.0773C502.163 18.4834 502.346 17.7997 502.346 17.0262C502.346 16.2597 502.163 15.5829 501.797 14.9959C501.438 14.4088 500.934 13.9565 500.285 13.6388C499.642 13.3142 498.914 13.1519 498.099 13.1519ZM525.632 15.9178C525.632 17.9896 525.315 19.9717 524.679 21.864C524.051 23.7493 523.16 25.4137 522.007 26.857C520.853 28.2935 519.52 29.3778 518.008 30.1098L516.288 27.7894C517.642 27.1816 518.854 26.2631 519.924 25.0338C520.995 23.8046 521.831 22.3957 522.431 20.8073C523.032 19.2189 523.336 17.5891 523.343 15.9178V11.422H525.632V15.9178ZM526.14 15.9178C526.133 17.5062 526.423 19.0635 527.01 20.5898C527.597 22.116 528.419 23.4765 529.476 24.6713C530.539 25.8591 531.741 26.7465 533.081 27.3336L531.402 29.5504C529.918 28.846 528.602 27.8032 527.456 26.422C526.309 25.0338 525.418 23.4351 524.783 21.6257C524.148 19.8094 523.83 17.9068 523.83 15.9178V11.422H526.14V15.9178ZM538.25 9.23619V35.538H535.453V9.23619H538.25ZM564.178 9.23619V35.538H561.381V9.23619H564.178ZM546.277 26.7327C548.218 26.7327 549.861 26.712 551.208 26.6706C552.555 26.6222 553.836 26.5394 555.051 26.422C556.273 26.3046 557.513 26.1319 558.77 25.904L559.05 28.2244C557.192 28.5628 555.324 28.7942 553.445 28.9185C551.567 29.0359 549.178 29.0981 546.277 29.105H544.102V26.7327H546.277ZM556.678 11.6809V13.9807H546.898V27.6133H544.102V11.6809H556.678ZM588.5 12.9344C588.493 14.4606 588.023 15.8626 587.091 17.1402C586.166 18.4109 584.912 19.471 583.331 20.3204C581.749 21.163 579.995 21.7362 578.068 22.0401L577.022 19.8439C578.659 19.6229 580.168 19.1706 581.549 18.4869C582.937 17.7963 584.035 16.9675 584.843 16.0007C585.658 15.0269 586.069 14.0048 586.076 12.9344V11.9399H588.5V12.9344ZM589.225 12.9344C589.218 14.0048 589.619 15.0269 590.427 16.0007C591.242 16.9675 592.343 17.7963 593.731 18.4869C595.119 19.1706 596.639 19.6229 598.289 19.8439L597.264 22.0401C595.323 21.7362 593.559 21.163 591.97 20.3204C590.382 19.471 589.121 18.4109 588.189 17.1402C587.264 15.8695 586.801 14.4675 586.801 12.9344V11.9399H589.225V12.9344ZM588.956 25.5725V35.4758H586.221V25.5725H588.956ZM599.615 24.029V26.2977H575.686V24.029H599.615ZM597.367 10.8004V13.0173H577.903V10.8004H597.367ZM622.238 9.23619V28.3177H619.421V9.23619H622.238ZM626.04 16.9952V19.326H621.399V16.9952H626.04ZM615.111 11.2355C615.111 13.5007 614.618 15.5656 613.63 17.4302C612.649 19.288 611.234 20.8936 609.383 22.2472C607.539 23.5939 605.332 24.654 602.763 25.4275L601.582 23.2106C603.785 22.5546 605.678 21.6948 607.259 20.6312C608.841 19.5608 610.049 18.3384 610.885 16.9641C611.72 15.5898 612.142 14.1119 612.149 12.5304V11.2355H615.111ZM613.62 11.2355V13.5456H602.68V11.2355H613.62ZM623.326 32.6685V34.9475H605.571V32.6685H623.326ZM608.368 26.3598V33.6215H605.571V26.3598H608.368Z" fill="black"/>
<line x1="847.75" y1="173" x2="847.75" y2="214" stroke="white" stroke-width="1.5" stroke-dasharray="6 6"/>
<path d="M942 256V214H754V256" stroke="white" stroke-width="1.5" stroke-dasharray="6 6"/>
<path d="M848 129V87H163V129" stroke="white" stroke-width="1.5"/>
</g>
<defs>
<clipPath id="clip0_349_172">
<rect width="1011" height="342" fill="white"/>
</clipPath>
</defs>
</svg>
