<svg width="550" height="263" viewBox="0 0 550 263" fill="none" xmlns="http://www.w3.org/2000/svg">
<rect x="0.5" y="103.5" width="549" height="41" fill="#D4DEE5" fill-opacity="0.2" stroke="#D4DEE5"/>
<path d="M188.247 121.745V124.101H186.606V121.745H188.247ZM194.618 123.517V124.853H180.26V123.517H194.618ZM192.797 125.984V129.726H183.635V131.429H182.001V128.514H191.156V127.24H181.969V125.984H192.797ZM193.251 131.05V132.343H182.001V131.05H193.251ZM187.781 118.246C187.777 119.025 187.501 119.725 186.954 120.347C186.411 120.964 185.666 121.465 184.717 121.851C183.772 122.232 182.709 122.477 181.528 122.584L180.969 121.323C181.972 121.231 182.879 121.041 183.691 120.751C184.507 120.456 185.15 120.094 185.618 119.663C186.09 119.232 186.326 118.76 186.326 118.246V117.78H187.781V118.246ZM188.545 118.246C188.541 118.76 188.773 119.234 189.242 119.669C189.71 120.1 190.35 120.461 191.162 120.751C191.978 121.041 192.892 121.231 193.903 121.323L193.356 122.584C192.179 122.477 191.117 122.23 190.168 121.845C189.219 121.455 188.471 120.954 187.924 120.34C187.377 119.723 187.103 119.025 187.103 118.246V117.78H188.545V118.246ZM193.325 117.22V118.55H181.572V117.22H193.325ZM207.993 120.421V121.782H203.81V120.421H207.993ZM200.168 117.456C200.943 117.452 201.641 117.608 202.262 117.923C202.884 118.233 203.373 118.669 203.729 119.228C204.085 119.783 204.266 120.415 204.27 121.124C204.266 121.832 204.085 122.468 203.729 123.032C203.373 123.591 202.884 124.028 202.262 124.343C201.641 124.654 200.943 124.809 200.168 124.809C199.376 124.809 198.666 124.654 198.036 124.343C197.41 124.028 196.921 123.591 196.569 123.032C196.217 122.472 196.043 121.836 196.047 121.124C196.043 120.415 196.217 119.783 196.569 119.228C196.921 118.669 197.41 118.233 198.036 117.923C198.666 117.608 199.376 117.452 200.168 117.456ZM200.168 118.861C199.679 118.857 199.242 118.95 198.856 119.141C198.471 119.327 198.17 119.593 197.955 119.936C197.739 120.28 197.632 120.676 197.632 121.124C197.632 121.567 197.739 121.961 197.955 122.305C198.17 122.648 198.471 122.918 198.856 123.113C199.242 123.307 199.679 123.405 200.168 123.405C200.648 123.405 201.077 123.307 201.454 123.113C201.835 122.918 202.134 122.648 202.349 122.305C202.565 121.961 202.672 121.567 202.672 121.124C202.672 120.68 202.565 120.287 202.349 119.943C202.134 119.595 201.838 119.327 201.46 119.141C201.083 118.95 200.652 118.857 200.168 118.861ZM208.944 116.742V125.195H207.278V116.742H208.944ZM200.329 125.959V127.793H207.278V125.959H208.944V132.293H198.676V125.959H200.329ZM200.329 130.932H207.278V129.104H200.329V130.932ZM223.748 121.018V122.379H219.814V121.018H223.748ZM224.501 116.754V128.29H222.835V116.754H224.501ZM224.917 130.801V132.169H214.276V130.801H224.917ZM215.942 127.265V131.528H214.276V127.265H215.942ZM216.688 119.943C216.684 120.908 216.501 121.818 216.141 122.671C215.784 123.525 215.273 124.273 214.606 124.915C213.938 125.553 213.151 126.036 212.244 126.363L211.38 125.002C212.175 124.733 212.869 124.339 213.462 123.821C214.059 123.303 214.516 122.709 214.835 122.037C215.155 121.366 215.314 120.668 215.314 119.943V118.743H216.688V119.943ZM217.005 119.943C217.005 120.602 217.156 121.244 217.458 121.869C217.765 122.495 218.204 123.055 218.776 123.548C219.352 124.041 220.027 124.416 220.802 124.673L219.951 126.003C219.068 125.696 218.302 125.238 217.651 124.629C217.005 124.02 216.507 123.314 216.159 122.51C215.815 121.702 215.643 120.846 215.643 119.943V118.743H217.005V119.943ZM220.398 117.96V119.321H211.896V117.96H220.398ZM232.406 120.751C232.406 121.994 232.215 123.183 231.834 124.318C231.457 125.45 230.923 126.448 230.231 127.314C229.539 128.176 228.739 128.827 227.831 129.266L226.8 127.874C227.612 127.509 228.339 126.958 228.981 126.22C229.623 125.483 230.125 124.637 230.485 123.684C230.846 122.731 231.028 121.753 231.032 120.751V118.053H232.406V120.751ZM232.71 120.751C232.706 121.704 232.88 122.638 233.233 123.554C233.585 124.47 234.078 125.286 234.712 126.003C235.35 126.715 236.071 127.248 236.875 127.6L235.868 128.93C234.977 128.508 234.188 127.882 233.5 127.053C232.812 126.22 232.277 125.261 231.896 124.175C231.515 123.086 231.324 121.944 231.324 120.751V118.053H232.71V120.751ZM239.976 116.742V132.523H238.298V116.742H239.976ZM252.084 132.579H250.499L246.813 124.735V124.61H248.516L252.084 132.579ZM252.084 116.723L248.516 124.685H246.813V124.561L250.499 116.723H252.084ZM254.955 132.579H253.376L249.691 124.735V124.61H251.394L254.955 132.579ZM254.955 116.723L251.394 124.685H249.691V124.561L253.376 116.723H254.955ZM258.855 131V118.271H263.405C264.366 118.271 265.176 118.439 265.835 118.774C266.494 119.106 266.987 119.572 267.315 120.173C267.646 120.769 267.812 121.465 267.812 122.261C267.812 123.057 267.646 123.751 267.315 124.343C266.987 124.932 266.494 125.387 265.835 125.711C265.176 126.034 264.364 126.195 263.399 126.195H259.955V124.53H263.206C263.824 124.53 264.329 124.443 264.723 124.269C265.116 124.09 265.404 123.834 265.587 123.498C265.773 123.162 265.866 122.75 265.866 122.261C265.866 121.772 265.771 121.356 265.58 121.012C265.394 120.664 265.104 120.396 264.71 120.21C264.317 120.023 263.813 119.93 263.2 119.93H260.788V131H258.855ZM265.158 125.257L268.297 131H266.096L263.007 125.257H265.158ZM275.56 126.68C275.514 126.68 275.433 126.684 275.317 126.693C275.205 126.701 275.067 126.709 274.901 126.718C274.59 126.738 274.277 126.759 273.962 126.78C273.652 126.8 273.393 126.819 273.185 126.836C272.551 126.881 272.06 127.028 271.712 127.277C271.364 127.521 271.19 127.872 271.19 128.327C271.19 128.626 271.267 128.878 271.42 129.086C271.573 129.293 271.785 129.45 272.054 129.558C272.328 129.662 272.64 129.713 272.993 129.713C273.49 129.713 273.921 129.614 274.286 129.415C274.654 129.216 274.938 128.953 275.137 128.626C275.336 128.294 275.435 127.938 275.435 127.557L275.429 124.542C275.429 124.182 275.355 123.875 275.205 123.622C275.06 123.365 274.843 123.173 274.553 123.044C274.263 122.912 273.906 122.845 273.484 122.845C273.127 122.845 272.812 122.897 272.539 123.001C272.265 123.1 272.042 123.241 271.868 123.423C271.698 123.606 271.582 123.817 271.52 124.057H269.649C269.711 123.531 269.908 123.061 270.239 122.646C270.575 122.232 271.027 121.909 271.594 121.677C272.162 121.445 272.815 121.329 273.552 121.329C274.165 121.329 274.75 121.422 275.305 121.608C275.86 121.795 276.33 122.137 276.716 122.634C277.105 123.131 277.3 123.807 277.3 124.66V131H275.473V129.695H275.398C275.265 129.96 275.077 130.206 274.832 130.434C274.588 130.662 274.275 130.849 273.894 130.994C273.513 131.139 273.073 131.211 272.576 131.211C271.967 131.211 271.418 131.097 270.929 130.869C270.44 130.642 270.055 130.31 269.773 129.875C269.491 129.436 269.35 128.912 269.35 128.302C269.35 127.32 269.684 126.618 270.351 126.195C271.022 125.773 271.878 125.524 272.918 125.45C273.208 125.429 273.548 125.408 273.937 125.387C274.331 125.367 274.7 125.348 275.044 125.331C275.164 125.323 275.265 125.319 275.348 125.319C275.435 125.315 275.498 125.313 275.535 125.313L275.56 126.68ZM281.635 131L278.832 121.453H280.771L282.629 128.452H282.729L284.593 121.453H286.533L288.385 128.421H288.478L290.33 121.453H292.27L289.466 131H287.558L285.619 124.126H285.482L283.555 131H281.635ZM299.441 131H297.39L301.965 118.271H304.208L308.783 131H306.726L303.133 120.595H303.034L299.441 131ZM299.777 126.015H306.396V127.637H299.777V126.015ZM310.245 131V121.453H312.06V122.976H312.16C312.276 122.636 312.452 122.34 312.688 122.087C312.928 121.834 313.21 121.642 313.533 121.509C313.861 121.376 314.209 121.31 314.577 121.31C314.71 121.31 314.847 121.314 314.988 121.323C315.133 121.327 315.263 121.337 315.379 121.354V123.144C315.271 123.119 315.124 123.094 314.938 123.069C314.751 123.044 314.573 123.032 314.403 123.032C313.968 123.032 313.577 123.123 313.229 123.305C312.885 123.488 312.613 123.744 312.414 124.076C312.22 124.403 312.122 124.772 312.122 125.182V131H310.245ZM320.519 131.193C319.612 131.193 318.82 130.985 318.145 130.571C317.474 130.153 316.958 129.57 316.597 128.825C316.237 128.079 316.057 127.227 316.057 126.27C316.057 125.305 316.239 124.449 316.604 123.703C316.972 122.953 317.492 122.371 318.164 121.956C318.835 121.538 319.614 121.329 320.501 121.329C321.217 121.329 321.864 121.461 322.44 121.727C323.016 121.992 323.478 122.369 323.826 122.858C324.174 123.347 324.379 123.908 324.441 124.542H322.62C322.554 124.235 322.427 123.96 322.241 123.715C322.059 123.467 321.822 123.27 321.532 123.125C321.242 122.976 320.907 122.901 320.525 122.901C320.012 122.901 319.56 123.038 319.171 123.311C318.785 123.581 318.485 123.966 318.269 124.468C318.054 124.969 317.946 125.555 317.946 126.227C317.946 126.91 318.052 127.507 318.263 128.017C318.474 128.522 318.775 128.914 319.164 129.191C319.554 129.465 320.008 129.602 320.525 129.602C320.882 129.602 321.203 129.537 321.489 129.409C321.779 129.276 322.019 129.09 322.21 128.849C322.405 128.605 322.541 128.313 322.62 127.973H324.441C324.375 128.595 324.172 129.15 323.832 129.639C323.496 130.124 323.045 130.505 322.477 130.782C321.909 131.056 321.257 131.193 320.519 131.193ZM328.101 125.338V131H326.224V118.271H328.076V123.013H328.194C328.347 122.661 328.55 122.36 328.803 122.112C329.06 121.863 329.373 121.671 329.742 121.534C330.11 121.397 330.537 121.329 331.022 121.329C331.685 121.329 332.261 121.465 332.75 121.739C333.239 122.012 333.618 122.419 333.887 122.957C334.157 123.492 334.291 124.148 334.291 124.927V131H332.414V125.157C332.414 124.693 332.334 124.298 332.172 123.97C332.01 123.639 331.776 123.386 331.47 123.212C331.167 123.038 330.805 122.951 330.382 122.951C329.939 122.951 329.543 123.046 329.195 123.237C328.851 123.423 328.581 123.697 328.387 124.057C328.196 124.414 328.101 124.84 328.101 125.338ZM336.56 131V121.453H338.437V131H336.56ZM337.511 119.986C337.299 119.986 337.1 119.936 336.914 119.837C336.732 119.733 336.587 119.597 336.479 119.427C336.375 119.257 336.323 119.073 336.323 118.874C336.323 118.671 336.375 118.484 336.479 118.314C336.587 118.144 336.732 118.01 336.914 117.91C337.1 117.811 337.299 117.761 337.511 117.761C337.718 117.761 337.913 117.811 338.095 117.91C338.277 118.01 338.42 118.144 338.524 118.314C338.631 118.484 338.685 118.671 338.685 118.874C338.685 119.073 338.631 119.257 338.524 119.427C338.42 119.597 338.277 119.733 338.095 119.837C337.913 119.936 337.718 119.986 337.511 119.986ZM348.911 121.453L345.443 131H343.436L339.974 121.453H341.987L344.393 128.787H344.492L346.904 121.453H348.911ZM354.233 131.193C353.305 131.193 352.497 130.992 351.809 130.59C351.126 130.188 350.599 129.618 350.23 128.881C349.866 128.139 349.684 127.275 349.684 126.289C349.684 125.319 349.866 124.459 350.23 123.709C350.599 122.955 351.117 122.371 351.784 121.956C352.451 121.538 353.222 121.329 354.097 121.329C354.867 121.329 355.572 121.497 356.21 121.832C356.852 122.164 357.368 122.688 357.757 123.405C358.147 124.122 358.342 125.029 358.342 126.127V126.792H350.734V125.387H356.496C356.496 124.903 356.396 124.472 356.197 124.095C356.003 123.718 355.725 123.419 355.364 123.2C355.004 122.98 354.59 122.87 354.121 122.87C353.616 122.87 353.168 122.994 352.779 123.243C352.389 123.492 352.087 123.821 351.871 124.231C351.66 124.642 351.552 125.087 351.548 125.568V126.655C351.548 127.281 351.66 127.82 351.884 128.271C352.108 128.723 352.422 129.067 352.829 129.303C353.235 129.535 353.707 129.651 354.246 129.651C354.585 129.651 354.892 129.606 355.166 129.515C355.439 129.423 355.671 129.299 355.862 129.142C356.056 128.984 356.208 128.804 356.315 128.601H358.217C358.076 129.119 357.824 129.575 357.459 129.968C357.094 130.358 356.637 130.66 356.085 130.876C355.534 131.087 354.917 131.193 354.233 131.193ZM364.519 132.579L368.087 124.61H369.79V124.735L366.104 132.579H364.519ZM364.519 116.723H366.104L369.79 124.561V124.685H368.087L364.519 116.723ZM361.641 132.579L365.209 124.61H366.912V124.735L363.226 132.579H361.641ZM361.641 116.723H363.226L366.912 124.561V124.685H365.209L361.641 116.723Z" fill="#D4DEE5"/>
<rect x="195.5" y="156.5" width="69" height="94" fill="#D4DEE5" stroke="#D4DEE5"/>
<path d="M220.715 191.698V195.464H218.763V191.698H220.715ZM219.72 184.655C220.528 184.655 221.26 184.819 221.914 185.146C222.569 185.474 223.085 185.93 223.462 186.514C223.839 187.094 224.03 187.753 224.034 188.49C224.03 189.228 223.839 189.889 223.462 190.473C223.085 191.057 222.569 191.511 221.914 191.834C221.26 192.157 220.528 192.319 219.72 192.319C218.896 192.319 218.154 192.157 217.495 191.834C216.84 191.511 216.327 191.059 215.954 190.479C215.585 189.895 215.403 189.232 215.407 188.49C215.403 187.749 215.585 187.088 215.954 186.508C216.327 185.923 216.84 185.47 217.495 185.146C218.154 184.819 218.896 184.655 219.72 184.655ZM219.72 186.315C219.256 186.319 218.84 186.41 218.471 186.588C218.106 186.762 217.82 187.015 217.613 187.347C217.406 187.674 217.305 188.055 217.309 188.49C217.305 188.925 217.406 189.309 217.613 189.64C217.82 189.968 218.106 190.22 218.471 190.398C218.84 190.577 219.256 190.664 219.72 190.66C220.172 190.664 220.578 190.577 220.939 190.398C221.303 190.22 221.589 189.968 221.796 189.64C222.003 189.309 222.109 188.925 222.113 188.49C222.109 188.055 222.003 187.674 221.796 187.347C221.589 187.015 221.305 186.762 220.945 186.588C220.584 186.41 220.176 186.319 219.72 186.315ZM227.465 183.68V199.554H225.513V183.68H227.465ZM229.764 190.019V191.666H226.887V190.019H229.764ZM214.779 194.687H215.631C216.803 194.679 217.858 194.664 218.794 194.644C219.735 194.623 220.713 194.581 221.728 194.519C222.747 194.453 223.709 194.36 224.612 194.24L224.749 195.688C223.713 195.878 222.633 196.019 221.51 196.11C220.387 196.198 219.316 196.251 218.297 196.272C217.282 196.289 216.202 196.291 215.059 196.278L214.779 194.687ZM245.035 192.63V194.24H230.51V192.63H245.035ZM238.695 193.631V199.566H236.762V193.631H238.695ZM237.732 184.245C238.855 184.245 239.849 184.392 240.715 184.686C241.581 184.977 242.255 185.391 242.735 185.93C243.216 186.468 243.456 187.096 243.456 187.813C243.456 188.517 243.216 189.137 242.735 189.671C242.255 190.202 241.581 190.61 240.715 190.896C239.849 191.182 238.855 191.325 237.732 191.325C236.609 191.325 235.617 191.182 234.755 190.896C233.893 190.61 233.222 190.202 232.741 189.671C232.265 189.137 232.028 188.517 232.032 187.813C232.028 187.096 232.265 186.468 232.741 185.93C233.222 185.391 233.893 184.977 234.755 184.686C235.617 184.392 236.609 184.245 237.732 184.245ZM237.732 185.818C236.982 185.818 236.329 185.896 235.774 186.054C235.223 186.211 234.796 186.441 234.494 186.744C234.191 187.042 234.042 187.398 234.046 187.813C234.042 188.219 234.191 188.569 234.494 188.863C234.796 189.157 235.225 189.383 235.78 189.541C236.336 189.694 236.986 189.771 237.732 189.771C238.482 189.771 239.137 189.694 239.696 189.541C240.256 189.383 240.686 189.157 240.989 188.863C241.291 188.569 241.443 188.219 241.443 187.813C241.443 187.398 241.291 187.042 240.989 186.744C240.686 186.441 240.256 186.211 239.696 186.054C239.137 185.896 238.482 185.818 237.732 185.818ZM219.146 208.843V210.403H214.372V208.843H219.146ZM219.146 212.423V213.995H214.372V212.423H219.146ZM211.6 207.568C212.379 207.568 213.086 207.732 213.72 208.059C214.354 208.387 214.851 208.845 215.211 209.433C215.576 210.017 215.76 210.678 215.764 211.416C215.76 212.145 215.576 212.804 215.211 213.392C214.851 213.977 214.354 214.434 213.72 214.766C213.086 215.093 212.379 215.255 211.6 215.251C210.809 215.255 210.094 215.093 209.456 214.766C208.818 214.434 208.316 213.977 207.952 213.392C207.587 212.804 207.407 212.145 207.411 211.416C207.407 210.678 207.587 210.017 207.952 209.433C208.316 208.845 208.818 208.387 209.456 208.059C210.094 207.732 210.809 207.568 211.6 207.568ZM211.6 209.247C211.148 209.242 210.744 209.329 210.388 209.508C210.036 209.686 209.76 209.939 209.561 210.266C209.367 210.593 209.269 210.977 209.269 211.416C209.269 211.847 209.369 212.228 209.568 212.559C209.767 212.887 210.042 213.142 210.394 213.324C210.747 213.506 211.148 213.595 211.6 213.591C212.039 213.595 212.433 213.506 212.781 213.324C213.129 213.142 213.403 212.885 213.602 212.553C213.8 212.222 213.9 211.843 213.9 211.416C213.9 210.977 213.8 210.593 213.602 210.266C213.403 209.939 213.129 209.686 212.781 209.508C212.437 209.329 212.043 209.242 211.6 209.247ZM220.501 206.68V216.015H218.549V206.68H220.501ZM215.124 216.357C216.231 216.357 217.19 216.479 218.002 216.724C218.818 216.968 219.446 217.323 219.885 217.787C220.325 218.251 220.544 218.806 220.544 219.452C220.544 220.095 220.325 220.648 219.885 221.112C219.446 221.576 218.818 221.93 218.002 222.175C217.19 222.423 216.231 222.546 215.124 222.541C214.018 222.546 213.057 222.423 212.24 222.175C211.428 221.93 210.805 221.576 210.369 221.112C209.934 220.648 209.717 220.095 209.717 219.452C209.717 218.806 209.934 218.251 210.369 217.787C210.805 217.323 211.428 216.968 212.24 216.724C213.057 216.479 214.018 216.357 215.124 216.357ZM215.124 217.861C214.387 217.861 213.757 217.923 213.235 218.048C212.713 218.168 212.315 218.346 212.041 218.582C211.768 218.818 211.633 219.108 211.637 219.452C211.633 219.784 211.768 220.068 212.041 220.304C212.315 220.54 212.713 220.718 213.235 220.838C213.757 220.954 214.387 221.01 215.124 221.006C215.874 221.01 216.51 220.954 217.032 220.838C217.555 220.718 217.952 220.54 218.226 220.304C218.499 220.068 218.636 219.784 218.636 219.452C218.636 219.108 218.499 218.818 218.226 218.582C217.952 218.346 217.555 218.168 217.032 218.048C216.51 217.923 215.874 217.861 215.124 217.861ZM228.027 209.023C228.023 210.079 227.851 211.064 227.511 211.975C227.175 212.883 226.678 213.672 226.019 214.343C225.36 215.01 224.563 215.51 223.626 215.841L222.57 214.3C223.403 214.01 224.107 213.597 224.683 213.063C225.263 212.524 225.696 211.911 225.982 211.223C226.272 210.531 226.419 209.798 226.423 209.023V207.519H228.027V209.023ZM228.375 209.203C228.375 209.878 228.518 210.525 228.804 211.142C229.09 211.756 229.512 212.3 230.072 212.777C230.635 213.253 231.315 213.618 232.11 213.871L231.066 215.394C230.163 215.087 229.39 214.629 228.748 214.02C228.11 213.411 227.625 212.694 227.294 211.869C226.962 211.041 226.796 210.152 226.796 209.203V207.519H228.375V209.203ZM235.287 206.68V216.177H233.323V206.68H235.287ZM237.506 210.533V212.162H234.74V210.533H237.506ZM230.115 216.531C231.205 216.527 232.148 216.645 232.943 216.885C233.743 217.122 234.356 217.465 234.783 217.917C235.214 218.365 235.43 218.901 235.43 219.527C235.43 220.161 235.214 220.704 234.783 221.155C234.356 221.607 233.743 221.951 232.943 222.187C232.148 222.427 231.205 222.546 230.115 222.541C229.009 222.546 228.052 222.427 227.244 222.187C226.44 221.951 225.82 221.607 225.385 221.155C224.954 220.704 224.739 220.161 224.739 219.527C224.739 218.901 224.954 218.365 225.385 217.917C225.82 217.465 226.442 217.122 227.25 216.885C228.058 216.645 229.013 216.527 230.115 216.531ZM230.115 218.06C229.39 218.06 228.771 218.118 228.257 218.234C227.743 218.35 227.354 218.518 227.088 218.738C226.823 218.957 226.691 219.22 226.691 219.527C226.691 219.85 226.823 220.122 227.088 220.341C227.354 220.561 227.741 220.727 228.251 220.838C228.76 220.95 229.382 221.006 230.115 221.006C230.845 221.006 231.462 220.95 231.968 220.838C232.473 220.727 232.856 220.561 233.117 220.341C233.378 220.122 233.509 219.85 233.509 219.527C233.509 219.22 233.376 218.957 233.111 218.738C232.846 218.518 232.461 218.35 231.955 218.234C231.454 218.118 230.84 218.06 230.115 218.06ZM251.974 206.68V222.554H250.122V206.68H251.974ZM247.443 212.218V213.796H244.622V212.218H247.443ZM248.742 206.978V221.789H246.909V206.978H248.742ZM242.819 211.018C242.815 212.228 242.678 213.384 242.409 214.486C242.144 215.584 241.742 216.573 241.203 217.451C240.669 218.329 240.008 219.011 239.22 219.496L238.027 218.054C238.765 217.602 239.38 217.006 239.873 216.264C240.366 215.518 240.731 214.698 240.967 213.802C241.207 212.907 241.327 211.979 241.327 211.018V209.215H242.819V211.018ZM243.211 211.018C243.211 211.954 243.325 212.847 243.552 213.697C243.78 214.546 244.137 215.319 244.622 216.015C245.106 216.711 245.713 217.271 246.443 217.693L245.293 219.129C244.497 218.661 243.834 218.015 243.304 217.19C242.773 216.361 242.382 215.423 242.129 214.374C241.881 213.322 241.756 212.203 241.756 211.018V209.215H243.211V211.018ZM245.778 208.383V209.961H238.568V208.383H245.778Z" fill="black"/>
<rect x="378.5" y="156.5" width="69" height="94" fill="#D4DEE5" fill-opacity="0.2" stroke="#D4DEE5"/>
<path d="M405.188 183.625C406.344 183.625 407.326 183.718 408.134 183.905C408.946 184.091 409.564 184.367 409.986 184.731C410.413 185.096 410.628 185.541 410.633 186.068C410.628 186.59 410.413 187.029 409.986 187.385C409.564 187.746 408.946 188.015 408.134 188.193C407.326 188.376 406.344 188.467 405.188 188.467C404.019 188.467 403.029 188.376 402.217 188.193C401.405 188.015 400.785 187.746 400.358 187.385C399.936 187.029 399.724 186.59 399.724 186.068C399.724 185.541 399.936 185.096 400.358 184.731C400.785 184.367 401.405 184.091 402.217 183.905C403.033 183.718 404.023 183.625 405.188 183.625ZM405.188 184.862C404.372 184.862 403.684 184.907 403.124 184.999C402.569 185.09 402.148 185.227 401.863 185.409C401.577 185.587 401.434 185.807 401.434 186.068C401.434 186.325 401.577 186.54 401.863 186.714C402.148 186.888 402.569 187.019 403.124 187.106C403.68 187.193 404.367 187.234 405.188 187.23C406.004 187.234 406.69 187.193 407.245 187.106C407.805 187.019 408.227 186.888 408.513 186.714C408.799 186.54 408.942 186.325 408.942 186.068C408.942 185.807 408.797 185.587 408.507 185.409C408.221 185.227 407.8 185.09 407.245 184.999C406.69 184.907 406.004 184.862 405.188 184.862ZM411.577 174.003V175.296H398.755V174.003H411.577ZM405.194 175.874C406.868 175.87 408.148 176.061 409.035 176.446C409.926 176.827 410.372 177.389 410.372 178.131C410.372 178.615 410.171 179.026 409.769 179.361C409.367 179.697 408.78 179.95 408.01 180.119C407.239 180.289 406.3 180.374 405.194 180.374C404.092 180.374 403.153 180.289 402.378 180.119C401.608 179.95 401.021 179.697 400.619 179.361C400.218 179.026 400.019 178.615 400.023 178.131C400.019 177.389 400.462 176.827 401.353 176.446C402.248 176.061 403.528 175.87 405.194 175.874ZM405.194 177.018C404.452 177.018 403.829 177.061 403.323 177.148C402.822 177.231 402.443 177.356 402.186 177.521C401.929 177.683 401.802 177.886 401.807 178.131C401.802 178.363 401.929 178.559 402.186 178.721C402.447 178.878 402.83 178.999 403.336 179.081C403.841 179.164 404.461 179.206 405.194 179.206C405.932 179.206 406.551 179.164 407.052 179.081C407.558 178.999 407.939 178.878 408.196 178.721C408.457 178.559 408.59 178.363 408.594 178.131C408.594 177.886 408.463 177.683 408.202 177.521C407.945 177.356 407.566 177.231 407.065 177.148C406.564 177.061 405.94 177.018 405.194 177.018ZM406.033 172.549V174.861H404.374V172.549H406.033ZM412.385 181.443V182.773H398.028V181.443H412.385ZM406.033 179.865V182.077H404.374V179.865H406.033ZM426.649 182.885V188.492H424.977V184.247H415.971V182.885H426.649ZM426.649 172.742V182.071H424.977V172.742H426.649ZM418.097 173.662C418.892 173.662 419.607 173.821 420.241 174.14C420.875 174.459 421.372 174.905 421.733 175.477C422.097 176.044 422.28 176.691 422.28 177.416C422.28 178.145 422.099 178.796 421.739 179.367C421.378 179.939 420.879 180.385 420.241 180.704C419.607 181.023 418.892 181.182 418.097 181.182C417.301 181.182 416.584 181.023 415.946 180.704C415.308 180.385 414.807 179.939 414.442 179.367C414.081 178.796 413.901 178.145 413.901 177.416C413.901 176.695 414.081 176.048 414.442 175.477C414.807 174.905 415.308 174.459 415.946 174.14C416.584 173.821 417.301 173.662 418.097 173.662ZM418.097 175.091C417.599 175.091 417.156 175.189 416.767 175.383C416.377 175.574 416.073 175.845 415.853 176.198C415.637 176.55 415.532 176.956 415.536 177.416C415.532 177.88 415.637 178.29 415.853 178.646C416.073 179.003 416.377 179.278 416.767 179.473C417.156 179.668 417.599 179.763 418.097 179.759C418.586 179.763 419.023 179.668 419.408 179.473C419.798 179.278 420.1 179.003 420.316 178.646C420.535 178.29 420.645 177.88 420.645 177.416C420.645 176.956 420.535 176.55 420.316 176.198C420.1 175.845 419.798 175.574 419.408 175.383C419.023 175.189 418.586 175.091 418.097 175.091ZM403.503 199.751C403.503 200.994 403.313 202.183 402.932 203.318C402.555 204.45 402.02 205.448 401.328 206.314C400.636 207.176 399.836 207.827 398.929 208.266L397.897 206.874C398.709 206.509 399.436 205.958 400.079 205.22C400.721 204.483 401.222 203.637 401.583 202.684C401.943 201.731 402.126 200.753 402.13 199.751V197.053H403.503V199.751ZM403.808 199.751C403.804 200.704 403.978 201.638 404.33 202.554C404.682 203.47 405.175 204.286 405.809 205.003C406.448 205.715 407.168 206.248 407.972 206.6L406.965 207.93C406.075 207.508 405.285 206.882 404.597 206.053C403.91 205.22 403.375 204.261 402.994 203.175C402.613 202.086 402.422 200.944 402.422 199.751V197.053H403.808V199.751ZM411.074 195.742V211.523H409.396V195.742H411.074ZM426.631 195.742V211.523H424.952V195.742H426.631ZM415.89 206.24C417.055 206.24 418.041 206.227 418.849 206.202C419.657 206.173 420.425 206.124 421.155 206.053C421.888 205.983 422.632 205.879 423.386 205.742L423.554 207.135C422.439 207.338 421.318 207.477 420.191 207.551C419.064 207.622 417.631 207.659 415.89 207.663H414.585V206.24H415.89ZM422.131 197.209V198.588H416.263V206.768H414.585V197.209H422.131ZM394.519 219.923C395.29 219.923 395.976 220.151 396.577 220.606C397.182 221.058 397.652 221.702 397.988 222.539C398.327 223.372 398.497 224.342 398.497 225.448C398.497 226.563 398.327 227.539 397.988 228.376C397.652 229.209 397.182 229.853 396.577 230.309C395.976 230.76 395.29 230.986 394.519 230.986C393.736 230.986 393.042 230.76 392.437 230.309C391.832 229.853 391.36 229.209 391.02 228.376C390.684 227.539 390.519 226.563 390.523 225.448C390.519 224.342 390.684 223.372 391.02 222.539C391.36 221.702 391.832 221.058 392.437 220.606C393.042 220.151 393.736 219.923 394.519 219.923ZM394.519 221.414C394.047 221.419 393.628 221.584 393.264 221.912C392.903 222.239 392.622 222.707 392.418 223.316C392.215 223.925 392.114 224.636 392.114 225.448C392.114 226.265 392.215 226.979 392.418 227.593C392.622 228.202 392.903 228.67 393.264 228.997C393.628 229.325 394.047 229.488 394.519 229.488C394.992 229.488 395.408 229.325 395.769 228.997C396.133 228.67 396.415 228.202 396.614 227.593C396.817 226.983 396.918 226.269 396.918 225.448C396.918 224.632 396.817 223.921 396.614 223.316C396.415 222.707 396.133 222.239 395.769 221.912C395.408 221.584 394.992 221.419 394.519 221.414ZM403.383 218.742V234.523H401.729V218.742H403.383ZM402.456 224.646V226.008H397.975V224.646H402.456ZM411.661 227.537V234.013H409.989V227.537H411.661ZM418.977 218.754V234.498H417.273V218.754H418.977ZM405.731 226.946C407.136 226.942 408.358 226.932 409.398 226.915C410.443 226.898 411.559 226.853 412.749 226.778C413.942 226.704 415.069 226.592 416.13 226.443L416.229 227.68C414.659 227.949 413.039 228.125 411.369 228.208C409.699 228.291 407.894 228.332 405.955 228.332L405.731 226.946ZM417.684 229.463V230.738H413.799V229.463H417.684ZM410.915 219.481C411.682 219.481 412.367 219.614 412.972 219.879C413.581 220.144 414.056 220.515 414.396 220.992C414.74 221.468 414.912 222.011 414.912 222.62C414.912 223.246 414.742 223.795 414.402 224.267C414.066 224.74 413.594 225.106 412.985 225.367C412.38 225.628 411.69 225.761 410.915 225.765C410.132 225.761 409.436 225.628 408.827 225.367C408.218 225.106 407.743 224.74 407.403 224.267C407.068 223.795 406.9 223.246 406.9 222.62C406.9 222.011 407.07 221.468 407.41 220.992C407.753 220.515 408.228 220.144 408.833 219.879C409.442 219.614 410.136 219.481 410.915 219.481ZM410.915 220.768C410.439 220.768 410.014 220.847 409.641 221.004C409.272 221.162 408.984 221.381 408.777 221.663C408.574 221.941 408.472 222.26 408.472 222.62C408.472 222.993 408.572 223.32 408.771 223.602C408.974 223.884 409.262 224.102 409.635 224.255C410.008 224.404 410.434 224.479 410.915 224.479C411.383 224.479 411.798 224.404 412.158 224.255C412.523 224.102 412.809 223.884 413.016 223.602C413.223 223.32 413.329 222.993 413.333 222.62C413.329 222.26 413.223 221.941 413.016 221.663C412.809 221.381 412.523 221.162 412.158 221.004C411.794 220.847 411.379 220.768 410.915 220.768ZM434.117 226.219V227.58H423.153V226.219H434.117ZM435.776 231.03V232.416H421.363V231.03H435.776ZM433.98 220.159V221.526H424.8V226.816H423.153V220.159H433.98Z" fill="#D4DEE5"/>
<path d="M26.7209 70.6851V82H24.9971V72.4088H24.9308L22.2292 74.1713V72.5304L25.0413 70.6851H26.7209ZM29.5999 82L29.5944 80.7514L33.5171 76.7901C33.9885 76.3039 34.3495 75.9079 34.5999 75.6022C34.8541 75.2965 35.0474 75 35.18 74.7127C35.3163 74.4217 35.3845 74.116 35.3845 73.7956C35.3845 73.4309 35.2924 73.1105 35.1082 72.8343C34.924 72.558 34.6736 72.3462 34.3568 72.1989C34.0401 72.0479 33.6828 71.9724 33.285 71.9724C32.8725 71.9724 32.5115 72.0552 32.2021 72.221C31.8927 72.3831 31.6533 72.6169 31.4839 72.9227C31.3145 73.2247 31.2298 73.5746 31.2298 73.9724H29.5944C29.5944 73.291 29.7528 72.6906 30.0695 72.1713C30.39 71.6482 30.832 71.2449 31.3955 70.9613C31.9627 70.674 32.6036 70.5304 33.3182 70.5304C34.0327 70.5304 34.6699 70.6703 35.2298 70.9503C35.7896 71.2265 36.2261 71.6096 36.5392 72.0994C36.8559 72.5893 37.0161 73.1381 37.0198 73.7459C37.0161 74.1805 36.9333 74.5967 36.7712 74.9945C36.6091 75.3923 36.3329 75.8343 35.9425 76.3204C35.5557 76.8066 35.0051 77.4015 34.2905 78.105L31.9922 80.442V80.5249H37.2021V82H29.5999ZM43.4526 70.1547L39.8062 83.7017H38.32L41.9664 70.1547H43.4526ZM44.4193 79.7901V78.4033L49.4138 70.6851H50.5022V72.7293H49.795L46.2204 78.2486V78.337H53.0823V79.7901H44.4193ZM49.9055 82V79.3702L49.9166 78.7348V70.6851H51.5464V82H49.9055ZM63.526 75.0331V77.5359H61.8023V75.0331H63.526ZM70.0398 69.2818V77.5083H68.294V69.2818H70.0398ZM58.1724 74.3702C59.9551 74.3738 61.5923 74.3554 63.084 74.3149C64.5758 74.2707 65.9993 74.1823 67.3548 74.0497L67.4487 75.1436C66.0454 75.3352 64.5886 75.4604 63.0785 75.5193C61.5721 75.5783 60.0012 75.6022 58.3658 75.5912L58.1724 74.3702ZM70.0398 77.9558V81.1271H62.0067V82.4254H60.2995V79.989H68.3106V79.1436H60.2443V77.9558H70.0398ZM70.4155 82.0331V83.2652H60.2995V82.0331H70.4155ZM68.8575 75.8785V76.9448H65.6476V75.8785H68.8575ZM62.736 69.5028C63.4321 69.5028 64.0472 69.5912 64.5813 69.768C65.119 69.9411 65.5352 70.1878 65.8299 70.5083C66.1246 70.8287 66.2737 71.2007 66.2774 71.6243C66.2737 72.0552 66.1246 72.4309 65.8299 72.7514C65.5352 73.0681 65.1209 73.3112 64.5868 73.4807C64.0527 73.6501 63.4358 73.7348 62.736 73.7348C62.0251 73.7348 61.4008 73.6501 60.863 73.4807C60.329 73.3112 59.9146 73.0681 59.6199 72.7514C59.329 72.4346 59.1835 72.0589 59.1835 71.6243C59.1835 71.2007 59.329 70.8287 59.6199 70.5083C59.9146 70.1878 60.3308 69.9411 60.8686 69.768C61.4063 69.5912 62.0288 69.5028 62.736 69.5028ZM62.736 70.6519C62.3455 70.6519 62.0067 70.6924 61.7194 70.7735C61.4321 70.8508 61.2093 70.9632 61.0509 71.1105C60.8962 71.2578 60.8207 71.4291 60.8244 71.6243C60.8207 71.8195 60.8962 71.9908 61.0509 72.1381C61.2093 72.2818 61.4303 72.3923 61.7139 72.4696C62.0012 72.547 62.3419 72.5856 62.736 72.5856C63.1264 72.5856 63.4653 72.547 63.7525 72.4696C64.0398 72.3923 64.2608 72.2818 64.4155 72.1381C64.5702 71.9908 64.6476 71.8195 64.6476 71.6243C64.6476 71.4291 64.5702 71.2578 64.4155 71.1105C64.2608 70.9632 64.038 70.8508 63.747 70.7735C63.4597 70.6924 63.1227 70.6519 62.736 70.6519Z" fill="#D4DEE5"/>
<path d="M118.429 70.6851V82H116.705V72.4088H116.639L113.937 74.1713V72.5304L116.749 70.6851H118.429ZM121.308 82L121.302 80.7514L125.225 76.7901C125.697 76.3039 126.057 75.9079 126.308 75.6022C126.562 75.2965 126.755 75 126.888 74.7127C127.024 74.4217 127.092 74.116 127.092 73.7956C127.092 73.4309 127 73.1105 126.816 72.8343C126.632 72.558 126.382 72.3462 126.065 72.1989C125.748 72.0479 125.391 71.9724 124.993 71.9724C124.58 71.9724 124.22 72.0552 123.91 72.221C123.601 72.3831 123.361 72.6169 123.192 72.9227C123.022 73.2247 122.938 73.5746 122.938 73.9724H121.302C121.302 73.291 121.461 72.6906 121.778 72.1713C122.098 71.6482 122.54 71.2449 123.104 70.9613C123.671 70.674 124.312 70.5304 125.026 70.5304C125.741 70.5304 126.378 70.6703 126.938 70.9503C127.498 71.2265 127.934 71.6096 128.247 72.0994C128.564 72.5893 128.724 73.1381 128.728 73.7459C128.724 74.1805 128.641 74.5967 128.479 74.9945C128.317 75.3923 128.041 75.8343 127.65 76.3204C127.264 76.8066 126.713 77.4015 125.999 78.105L123.7 80.442V80.5249H128.91V82H121.308ZM135.161 70.1547L131.514 83.7017H130.028L133.674 70.1547H135.161ZM140.221 82.1547C139.514 82.1547 138.873 82.0221 138.299 81.7569C137.728 81.488 137.273 81.1179 136.934 80.6464C136.595 80.175 136.415 79.6409 136.393 79.0442H138.067C138.092 79.361 138.205 79.6483 138.404 79.9061C138.602 80.1602 138.86 80.3591 139.177 80.5028C139.498 80.6427 139.846 80.7127 140.221 80.7127C140.671 80.7127 141.074 80.6114 141.431 80.4088C141.792 80.2063 142.072 79.9282 142.271 79.5746C142.474 79.221 142.575 78.8214 142.575 78.3757C142.575 77.9263 142.47 77.5212 142.26 77.1602C142.054 76.7956 141.765 76.5101 141.393 76.3039C141.024 76.0976 140.608 75.9926 140.144 75.989C139.676 75.9853 139.273 76.0645 138.934 76.2265C138.599 76.3886 138.335 76.6409 138.144 76.9834H136.525L137.265 70.6851H143.674V72.1602H138.691L138.304 75.3204H138.415C138.573 75.1731 138.763 75.0442 138.984 74.9337C139.208 74.8195 139.453 74.7311 139.718 74.6685C139.984 74.6022 140.258 74.5691 140.542 74.5691C141.245 74.5691 141.879 74.7311 142.442 75.0552C143.006 75.3757 143.446 75.8232 143.763 76.3978C144.083 76.9724 144.243 77.6188 144.243 78.337C144.243 79.0663 144.072 79.7219 143.73 80.3039C143.387 80.8821 142.91 81.3352 142.299 81.663C141.687 81.9908 140.995 82.1547 140.221 82.1547ZM154.637 77.6298V79.9337H152.891V77.6298H154.637ZM160.621 69.2707V83.3812H158.875V69.2707H160.621ZM162.599 75.0994V76.5414H160.041V75.0994H162.599ZM149.278 79.4751C150.475 79.4715 151.516 79.4622 152.4 79.4475C153.284 79.4328 154.234 79.3959 155.251 79.337C156.267 79.2744 157.223 79.1805 158.118 79.0552L158.234 80.3315C157.298 80.5009 156.324 80.628 155.311 80.7127C154.302 80.7974 153.352 80.8508 152.46 80.8729C151.573 80.895 150.595 80.9061 149.527 80.9061L149.278 79.4751ZM157.963 70.895V72.2707H149.543V70.895H157.963ZM153.775 72.9116C154.442 72.9116 155.035 73.0221 155.554 73.2431C156.074 73.4641 156.479 73.7753 156.77 74.1768C157.061 74.5746 157.208 75.035 157.212 75.558C157.208 76.0737 157.059 76.5322 156.764 76.9337C156.473 77.3315 156.068 77.639 155.549 77.8564C155.03 78.0737 154.438 78.1823 153.775 78.1823C153.105 78.1823 152.51 78.0737 151.991 77.8564C151.472 77.639 151.066 77.3315 150.775 76.9337C150.488 76.5322 150.346 76.0737 150.35 75.558C150.346 75.035 150.488 74.5746 150.775 74.1768C151.066 73.7753 151.472 73.4641 151.991 73.2431C152.51 73.0221 153.105 72.9116 153.775 72.9116ZM153.775 74.2431C153.418 74.2431 153.105 74.2965 152.836 74.4033C152.567 74.5101 152.359 74.663 152.212 74.8619C152.065 75.0571 151.993 75.2891 151.996 75.558C151.993 75.8269 152.065 76.0589 152.212 76.2541C152.359 76.4457 152.567 76.593 152.836 76.6961C153.105 76.7993 153.418 76.8508 153.775 76.8508C154.129 76.8508 154.438 76.7993 154.704 76.6961C154.969 76.593 155.175 76.4457 155.322 76.2541C155.47 76.0589 155.543 75.8269 155.543 75.558C155.543 75.2891 155.47 75.0571 155.322 74.8619C155.175 74.663 154.969 74.5101 154.704 74.4033C154.438 74.2965 154.129 74.2431 153.775 74.2431ZM154.637 69.326V71.8785H152.891V69.326H154.637Z" fill="#D4DEE5"/>
<path d="M209.778 70.6851V82H208.054V72.4088H207.987L205.286 74.1713V72.5304L208.098 70.6851H209.778ZM212.657 82L212.651 80.7514L216.574 76.7901C217.045 76.3039 217.406 75.9079 217.657 75.6022C217.911 75.2965 218.104 75 218.237 74.7127C218.373 74.4217 218.441 74.116 218.441 73.7956C218.441 73.4309 218.349 73.1105 218.165 72.8343C217.981 72.558 217.73 72.3462 217.413 72.1989C217.097 72.0479 216.739 71.9724 216.342 71.9724C215.929 71.9724 215.568 72.0552 215.259 72.221C214.949 72.3831 214.71 72.6169 214.541 72.9227C214.371 73.2247 214.286 73.5746 214.286 73.9724H212.651C212.651 73.291 212.809 72.6906 213.126 72.1713C213.447 71.6482 213.889 71.2449 214.452 70.9613C215.019 70.674 215.66 70.5304 216.375 70.5304C217.089 70.5304 217.727 70.6703 218.286 70.9503C218.846 71.2265 219.283 71.6096 219.596 72.0994C219.913 72.5893 220.073 73.1381 220.076 73.7459C220.073 74.1805 219.99 74.5967 219.828 74.9945C219.666 75.3923 219.39 75.8343 218.999 76.3204C218.612 76.8066 218.062 77.4015 217.347 78.105L215.049 80.442V80.5249H220.259V82H212.657ZM226.509 70.1547L222.863 83.7017H221.377L225.023 70.1547H226.509ZM231.807 82.1547C231.041 82.1473 230.338 81.9724 229.697 81.6298C229.06 81.2836 228.54 80.7072 228.139 79.9006C227.737 79.0939 227.537 78.0331 227.537 76.7182C227.537 75.418 227.715 74.3057 228.073 73.3812C228.43 72.453 228.94 71.7459 229.603 71.2597C230.266 70.7735 231.049 70.5304 231.951 70.5304C232.633 70.5304 233.246 70.663 233.791 70.9282C234.336 71.1897 234.776 71.5543 235.111 72.0221C235.45 72.4899 235.664 73.0239 235.752 73.6243H234.056C233.975 73.3112 233.841 73.0368 233.653 72.8011C233.469 72.5617 233.231 72.3738 232.94 72.2376C232.653 72.1013 232.323 72.0331 231.951 72.0331C231.373 72.0331 230.876 72.1971 230.459 72.5249C230.043 72.849 229.726 73.3168 229.509 73.9282C229.295 74.5359 229.189 75.2652 229.189 76.116H229.316C229.518 75.7956 229.767 75.5212 230.062 75.2928C230.36 75.0608 230.691 74.8858 231.056 74.768C231.424 74.6464 231.813 74.5856 232.222 74.5856C232.888 74.5856 233.5 74.744 234.056 75.0608C234.616 75.3775 235.056 75.8195 235.377 76.3867C235.701 76.954 235.863 77.5912 235.863 78.2983C235.863 79.0276 235.693 79.6869 235.354 80.2762C235.016 80.8656 234.539 81.3278 233.923 81.663C233.308 81.9982 232.603 82.1621 231.807 82.1547ZM231.802 80.7127C232.248 80.7127 232.653 80.6077 233.017 80.3978C233.382 80.1842 233.669 79.895 233.879 79.5304C234.089 79.1657 234.194 78.7643 234.194 78.326C234.194 77.8987 234.091 77.5064 233.885 77.1492C233.682 76.7882 233.4 76.5028 233.04 76.2928C232.682 76.0829 232.281 75.9779 231.835 75.9779C231.389 75.9779 230.981 76.0884 230.609 76.3094C230.237 76.5267 229.942 76.8177 229.725 77.1823C229.511 77.5433 229.402 77.9319 229.399 78.3481C229.399 78.7643 229.502 79.1547 229.708 79.5193C229.918 79.8803 230.205 80.1694 230.57 80.3867C230.938 80.6041 231.349 80.7127 231.802 80.7127ZM248.119 70.442C248.119 71.3296 247.872 72.1492 247.379 72.9006C246.885 73.6519 246.198 74.2818 245.318 74.7901C244.438 75.2983 243.434 75.6372 242.307 75.8066L241.616 74.4033C242.589 74.2781 243.454 74.0166 244.213 73.6188C244.972 73.2173 245.557 72.7385 245.97 72.1823C246.386 71.6225 246.594 71.0424 246.594 70.442V69.7182H248.119V70.442ZM248.417 70.442C248.417 71.0387 248.625 71.6169 249.042 72.1768C249.461 72.733 250.051 73.2118 250.81 73.6133C251.572 74.0147 252.441 74.2781 253.417 74.4033L252.732 75.8066C251.598 75.6372 250.589 75.2983 249.705 74.7901C248.821 74.2781 248.132 73.6464 247.638 72.895C247.145 72.1436 246.9 71.326 246.903 70.442V69.7182H248.417V70.442ZM248.323 78.1271V83.3812H246.605V78.1271H248.323ZM253.931 77.0331V78.4641H241.064V77.0331H253.931Z" fill="#D4DEE5"/>
<path d="M301.767 70.6851V82H300.043V72.4088H299.977L297.275 74.1713V72.5304L300.087 70.6851H301.767ZM304.646 82L304.64 80.7514L308.563 76.7901C309.034 76.3039 309.395 75.9079 309.646 75.6022C309.9 75.2965 310.093 75 310.226 74.7127C310.362 74.4217 310.43 74.116 310.43 73.7956C310.43 73.4309 310.338 73.1105 310.154 72.8343C309.97 72.558 309.719 72.3462 309.403 72.1989C309.086 72.0479 308.729 71.9724 308.331 71.9724C307.918 71.9724 307.557 72.0552 307.248 72.221C306.939 72.3831 306.699 72.6169 306.53 72.9227C306.36 73.2247 306.276 73.5746 306.276 73.9724H304.64C304.64 73.291 304.799 72.6906 305.115 72.1713C305.436 71.6482 305.878 71.2449 306.441 70.9613C307.009 70.674 307.65 70.5304 308.364 70.5304C309.079 70.5304 309.716 70.6703 310.276 70.9503C310.836 71.2265 311.272 71.6096 311.585 72.0994C311.902 72.5893 312.062 73.1381 312.066 73.7459C312.062 74.1805 311.979 74.5967 311.817 74.9945C311.655 75.3923 311.379 75.8343 310.988 76.3204C310.602 76.8066 310.051 77.4015 309.336 78.105L307.038 80.442V80.5249H312.248V82H304.646ZM318.498 70.1547L314.852 83.7017H313.366L317.012 70.1547H318.498ZM320.095 82L325.145 72.2431V72.1602H319.311V70.6851H326.929V72.2155L321.891 82H320.095ZM343.269 69.8398V74.7459H333.656V69.8398H343.269ZM335.352 71.2044V73.3702H341.557V71.2044H335.352ZM344.905 76.2376V77.6409H332.037V76.2376H344.905ZM339.33 74.4309V76.7017H337.59V74.4309H339.33ZM343.336 78.8287V83.3812H341.59V80.1989H333.463V78.8287H343.336Z" fill="#D4DEE5"/>
<path d="M392.779 70.6851V82H391.056V72.4088H390.989L388.288 74.1713V72.5304L391.1 70.6851H392.779ZM395.659 82L395.653 80.7514L399.576 76.7901C400.047 76.3039 400.408 75.9079 400.659 75.6022C400.913 75.2965 401.106 75 401.239 74.7127C401.375 74.4217 401.443 74.116 401.443 73.7956C401.443 73.4309 401.351 73.1105 401.167 72.8343C400.983 72.558 400.732 72.3462 400.415 72.1989C400.099 72.0479 399.741 71.9724 399.344 71.9724C398.931 71.9724 398.57 72.0552 398.261 72.221C397.951 72.3831 397.712 72.6169 397.542 72.9227C397.373 73.2247 397.288 73.5746 397.288 73.9724H395.653C395.653 73.291 395.811 72.6906 396.128 72.1713C396.449 71.6482 396.891 71.2449 397.454 70.9613C398.021 70.674 398.662 70.5304 399.377 70.5304C400.091 70.5304 400.728 70.6703 401.288 70.9503C401.848 71.2265 402.285 71.6096 402.598 72.0994C402.915 72.5893 403.075 73.1381 403.078 73.7459C403.075 74.1805 402.992 74.5967 402.83 74.9945C402.668 75.3923 402.391 75.8343 402.001 76.3204C401.614 76.8066 401.064 77.4015 400.349 78.105L398.051 80.442V80.5249H403.261V82H395.659ZM409.511 70.1547L405.865 83.7017H404.379L408.025 70.1547H409.511ZM414.671 82.1547C413.865 82.1547 413.145 82.0184 412.511 81.7459C411.878 81.4733 411.384 81.0976 411.03 80.6188C410.681 80.1363 410.507 79.5912 410.511 78.9834C410.507 78.512 410.609 78.0718 410.815 77.663C411.021 77.2505 411.305 76.9098 411.666 76.6409C412.03 76.372 412.432 76.2026 412.87 76.1326V76.0718C412.491 75.9871 412.154 75.825 411.859 75.5856C411.568 75.3425 411.342 75.0442 411.18 74.6906C411.018 74.337 410.936 73.9558 410.936 73.547C410.936 72.9761 411.097 72.4604 411.417 72C411.741 71.5396 412.187 71.1805 412.754 70.9227C413.325 70.6611 413.964 70.5304 414.671 70.5304C415.375 70.5304 416.008 70.6611 416.572 70.9227C417.135 71.1805 417.579 71.5396 417.903 72C418.227 72.4604 418.39 72.9761 418.39 73.547C418.39 73.9558 418.307 74.337 418.141 74.6906C417.979 75.0442 417.752 75.3425 417.461 75.5856C417.17 75.825 416.837 75.9871 416.461 76.0718V76.1326C416.896 76.2026 417.294 76.372 417.655 76.6409C418.016 76.9098 418.301 77.2505 418.511 77.663C418.721 78.0718 418.828 78.512 418.832 78.9834C418.828 79.5912 418.647 80.1363 418.29 80.6188C417.933 81.0976 417.439 81.4733 416.809 81.7459C416.18 82.0184 415.467 82.1547 414.671 82.1547ZM414.671 80.7514C415.154 80.7514 415.576 80.674 415.936 80.5193C416.301 80.361 416.583 80.14 416.782 79.8564C416.981 79.5691 417.08 79.2394 417.08 78.8674C417.08 78.4843 416.975 78.1418 416.765 77.8398C416.559 77.5341 416.272 77.2947 415.903 77.1215C415.539 76.9448 415.128 76.8564 414.671 76.8564C414.211 76.8564 413.795 76.9448 413.423 77.1215C413.054 77.2947 412.767 77.5341 412.561 77.8398C412.355 78.1455 412.255 78.488 412.262 78.8674C412.255 79.2394 412.349 79.5691 412.544 79.8564C412.739 80.14 413.019 80.361 413.384 80.5193C413.752 80.674 414.181 80.7514 414.671 80.7514ZM414.671 75.4917C415.062 75.4917 415.412 75.4162 415.721 75.2652C416.034 75.1105 416.277 74.8987 416.45 74.6298C416.627 74.3573 416.715 74.046 416.715 73.6961C416.715 73.3499 416.629 73.0442 416.456 72.779C416.286 72.5101 416.045 72.302 415.732 72.1547C415.423 72.0074 415.069 71.9337 414.671 71.9337C414.262 71.9337 413.903 72.0074 413.594 72.1547C413.285 72.302 413.043 72.5101 412.87 72.779C412.701 73.0442 412.616 73.3499 412.616 73.6961C412.616 74.046 412.703 74.3573 412.876 74.6298C413.053 74.8987 413.296 75.1105 413.605 75.2652C413.918 75.4162 414.274 75.4917 414.671 75.4917ZM434.662 69.9503V71.3481H425.584V69.9503H434.662ZM436.899 75.0608V76.4641H423.988V75.0608H436.899ZM435.319 71.0497V71.0994C435.319 71.6262 435.312 72.0902 435.297 72.4917C435.282 72.8932 435.242 73.3481 435.175 73.8564C435.109 74.3646 435.008 74.9061 434.871 75.4807L433.131 75.4199C433.267 74.8527 433.367 74.3186 433.429 73.8177C433.496 73.3131 433.538 72.8674 433.557 72.4807C433.575 72.0902 433.584 71.628 433.584 71.0939V71.0497V69.9503H435.319V71.0497ZM435.297 78.1105V83.2155H425.54V78.1105H435.297ZM427.242 79.4696V81.8122H433.573V79.4696H427.242Z" fill="#D4DEE5"/>
<path d="M484.222 70.6851V82H482.498V72.4088H482.432L479.73 74.1713V72.5304L482.542 70.6851H484.222ZM487.101 82L487.095 80.7514L491.018 76.7901C491.489 76.3039 491.85 75.9079 492.101 75.6022C492.355 75.2965 492.548 75 492.681 74.7127C492.817 74.4217 492.885 74.116 492.885 73.7956C492.885 73.4309 492.793 73.1105 492.609 72.8343C492.425 72.558 492.175 72.3462 491.858 72.1989C491.541 72.0479 491.184 71.9724 490.786 71.9724C490.373 71.9724 490.013 72.0552 489.703 72.221C489.394 72.3831 489.154 72.6169 488.985 72.9227C488.815 73.2247 488.731 73.5746 488.731 73.9724H487.095C487.095 73.291 487.254 72.6906 487.571 72.1713C487.891 71.6482 488.333 71.2449 488.896 70.9613C489.464 70.674 490.105 70.5304 490.819 70.5304C491.534 70.5304 492.171 70.6703 492.731 70.9503C493.291 71.2265 493.727 71.6096 494.04 72.0994C494.357 72.5893 494.517 73.1381 494.521 73.7459C494.517 74.1805 494.434 74.5967 494.272 74.9945C494.11 75.3923 493.834 75.8343 493.443 76.3204C493.057 76.8066 492.506 77.4015 491.792 78.105L489.493 80.442V80.5249H494.703V82H487.101ZM500.954 70.1547L497.307 83.7017H495.821L499.467 70.1547H500.954ZM506.058 70.5304C506.817 70.5378 507.515 70.7145 508.152 71.0608C508.79 71.4033 509.309 71.9761 509.71 72.779C510.116 73.582 510.318 74.6354 510.318 75.9392C510.318 77.2468 510.139 78.3665 509.782 79.2983C509.425 80.2302 508.915 80.9392 508.252 81.4254C507.589 81.9116 506.804 82.1547 505.898 82.1547C505.217 82.1547 504.604 82.0239 504.058 81.7624C503.517 81.4972 503.075 81.1289 502.732 80.6575C502.394 80.186 502.18 79.6446 502.092 79.0331H503.788C503.869 79.3536 504.001 79.6354 504.186 79.8785C504.373 80.1215 504.613 80.3112 504.904 80.4475C505.195 80.5838 505.526 80.6519 505.898 80.6519C506.476 80.6519 506.972 80.4899 507.384 80.1657C507.801 79.8379 508.119 79.3665 508.34 78.7514C508.561 78.1363 508.674 77.3996 508.677 76.5414H508.539C508.337 76.8619 508.086 77.1381 507.788 77.3702C507.493 77.5985 507.162 77.7735 506.793 77.895C506.429 78.0166 506.046 78.0773 505.644 78.0773C504.974 78.0773 504.359 77.919 503.799 77.6022C503.243 77.2818 502.802 76.8379 502.478 76.2707C502.154 75.7035 501.992 75.0681 501.992 74.3646C501.992 73.6464 502.16 72.9945 502.495 72.4088C502.834 71.8195 503.311 71.3573 503.926 71.0221C504.545 70.6869 505.255 70.523 506.058 70.5304ZM506.058 71.9724C505.613 71.9724 505.206 72.0792 504.837 72.2928C504.473 72.5028 504.186 72.7882 503.976 73.1492C503.766 73.5101 503.662 73.9061 503.666 74.337C503.666 74.768 503.767 75.1621 503.97 75.5193C504.173 75.8766 504.453 76.1602 504.81 76.3702C505.171 76.5764 505.576 76.6796 506.025 76.6796C506.471 76.6796 506.878 76.5709 507.246 76.3536C507.618 76.1363 507.911 75.8453 508.125 75.4807C508.338 75.116 508.445 74.7274 508.445 74.3149C508.445 73.9061 508.34 73.523 508.13 73.1657C507.924 72.8048 507.639 72.5157 507.274 72.2983C506.913 72.081 506.508 71.9724 506.058 71.9724ZM526.989 76.3812V77.7735H517.083V76.3812H526.989ZM528.42 80.337V81.7403H515.508V80.337H528.42ZM522.817 77.0829V80.9613H521.072V77.0829H522.817ZM526.862 70.3094V71.7127H518.845V76.9227H517.083V70.3094H526.862ZM526.541 73.3204V74.6906H518.315V73.3204H526.541Z" fill="#D4DEE5"/>
<rect width="550" height="42" fill="#D4DEE5"/>
<path d="M202.69 24.8826C204.118 24.8826 205.334 24.9991 206.336 25.232C207.339 25.4599 208.104 25.7993 208.631 26.25C209.157 26.7007 209.421 27.2528 209.421 27.9061C209.421 28.5543 209.157 29.1013 208.631 29.547C208.104 29.9926 207.339 30.3269 206.336 30.5497C205.334 30.7776 204.118 30.889 202.69 30.884C201.247 30.889 200.021 30.7776 199.013 30.5497C198.005 30.3269 197.238 29.9926 196.711 29.547C196.19 29.1013 195.929 28.5543 195.929 27.9061C195.929 27.2528 196.19 26.7007 196.711 26.25C197.238 25.7993 198.005 25.4599 199.013 25.232C200.021 24.9991 201.247 24.8826 202.69 24.8826ZM202.69 26.6298C201.723 26.6349 200.92 26.683 200.282 26.7742C199.649 26.8653 199.173 27.0071 198.854 27.1996C198.535 27.387 198.375 27.6225 198.375 27.9061C198.375 28.1846 198.535 28.4151 198.854 28.5974C199.173 28.7797 199.649 28.9164 200.282 29.0076C200.915 29.0988 201.718 29.1418 202.69 29.1367C203.662 29.1418 204.465 29.0988 205.098 29.0076C205.731 28.9164 206.207 28.7797 206.526 28.5974C206.845 28.4151 207.005 28.1846 207.005 27.9061C207.005 27.6225 206.843 27.387 206.519 27.1996C206.2 27.0071 205.721 26.8653 205.083 26.7742C204.45 26.683 203.652 26.6349 202.69 26.6298ZM210.606 12.971V14.7942H194.744V12.971H210.606ZM202.705 15.4095C204.797 15.4095 206.395 15.645 207.499 16.116C208.603 16.587 209.155 17.2834 209.155 18.2051C209.155 18.8027 208.907 19.3092 208.41 19.7244C207.914 20.1347 207.185 20.4461 206.223 20.6588C205.26 20.8665 204.088 20.9703 202.705 20.9703C201.333 20.9703 200.163 20.8639 199.196 20.6512C198.233 20.4385 197.502 20.1271 197 19.7169C196.504 19.3016 196.256 18.7977 196.256 18.2051C196.256 17.2834 196.81 16.587 197.919 16.116C199.028 15.645 200.624 15.4095 202.705 15.4095ZM202.705 17.0276C201.824 17.0327 201.097 17.0783 200.525 17.1644C199.958 17.2505 199.53 17.3796 199.241 17.5518C198.953 17.7189 198.811 17.9367 198.816 18.2051C198.811 18.4482 198.953 18.6533 199.241 18.8204C199.535 18.9825 199.968 19.1066 200.54 19.1927C201.118 19.2788 201.839 19.3218 202.705 19.3218C203.581 19.3218 204.306 19.2813 204.878 19.2003C205.45 19.1142 205.881 18.9876 206.169 18.8204C206.458 18.6533 206.602 18.4482 206.602 18.2051C206.602 17.9367 206.458 17.7189 206.169 17.5518C205.886 17.3796 205.458 17.2505 204.886 17.1644C204.318 17.0783 203.592 17.0327 202.705 17.0276ZM203.906 11.3073V14.2168H201.513V11.3073H203.906ZM211.563 22.1098V23.9786H193.87V22.1098H211.563ZM203.906 20.2258V22.953H201.513V20.2258H203.906ZM229.05 23.895V30.8992H226.657V25.817H215.809V23.895H229.05ZM229.05 11.4972V22.9378H226.657V11.4972H229.05ZM218.468 12.5988C219.455 12.5937 220.344 12.7912 221.134 13.1913C221.929 13.5914 222.555 14.1485 223.01 14.8626C223.466 15.5716 223.694 16.3743 223.694 17.2707C223.694 18.1773 223.466 18.9876 223.01 19.7017C222.56 20.4157 221.937 20.9728 221.142 21.3729C220.346 21.768 219.455 21.9655 218.468 21.9655C217.475 21.9655 216.581 21.768 215.786 21.3729C214.991 20.9728 214.365 20.4157 213.91 19.7017C213.459 18.9876 213.233 18.1773 213.233 17.2707C213.233 16.3743 213.459 15.5716 213.91 14.8626C214.365 14.1485 214.991 13.5914 215.786 13.1913C216.586 12.7912 217.48 12.5937 218.468 12.5988ZM218.468 14.6347C217.9 14.6397 217.396 14.7486 216.956 14.9613C216.52 15.174 216.178 15.4804 215.93 15.8805C215.687 16.2756 215.566 16.7389 215.566 17.2707C215.566 17.8126 215.687 18.2861 215.93 18.6913C216.178 19.0914 216.52 19.4003 216.956 19.6181C217.396 19.8359 217.9 19.9422 218.468 19.9372C219.025 19.9422 219.518 19.8359 219.949 19.6181C220.384 19.4003 220.726 19.0914 220.974 18.6913C221.223 18.2861 221.347 17.8126 221.347 17.2707C221.347 16.7389 221.223 16.2756 220.974 15.8805C220.726 15.4804 220.384 15.174 219.949 14.9613C219.518 14.7486 219.025 14.6397 218.468 14.6347ZM238.788 16.1616C238.788 17.7772 238.568 19.3016 238.127 20.7348C237.686 22.168 237.043 23.4316 236.197 24.5256C235.352 25.6195 234.336 26.445 233.151 27.0021L231.693 25.0117C232.741 24.5559 233.653 23.8722 234.427 22.9606C235.202 22.049 235.792 21.0058 236.197 19.8308C236.608 18.6508 236.815 17.4277 236.82 16.1616V13.0546H238.788V16.1616ZM239.236 16.1616C239.231 17.3619 239.426 18.5242 239.821 19.6485C240.221 20.7728 240.804 21.7756 241.568 22.6568C242.333 23.538 243.227 24.1989 244.25 24.6395L242.829 26.5539C241.68 26.017 240.685 25.227 239.844 24.1837C239.008 23.1354 238.37 21.9224 237.929 20.5449C237.489 19.1674 237.269 17.7063 237.269 16.1616V13.0546H239.236V16.1616ZM248.056 11.4972V30.9448H245.648V11.4972H248.056ZM267.069 11.4972V30.9448H264.661V11.4972H267.069ZM253.76 24.2217C255.249 24.2217 256.485 24.2065 257.467 24.1761C258.45 24.1457 259.379 24.0925 260.255 24.0166C261.136 23.9355 262.028 23.814 262.929 23.6519L263.157 25.6195C261.835 25.8676 260.488 26.0348 259.116 26.1209C257.748 26.207 255.963 26.2525 253.76 26.2576H252.119V24.2217H253.76ZM261.478 13.2521V15.212H254.512V24.9965H252.119V13.2521H261.478ZM284.71 14.232C284.705 15.3715 284.376 16.4148 283.722 17.3619C283.069 18.3089 282.157 19.099 280.988 19.732C279.823 20.3651 278.483 20.793 276.969 21.0159L276.073 19.1395C277.359 18.9724 278.498 18.6432 279.491 18.1519C280.489 17.6556 281.259 17.0656 281.8 16.3819C282.347 15.6982 282.623 14.9816 282.628 14.232V13.5711H284.71V14.232ZM285.371 14.232C285.366 14.9816 285.634 15.6982 286.176 16.3819C286.718 17.0656 287.488 17.6556 288.485 18.1519C289.483 18.6432 290.633 18.9724 291.934 19.1395L291.053 21.0159C289.529 20.793 288.179 20.3651 287.004 19.732C285.829 19.099 284.915 18.3115 284.262 17.3695C283.608 16.4224 283.282 15.3766 283.282 14.232V13.5711H285.371V14.232ZM285.128 23.6671V30.8992H282.765V23.6671H285.128ZM292.838 22.3149V24.2445H275.146V22.3149H292.838ZM291.213 12.5836V14.4675H276.764V12.5836H291.213ZM309.482 11.4972V25.4979H307.059V11.4972H309.482ZM312.194 17.0808V19.0635H308.775V17.0808H312.194ZM304.202 12.9634C304.197 14.6701 303.838 16.2148 303.123 17.5974C302.409 18.9749 301.371 20.1625 300.009 21.1602C298.652 22.1529 297.011 22.9302 295.086 23.4924L294.083 21.5932C295.689 21.1273 297.056 20.5221 298.186 19.7776C299.315 19.0281 300.171 18.1747 300.753 17.2175C301.341 16.2553 301.637 15.2196 301.642 14.1105V12.9634H304.202ZM302.934 12.9634V14.9233H294.911V12.9634H302.934ZM310.211 28.5974V30.5345H297.008V28.5974H310.211ZM299.416 24.0698V29.433H297.008V24.0698H299.416ZM323.901 12.1126C324.874 12.1176 325.747 12.3076 326.522 12.6823C327.302 13.0571 327.915 13.5787 328.361 14.2472C328.811 14.9107 329.037 15.6628 329.037 16.5035C329.037 17.3492 328.811 18.1038 328.361 18.7673C327.915 19.4307 327.302 19.9498 326.522 20.3246C325.747 20.6943 324.874 20.8791 323.901 20.8791C322.924 20.8791 322.04 20.6943 321.25 20.3246C320.465 19.9498 319.85 19.4307 319.404 18.7673C318.964 18.1038 318.743 17.3492 318.743 16.5035C318.743 15.6628 318.964 14.9107 319.404 14.2472C319.85 13.5787 320.465 13.0571 321.25 12.6823C322.04 12.3076 322.924 12.1176 323.901 12.1126ZM323.901 14.0877C323.354 14.0877 322.866 14.1865 322.435 14.384C322.005 14.5815 321.668 14.8651 321.425 15.2348C321.182 15.5994 321.063 16.0223 321.068 16.5035C321.063 16.9947 321.182 17.4252 321.425 17.7949C321.668 18.1595 322.005 18.4431 322.435 18.6457C322.866 18.8432 323.354 18.942 323.901 18.942C324.443 18.942 324.927 18.8432 325.352 18.6457C325.778 18.4431 326.112 18.1595 326.355 17.7949C326.598 17.4252 326.72 16.9947 326.72 16.5035C326.72 16.0223 326.598 15.5994 326.355 15.2348C326.112 14.8651 325.778 14.5815 325.352 14.384C324.927 14.1865 324.443 14.0877 323.901 14.0877ZM334.56 11.4972V21.297H332.167V11.4972H334.56ZM334.56 22.1478V27.2224H324.053V29.7825H321.729V25.4599H332.182V24.009H321.668V22.1478H334.56ZM335.144 28.7797V30.6713H321.729V28.7797H335.144ZM351.932 16.3363V18.2887H347.967V16.3363H351.932ZM353.672 11.4972V23.0366H351.287V11.4972H353.672ZM347.101 23.5152C348.463 23.5152 349.643 23.6621 350.641 23.9558C351.639 24.2495 352.401 24.675 352.927 25.232C353.459 25.7841 353.725 26.445 353.725 27.2148C353.725 27.9896 353.459 28.6531 352.927 29.2051C352.401 29.7571 351.639 30.18 350.641 30.4738C349.648 30.7675 348.468 30.9144 347.101 30.9144C345.738 30.9144 344.558 30.7675 343.561 30.4738C342.568 30.18 341.808 29.7571 341.282 29.2051C340.755 28.6531 340.492 27.9896 340.492 27.2148C340.492 26.445 340.758 25.7841 341.289 25.232C341.821 24.675 342.581 24.2495 343.568 23.9558C344.561 23.6621 345.738 23.5152 347.101 23.5152ZM347.101 25.3536C346.199 25.3536 345.43 25.4245 344.791 25.5663C344.158 25.703 343.677 25.9132 343.348 26.1968C343.024 26.4754 342.864 26.8147 342.869 27.2148C342.864 27.6149 343.024 27.9542 343.348 28.2327C343.677 28.5062 344.158 28.7139 344.791 28.8557C345.43 28.9975 346.199 29.0658 347.101 29.0608C348.007 29.0658 348.777 28.9975 349.41 28.8557C350.043 28.7139 350.524 28.5062 350.854 28.2327C351.188 27.9542 351.355 27.6149 351.355 27.2148C351.355 26.8147 351.188 26.4754 350.854 26.1968C350.524 25.9132 350.043 25.703 349.41 25.5663C348.777 25.4245 348.007 25.3536 347.101 25.3536ZM344.07 14.8322C344.065 16.0628 343.849 17.2175 343.424 18.2963C343.004 19.375 342.383 20.3221 341.563 21.1374C340.742 21.9528 339.752 22.5656 338.593 22.9758L337.347 21.0843C338.354 20.7399 339.215 20.2436 339.93 19.5953C340.649 18.942 341.191 18.2051 341.555 17.3847C341.925 16.5592 342.11 15.7083 342.11 14.8322V13.4496H344.07V14.8322ZM344.541 14.8094C344.541 15.6197 344.713 16.4022 345.057 17.1568C345.407 17.9114 345.926 18.59 346.615 19.1927C347.303 19.7903 348.134 20.2512 349.106 20.5753L347.914 22.4669C346.784 22.082 345.819 21.5046 345.019 20.7348C344.219 19.965 343.614 19.0711 343.204 18.0532C342.793 17.0352 342.591 15.954 342.596 14.8094V13.4496H344.541V14.8094ZM348.559 12.7583V14.6878H338.061V12.7583H348.559Z" fill="black"/>
<line x1="550" y1="91.5" y2="91.5" stroke="#D4DEE5" stroke-dasharray="3 3"/>
<line x1="550" y1="59.5" y2="59.5" stroke="#D4DEE5"/>
<line x1="550" y1="262.5" y2="262.5" stroke="#D4DEE5"/>
<line x1="92.5" y1="60" x2="92.5" y2="103" stroke="#D4DEE5" stroke-dasharray="3 3"/>
<line x1="184.5" y1="60" x2="184.5" y2="103" stroke="#D4DEE5" stroke-dasharray="3 3"/>
<line x1="275.5" y1="60" x2="275.5" y2="103" stroke="#D4DEE5" stroke-dasharray="3 3"/>
<line x1="367.5" y1="60" x2="367.5" y2="103" stroke="#D4DEE5" stroke-dasharray="3 3"/>
<line x1="458.5" y1="60" x2="458.5" y2="103" stroke="#D4DEE5" stroke-dasharray="3 3"/>
<line x1="92.5" y1="145" x2="92.5" y2="262" stroke="#D4DEE5" stroke-dasharray="3 3"/>
<line x1="184.5" y1="145" x2="184.5" y2="262" stroke="#D4DEE5" stroke-dasharray="3 3"/>
<line x1="275.5" y1="145" x2="275.5" y2="262" stroke="#D4DEE5" stroke-dasharray="3 3"/>
<line x1="367.5" y1="145" x2="367.5" y2="262" stroke="#D4DEE5" stroke-dasharray="3 3"/>
<line x1="458.5" y1="145" x2="458.5" y2="262" stroke="#D4DEE5" stroke-dasharray="3 3"/>
</svg>
