<svg width="553" height="315" viewBox="0 0 553 315" fill="none" xmlns="http://www.w3.org/2000/svg">
<line x1="275.75" y1="42" x2="275.75" y2="125" stroke="#D4DEE5" stroke-width="1.5"/>
<rect width="550" height="42" fill="#D4DEE5"/>
<rect x="188.75" y="125.75" width="172.082" height="40.5" fill="#D4DEE5" stroke="#D4DEE5" stroke-width="1.5"/>
<rect x="376.75" y="125.75" width="172.082" height="40.5" fill="#D4DEE5" fill-opacity="0.2" stroke="#D4DEE5" stroke-width="1.5"/>
<rect x="0.75" y="125.75" width="172.082" height="40.5" fill="#D4DEE5" fill-opacity="0.2" stroke="#D4DEE5" stroke-width="1.5"/>
<path d="M240.068 146.347V150.323H238.007V146.347H240.068ZM239.018 138.914C239.871 138.914 240.643 139.087 241.334 139.432C242.025 139.778 242.569 140.259 242.967 140.876C243.365 141.488 243.567 142.183 243.571 142.962C243.567 143.741 243.365 144.438 242.967 145.055C242.569 145.672 242.025 146.151 241.334 146.492C240.643 146.833 239.871 147.003 239.018 147.003C238.147 147.003 237.365 146.833 236.669 146.492C235.978 146.151 235.436 145.674 235.042 145.061C234.653 144.445 234.46 143.745 234.465 142.962C234.46 142.179 234.653 141.481 235.042 140.869C235.436 140.252 235.978 139.773 236.669 139.432C237.365 139.087 238.147 138.914 239.018 138.914ZM239.018 140.666C238.528 140.67 238.088 140.766 237.699 140.954C237.314 141.138 237.012 141.405 236.794 141.755C236.575 142.1 236.468 142.503 236.472 142.962C236.468 143.421 236.575 143.826 236.794 144.176C237.012 144.521 237.314 144.788 237.699 144.976C238.088 145.164 238.528 145.256 239.018 145.252C239.495 145.256 239.923 145.164 240.304 144.976C240.689 144.788 240.99 144.521 241.209 144.176C241.428 143.826 241.539 143.421 241.544 142.962C241.539 142.503 241.428 142.1 241.209 141.755C240.99 141.405 240.691 141.138 240.31 140.954C239.93 140.766 239.499 140.67 239.018 140.666ZM247.193 137.884V154.64H245.132V137.884H247.193ZM249.62 144.576V146.315H246.582V144.576H249.62ZM233.802 149.503H234.701C235.939 149.494 237.052 149.479 238.04 149.457C239.033 149.435 240.065 149.392 241.137 149.326C242.213 149.256 243.228 149.158 244.181 149.031L244.326 150.559C243.232 150.761 242.093 150.909 240.907 151.006C239.722 151.097 238.591 151.154 237.515 151.176C236.444 151.194 235.304 151.196 234.097 151.183L233.802 149.503ZM265.739 147.331V149.031H250.407V147.331H265.739ZM259.047 148.388V154.653H257.007V148.388H259.047ZM258.03 138.481C259.216 138.481 260.265 138.636 261.179 138.947C262.094 139.253 262.804 139.69 263.312 140.259C263.819 140.828 264.073 141.49 264.073 142.247C264.073 142.99 263.819 143.644 263.312 144.209C262.804 144.768 262.094 145.199 261.179 145.501C260.265 145.803 259.216 145.954 258.03 145.954C256.845 145.954 255.797 145.803 254.888 145.501C253.978 145.199 253.269 144.768 252.762 144.209C252.259 143.644 252.01 142.99 252.014 142.247C252.01 141.49 252.259 140.828 252.762 140.259C253.269 139.69 253.978 139.253 254.888 138.947C255.797 138.636 256.845 138.481 258.03 138.481ZM258.03 140.141C257.239 140.141 256.55 140.224 255.964 140.39C255.382 140.556 254.931 140.799 254.612 141.118C254.293 141.433 254.135 141.81 254.14 142.247C254.135 142.676 254.293 143.045 254.612 143.356C254.931 143.666 255.384 143.905 255.97 144.071C256.556 144.233 257.243 144.314 258.03 144.314C258.822 144.314 259.513 144.233 260.103 144.071C260.694 143.905 261.149 143.666 261.468 143.356C261.787 143.045 261.947 142.676 261.947 142.247C261.947 141.81 261.787 141.433 261.468 141.118C261.149 140.799 260.694 140.556 260.103 140.39C259.513 140.224 258.822 140.141 258.03 140.141ZM279.464 140.167V141.814H274.425V140.167H279.464ZM279.464 143.946V145.606H274.425V143.946H279.464ZM271.499 138.822C272.321 138.822 273.067 138.995 273.736 139.34C274.405 139.686 274.93 140.169 275.311 140.79C275.696 141.407 275.89 142.105 275.895 142.883C275.89 143.653 275.696 144.349 275.311 144.97C274.93 145.586 274.405 146.07 273.736 146.42C273.067 146.765 272.321 146.936 271.499 146.931C270.663 146.936 269.909 146.765 269.235 146.42C268.562 146.07 268.033 145.586 267.648 144.97C267.263 144.349 267.072 143.653 267.077 142.883C267.072 142.105 267.263 141.407 267.648 140.79C268.033 140.169 268.562 139.686 269.235 139.34C269.909 138.995 270.663 138.822 271.499 138.822ZM271.499 140.594C271.022 140.589 270.596 140.681 270.219 140.869C269.848 141.057 269.557 141.324 269.347 141.67C269.141 142.015 269.039 142.42 269.039 142.883C269.039 143.338 269.143 143.741 269.353 144.09C269.563 144.436 269.854 144.705 270.226 144.897C270.598 145.09 271.022 145.184 271.499 145.18C271.962 145.184 272.378 145.09 272.745 144.897C273.113 144.705 273.401 144.434 273.611 144.084C273.821 143.734 273.926 143.334 273.926 142.883C273.926 142.42 273.821 142.015 273.611 141.67C273.401 141.324 273.113 141.057 272.745 140.869C272.382 140.681 271.967 140.589 271.499 140.594ZM280.894 137.884V147.738H278.834V137.884H280.894ZM275.219 148.099C276.387 148.099 277.399 148.228 278.256 148.486C279.118 148.744 279.781 149.118 280.244 149.608C280.708 150.098 280.94 150.684 280.94 151.366C280.94 152.044 280.708 152.628 280.244 153.118C279.781 153.608 279.118 153.982 278.256 154.24C277.399 154.502 276.387 154.631 275.219 154.627C274.051 154.631 273.036 154.502 272.175 154.24C271.317 153.982 270.659 153.608 270.2 153.118C269.741 152.628 269.511 152.044 269.511 151.366C269.511 150.684 269.741 150.098 270.2 149.608C270.659 149.118 271.317 148.744 272.175 148.486C273.036 148.228 274.051 148.099 275.219 148.099ZM275.219 149.687C274.44 149.687 273.775 149.752 273.224 149.884C272.673 150.01 272.253 150.199 271.965 150.448C271.676 150.697 271.534 151.003 271.538 151.366C271.534 151.716 271.676 152.016 271.965 152.265C272.253 152.515 272.673 152.703 273.224 152.829C273.775 152.952 274.44 153.011 275.219 153.007C276.01 153.011 276.682 152.952 277.233 152.829C277.784 152.703 278.204 152.515 278.493 152.265C278.781 152.016 278.926 151.716 278.926 151.366C278.926 151.003 278.781 150.697 278.493 150.448C278.204 150.199 277.784 150.01 277.233 149.884C276.682 149.752 276.01 149.687 275.219 149.687ZM288.838 140.357C288.834 141.473 288.652 142.512 288.294 143.474C287.939 144.432 287.415 145.265 286.719 145.973C286.024 146.678 285.182 147.205 284.193 147.555L283.078 145.927C283.957 145.621 284.701 145.186 285.309 144.622C285.921 144.053 286.378 143.406 286.68 142.68C286.986 141.949 287.141 141.175 287.146 140.357V138.77H288.838V140.357ZM289.206 140.548C289.206 141.261 289.357 141.943 289.658 142.595C289.96 143.242 290.406 143.817 290.997 144.32C291.592 144.823 292.309 145.208 293.149 145.475L292.046 147.082C291.093 146.759 290.277 146.275 289.599 145.632C288.926 144.989 288.414 144.233 288.064 143.362C287.714 142.487 287.539 141.549 287.539 140.548V138.77H289.206V140.548ZM296.501 137.884V147.909H294.428V137.884H296.501ZM298.843 141.952V143.671H295.924V141.952H298.843ZM291.043 148.283C292.193 148.278 293.188 148.403 294.028 148.657C294.872 148.906 295.519 149.269 295.97 149.746C296.425 150.218 296.652 150.785 296.652 151.445C296.652 152.114 296.425 152.687 295.97 153.164C295.519 153.641 294.872 154.004 294.028 154.253C293.188 154.507 292.193 154.631 291.043 154.627C289.875 154.631 288.864 154.507 288.012 154.253C287.163 154.004 286.509 153.641 286.05 153.164C285.595 152.687 285.368 152.114 285.368 151.445C285.368 150.785 285.595 150.218 286.05 149.746C286.509 149.269 287.165 148.906 288.018 148.657C288.871 148.403 289.879 148.278 291.043 148.283ZM291.043 149.897C290.277 149.897 289.623 149.958 289.081 150.08C288.539 150.203 288.127 150.38 287.848 150.612C287.568 150.844 287.428 151.121 287.428 151.445C287.428 151.786 287.568 152.073 287.848 152.305C288.127 152.536 288.536 152.711 289.074 152.829C289.612 152.948 290.268 153.007 291.043 153.007C291.812 153.007 292.464 152.948 292.998 152.829C293.531 152.711 293.936 152.536 294.211 152.305C294.487 152.073 294.625 151.786 294.625 151.445C294.625 151.121 294.485 150.844 294.205 150.612C293.925 150.38 293.518 150.203 292.985 150.08C292.455 149.958 291.808 149.897 291.043 149.897ZM314.116 137.884V154.64H312.161V137.884H314.116ZM309.333 143.73V145.396H306.355V143.73H309.333ZM310.705 138.199V153.833H308.769V138.199H310.705ZM304.452 142.463C304.448 143.741 304.303 144.961 304.019 146.124C303.739 147.283 303.315 148.327 302.746 149.254C302.182 150.181 301.484 150.901 300.653 151.412L299.394 149.89C300.172 149.413 300.822 148.784 301.342 148.001C301.863 147.213 302.248 146.347 302.497 145.403C302.751 144.458 302.878 143.478 302.878 142.463V140.561H304.452V142.463ZM304.865 142.463C304.865 143.452 304.986 144.394 305.226 145.291C305.467 146.188 305.843 147.003 306.355 147.738C306.866 148.473 307.507 149.064 308.277 149.51L307.063 151.025C306.224 150.531 305.524 149.849 304.964 148.978C304.404 148.103 303.991 147.113 303.724 146.006C303.461 144.895 303.33 143.714 303.33 142.463V140.561H304.865V142.463ZM307.575 139.682V141.348H299.965V139.682H307.575Z" fill="black"/>
<path d="M411.382 149.438C412.603 149.438 413.639 149.536 414.492 149.733C415.349 149.93 416.001 150.22 416.447 150.605C416.898 150.99 417.125 151.46 417.129 152.016C417.125 152.567 416.898 153.031 416.447 153.407C416.001 153.787 415.349 154.072 414.492 154.26C413.639 154.452 412.603 154.548 411.382 154.548C410.149 154.548 409.103 154.452 408.246 154.26C407.389 154.072 406.735 153.787 406.285 153.407C405.838 153.031 405.615 152.567 405.615 152.016C405.615 151.46 405.838 150.99 406.285 150.605C406.735 150.22 407.389 149.93 408.246 149.733C409.108 149.536 410.153 149.438 411.382 149.438ZM411.382 150.743C410.521 150.743 409.795 150.791 409.204 150.887C408.618 150.984 408.174 151.128 407.872 151.32C407.57 151.509 407.42 151.74 407.42 152.016C407.42 152.287 407.57 152.515 407.872 152.698C408.174 152.882 408.618 153.02 409.204 153.112C409.79 153.203 410.516 153.247 411.382 153.243C412.244 153.247 412.968 153.203 413.554 153.112C414.144 153.02 414.59 152.882 414.892 152.698C415.194 152.515 415.345 152.287 415.345 152.016C415.345 151.74 415.192 151.509 414.886 151.32C414.584 151.128 414.14 150.984 413.554 150.887C412.968 150.791 412.244 150.743 411.382 150.743ZM418.127 139.281V140.646H404.592V139.281H418.127ZM411.389 141.256C413.156 141.252 414.507 141.453 415.443 141.86C416.384 142.262 416.854 142.855 416.854 143.638C416.854 144.15 416.642 144.583 416.218 144.937C415.793 145.291 415.174 145.558 414.361 145.737C413.547 145.917 412.557 146.006 411.389 146.006C410.225 146.006 409.235 145.917 408.417 145.737C407.603 145.558 406.984 145.291 406.56 144.937C406.136 144.583 405.926 144.15 405.93 143.638C405.926 142.855 406.394 142.262 407.334 141.86C408.279 141.453 409.631 141.252 411.389 141.256ZM411.389 142.463C410.606 142.463 409.948 142.509 409.414 142.601C408.885 142.689 408.485 142.82 408.213 142.995C407.942 143.165 407.809 143.38 407.813 143.638C407.809 143.883 407.942 144.09 408.213 144.261C408.489 144.427 408.894 144.554 409.427 144.642C409.961 144.729 410.615 144.773 411.389 144.773C412.167 144.773 412.821 144.729 413.35 144.642C413.884 144.554 414.286 144.427 414.558 144.261C414.833 144.09 414.973 143.883 414.978 143.638C414.978 143.38 414.84 143.165 414.564 142.995C414.293 142.82 413.893 142.689 413.364 142.601C412.834 142.509 412.176 142.463 411.389 142.463ZM412.275 137.746V140.187H410.523V137.746H412.275ZM418.98 147.135V148.539H403.824V147.135H418.98ZM412.275 145.468V147.804H410.523V145.468H412.275ZM434.036 148.657V154.575H432.271V150.094H422.764V148.657H434.036ZM434.036 137.95V147.797H432.271V137.95H434.036ZM425.008 138.921C425.848 138.921 426.603 139.089 427.272 139.426C427.941 139.763 428.466 140.233 428.846 140.836C429.231 141.436 429.424 142.118 429.424 142.883C429.424 143.653 429.233 144.34 428.853 144.943C428.472 145.547 427.945 146.017 427.272 146.354C426.603 146.691 425.848 146.859 425.008 146.859C424.168 146.859 423.412 146.691 422.738 146.354C422.065 146.017 421.535 145.547 421.151 144.943C420.77 144.34 420.58 143.653 420.58 142.883C420.58 142.122 420.77 141.44 421.151 140.836C421.535 140.233 422.065 139.763 422.738 139.426C423.412 139.089 424.168 138.921 425.008 138.921ZM425.008 140.43C424.483 140.43 424.015 140.532 423.604 140.738C423.193 140.939 422.872 141.226 422.64 141.597C422.412 141.969 422.301 142.398 422.305 142.883C422.301 143.373 422.412 143.806 422.64 144.182C422.872 144.558 423.193 144.849 423.604 145.055C424.015 145.26 424.483 145.361 425.008 145.357C425.524 145.361 425.986 145.26 426.393 145.055C426.804 144.849 427.123 144.558 427.35 144.182C427.582 143.806 427.698 143.373 427.698 142.883C427.698 142.398 427.582 141.969 427.35 141.597C427.123 141.226 426.804 140.939 426.393 140.738C425.986 140.532 425.524 140.43 425.008 140.43ZM442.446 142.181C442.446 143.493 442.245 144.749 441.842 145.947C441.444 147.141 440.88 148.195 440.15 149.109C439.419 150.019 438.575 150.706 437.617 151.17L436.528 149.7C437.386 149.315 438.153 148.733 438.831 147.955C439.509 147.176 440.038 146.284 440.419 145.278C440.799 144.272 440.992 143.24 440.996 142.181V139.334H442.446V142.181ZM442.768 142.181C442.763 143.187 442.947 144.174 443.319 145.14C443.69 146.107 444.211 146.968 444.88 147.725C445.554 148.477 446.315 149.039 447.163 149.411L446.1 150.815C445.16 150.369 444.327 149.709 443.601 148.834C442.875 147.955 442.31 146.942 441.908 145.796C441.506 144.646 441.304 143.441 441.304 142.181V139.334H442.768V142.181ZM450.437 137.95V154.607H448.666V137.95H450.437ZM466.858 137.95V154.607H465.087V137.95H466.858ZM455.521 149.031C456.75 149.031 457.791 149.018 458.644 148.991C459.497 148.961 460.308 148.908 461.078 148.834C461.852 148.76 462.637 148.65 463.433 148.506L463.61 149.975C462.434 150.19 461.251 150.336 460.061 150.415C458.871 150.489 457.358 150.529 455.521 150.533H454.143V149.031H455.521ZM462.108 139.498V140.954H455.915V149.588H454.143V139.498H462.108ZM478.654 139.196C479.467 139.196 480.191 139.437 480.825 139.918C481.464 140.395 481.96 141.075 482.315 141.958C482.673 142.837 482.853 143.861 482.853 145.029C482.853 146.205 482.673 147.235 482.315 148.119C481.96 148.998 481.464 149.678 480.825 150.159C480.191 150.636 479.467 150.874 478.654 150.874C477.827 150.874 477.094 150.636 476.456 150.159C475.817 149.678 475.319 148.998 474.96 148.119C474.606 147.235 474.431 146.205 474.435 145.029C474.431 143.861 474.606 142.837 474.96 141.958C475.319 141.075 475.817 140.395 476.456 139.918C477.094 139.437 477.827 139.196 478.654 139.196ZM478.654 140.771C478.155 140.775 477.713 140.95 477.328 141.296C476.948 141.641 476.651 142.135 476.436 142.778C476.222 143.421 476.115 144.171 476.115 145.029C476.115 145.89 476.222 146.645 476.436 147.292C476.651 147.935 476.948 148.429 477.328 148.775C477.713 149.12 478.155 149.293 478.654 149.293C479.152 149.293 479.592 149.12 479.972 148.775C480.357 148.429 480.655 147.935 480.865 147.292C481.079 146.649 481.186 145.895 481.186 145.029C481.186 144.167 481.079 143.417 480.865 142.778C480.655 142.135 480.357 141.641 479.972 141.296C479.592 140.95 479.152 140.775 478.654 140.771ZM488.009 137.95V154.607H486.264V137.95H488.009ZM487.032 144.182V145.619H482.302V144.182H487.032ZM496.748 147.233V154.069H494.983V147.233H496.748ZM504.47 137.963V154.581H502.672V137.963H504.47ZM490.489 146.61C491.971 146.605 493.262 146.594 494.36 146.577C495.462 146.56 496.64 146.511 497.896 146.433C499.155 146.354 500.345 146.236 501.465 146.078L501.57 147.384C499.912 147.668 498.202 147.854 496.439 147.942C494.677 148.029 492.772 148.073 490.725 148.073L490.489 146.61ZM503.105 149.267V150.612H499.005V149.267H503.105ZM495.96 138.73C496.77 138.73 497.493 138.87 498.132 139.15C498.775 139.43 499.276 139.822 499.634 140.325C499.997 140.828 500.179 141.401 500.179 142.044C500.179 142.704 500 143.283 499.641 143.782C499.287 144.281 498.788 144.668 498.145 144.943C497.507 145.219 496.778 145.359 495.96 145.363C495.134 145.359 494.399 145.219 493.756 144.943C493.113 144.668 492.612 144.281 492.254 143.782C491.899 143.283 491.722 142.704 491.722 142.044C491.722 141.401 491.901 140.828 492.26 140.325C492.623 139.822 493.124 139.43 493.762 139.15C494.405 138.87 495.138 138.73 495.96 138.73ZM495.96 140.088C495.457 140.088 495.009 140.172 494.615 140.338C494.226 140.504 493.922 140.736 493.703 141.033C493.489 141.326 493.382 141.663 493.382 142.044C493.382 142.437 493.487 142.783 493.697 143.08C493.911 143.378 494.215 143.607 494.609 143.769C495.002 143.926 495.453 144.005 495.96 144.005C496.455 144.005 496.892 143.926 497.273 143.769C497.657 143.607 497.959 143.378 498.178 143.08C498.397 142.783 498.508 142.437 498.512 142.044C498.508 141.663 498.397 141.326 498.178 141.033C497.959 140.736 497.657 140.504 497.273 140.338C496.888 140.172 496.45 140.088 495.96 140.088ZM520.451 145.842V147.279H508.878V145.842H520.451ZM522.203 150.92V152.383H506.988V150.92H522.203ZM520.307 139.445V140.889H510.616V146.472H508.878V139.445H520.307Z" fill="#D4DEE5"/>
<path d="M390.206 271.231V273.718H388.473V271.231H390.206ZM396.93 273.101V274.511H381.775V273.101H396.93ZM395.008 275.705V279.655H385.337V281.453H383.612V278.376H393.276V277.031H383.579V275.705H395.008ZM395.487 281.052V282.417H383.612V281.052H395.487ZM389.713 267.537C389.709 268.36 389.418 269.099 388.841 269.755C388.268 270.407 387.481 270.936 386.479 271.343C385.482 271.745 384.36 272.003 383.113 272.117L382.523 270.785C383.581 270.689 384.539 270.487 385.396 270.181C386.258 269.871 386.936 269.488 387.43 269.033C387.929 268.578 388.178 268.08 388.178 267.537V267.045H389.713V267.537ZM390.52 267.537C390.516 268.08 390.761 268.58 391.255 269.04C391.749 269.495 392.425 269.875 393.283 270.181C394.144 270.487 395.109 270.689 396.176 270.785L395.598 272.117C394.356 272.003 393.234 271.743 392.233 271.336C391.231 270.925 390.442 270.396 389.864 269.748C389.287 269.097 388.998 268.36 388.998 267.537V267.045H390.52V267.537ZM395.566 266.455V267.859H383.159V266.455H395.566ZM411.048 269.834V271.27H406.633V269.834H411.048ZM402.788 266.704C403.606 266.7 404.343 266.864 404.999 267.196C405.655 267.524 406.172 267.983 406.548 268.574C406.924 269.16 407.114 269.827 407.118 270.575C407.114 271.323 406.924 271.994 406.548 272.589C406.172 273.18 405.655 273.641 404.999 273.973C404.343 274.301 403.606 274.465 402.788 274.465C401.953 274.465 401.203 274.301 400.538 273.973C399.878 273.641 399.361 273.18 398.99 272.589C398.618 271.999 398.434 271.327 398.439 270.575C398.434 269.827 398.618 269.16 398.99 268.574C399.361 267.983 399.878 267.524 400.538 267.196C401.203 266.864 401.953 266.7 402.788 266.704ZM402.788 268.187C402.272 268.182 401.811 268.281 401.404 268.482C400.997 268.679 400.68 268.959 400.453 269.322C400.225 269.685 400.112 270.103 400.112 270.575C400.112 271.043 400.225 271.458 400.453 271.821C400.68 272.185 400.997 272.469 401.404 272.674C401.811 272.88 402.272 272.983 402.788 272.983C403.296 272.983 403.748 272.88 404.146 272.674C404.549 272.469 404.864 272.185 405.091 271.821C405.319 271.458 405.432 271.043 405.432 270.575C405.432 270.107 405.319 269.691 405.091 269.328C404.864 268.961 404.551 268.679 404.153 268.482C403.755 268.281 403.3 268.182 402.788 268.187ZM412.052 265.95V274.872H410.294V265.95H412.052ZM402.959 275.679V277.615H410.294V275.679H412.052V282.365H401.214V275.679H402.959ZM402.959 280.928H410.294V278.999H402.959V280.928ZM427.679 270.463V271.9H423.526V270.463H427.679ZM428.473 265.963V278.14H426.715V265.963H428.473ZM428.913 280.79V282.233H417.681V280.79H428.913ZM419.439 277.057V281.558H417.681V277.057H419.439ZM420.226 269.328C420.222 270.347 420.029 271.308 419.649 272.209C419.273 273.11 418.733 273.899 418.028 274.577C417.324 275.251 416.493 275.76 415.535 276.106L414.623 274.669C415.463 274.385 416.196 273.969 416.821 273.422C417.451 272.876 417.934 272.248 418.271 271.539C418.608 270.831 418.776 270.094 418.776 269.328V268.062H420.226V269.328ZM420.561 269.328C420.561 270.024 420.72 270.702 421.04 271.362C421.363 272.023 421.827 272.613 422.431 273.134C423.039 273.654 423.751 274.05 424.569 274.321L423.671 275.725C422.739 275.401 421.93 274.918 421.243 274.275C420.561 273.632 420.036 272.887 419.669 272.038C419.305 271.185 419.124 270.282 419.124 269.328V268.062H420.561V269.328ZM424.143 267.235V268.672H415.168V267.235H424.143ZM436.818 270.181C436.818 271.493 436.616 272.749 436.214 273.947C435.816 275.141 435.252 276.195 434.521 277.109C433.791 278.019 432.947 278.706 431.989 279.17L430.9 277.7C431.757 277.315 432.525 276.733 433.203 275.955C433.881 275.176 434.41 274.284 434.79 273.278C435.171 272.272 435.363 271.24 435.368 270.181V267.334H436.818V270.181ZM437.139 270.181C437.135 271.187 437.318 272.174 437.69 273.14C438.062 274.107 438.583 274.968 439.252 275.725C439.925 276.477 440.686 277.039 441.535 277.411L440.472 278.815C439.532 278.369 438.698 277.709 437.972 276.834C437.246 275.955 436.682 274.942 436.28 273.796C435.877 272.646 435.676 271.441 435.676 270.181V267.334H437.139V270.181ZM444.809 265.95V282.607H443.037V265.95H444.809ZM395.765 297.181C395.765 298.493 395.564 299.749 395.162 300.947C394.764 302.141 394.2 303.195 393.469 304.109C392.739 305.019 391.895 305.706 390.937 306.17L389.848 304.7C390.705 304.315 391.472 303.733 392.15 302.955C392.828 302.176 393.358 301.284 393.738 300.278C394.119 299.272 394.311 298.24 394.315 297.181V294.334H395.765V297.181ZM396.087 297.181C396.083 298.187 396.266 299.174 396.638 300.14C397.01 301.107 397.53 301.968 398.199 302.725C398.873 303.477 399.634 304.039 400.483 304.411L399.42 305.815C398.479 305.369 397.646 304.709 396.92 303.834C396.194 302.955 395.63 301.942 395.227 300.796C394.825 299.646 394.624 298.441 394.624 297.181V294.334H396.087V297.181ZM403.756 292.95V309.607H401.985V292.95H403.756ZM411.832 295.462C411.828 296.543 411.642 297.551 411.274 298.487C410.907 299.423 410.376 300.236 409.68 300.927C408.989 301.614 408.171 302.132 407.226 302.482L406.275 301.085C407.124 300.779 407.856 300.344 408.473 299.779C409.094 299.211 409.566 298.557 409.89 297.818C410.214 297.078 410.378 296.293 410.382 295.462V293.816H411.832V295.462ZM412.127 295.613C412.127 296.339 412.289 297.035 412.613 297.7C412.941 298.364 413.407 298.953 414.01 299.464C414.618 299.976 415.329 300.365 416.142 300.632L415.204 302.017C414.286 301.693 413.488 301.216 412.81 300.586C412.132 299.952 411.611 299.209 411.248 298.356C410.885 297.498 410.704 296.584 410.704 295.613V293.816H412.127V295.613ZM419.469 292.95V302.981H417.704V292.95H419.469ZM421.877 297.135V298.605H418.977V297.135H421.877ZM414.095 303.375C415.233 303.375 416.215 303.497 417.041 303.742C417.872 303.983 418.509 304.335 418.95 304.798C419.397 305.262 419.62 305.813 419.62 306.452C419.62 307.103 419.397 307.661 418.95 308.125C418.509 308.588 417.872 308.94 417.041 309.181C416.215 309.426 415.233 309.548 414.095 309.548C412.945 309.548 411.952 309.426 411.117 309.181C410.281 308.94 409.639 308.588 409.188 308.125C408.742 307.661 408.519 307.103 408.519 306.452C408.519 305.813 408.742 305.262 409.188 304.798C409.639 304.335 410.281 303.983 411.117 303.742C411.957 303.497 412.95 303.375 414.095 303.375ZM414.095 304.772C413.299 304.772 412.615 304.84 412.042 304.975C411.469 305.111 411.032 305.306 410.73 305.559C410.428 305.809 410.279 306.106 410.284 306.452C410.279 306.815 410.426 307.123 410.723 307.377C411.025 307.63 411.462 307.825 412.035 307.961C412.608 308.092 413.295 308.16 414.095 308.164C414.896 308.16 415.58 308.092 416.149 307.961C416.718 307.825 417.151 307.63 417.448 307.377C417.745 307.123 417.894 306.815 417.894 306.452C417.894 306.106 417.743 305.809 417.441 305.559C417.14 305.306 416.704 305.111 416.136 304.975C415.572 304.84 414.892 304.772 414.095 304.772ZM428.535 295.338C428.531 296.392 428.336 297.382 427.951 298.31C427.571 299.233 427.026 300.037 426.317 300.724C425.609 301.406 424.774 301.923 423.811 302.272L422.906 300.888C423.759 300.591 424.498 300.158 425.123 299.589C425.749 299.02 426.228 298.369 426.56 297.634C426.897 296.899 427.065 296.134 427.065 295.338V293.743H428.535V295.338ZM428.87 295.338C428.865 296.108 429.029 296.84 429.362 297.536C429.694 298.231 430.171 298.846 430.792 299.379C431.413 299.913 432.143 300.32 432.983 300.599L432.098 301.99C431.135 301.654 430.302 301.161 429.598 300.514C428.894 299.862 428.351 299.095 427.971 298.211C427.59 297.323 427.4 296.366 427.4 295.338V293.743H428.87V295.338ZM436.618 303.722V309.575H434.853V305.153H425.346V303.722H436.618ZM436.618 292.95V302.929H434.853V292.95H436.618Z" fill="#D4DEE5"/>
<path d="M476.943 274.341V278.29H475.185V274.341H476.943ZM476.057 266.999C476.901 267.004 477.662 267.174 478.34 267.511C479.018 267.848 479.55 268.316 479.935 268.915C480.324 269.514 480.521 270.197 480.525 270.962C480.521 271.727 480.324 272.412 479.935 273.016C479.55 273.615 479.016 274.081 478.334 274.413C477.656 274.745 476.897 274.912 476.057 274.912C475.191 274.912 474.417 274.745 473.735 274.413C473.057 274.081 472.525 273.615 472.14 273.016C471.76 272.416 471.572 271.732 471.576 270.962C471.572 270.192 471.76 269.508 472.14 268.908C472.525 268.309 473.057 267.843 473.735 267.511C474.417 267.174 475.191 267.004 476.057 266.999ZM476.057 268.502C475.524 268.506 475.047 268.611 474.627 268.817C474.207 269.018 473.879 269.304 473.643 269.676C473.407 270.048 473.291 270.477 473.295 270.962C473.291 271.443 473.407 271.872 473.643 272.248C473.879 272.62 474.207 272.908 474.627 273.114C475.047 273.315 475.524 273.414 476.057 273.409C476.578 273.414 477.044 273.315 477.455 273.114C477.87 272.908 478.196 272.62 478.432 272.248C478.673 271.872 478.795 271.443 478.8 270.962C478.795 270.477 478.673 270.048 478.432 269.676C478.196 269.304 477.87 269.018 477.455 268.817C477.044 268.611 476.578 268.506 476.057 268.502ZM484.029 265.95V282.575H482.27V265.95H484.029ZM486.587 272.701V274.19H483.523V272.701H486.587ZM470.855 277.595H471.753C472.961 277.586 474.069 277.571 475.08 277.549C476.09 277.523 477.135 277.477 478.216 277.411C479.296 277.341 480.313 277.243 481.266 277.116L481.391 278.435C480.302 278.627 479.16 278.772 477.966 278.868C476.777 278.96 475.637 279.016 474.548 279.038C473.459 279.056 472.318 279.058 471.124 279.045L470.855 277.595ZM502.674 275.397V276.86H487.459V275.397H502.674ZM495.89 276.289V282.581H494.158V276.289H495.89ZM495.03 266.573C496.198 266.577 497.228 266.73 498.12 267.032C499.017 267.334 499.715 267.765 500.213 268.325C500.712 268.88 500.961 269.53 500.961 270.273C500.961 271.012 500.712 271.657 500.213 272.209C499.715 272.76 499.017 273.184 498.12 273.481C497.228 273.779 496.198 273.927 495.03 273.927C493.862 273.927 492.83 273.779 491.934 273.481C491.041 273.184 490.348 272.76 489.854 272.209C489.364 271.657 489.119 271.012 489.119 270.273C489.119 269.53 489.364 268.88 489.854 268.325C490.348 267.765 491.041 267.334 491.934 267.032C492.83 266.73 493.862 266.577 495.03 266.573ZM495.03 268.003C494.208 268.003 493.488 268.095 492.872 268.279C492.255 268.462 491.776 268.727 491.435 269.073C491.094 269.414 490.925 269.814 490.93 270.273C490.925 270.732 491.094 271.133 491.435 271.474C491.776 271.811 492.255 272.069 492.872 272.248C493.488 272.427 494.208 272.517 495.03 272.517C495.853 272.517 496.574 272.427 497.195 272.248C497.816 272.069 498.295 271.811 498.632 271.474C498.973 271.133 499.144 270.732 499.144 270.273C499.144 269.814 498.973 269.414 498.632 269.073C498.295 268.727 497.816 268.462 497.195 268.279C496.574 268.095 495.853 268.003 495.03 268.003ZM516.542 268.285V269.709H511.491V268.285H516.542ZM516.542 272.084V273.521H511.491V272.084H516.542ZM508.499 266.921C509.312 266.916 510.047 267.082 510.703 267.419C511.364 267.756 511.882 268.231 512.258 268.843C512.634 269.451 512.825 270.138 512.829 270.903C512.825 271.664 512.634 272.349 512.258 272.956C511.882 273.564 511.364 274.037 510.703 274.374C510.047 274.71 509.312 274.879 508.499 274.879C507.677 274.879 506.933 274.71 506.268 274.374C505.603 274.037 505.083 273.564 504.707 272.956C504.331 272.349 504.145 271.664 504.149 270.903C504.145 270.138 504.331 269.451 504.707 268.843C505.083 268.231 505.603 267.756 506.268 267.419C506.933 267.082 507.677 266.916 508.499 266.921ZM508.499 268.436C507.983 268.432 507.521 268.532 507.114 268.738C506.708 268.943 506.391 269.234 506.163 269.61C505.936 269.987 505.822 270.417 505.822 270.903C505.822 271.384 505.936 271.813 506.163 272.189C506.395 272.561 506.714 272.854 507.121 273.068C507.528 273.278 507.987 273.381 508.499 273.376C508.997 273.381 509.448 273.278 509.85 273.068C510.253 272.854 510.568 272.558 510.795 272.182C511.027 271.806 511.143 271.38 511.143 270.903C511.143 270.417 511.027 269.987 510.795 269.61C510.568 269.234 510.253 268.943 509.85 268.738C509.452 268.532 509.002 268.432 508.499 268.436ZM517.763 265.95V275.765H516.004V265.95H517.763ZM512.193 276.132C513.343 276.132 514.338 276.261 515.178 276.519C516.022 276.773 516.671 277.14 517.126 277.621C517.585 278.102 517.815 278.675 517.815 279.34C517.815 280.009 517.585 280.584 517.126 281.066C516.671 281.547 516.022 281.914 515.178 282.168C514.338 282.422 513.343 282.548 512.193 282.548C511.038 282.548 510.038 282.422 509.194 282.168C508.35 281.914 507.701 281.547 507.246 281.066C506.795 280.584 506.572 280.009 506.576 279.34C506.572 278.675 506.795 278.102 507.246 277.621C507.701 277.14 508.35 276.773 509.194 276.519C510.038 276.261 511.038 276.132 512.193 276.132ZM512.193 277.497C511.379 277.497 510.679 277.571 510.093 277.72C509.511 277.864 509.065 278.074 508.755 278.349C508.449 278.625 508.298 278.955 508.302 279.34C508.298 279.721 508.449 280.049 508.755 280.324C509.065 280.595 509.511 280.803 510.093 280.948C510.679 281.087 511.379 281.157 512.193 281.157C513.006 281.157 513.704 281.087 514.285 280.948C514.872 280.803 515.32 280.595 515.63 280.324C515.941 280.049 516.096 279.721 516.096 279.34C516.096 278.951 515.941 278.621 515.63 278.349C515.32 278.074 514.872 277.864 514.285 277.72C513.704 277.571 513.006 277.497 512.193 277.497ZM525.753 268.462C525.749 269.543 525.563 270.551 525.195 271.487C524.828 272.423 524.296 273.236 523.601 273.927C522.91 274.614 522.092 275.132 521.147 275.482L520.196 274.085C521.044 273.779 521.777 273.344 522.394 272.779C523.015 272.211 523.487 271.557 523.811 270.818C524.135 270.078 524.299 269.293 524.303 268.462V266.816H525.753V268.462ZM526.048 268.613C526.048 269.339 526.21 270.035 526.534 270.7C526.862 271.364 527.328 271.953 527.931 272.464C528.539 272.976 529.25 273.365 530.063 273.632L529.125 275.017C528.207 274.693 527.408 274.216 526.73 273.586C526.053 272.952 525.532 272.209 525.169 271.356C524.806 270.498 524.624 269.584 524.624 268.613V266.816H526.048V268.613ZM533.39 265.95V275.981H531.625V265.95H533.39ZM535.797 270.135V271.605H532.898V270.135H535.797ZM528.016 276.375C529.154 276.375 530.136 276.497 530.962 276.742C531.793 276.983 532.43 277.335 532.871 277.798C533.317 278.262 533.541 278.813 533.541 279.452C533.541 280.103 533.317 280.661 532.871 281.125C532.43 281.588 531.793 281.94 530.962 282.181C530.136 282.426 529.154 282.548 528.016 282.548C526.866 282.548 525.873 282.426 525.038 282.181C524.202 281.94 523.559 281.588 523.109 281.125C522.663 280.661 522.44 280.103 522.44 279.452C522.44 278.813 522.663 278.262 523.109 277.798C523.559 277.335 524.202 276.983 525.038 276.742C525.878 276.497 526.87 276.375 528.016 276.375ZM528.016 277.772C527.22 277.772 526.536 277.84 525.963 277.975C525.39 278.111 524.953 278.306 524.651 278.559C524.349 278.809 524.2 279.106 524.205 279.452C524.2 279.815 524.347 280.123 524.644 280.377C524.946 280.63 525.383 280.825 525.956 280.961C526.529 281.092 527.216 281.16 528.016 281.164C528.817 281.16 529.501 281.092 530.07 280.961C530.639 280.825 531.072 280.63 531.369 280.377C531.666 280.123 531.815 279.815 531.815 279.452C531.815 279.106 531.664 278.809 531.362 278.559C531.061 278.306 530.625 278.111 530.057 277.975C529.493 277.84 528.812 277.772 528.016 277.772ZM551.005 265.95V282.575H549.332V265.95H551.005ZM546.478 271.841V273.271H543.381V271.841H546.478ZM547.632 266.304V281.735H545.973V266.304H547.632ZM541.413 270.588C541.408 271.821 541.257 273.007 540.96 274.144C540.663 275.281 540.227 276.3 539.654 277.201C539.086 278.102 538.397 278.804 537.588 279.307L536.499 278.002C537.26 277.538 537.907 276.917 538.441 276.138C538.979 275.356 539.381 274.487 539.648 273.534C539.919 272.58 540.055 271.598 540.055 270.588V268.561H541.413V270.588ZM541.754 270.588C541.754 271.563 541.883 272.504 542.141 273.409C542.403 274.31 542.795 275.128 543.315 275.863C543.84 276.598 544.481 277.184 545.238 277.621L544.188 278.92C543.379 278.435 542.69 277.768 542.121 276.919C541.557 276.066 541.133 275.097 540.849 274.013C540.569 272.928 540.431 271.786 540.435 270.588V268.561H541.754V270.588ZM544.621 267.819V269.256H537.01V267.819H544.621ZM493.265 297.181C493.265 298.493 493.064 299.749 492.662 300.947C492.264 302.141 491.7 303.195 490.969 304.109C490.239 305.019 489.395 305.706 488.437 306.17L487.348 304.7C488.205 304.315 488.972 303.733 489.65 302.955C490.328 302.176 490.858 301.284 491.238 300.278C491.619 299.272 491.811 298.24 491.815 297.181V294.334H493.265V297.181ZM493.587 297.181C493.583 298.187 493.766 299.174 494.138 300.14C494.51 301.107 495.03 301.968 495.699 302.725C496.373 303.477 497.134 304.039 497.983 304.411L496.92 305.815C495.979 305.369 495.146 304.709 494.42 303.834C493.694 302.955 493.13 301.942 492.727 300.796C492.325 299.646 492.124 298.441 492.124 297.181V294.334H493.587V297.181ZM501.256 292.95V309.607H499.485V292.95H501.256ZM509.332 295.462C509.328 296.543 509.142 297.551 508.774 298.487C508.407 299.423 507.876 300.236 507.18 300.927C506.489 301.614 505.671 302.132 504.726 302.482L503.775 301.085C504.624 300.779 505.356 300.344 505.973 299.779C506.594 299.211 507.066 298.557 507.39 297.818C507.714 297.078 507.878 296.293 507.882 295.462V293.816H509.332V295.462ZM509.627 295.613C509.627 296.339 509.789 297.035 510.113 297.7C510.441 298.364 510.907 298.953 511.51 299.464C512.118 299.976 512.829 300.365 513.642 300.632L512.704 302.017C511.786 301.693 510.988 301.216 510.31 300.586C509.632 299.952 509.111 299.209 508.748 298.356C508.385 297.498 508.204 296.584 508.204 295.613V293.816H509.627V295.613ZM516.969 292.95V302.981H515.204V292.95H516.969ZM519.377 297.135V298.605H516.477V297.135H519.377ZM511.595 303.375C512.733 303.375 513.715 303.497 514.541 303.742C515.372 303.983 516.009 304.335 516.45 304.798C516.897 305.262 517.12 305.813 517.12 306.452C517.12 307.103 516.897 307.661 516.45 308.125C516.009 308.588 515.372 308.94 514.541 309.181C513.715 309.426 512.733 309.548 511.595 309.548C510.445 309.548 509.452 309.426 508.617 309.181C507.781 308.94 507.139 308.588 506.688 308.125C506.242 307.661 506.019 307.103 506.019 306.452C506.019 305.813 506.242 305.262 506.688 304.798C507.139 304.335 507.781 303.983 508.617 303.742C509.457 303.497 510.45 303.375 511.595 303.375ZM511.595 304.772C510.799 304.772 510.115 304.84 509.542 304.975C508.969 305.111 508.532 305.306 508.23 305.559C507.928 305.809 507.779 306.106 507.784 306.452C507.779 306.815 507.926 307.123 508.223 307.377C508.525 307.63 508.962 307.825 509.535 307.961C510.108 308.092 510.795 308.16 511.595 308.164C512.396 308.16 513.08 308.092 513.649 307.961C514.218 307.825 514.651 307.63 514.948 307.377C515.245 307.123 515.394 306.815 515.394 306.452C515.394 306.106 515.243 305.809 514.941 305.559C514.64 305.306 514.204 305.111 513.636 304.975C513.072 304.84 512.392 304.772 511.595 304.772ZM526.035 295.338C526.031 296.392 525.836 297.382 525.451 298.31C525.071 299.233 524.526 300.037 523.817 300.724C523.109 301.406 522.274 301.923 521.311 302.272L520.406 300.888C521.259 300.591 521.998 300.158 522.623 299.589C523.249 299.02 523.728 298.369 524.06 297.634C524.397 296.899 524.565 296.134 524.565 295.338V293.743H526.035V295.338ZM526.37 295.338C526.365 296.108 526.529 296.84 526.862 297.536C527.194 298.231 527.671 298.846 528.292 299.379C528.913 299.913 529.643 300.32 530.483 300.599L529.598 301.99C528.635 301.654 527.802 301.161 527.098 300.514C526.394 299.862 525.851 299.095 525.471 298.211C525.09 297.323 524.9 296.366 524.9 295.338V293.743H526.37V295.338ZM534.118 303.722V309.575H532.353V305.153H522.846V303.722H534.118ZM534.118 292.95V302.929H532.353V292.95H534.118Z" fill="#D4DEE5"/>
<path d="M63.2055 143.231V145.718H61.4735V143.231H63.2055ZM69.9303 145.101V146.511H54.7749V145.101H69.9303ZM68.008 147.705V151.655H58.3374V153.453H56.6119V150.376H66.276V149.031H56.5791V147.705H68.008ZM68.4869 153.052V154.417H56.6119V153.052H68.4869ZM62.7135 139.537C62.7091 140.36 62.4182 141.099 61.8409 141.755C61.2679 142.407 60.4806 142.936 59.479 143.343C58.4818 143.745 57.3599 144.003 56.1133 144.117L55.5228 142.785C56.5813 142.689 57.5392 142.487 58.3965 142.181C59.2581 141.871 59.9361 141.488 60.4303 141.033C60.9289 140.578 61.1782 140.08 61.1782 139.537V139.045H62.7135V139.537ZM63.5204 139.537C63.5161 140.08 63.761 140.58 64.2552 141.04C64.7495 141.495 65.4252 141.875 66.2825 142.181C67.1442 142.487 68.1086 142.689 69.1758 142.785L68.5985 144.117C67.3563 144.003 66.2344 143.743 65.2328 143.336C64.2312 142.925 63.4417 142.396 62.8643 141.748C62.287 141.097 61.9983 140.36 61.9983 139.537V139.045H63.5204V139.537ZM68.5657 138.455V139.859H56.1592V138.455H68.5657ZM84.0484 141.834V143.27H79.633V141.834H84.0484ZM75.7884 138.704C76.6063 138.7 77.3433 138.864 77.9993 139.196C78.6554 139.524 79.1715 139.983 79.5477 140.574C79.9238 141.16 80.1141 141.827 80.1185 142.575C80.1141 143.323 79.9238 143.994 79.5477 144.589C79.1715 145.18 78.6554 145.641 77.9993 145.973C77.3433 146.301 76.6063 146.465 75.7884 146.465C74.953 146.465 74.2028 146.301 73.538 145.973C72.8776 145.641 72.3614 145.18 71.9897 144.589C71.6179 143.999 71.4342 143.327 71.4386 142.575C71.4342 141.827 71.6179 141.16 71.9897 140.574C72.3614 139.983 72.8776 139.524 73.538 139.196C74.2028 138.864 74.953 138.7 75.7884 138.704ZM75.7884 140.187C75.2722 140.182 74.8108 140.281 74.404 140.482C73.9973 140.679 73.6802 140.959 73.4527 141.322C73.2253 141.685 73.1116 142.103 73.1116 142.575C73.1116 143.043 73.2253 143.458 73.4527 143.821C73.6802 144.185 73.9973 144.469 74.404 144.674C74.8108 144.88 75.2722 144.983 75.7884 144.983C76.2957 144.983 76.7484 144.88 77.1464 144.674C77.5488 144.469 77.8637 144.185 78.0912 143.821C78.3186 143.458 78.4323 143.043 78.4323 142.575C78.4323 142.107 78.3186 141.691 78.0912 141.328C77.8637 140.961 77.551 140.679 77.153 140.482C76.755 140.281 76.3001 140.182 75.7884 140.187ZM85.0522 137.95V146.872H83.2939V137.95H85.0522ZM75.9589 147.679V149.615H83.2939V147.679H85.0522V154.365H74.2138V147.679H75.9589ZM75.9589 152.928H83.2939V150.999H75.9589V152.928ZM100.679 142.463V143.9H96.5262V142.463H100.679ZM101.473 137.963V150.14H99.7148V137.963H101.473ZM101.913 152.79V154.233H90.6806V152.79H101.913ZM92.4389 149.057V153.558H90.6806V149.057H92.4389ZM93.2262 141.328C93.2218 142.347 93.0294 143.308 92.6488 144.209C92.2727 145.11 91.7325 145.899 91.0283 146.577C90.3241 147.251 89.4931 147.76 88.5352 148.106L87.6233 146.669C88.4631 146.385 89.1957 145.969 89.8211 145.422C90.451 144.876 90.9343 144.248 91.2711 143.539C91.6078 142.831 91.7762 142.094 91.7762 141.328V140.062H93.2262V141.328ZM93.5608 141.328C93.5608 142.024 93.7204 142.702 94.0397 143.362C94.3634 144.023 94.827 144.613 95.4306 145.134C96.0386 145.654 96.7515 146.05 97.5694 146.321L96.6706 147.725C95.739 147.401 94.9298 146.918 94.2431 146.275C93.5608 145.632 93.0359 144.887 92.6685 144.038C92.3055 143.185 92.124 142.282 92.124 141.328V140.062H93.5608V141.328ZM97.143 139.235V140.672H88.1678V139.235H97.143ZM109.818 142.181C109.818 143.493 109.616 144.749 109.214 145.947C108.816 147.141 108.252 148.195 107.521 149.109C106.791 150.019 105.947 150.706 104.989 151.17L103.9 149.7C104.757 149.315 105.525 148.733 106.203 147.955C106.881 147.176 107.41 146.284 107.79 145.278C108.171 144.272 108.363 143.24 108.368 142.181V139.334H109.818V142.181ZM110.139 142.181C110.135 143.187 110.318 144.174 110.69 145.14C111.062 146.107 111.583 146.968 112.252 147.725C112.925 148.477 113.686 149.039 114.535 149.411L113.472 150.815C112.532 150.369 111.698 149.709 110.972 148.834C110.246 147.955 109.682 146.942 109.28 145.796C108.877 144.646 108.676 143.441 108.676 142.181V139.334H110.139V142.181ZM117.809 137.95V154.607H116.037V137.95H117.809Z" fill="#D4DEE5"/>
<path d="M186.801 29L186.793 27.2831L192.187 21.8363C192.835 21.1678 193.331 20.6234 193.676 20.203C194.025 19.7827 194.291 19.375 194.473 18.98C194.661 18.5799 194.755 18.1595 194.755 17.7189C194.755 17.2175 194.628 16.7769 194.375 16.3971C194.121 16.0173 193.777 15.7261 193.342 15.5235C192.906 15.3158 192.415 15.212 191.868 15.212C191.301 15.212 190.804 15.326 190.379 15.5539C189.953 15.7767 189.624 16.0983 189.391 16.5186C189.158 16.9339 189.042 17.4151 189.042 17.962H186.793C186.793 17.0251 187.011 16.1996 187.446 15.4855C187.887 14.7663 188.495 14.2118 189.27 13.8218C190.05 13.4268 190.931 13.2293 191.913 13.2293C192.896 13.2293 193.772 13.4217 194.542 13.8066C195.312 14.1865 195.912 14.7132 196.342 15.3867C196.778 16.0603 196.998 16.8149 197.003 17.6506C196.998 18.2482 196.884 18.8204 196.661 19.3674C196.438 19.9144 196.059 20.5221 195.522 21.1906C194.99 21.8591 194.233 22.677 193.25 23.6443L190.09 26.8577V26.9717H197.254V29H186.801ZM205.294 29.2507C204.103 29.2507 203.078 28.9367 202.217 28.3087C201.361 27.6807 200.708 26.7666 200.257 25.5663C199.811 24.361 199.588 22.9151 199.588 21.2286C199.588 19.5523 199.814 18.1165 200.265 16.9213C200.72 15.721 201.376 14.8069 202.232 14.1789C203.088 13.5458 204.109 13.2293 205.294 13.2293C206.484 13.2293 207.507 13.5458 208.363 14.1789C209.219 14.8119 209.872 15.7261 210.323 16.9213C210.778 18.1165 211.006 19.5523 211.006 21.2286C211.006 22.9151 210.781 24.361 210.33 25.5663C209.879 26.7666 209.226 27.6807 208.37 28.3087C207.514 28.9367 206.489 29.2507 205.294 29.2507ZM205.294 27.2148C205.998 27.2148 206.6 26.9843 207.102 26.5235C207.603 26.0626 207.985 25.3865 208.249 24.4952C208.517 23.5988 208.651 22.5099 208.651 21.2286C208.651 19.9523 208.517 18.866 208.249 17.9696C207.98 17.0732 207.595 16.3946 207.094 15.9337C206.593 15.4728 205.993 15.2424 205.294 15.2424C204.6 15.2424 204.002 15.4728 203.501 15.9337C202.999 16.3946 202.615 17.0732 202.346 17.9696C202.078 18.866 201.943 19.9523 201.943 21.2286C201.943 22.5099 202.075 23.5988 202.338 24.4952C202.602 25.3865 202.984 26.0626 203.486 26.5235C203.992 26.9843 204.595 27.2148 205.294 27.2148ZM213.463 29L213.455 27.2831L218.849 21.8363C219.497 21.1678 219.994 20.6234 220.338 20.203C220.687 19.7827 220.953 19.375 221.136 18.98C221.323 18.5799 221.417 18.1595 221.417 17.7189C221.417 17.2175 221.29 16.7769 221.037 16.3971C220.784 16.0173 220.439 15.7261 220.004 15.5235C219.568 15.3158 219.077 15.212 218.53 15.212C217.963 15.212 217.466 15.326 217.041 15.5539C216.616 15.7767 216.286 16.0983 216.053 16.5186C215.82 16.9339 215.704 17.4151 215.704 17.962H213.455C213.455 17.0251 213.673 16.1996 214.109 15.4855C214.549 14.7663 215.157 14.2118 215.932 13.8218C216.712 13.4268 217.593 13.2293 218.575 13.2293C219.558 13.2293 220.434 13.4217 221.204 13.8066C221.974 14.1865 222.574 14.7132 223.004 15.3867C223.44 16.0603 223.66 16.8149 223.665 17.6506C223.66 18.2482 223.546 18.8204 223.323 19.3674C223.101 19.9144 222.721 20.5221 222.184 21.1906C221.652 21.8591 220.895 22.677 219.912 23.6443L216.752 26.8577V26.9717H223.916V29H213.463ZM232.062 29.2127C231.004 29.2127 230.054 29.0329 229.213 28.6733C228.378 28.3138 227.717 27.8124 227.231 27.1692C226.749 26.5209 226.496 25.7765 226.471 24.9358H228.864C228.889 25.3814 229.044 25.7739 229.327 26.1133C229.611 26.4526 229.988 26.7159 230.459 26.9033C230.935 27.0856 231.462 27.1768 232.039 27.1768C232.662 27.1768 233.219 27.073 233.711 26.8653C234.207 26.6526 234.594 26.3538 234.873 25.9689C235.151 25.579 235.288 25.1384 235.283 24.6471C235.288 24.1305 235.151 23.6722 234.873 23.2721C234.599 22.872 234.197 22.5605 233.665 22.3377C233.138 22.1149 232.51 22.0035 231.781 22.0035H230.459V20.0739H231.781C232.368 20.0739 232.89 19.9701 233.346 19.7624C233.802 19.5548 234.156 19.2661 234.409 18.8964C234.668 18.5216 234.797 18.0886 234.797 17.5974C234.797 17.1264 234.685 16.7111 234.463 16.3515C234.245 15.9869 233.931 15.7058 233.521 15.5083C233.11 15.3108 232.634 15.212 232.092 15.212C231.566 15.212 231.077 15.3057 230.626 15.4931C230.176 15.6754 229.808 15.9388 229.525 16.2831C229.246 16.6275 229.097 17.0276 229.077 17.4834H226.798C226.823 16.6579 227.071 15.921 227.542 15.2728C228.018 14.6245 228.656 14.1232 229.456 13.7686C230.262 13.4091 231.148 13.2293 232.115 13.2293C233.108 13.2293 233.979 13.4217 234.729 13.8066C235.483 14.1865 236.066 14.7005 236.476 15.3488C236.886 15.9919 237.089 16.701 237.083 17.4758C237.089 18.0481 236.977 18.5698 236.749 19.0407C236.521 19.5117 236.2 19.9068 235.784 20.2258C235.374 20.5449 234.891 20.7728 234.333 20.9095V21.0311C235.032 21.1324 235.633 21.3501 236.134 21.6844C236.635 22.0186 237.018 22.4466 237.281 22.9682C237.544 23.4899 237.673 24.0773 237.668 24.7307C237.673 25.5764 237.433 26.3412 236.947 27.0249C236.466 27.7086 235.797 28.2454 234.941 28.6354C234.085 29.0203 233.126 29.2127 232.062 29.2127ZM253.737 24.8826C255.165 24.8826 256.381 24.9991 257.383 25.232C258.386 25.4599 259.151 25.7993 259.678 26.25C260.204 26.7007 260.468 27.2528 260.468 27.9061C260.468 28.5543 260.204 29.1013 259.678 29.547C259.151 29.9926 258.386 30.3269 257.383 30.5497C256.381 30.7776 255.165 30.889 253.737 30.884C252.294 30.889 251.068 30.7776 250.06 30.5497C249.052 30.3269 248.285 29.9926 247.758 29.547C247.237 29.1013 246.976 28.5543 246.976 27.9061C246.976 27.2528 247.237 26.7007 247.758 26.25C248.285 25.7993 249.052 25.4599 250.06 25.232C251.068 24.9991 252.294 24.8826 253.737 24.8826ZM253.737 26.6298C252.77 26.6349 251.967 26.683 251.329 26.7742C250.696 26.8653 250.22 27.0071 249.901 27.1996C249.582 27.387 249.422 27.6225 249.422 27.9061C249.422 28.1846 249.582 28.4151 249.901 28.5974C250.22 28.7797 250.696 28.9164 251.329 29.0076C251.962 29.0988 252.765 29.1418 253.737 29.1367C254.709 29.1418 255.512 29.0988 256.145 29.0076C256.778 28.9164 257.254 28.7797 257.573 28.5974C257.892 28.4151 258.052 28.1846 258.052 27.9061C258.052 27.6225 257.89 27.387 257.566 27.1996C257.247 27.0071 256.768 26.8653 256.13 26.7742C255.497 26.683 254.699 26.6349 253.737 26.6298ZM261.653 12.971V14.7942H245.791V12.971H261.653ZM253.752 15.4095C255.844 15.4095 257.442 15.645 258.546 16.116C259.65 16.587 260.202 17.2834 260.202 18.2051C260.202 18.8027 259.954 19.3092 259.457 19.7244C258.961 20.1347 258.232 20.4461 257.269 20.6588C256.307 20.8665 255.135 20.9703 253.752 20.9703C252.38 20.9703 251.21 20.8639 250.242 20.6512C249.28 20.4385 248.548 20.1271 248.047 19.7169C247.551 19.3016 247.303 18.7977 247.303 18.2051C247.303 17.2834 247.857 16.587 248.966 16.116C250.075 15.645 251.671 15.4095 253.752 15.4095ZM253.752 17.0276C252.871 17.0327 252.144 17.0783 251.572 17.1644C251.005 17.2505 250.577 17.3796 250.288 17.5518C249.999 17.7189 249.858 17.9367 249.863 18.2051C249.858 18.4482 249.999 18.6533 250.288 18.8204C250.582 18.9825 251.015 19.1066 251.587 19.1927C252.164 19.2788 252.886 19.3218 253.752 19.3218C254.628 19.3218 255.353 19.2813 255.925 19.2003C256.497 19.1142 256.928 18.9876 257.216 18.8204C257.505 18.6533 257.649 18.4482 257.649 18.2051C257.649 17.9367 257.505 17.7189 257.216 17.5518C256.933 17.3796 256.505 17.2505 255.932 17.1644C255.365 17.0783 254.638 17.0327 253.752 17.0276ZM254.952 11.3073V14.2168H252.559V11.3073H254.952ZM262.61 22.1098V23.9786H244.917V22.1098H262.61ZM254.952 20.2258V22.953H252.559V20.2258H254.952ZM280.097 23.895V30.8992H277.704V25.817H266.856V23.895H280.097ZM280.097 11.4972V22.9378H277.704V11.4972H280.097ZM269.514 12.5988C270.502 12.5937 271.391 12.7912 272.181 13.1913C272.976 13.5914 273.601 14.1485 274.057 14.8626C274.513 15.5716 274.741 16.3743 274.741 17.2707C274.741 18.1773 274.513 18.9876 274.057 19.7017C273.607 20.4157 272.984 20.9728 272.188 21.3729C271.393 21.768 270.502 21.9655 269.514 21.9655C268.522 21.9655 267.628 21.768 266.833 21.3729C266.038 20.9728 265.412 20.4157 264.956 19.7017C264.506 18.9876 264.28 18.1773 264.28 17.2707C264.28 16.3743 264.506 15.5716 264.956 14.8626C265.412 14.1485 266.038 13.5914 266.833 13.1913C267.633 12.7912 268.527 12.5937 269.514 12.5988ZM269.514 14.6347C268.947 14.6397 268.443 14.7486 268.003 14.9613C267.567 15.174 267.225 15.4804 266.977 15.8805C266.734 16.2756 266.613 16.7389 266.613 17.2707C266.613 17.8126 266.734 18.2861 266.977 18.6913C267.225 19.0914 267.567 19.4003 268.003 19.6181C268.443 19.8359 268.947 19.9422 269.514 19.9372C270.072 19.9422 270.565 19.8359 270.996 19.6181C271.431 19.4003 271.773 19.0914 272.021 18.6913C272.27 18.2861 272.394 17.8126 272.394 17.2707C272.394 16.7389 272.27 16.2756 272.021 15.8805C271.773 15.4804 271.431 15.174 270.996 14.9613C270.565 14.7486 270.072 14.6397 269.514 14.6347ZM289.835 16.1616C289.835 17.7772 289.614 19.3016 289.174 20.7348C288.733 22.168 288.09 23.4316 287.244 24.5256C286.399 25.6195 285.383 26.445 284.198 27.0021L282.739 25.0117C283.788 24.5559 284.699 23.8722 285.474 22.9606C286.249 22.049 286.839 21.0058 287.244 19.8308C287.654 18.6508 287.862 17.4277 287.867 16.1616V13.0546H289.835V16.1616ZM290.283 16.1616C290.278 17.3619 290.473 18.5242 290.868 19.6485C291.268 20.7728 291.85 21.7756 292.615 22.6568C293.38 23.538 294.274 24.1989 295.297 24.6395L293.876 26.5539C292.727 26.017 291.731 25.227 290.891 24.1837C290.055 23.1354 289.417 21.9224 288.976 20.5449C288.536 19.1674 288.315 17.7063 288.315 16.1616V13.0546H290.283V16.1616ZM299.103 11.4972V30.9448H296.695V11.4972H299.103ZM318.116 11.4972V30.9448H315.708V11.4972H318.116ZM304.807 24.2217C306.296 24.2217 307.532 24.2065 308.514 24.1761C309.497 24.1457 310.426 24.0925 311.302 24.0166C312.183 23.9355 313.075 23.814 313.976 23.6519L314.204 25.6195C312.882 25.8676 311.535 26.0348 310.163 26.1209C308.795 26.207 307.01 26.2525 304.807 26.2576H303.166V24.2217H304.807ZM312.525 13.2521V15.212H305.559V24.9965H303.166V13.2521H312.525ZM335.757 14.232C335.752 15.3715 335.423 16.4148 334.769 17.3619C334.116 18.3089 333.204 19.099 332.034 19.732C330.87 20.3651 329.53 20.793 328.016 21.0159L327.119 19.1395C328.406 18.9724 329.545 18.6432 330.538 18.1519C331.536 17.6556 332.305 17.0656 332.847 16.3819C333.394 15.6982 333.67 14.9816 333.675 14.232V13.5711H335.757V14.232ZM336.418 14.232C336.413 14.9816 336.681 15.6982 337.223 16.3819C337.765 17.0656 338.535 17.6556 339.532 18.1519C340.53 18.6432 341.68 18.9724 342.981 19.1395L342.1 21.0159C340.576 20.793 339.226 20.3651 338.051 19.732C336.876 19.099 335.962 18.3115 335.309 17.3695C334.655 16.4224 334.329 15.3766 334.329 14.232V13.5711H336.418V14.232ZM336.175 23.6671V30.8992H333.812V23.6671H336.175ZM343.885 22.3149V24.2445H326.193V22.3149H343.885ZM342.26 12.5836V14.4675H327.811V12.5836H342.26ZM360.529 11.4972V25.4979H358.105V11.4972H360.529ZM363.241 17.0808V19.0635H359.822V17.0808H363.241ZM355.249 12.9634C355.244 14.6701 354.884 16.2148 354.17 17.5974C353.456 18.9749 352.418 20.1625 351.056 21.1602C349.698 22.1529 348.058 22.9302 346.133 23.4924L345.13 21.5932C346.736 21.1273 348.103 20.5221 349.233 19.7776C350.362 19.0281 351.218 18.1747 351.8 17.2175C352.388 16.2553 352.684 15.2196 352.689 14.1105V12.9634H355.249ZM353.98 12.9634V14.9233H345.958V12.9634H353.98ZM361.258 28.5974V30.5345H348.055V28.5974H361.258ZM350.463 24.0698V29.433H348.055V24.0698H350.463Z" fill="black"/>
<line x1="461.5" y1="170" x2="461.5" y2="211" stroke="#D4DEE5" stroke-dasharray="3 3"/>
<path d="M511 253V211H414V253" stroke="#D4DEE5" stroke-dasharray="3 3"/>
<path d="M462 126V84H90V126" stroke="#D4DEE5" stroke-width="1.5"/>
</svg>
