<?xml version="1.0" encoding="utf-8"?>
<!-- Generator: Adobe Illustrator 28.0.0, SVG Export Plug-In . SVG Version: 6.00 Build 0)  -->
<svg version="1.1" id="Layer_1" xmlns="http://www.w3.org/2000/svg" xmlns:xlink="http://www.w3.org/1999/xlink" x="0px" y="0px"
	 viewBox="0 0 1011 350" style="enable-background:new 0 0 1011 350;" xml:space="preserve">
<style type="text/css">
	.st0{clip-path:url(#SVGID_00000084500814934188348330000012247028505245176487_);}
	.st1{fill:#D4DEE5;}
	.st2{fill:none;stroke:#D4DEE5;stroke-width:1.5;}
	.st3{fill:none;stroke:#D4DEE5;stroke-width:2;stroke-dasharray:6,6;}
</style>
<g>
	<defs>
		<rect id="SVGID_1_" width="1011" height="350"/>
	</defs>
	<clipPath id="SVGID_00000144339365441253560530000005265584109260536496_">
		<use xlink:href="#SVGID_1_"  style="overflow:visible;"/>
	</clipPath>
	<g style="clip-path:url(#SVGID_00000144339365441253560530000005265584109260536496_);">
		<path class="st1" d="M54.3,110v17h-2.6v-14.4h-0.1l-4.1,2.6v-2.5l4.2-2.8H54.3z M58.7,127l0-1.9l5.9-5.9c0.7-0.7,1.2-1.3,1.6-1.8
			c0.4-0.5,0.7-0.9,0.9-1.3c0.2-0.4,0.3-0.9,0.3-1.4c0-0.5-0.1-1-0.4-1.4c-0.3-0.4-0.7-0.7-1.1-1c-0.5-0.2-1-0.3-1.6-0.3
			c-0.6,0-1.2,0.1-1.6,0.4c-0.5,0.2-0.8,0.6-1.1,1.1c-0.3,0.5-0.4,1-0.4,1.6h-2.5c0-1,0.2-1.9,0.7-2.7c0.5-0.8,1.1-1.4,2-1.8
			c0.9-0.4,1.8-0.6,2.9-0.6s2,0.2,2.9,0.6c0.8,0.4,1.5,1,2,1.7c0.5,0.7,0.7,1.6,0.7,2.5c0,0.7-0.1,1.3-0.4,1.9
			c-0.2,0.6-0.7,1.3-1.2,2c-0.6,0.7-1.4,1.6-2.5,2.7l-3.4,3.5v0.1h7.8v2.2H58.7z M79.4,109.2L74,129.6h-2.2l5.5-20.3H79.4z
			 M80.9,123.7v-2.1l7.5-11.6H90v3.1H89l-5.4,8.3v0.1h10.3v2.2H80.9z M89.1,127v-3.9l0-1V110h2.4v17H89.1z M109.4,116.6v3.8h-2.2
			v-3.8H109.4z M119.1,108v12.3h-2.2V108H119.1z M101.6,115.8c2.6,0,5,0,7.3-0.1c2.3-0.1,4.4-0.2,6.4-0.4l0.1,1.4
			c-2.1,0.3-4.3,0.5-6.5,0.6c-2.3,0.1-4.6,0.1-7.1,0.1L101.6,115.8z M119.1,121v4.5H107v2.2h-2.2v-3.7h12.1v-1.5h-12.2V121H119.1z
			 M119.7,127.2v1.6h-14.9v-1.6H119.7z M117.6,117.9v1.4h-4.8v-1.4H117.6z M108.4,108.4c1,0,1.9,0.1,2.7,0.4
			c0.8,0.3,1.4,0.6,1.8,1.1c0.4,0.5,0.7,1,0.7,1.7c0,0.6-0.2,1.2-0.7,1.7c-0.4,0.5-1,0.8-1.8,1.1c-0.8,0.2-1.7,0.4-2.7,0.4
			c-1.1,0-2-0.1-2.8-0.4c-0.8-0.3-1.4-0.6-1.8-1.1c-0.4-0.5-0.6-1-0.6-1.7c0-0.6,0.2-1.2,0.6-1.7c0.4-0.5,1-0.8,1.8-1.1
			C106.4,108.5,107.3,108.4,108.4,108.4z M108.4,109.9c-0.6,0-1.2,0.1-1.7,0.2c-0.5,0.1-0.8,0.3-1.1,0.6c-0.3,0.2-0.4,0.5-0.4,0.9
			c0,0.3,0.1,0.6,0.4,0.9c0.3,0.2,0.6,0.4,1.1,0.6c0.5,0.1,1,0.2,1.7,0.2c0.6,0,1.2-0.1,1.7-0.2c0.5-0.1,0.8-0.3,1.1-0.6
			c0.3-0.2,0.4-0.5,0.4-0.9c0-0.3-0.1-0.6-0.4-0.9c-0.3-0.3-0.6-0.4-1.1-0.6C109.6,109.9,109,109.9,108.4,109.9z"/>
		<path class="st1" d="M223.2,110v17h-2.6v-14.4h-0.1l-4.1,2.6v-2.5l4.2-2.8H223.2z M227.5,127l0-1.9l5.9-5.9
			c0.7-0.7,1.2-1.3,1.6-1.8c0.4-0.5,0.7-0.9,0.9-1.3c0.2-0.4,0.3-0.9,0.3-1.4c0-0.5-0.1-1-0.4-1.4c-0.3-0.4-0.7-0.7-1.1-1
			c-0.5-0.2-1-0.3-1.6-0.3c-0.6,0-1.2,0.1-1.6,0.4c-0.5,0.2-0.8,0.6-1.1,1.1c-0.3,0.5-0.4,1-0.4,1.6h-2.5c0-1,0.2-1.9,0.7-2.7
			c0.5-0.8,1.1-1.4,2-1.8c0.9-0.4,1.8-0.6,2.9-0.6c1.1,0,2,0.2,2.9,0.6c0.8,0.4,1.5,1,2,1.7c0.5,0.7,0.7,1.6,0.7,2.5
			c0,0.7-0.1,1.3-0.4,1.9c-0.2,0.6-0.7,1.3-1.2,2c-0.6,0.7-1.4,1.6-2.5,2.7l-3.4,3.5v0.1h7.8v2.2H227.5z M248.3,109.2l-5.5,20.3
			h-2.2l5.5-20.3H248.3z M255.9,127.2c-1.1,0-2-0.2-2.9-0.6c-0.9-0.4-1.5-1-2-1.7c-0.5-0.7-0.8-1.5-0.8-2.4h2.5
			c0,0.5,0.2,0.9,0.5,1.3c0.3,0.4,0.7,0.7,1.2,0.9c0.5,0.2,1,0.3,1.6,0.3c0.7,0,1.3-0.2,1.8-0.5c0.5-0.3,1-0.7,1.3-1.3
			c0.3-0.5,0.5-1.1,0.5-1.8c0-0.7-0.2-1.3-0.5-1.8c-0.3-0.5-0.7-1-1.3-1.3c-0.6-0.3-1.2-0.5-1.9-0.5c-0.7,0-1.3,0.1-1.8,0.4
			c-0.5,0.2-0.9,0.6-1.2,1.1h-2.4l1.1-9.4h9.6v2.2h-7.5L253,117h0.2c0.2-0.2,0.5-0.4,0.9-0.6c0.3-0.2,0.7-0.3,1.1-0.4
			c0.4-0.1,0.8-0.1,1.2-0.1c1.1,0,2,0.2,2.8,0.7c0.8,0.5,1.5,1.2,2,2c0.5,0.9,0.7,1.8,0.7,2.9c0,1.1-0.3,2.1-0.8,3
			c-0.5,0.9-1.2,1.5-2.1,2C258.1,127,257,127.2,255.9,127.2z M277.3,120.5v3.4h-2.2v-3.4H277.3z M286.2,108v21H284v-21H286.2z
			 M289.4,116.8v1.9h-3.9v-1.9H289.4z M269.5,123.3c1.8,0,3.4,0,4.7,0c1.3,0,2.8-0.1,4.3-0.2c1.5-0.1,3-0.2,4.3-0.4l0.2,1.6
			c-1.4,0.2-2.9,0.4-4.4,0.6c-1.5,0.1-3,0.2-4.3,0.2c-1.3,0-2.8,0-4.4,0L269.5,123.3z M282.5,110.5v1.8h-12.6v-1.8H282.5z
			 M276.2,113.3c1,0,1.9,0.2,2.6,0.5c0.8,0.3,1.4,0.8,1.8,1.4c0.4,0.6,0.6,1.3,0.6,2.1c0,0.8-0.2,1.4-0.7,2c-0.4,0.6-1,1-1.8,1.4
			c-0.8,0.3-1.6,0.5-2.6,0.5c-1,0-1.9-0.2-2.6-0.5c-0.8-0.3-1.3-0.8-1.8-1.4c-0.4-0.6-0.6-1.3-0.6-2c0-0.8,0.2-1.5,0.6-2.1
			c0.4-0.6,1-1,1.8-1.4C274.4,113.5,275.2,113.3,276.2,113.3z M276.2,115.1c-0.6,0-1.1,0.1-1.5,0.3c-0.4,0.2-0.8,0.4-1,0.8
			c-0.2,0.3-0.4,0.7-0.4,1.2c0,0.4,0.1,0.8,0.4,1.1c0.2,0.3,0.6,0.6,1,0.8c0.4,0.2,1,0.3,1.5,0.3c0.6,0,1.1-0.1,1.5-0.3
			c0.4-0.2,0.8-0.4,1-0.8c0.2-0.3,0.4-0.7,0.4-1.1c0-0.4-0.1-0.8-0.4-1.2c-0.2-0.3-0.6-0.6-1-0.8
			C277.3,115.2,276.8,115.1,276.2,115.1z M277.3,108v3.7h-2.2V108H277.3z"/>
		<path class="st1" d="M392,110v17h-2.6v-14.4h-0.1l-4.1,2.6v-2.5l4.2-2.8H392z M396.3,127l0-1.9l5.9-5.9c0.7-0.7,1.2-1.3,1.6-1.8
			c0.4-0.5,0.7-0.9,0.9-1.3c0.2-0.4,0.3-0.9,0.3-1.4c0-0.5-0.1-1-0.4-1.4c-0.3-0.4-0.7-0.7-1.1-1c-0.5-0.2-1-0.3-1.6-0.3
			c-0.6,0-1.2,0.1-1.6,0.4c-0.5,0.2-0.8,0.6-1.1,1.1c-0.3,0.5-0.4,1-0.4,1.6h-2.5c0-1,0.2-1.9,0.7-2.7c0.5-0.8,1.1-1.4,2-1.8
			c0.9-0.4,1.8-0.6,2.9-0.6c1.1,0,2,0.2,2.9,0.6c0.8,0.4,1.5,1,2,1.7c0.5,0.7,0.7,1.6,0.7,2.5c0,0.7-0.1,1.3-0.4,1.9
			c-0.2,0.6-0.7,1.3-1.2,2c-0.6,0.7-1.4,1.6-2.5,2.7l-3.4,3.5v0.1h7.8v2.2H396.3z M417.1,109.2l-5.5,20.3h-2.2l5.5-20.3H417.1z
			 M425,127.2c-1.1,0-2.2-0.3-3.2-0.8c-1-0.5-1.7-1.4-2.3-2.6c-0.6-1.2-0.9-2.8-0.9-4.8c0-2,0.3-3.6,0.8-5c0.5-1.4,1.3-2.5,2.3-3.2
			c1-0.7,2.2-1.1,3.5-1.1c1,0,1.9,0.2,2.8,0.6c0.8,0.4,1.5,0.9,2,1.6c0.5,0.7,0.8,1.5,1,2.4h-2.5c-0.1-0.5-0.3-0.9-0.6-1.2
			c-0.3-0.4-0.6-0.6-1.1-0.8c-0.4-0.2-0.9-0.3-1.5-0.3c-0.9,0-1.6,0.2-2.2,0.7c-0.6,0.5-1.1,1.2-1.4,2.1c-0.3,0.9-0.5,2-0.5,3.3h0.2
			c0.3-0.5,0.7-0.9,1.1-1.2c0.4-0.3,0.9-0.6,1.5-0.8c0.6-0.2,1.1-0.3,1.7-0.3c1,0,1.9,0.2,2.8,0.7c0.8,0.5,1.5,1.1,2,2
			c0.5,0.9,0.7,1.8,0.7,2.9c0,1.1-0.3,2.1-0.8,3c-0.5,0.9-1.2,1.6-2.1,2.1C427.3,127,426.2,127.2,425,127.2z M425,125.1
			c0.7,0,1.3-0.2,1.8-0.5c0.5-0.3,1-0.8,1.3-1.3c0.3-0.5,0.5-1.1,0.5-1.8c0-0.6-0.2-1.2-0.5-1.8c-0.3-0.5-0.7-1-1.3-1.3
			c-0.5-0.3-1.1-0.5-1.8-0.5c-0.7,0-1.3,0.2-1.8,0.5c-0.6,0.3-1,0.8-1.3,1.3c-0.3,0.5-0.5,1.1-0.5,1.7c0,0.6,0.2,1.2,0.5,1.8
			c0.3,0.5,0.7,1,1.3,1.3C423.7,124.9,424.3,125.1,425,125.1z M449.4,109.8c0,1.3-0.4,2.5-1.2,3.6c-0.8,1.1-1.8,2-3.1,2.7
			c-1.3,0.7-2.7,1.2-4.3,1.5l-0.9-1.8c1.4-0.2,2.6-0.6,3.8-1.2c1.1-0.6,2.1-1.3,2.7-2.2c0.7-0.8,1-1.7,1-2.7v-1.1h1.9V109.8z
			 M449.7,109.8c0,0.9,0.3,1.8,1,2.7c0.7,0.8,1.6,1.6,2.7,2.2c1.2,0.6,2.4,1,3.8,1.2l-0.9,1.8c-1.6-0.2-3-0.7-4.3-1.5
			c-1.3-0.7-2.3-1.6-3.1-2.7c-0.8-1.1-1.1-2.3-1.1-3.6v-1.1h1.9V109.8z M449.6,121.1v7.9h-2.2v-7.9H449.6z M458.1,119.7v1.8H439
			v-1.8H458.1z"/>
		<path class="st1" d="M370.4,327.2v5.8h-2.1v-5.8H370.4z M369.3,316.5c1.2,0,2.3,0.3,3.3,0.7c1,0.5,1.7,1.1,2.3,2
			c0.6,0.9,0.8,1.9,0.9,3c0,1.1-0.3,2.1-0.9,3c-0.6,0.9-1.3,1.5-2.3,2c-1,0.5-2.1,0.7-3.3,0.7c-1.3,0-2.4-0.2-3.4-0.7
			c-1-0.5-1.7-1.1-2.3-2c-0.5-0.9-0.8-1.9-0.8-3c0-1.1,0.3-2.1,0.8-3c0.6-0.9,1.3-1.5,2.3-2C366.9,316.8,368.1,316.5,369.3,316.5z
			 M369.3,318.3c-0.8,0-1.6,0.2-2.3,0.5c-0.7,0.3-1.2,0.8-1.6,1.4c-0.4,0.6-0.6,1.3-0.6,2c0,0.7,0.2,1.4,0.6,2
			c0.4,0.6,0.9,1,1.6,1.4c0.7,0.3,1.4,0.5,2.3,0.5c0.8,0,1.6-0.2,2.2-0.5c0.7-0.3,1.2-0.8,1.6-1.4c0.4-0.6,0.6-1.3,0.6-2
			c0-0.7-0.2-1.4-0.6-2c-0.4-0.6-0.9-1-1.6-1.4C370.9,318.5,370.1,318.3,369.3,318.3z M380.8,314.9v24.3h-2.1v-24.3H380.8z
			 M384.7,325v1.8h-4.5V325H384.7z M361.7,332.1h1.3c1.7,0,3.4,0,4.9-0.1c1.5,0,3.1-0.1,4.7-0.2c1.6-0.1,3.1-0.2,4.5-0.4l0.2,1.6
			c-1.6,0.3-3.3,0.5-5.1,0.6c-1.8,0.1-3.5,0.2-5.1,0.3c-1.6,0-3.3,0-5,0L361.7,332.1z M408.4,328.8v1.8h-22.3v-1.8H408.4z
			 M398.3,329.9v9.3h-2.1v-9.3H398.3z M397.2,315.9c1.7,0,3.2,0.2,4.5,0.7c1.3,0.4,2.3,1.1,3,1.9c0.7,0.8,1.1,1.8,1.1,2.8
			c0,1.1-0.4,2-1.1,2.8c-0.7,0.8-1.7,1.4-3,1.8c-1.3,0.4-2.8,0.6-4.5,0.6s-3.2-0.2-4.5-0.6c-1.3-0.4-2.3-1-3-1.8
			c-0.7-0.8-1.1-1.7-1.1-2.8c0-1.1,0.4-2,1.1-2.8c0.7-0.8,1.7-1.4,3-1.9C394,316.1,395.5,315.9,397.2,315.9z M397.2,317.6
			c-1.3,0-2.4,0.1-3.3,0.4c-1,0.3-1.7,0.7-2.2,1.3c-0.5,0.5-0.8,1.2-0.8,1.9c0,0.7,0.3,1.3,0.8,1.9c0.5,0.5,1.3,0.9,2.2,1.2
			c1,0.3,2.1,0.4,3.3,0.4c1.3,0,2.4-0.1,3.3-0.4c1-0.3,1.7-0.7,2.2-1.2c0.5-0.5,0.8-1.2,0.8-1.9c0-0.7-0.3-1.4-0.8-1.9
			c-0.5-0.5-1.3-1-2.2-1.3C399.6,317.8,398.5,317.6,397.2,317.6z M429,318.4v1.8h-7.5v-1.8H429z M429,324.1v1.8h-7.5v-1.8H429z
			 M417.1,316.4c1.2,0,2.3,0.2,3.2,0.7c1,0.5,1.7,1.2,2.2,2c0.5,0.9,0.8,1.9,0.8,3c0,1.1-0.3,2.1-0.8,3c-0.5,0.9-1.3,1.6-2.2,2
			c-1,0.5-2,0.7-3.2,0.7c-1.2,0-2.3-0.2-3.2-0.7c-1-0.5-1.7-1.2-2.3-2c-0.5-0.9-0.8-1.9-0.8-3c0-1.1,0.3-2.1,0.8-3
			c0.5-0.9,1.3-1.6,2.3-2C414.8,316.6,415.9,316.4,417.1,316.4z M417.1,318.2c-0.8,0-1.5,0.2-2.2,0.5c-0.7,0.3-1.2,0.8-1.5,1.4
			c-0.4,0.6-0.5,1.3-0.5,2c0,0.7,0.2,1.4,0.6,2c0.4,0.6,0.9,1.1,1.5,1.4c0.6,0.3,1.4,0.5,2.2,0.5c0.8,0,1.5-0.2,2.1-0.5
			c0.6-0.3,1.1-0.8,1.5-1.4c0.4-0.6,0.6-1.3,0.6-2c0-0.8-0.2-1.4-0.6-2c-0.4-0.6-0.9-1.1-1.5-1.4
			C418.6,318.4,417.9,318.2,417.1,318.2z M430.5,314.9v14.4h-2.1v-14.4H430.5z M422.5,329.9c1.7,0,3.1,0.2,4.3,0.6
			c1.2,0.4,2.2,0.9,2.8,1.6c0.7,0.7,1,1.5,1,2.5c0,1-0.3,1.8-1,2.5c-0.7,0.7-1.6,1.2-2.8,1.6c-1.2,0.4-2.7,0.6-4.3,0.6
			c-1.7,0-3.1-0.2-4.4-0.6c-1.2-0.4-2.2-0.9-2.8-1.6c-0.7-0.7-1-1.5-1-2.5c0-1,0.3-1.8,1-2.5c0.7-0.7,1.6-1.2,2.8-1.6
			C419.3,330.1,420.8,329.9,422.5,329.9z M422.5,331.6c-1.2,0-2.3,0.1-3.2,0.4c-0.9,0.2-1.6,0.6-2.1,1c-0.5,0.4-0.7,1-0.7,1.6
			c0,0.6,0.2,1.1,0.7,1.6c0.5,0.4,1.2,0.8,2.1,1c0.9,0.2,2,0.3,3.2,0.3c1.2,0,2.3-0.1,3.2-0.3c0.9-0.2,1.6-0.6,2.1-1
			c0.5-0.4,0.7-1,0.7-1.6c0-0.6-0.2-1.1-0.7-1.6c-0.5-0.4-1.2-0.8-2.1-1C424.8,331.7,423.7,331.6,422.5,331.6z M442.4,318.7
			c0,1.5-0.3,3-0.9,4.3c-0.6,1.3-1.3,2.5-2.4,3.5c-1,1-2.2,1.7-3.5,2.3l-1.2-1.7c1.2-0.5,2.3-1.1,3.2-1.9c0.9-0.8,1.6-1.8,2.1-2.9
			c0.5-1.1,0.8-2.3,0.8-3.5v-2.5h1.8V318.7z M442.7,318.8c0,1.1,0.3,2.1,0.8,3.1c0.5,1,1.2,1.9,2.1,2.7c0.9,0.8,2,1.4,3.1,1.8
			l-1.2,1.7c-1.3-0.5-2.4-1.2-3.5-2.1c-1-0.9-1.8-2-2.3-3.2c-0.6-1.2-0.8-2.6-0.8-3.9v-2.7h1.7V318.8z M453.6,314.9v14.8h-2.1v-14.8
			H453.6z M457.2,321.3v1.8H453v-1.8H457.2z M445.8,330.3c1.7,0,3.1,0.2,4.3,0.5c1.2,0.3,2.1,0.9,2.8,1.5c0.6,0.7,1,1.4,1,2.4
			c0,0.9-0.3,1.7-1,2.4c-0.6,0.7-1.6,1.2-2.8,1.5c-1.2,0.3-2.6,0.5-4.3,0.5c-1.7,0-3.1-0.2-4.3-0.5c-1.2-0.3-2.1-0.9-2.8-1.5
			c-0.6-0.7-1-1.5-1-2.4c0-0.9,0.3-1.7,1-2.4c0.6-0.7,1.6-1.2,2.8-1.5C442.7,330.5,444.1,330.3,445.8,330.3z M445.8,332
			c-1.2,0-2.3,0.1-3.2,0.3c-0.9,0.2-1.6,0.5-2.1,0.9c-0.5,0.4-0.7,0.9-0.7,1.4c0,0.6,0.2,1.1,0.7,1.5c0.5,0.4,1.2,0.7,2.1,0.9
			c0.9,0.2,1.9,0.3,3.2,0.3c1.2,0,2.3-0.1,3.2-0.3c0.9-0.2,1.6-0.5,2-0.9c0.5-0.4,0.7-0.9,0.7-1.5c0-0.5-0.2-1-0.7-1.4
			c-0.5-0.4-1.2-0.7-2-0.9C448.1,332.2,447,332,445.8,332z M479.6,314.9v24.3h-2.1v-24.3H479.6z M473.3,323.7v1.8h-4.8v-1.8H473.3z
			 M474.6,315.5v22.5h-2v-22.5H474.6z M465.5,321.8c0,1.8-0.2,3.4-0.7,5.1c-0.5,1.6-1.1,3.1-2,4.4c-0.9,1.3-1.9,2.3-3,3l-1.4-1.6
			c1.1-0.7,2.1-1.6,2.9-2.7c0.8-1.1,1.4-2.4,1.9-3.8c0.4-1.4,0.6-2.9,0.6-4.4v-3.2h1.7V321.8z M465.9,321.8c0,1.4,0.2,2.8,0.6,4.1
			c0.4,1.3,1,2.6,1.8,3.6c0.8,1.1,1.7,1.9,2.8,2.6l-1.3,1.6c-1.2-0.7-2.2-1.7-3-2.9c-0.8-1.2-1.5-2.6-1.9-4.2
			c-0.4-1.6-0.6-3.2-0.6-4.9v-3.2h1.6V321.8z M470.4,317.8v1.8h-11.2v-1.8H470.4z"/>
		<path class="st1" d="M561.2,110v17h-2.6v-14.4h-0.1l-4.1,2.6v-2.5l4.2-2.8H561.2z M565.6,127l0-1.9l5.9-5.9
			c0.7-0.7,1.2-1.3,1.6-1.8c0.4-0.5,0.7-0.9,0.9-1.3c0.2-0.4,0.3-0.9,0.3-1.4c0-0.5-0.1-1-0.4-1.4c-0.3-0.4-0.7-0.7-1.1-1
			c-0.5-0.2-1-0.3-1.6-0.3c-0.6,0-1.2,0.1-1.6,0.4c-0.5,0.2-0.8,0.6-1.1,1.1c-0.3,0.5-0.4,1-0.4,1.6h-2.5c0-1,0.2-1.9,0.7-2.7
			c0.5-0.8,1.1-1.4,2-1.8c0.9-0.4,1.8-0.6,2.9-0.6c1.1,0,2,0.2,2.9,0.6c0.8,0.4,1.5,1,2,1.7c0.5,0.7,0.7,1.6,0.7,2.5
			c0,0.7-0.1,1.3-0.4,1.9c-0.2,0.6-0.7,1.3-1.2,2c-0.6,0.7-1.4,1.6-2.5,2.7l-3.4,3.5v0.1h7.8v2.2H565.6z M586.3,109.2l-5.5,20.3
			h-2.2l5.5-20.3H586.3z M588.7,127l7.6-14.6v-0.1h-8.8V110H599v2.3l-7.6,14.7H588.7z M623.4,108.9v7.2h-14.3v-7.2H623.4z
			 M611.3,110.6v3.7h9.9v-3.7H611.3z M625.9,118.5v1.8h-19.1v-1.8H625.9z M617.4,115.6v3.5h-2.2v-3.5H617.4z M623.5,122.3v6.7h-2.2
			v-4.9h-12.4v-1.8H623.5z"/>
		<path class="st1" d="M729,110v17h-2.6v-14.4h-0.1l-4.1,2.6v-2.5l4.2-2.8H729z M733.4,127l0-1.9l5.9-5.9c0.7-0.7,1.2-1.3,1.6-1.8
			c0.4-0.5,0.7-0.9,0.9-1.3c0.2-0.4,0.3-0.9,0.3-1.4c0-0.5-0.1-1-0.4-1.4c-0.3-0.4-0.7-0.7-1.1-1c-0.5-0.2-1-0.3-1.6-0.3
			c-0.6,0-1.2,0.1-1.6,0.4c-0.5,0.2-0.8,0.6-1.1,1.1c-0.3,0.5-0.4,1-0.4,1.6h-2.5c0-1,0.2-1.9,0.7-2.7c0.5-0.8,1.1-1.4,2-1.8
			c0.8-0.4,1.8-0.6,2.9-0.6c1.1,0,2,0.2,2.9,0.6c0.8,0.4,1.5,1,2,1.7c0.5,0.7,0.7,1.6,0.7,2.5c0,0.7-0.1,1.3-0.4,1.9
			c-0.2,0.6-0.7,1.3-1.2,2c-0.6,0.7-1.4,1.6-2.5,2.7l-3.4,3.5v0.1h7.8v2.2H733.4z M754.1,109.2l-5.5,20.3h-2.2l5.5-20.3H754.1z
			 M761.9,127.2c-1.2,0-2.3-0.2-3.2-0.6c-1-0.4-1.7-1-2.2-1.7c-0.5-0.7-0.8-1.5-0.8-2.5c0-0.7,0.1-1.4,0.5-2
			c0.3-0.6,0.7-1.1,1.3-1.5c0.5-0.4,1.1-0.7,1.8-0.8v-0.1c-0.6-0.1-1.1-0.4-1.5-0.7c-0.4-0.4-0.8-0.8-1-1.3
			c-0.2-0.5-0.4-1.1-0.4-1.7c0-0.9,0.2-1.6,0.7-2.3c0.5-0.7,1.2-1.2,2-1.6c0.9-0.4,1.8-0.6,2.9-0.6c1.1,0,2,0.2,2.9,0.6
			c0.8,0.4,1.5,0.9,2,1.6c0.5,0.7,0.7,1.5,0.7,2.3c0,0.6-0.1,1.2-0.4,1.7c-0.2,0.5-0.6,1-1,1.3c-0.4,0.4-0.9,0.6-1.5,0.7v0.1
			c0.7,0.1,1.2,0.4,1.8,0.8c0.5,0.4,1,0.9,1.3,1.5c0.3,0.6,0.5,1.3,0.5,2c0,0.9-0.3,1.7-0.8,2.5c-0.5,0.7-1.3,1.3-2.2,1.7
			C764.1,127,763.1,127.2,761.9,127.2z M761.9,125.1c0.7,0,1.4-0.1,1.9-0.3c0.5-0.2,1-0.6,1.3-1c0.3-0.4,0.4-0.9,0.4-1.5
			c0-0.6-0.2-1.1-0.5-1.5c-0.3-0.5-0.7-0.8-1.3-1.1c-0.5-0.3-1.2-0.4-1.8-0.4c-0.7,0-1.3,0.1-1.9,0.4c-0.6,0.3-1,0.6-1.3,1.1
			c-0.3,0.5-0.5,1-0.4,1.5c0,0.6,0.1,1.1,0.4,1.5c0.3,0.4,0.7,0.8,1.3,1C760.5,125,761.1,125.1,761.9,125.1z M761.9,117.2
			c0.6,0,1.1-0.1,1.6-0.3c0.5-0.2,0.8-0.6,1.1-1c0.3-0.4,0.4-0.9,0.4-1.4c0-0.5-0.1-1-0.4-1.4c-0.3-0.4-0.6-0.7-1.1-0.9
			c-0.5-0.2-1-0.3-1.6-0.3c-0.6,0-1.2,0.1-1.6,0.3c-0.5,0.2-0.8,0.5-1.1,0.9c-0.3,0.4-0.4,0.9-0.4,1.4c0,0.5,0.1,1,0.4,1.4
			c0.3,0.4,0.6,0.7,1.1,1C760.8,117.1,761.3,117.2,761.9,117.2z M791.9,109.1v1.8h-13.6v-1.8H791.9z M795.2,116.7v1.8h-19.2v-1.8
			H795.2z M792.7,110.6L792.7,110.6c0,0.9,0,1.5,0,2.2c0,0.6-0.1,1.3-0.2,2.1c-0.1,0.8-0.3,1.6-0.5,2.5l-2.2-0.1
			c0.2-0.9,0.4-1.7,0.5-2.4c0.1-0.8,0.2-1.4,0.2-2c0-0.6,0-1.3,0-2v-0.1v-1.6h2.2V110.6z M792.7,121.2v7.5h-14.5v-7.5H792.7z
			 M780.4,123v4h10.1v-4H780.4z"/>
		<path class="st1" d="M682.3,332.7c1.8,0,3.3,0.1,4.5,0.4c1.2,0.3,2.2,0.7,2.8,1.3c0.7,0.6,1,1.2,1,2.1c0,0.8-0.3,1.5-1,2
			c-0.7,0.5-1.6,1-2.8,1.2c-1.2,0.3-2.8,0.4-4.5,0.4c-1.8,0-3.3-0.1-4.6-0.4c-1.2-0.3-2.2-0.7-2.9-1.2c-0.7-0.5-1-1.2-1-2
			c0-0.8,0.3-1.5,1-2.1c0.7-0.6,1.6-1,2.9-1.3C679,332.9,680.5,332.7,682.3,332.7z M682.3,334.4c-1.3,0-2.4,0.1-3.4,0.2
			c-0.9,0.2-1.6,0.4-2.1,0.7c-0.5,0.3-0.7,0.7-0.7,1.2c0,0.4,0.2,0.8,0.7,1.1c0.5,0.3,1.2,0.5,2.1,0.7c0.9,0.2,2,0.2,3.4,0.2
			c1.3,0,2.4-0.1,3.3-0.2c0.9-0.2,1.6-0.4,2.1-0.7c0.5-0.3,0.7-0.7,0.7-1.1c0-0.5-0.2-0.8-0.7-1.2c-0.5-0.3-1.2-0.6-2.1-0.7
			C684.8,334.4,683.7,334.4,682.3,334.4z M692.1,318v1.7h-19.7V318H692.1z M682.3,320.7c2.5,0,4.5,0.3,5.8,0.9c1.4,0.6,2,1.5,2,2.6
			c0,0.7-0.3,1.4-0.9,1.9c-0.6,0.5-1.5,0.9-2.7,1.2c-1.2,0.3-2.6,0.4-4.3,0.4c-1.7,0-3.1-0.1-4.3-0.4c-1.2-0.3-2.1-0.7-2.7-1.2
			c-0.6-0.5-0.9-1.1-0.9-1.9c0-1.1,0.7-2,2-2.6C677.8,321,679.8,320.7,682.3,320.7z M682.3,322.2c-1.2,0-2.2,0.1-3,0.2
			c-0.8,0.2-1.5,0.4-1.9,0.7c-0.4,0.3-0.6,0.6-0.6,1.1c0,0.4,0.2,0.8,0.6,1c0.4,0.3,1.1,0.5,1.9,0.6c0.8,0.1,1.9,0.2,3,0.2
			c1.2,0,2.2-0.1,3-0.2c0.8-0.1,1.5-0.4,1.9-0.6c0.4-0.3,0.7-0.6,0.7-1c0-0.4-0.2-0.8-0.7-1.1c-0.4-0.3-1.1-0.5-1.9-0.7
			C684.5,322.3,683.5,322.2,682.3,322.2z M683.4,315.6v3.5h-2.1v-3.5H683.4z M693.4,329.5v1.7h-22.2v-1.7H693.4z M683.4,327v3.4
			h-2.1V327H683.4z M715.5,331.7v8.5h-2.1v-6.7h-14.2v-1.8H715.5z M715.5,315.9v14.5h-2.1v-14.5H715.5z M702.4,317.4
			c1.2,0,2.3,0.2,3.3,0.7c1,0.5,1.7,1.2,2.3,2c0.5,0.9,0.8,1.9,0.8,3c0,1.1-0.3,2.1-0.8,3c-0.5,0.9-1.3,1.5-2.3,2
			c-1,0.5-2,0.7-3.3,0.7c-1.2,0-2.3-0.2-3.3-0.7c-1-0.5-1.7-1.2-2.3-2c-0.5-0.9-0.8-1.9-0.8-3c0-1.1,0.3-2.1,0.8-3
			c0.5-0.9,1.3-1.5,2.3-2C700.1,317.6,701.2,317.4,702.4,317.4z M702.4,319.2c-0.8,0-1.6,0.2-2.2,0.5c-0.7,0.3-1.2,0.8-1.5,1.4
			c-0.4,0.6-0.5,1.3-0.5,2c0,0.8,0.2,1.4,0.5,2c0.4,0.6,0.9,1.1,1.5,1.4c0.7,0.3,1.4,0.5,2.2,0.5c0.8,0,1.6-0.2,2.2-0.5
			c0.7-0.3,1.2-0.8,1.5-1.4c0.4-0.6,0.6-1.3,0.6-2c0-0.8-0.2-1.4-0.6-2c-0.4-0.6-0.9-1.1-1.5-1.4C704,319.4,703.2,319.2,702.4,319.2
			z M728,322.5c0,1.8-0.3,3.6-0.9,5.3c-0.6,1.7-1.5,3.2-2.5,4.5c-1.1,1.3-2.3,2.3-3.6,2.9l-1.4-1.8c1.2-0.6,2.3-1.4,3.3-2.5
			c1-1.1,1.8-2.4,2.4-3.9c0.6-1.5,0.9-3,0.9-4.5V318h1.8V322.5z M728.3,322.5c0,1.4,0.3,2.9,0.9,4.3c0.6,1.4,1.4,2.7,2.4,3.8
			c1,1.1,2.1,1.9,3.3,2.5l-1.3,1.7c-1.3-0.6-2.5-1.6-3.6-2.8c-1.1-1.3-1.9-2.7-2.6-4.3c-0.6-1.6-0.9-3.3-0.9-5.1V318h1.8V322.5z
			 M739.7,315.9v24.3h-2.1v-24.3H739.7z M763.9,315.9v24.3h-2.1v-24.3H763.9z M747.4,332.4c1.7,0,3.2,0,4.5-0.1
			c1.3,0,2.5-0.1,3.6-0.2c1.2-0.1,2.3-0.3,3.5-0.5l0.2,1.8c-1.8,0.3-3.6,0.5-5.3,0.7c-1.8,0.1-3.9,0.2-6.6,0.2h-2v-1.9H747.4z
			 M757,318.2v1.8h-9.4v13h-2.2v-14.8H757z M781.6,317.8c1.2,0,2.2,0.4,3.1,1.1c0.9,0.7,1.6,1.7,2.1,3c0.5,1.3,0.8,2.8,0.8,4.5
			c0,1.7-0.3,3.2-0.8,4.5c-0.5,1.3-1.2,2.3-2.1,3c-0.9,0.7-2,1-3.1,1c-1.2,0-2.3-0.3-3.2-1c-0.9-0.7-1.6-1.7-2.2-3
			c-0.5-1.3-0.8-2.8-0.8-4.5c0-1.7,0.2-3.2,0.8-4.5c0.5-1.3,1.2-2.3,2.2-3C779.4,318.2,780.4,317.8,781.6,317.8z M781.6,319.7
			c-0.8,0-1.5,0.3-2.1,0.8c-0.6,0.5-1.1,1.3-1.4,2.3c-0.3,1-0.5,2.1-0.5,3.4c0,1.3,0.2,2.5,0.5,3.4c0.3,1,0.8,1.8,1.4,2.3
			c0.6,0.5,1.3,0.8,2.1,0.8c0.8,0,1.5-0.3,2.1-0.8c0.6-0.5,1.1-1.3,1.4-2.3c0.3-1,0.5-2.1,0.5-3.4c0-1.3-0.2-2.4-0.5-3.4
			c-0.3-1-0.8-1.8-1.4-2.3C783.1,320,782.4,319.7,781.6,319.7z M795.2,315.9v24.3h-2.1v-24.3H795.2z M794.1,325.2v1.8H787v-1.8
			H794.1z M808.2,329.5v10H806v-10H808.2z M819.4,315.9v24.3h-2.2v-24.3H819.4z M799.2,328.7c2.2,0,4.1,0,5.7,0
			c1.6,0,3.3-0.1,5.2-0.2c1.8-0.1,3.6-0.3,5.2-0.5l0.1,1.6c-2.4,0.4-5,0.7-7.6,0.8c-2.6,0.1-5.4,0.2-8.4,0.2L799.2,328.7z
			 M817.8,332.5v1.7h-6.2v-1.7H817.8z M807.2,317.1c1.2,0,2.2,0.2,3.2,0.6c0.9,0.4,1.7,1,2.2,1.7c0.5,0.7,0.8,1.5,0.8,2.5
			c0,1-0.3,1.8-0.8,2.5c-0.5,0.7-1.2,1.3-2.2,1.7c-0.9,0.4-2,0.6-3.2,0.6c-1.2,0-2.3-0.2-3.2-0.6c-0.9-0.4-1.7-1-2.2-1.7
			c-0.5-0.7-0.8-1.5-0.8-2.5c0-0.9,0.3-1.8,0.8-2.5c0.5-0.7,1.2-1.3,2.2-1.7C804.9,317.3,806,317.1,807.2,317.1z M807.2,318.8
			c-0.8,0-1.5,0.1-2.2,0.4c-0.6,0.3-1.1,0.6-1.5,1.1c-0.3,0.5-0.5,1-0.5,1.6c0,0.6,0.2,1.2,0.5,1.6c0.3,0.5,0.8,0.8,1.5,1.1
			c0.6,0.3,1.4,0.4,2.2,0.4c0.8,0,1.5-0.1,2.1-0.4s1.1-0.6,1.5-1.1c0.4-0.5,0.5-1,0.5-1.6c0-0.6-0.2-1.1-0.5-1.6
			c-0.3-0.5-0.8-0.8-1.5-1.1C808.7,319,808,318.8,807.2,318.8z M843.1,327.6v1.8h-16.8v-1.8H843.1z M845.8,335.1v1.8h-22.3v-1.8
			H845.8z M842.9,318.2v1.8h-14.4v8.4h-2.1v-10.2H842.9z"/>
		<path class="st1" d="M897,110v17h-2.6v-14.4h-0.1l-4.1,2.6v-2.5l4.2-2.8H897z M901.3,127l0-1.9l5.9-5.9c0.7-0.7,1.2-1.3,1.6-1.8
			c0.4-0.5,0.7-0.9,0.9-1.3c0.2-0.4,0.3-0.9,0.3-1.4c0-0.5-0.1-1-0.4-1.4c-0.3-0.4-0.7-0.7-1.1-1c-0.5-0.2-1-0.3-1.6-0.3
			c-0.6,0-1.2,0.1-1.6,0.4c-0.5,0.2-0.8,0.6-1.1,1.1c-0.3,0.5-0.4,1-0.4,1.6h-2.5c0-1,0.2-1.9,0.7-2.7c0.5-0.8,1.1-1.4,2-1.8
			c0.9-0.4,1.8-0.6,2.9-0.6c1.1,0,2,0.2,2.9,0.6c0.8,0.4,1.5,1,2,1.7c0.5,0.7,0.7,1.6,0.7,2.5c0,0.7-0.1,1.3-0.4,1.9
			c-0.2,0.6-0.7,1.3-1.2,2c-0.6,0.7-1.4,1.6-2.5,2.7l-3.4,3.5v0.1h7.8v2.2H901.3z M922.1,109.2l-5.5,20.3h-2.2l5.5-20.3H922.1z
			 M929.7,109.8c1.1,0,2.2,0.3,3.1,0.8c1,0.5,1.7,1.4,2.3,2.6c0.6,1.2,0.9,2.8,0.9,4.7c0,2-0.3,3.6-0.8,5c-0.5,1.4-1.3,2.5-2.3,3.2
			c-1,0.7-2.2,1.1-3.5,1.1c-1,0-1.9-0.2-2.8-0.6c-0.8-0.4-1.5-1-2-1.7c-0.5-0.7-0.8-1.5-1-2.4h2.5c0.1,0.5,0.3,0.9,0.6,1.3
			c0.3,0.4,0.6,0.6,1.1,0.9c0.4,0.2,0.9,0.3,1.5,0.3c0.9,0,1.6-0.2,2.2-0.7c0.6-0.5,1.1-1.2,1.4-2.1c0.3-0.9,0.5-2,0.5-3.3h-0.2
			c-0.3,0.5-0.7,0.9-1.1,1.2c-0.4,0.3-0.9,0.6-1.5,0.8c-0.5,0.2-1.1,0.3-1.7,0.3c-1,0-1.9-0.2-2.8-0.7c-0.8-0.5-1.5-1.1-2-2
			c-0.5-0.9-0.7-1.8-0.7-2.9c0-1.1,0.3-2.1,0.8-2.9c0.5-0.9,1.2-1.6,2.1-2.1C927.5,110,928.5,109.8,929.7,109.8z M929.7,112
			c-0.7,0-1.3,0.2-1.8,0.5c-0.5,0.3-1,0.7-1.3,1.3c-0.3,0.5-0.5,1.1-0.5,1.8c0,0.6,0.2,1.2,0.5,1.8c0.3,0.5,0.7,1,1.3,1.3
			c0.5,0.3,1.1,0.5,1.8,0.5c0.7,0,1.3-0.2,1.8-0.5c0.6-0.3,1-0.8,1.3-1.3c0.3-0.5,0.5-1.1,0.5-1.7c0-0.6-0.2-1.2-0.5-1.7
			c-0.3-0.5-0.7-1-1.3-1.3C931,112.1,930.4,112,929.7,112z M961,118.7v1.8h-14.6v-1.8H961z M963.2,124.6v1.8H944v-1.8H963.2z
			 M954.7,119.7v5.8h-2.2v-5.8H954.7z M960.8,109.6v1.8h-12.2v8h-2.2v-9.8H960.8z M960.4,114.1v1.8H948v-1.8H960.4z"/>
		<path class="st1" d="M372.2,183.6v3.8h-2.1v-3.8H372.2z M382.2,186.6v1.7h-22.2v-1.7H382.2z M379.4,190.3v5.5h-14.4v2.9h-2.1v-4.5
			h14.4V192h-14.5v-1.6H379.4z M380.1,198.3v1.7h-17.3v-1.7H380.1z M371.6,178.2c0,1.2-0.4,2.3-1.3,3.2c-0.9,1-2.1,1.7-3.5,2.3
			c-1.5,0.6-3.1,1-4.8,1.1l-0.7-1.6c1.5-0.1,2.9-0.4,4.2-0.9c1.3-0.5,2.4-1.1,3.2-1.8c0.8-0.7,1.2-1.5,1.2-2.4v-0.8h1.9V178.2z
			 M372.5,178.2c0,0.9,0.4,1.7,1.2,2.4c0.8,0.7,1.9,1.3,3.2,1.8c1.3,0.5,2.7,0.8,4.2,0.9l-0.7,1.6c-1.7-0.2-3.3-0.6-4.8-1.1
			c-1.5-0.6-2.6-1.4-3.5-2.3c-0.9-1-1.3-2-1.3-3.2v-0.8h1.9V178.2z M380.2,176.7v1.7h-18.1v-1.7H380.2z M403.2,181.7v1.8h-6.6v-1.8
			H403.2z M391,177.1c1.2,0,2.3,0.2,3.2,0.7c1,0.5,1.7,1.1,2.2,2c0.5,0.9,0.8,1.8,0.8,2.9c0,1.1-0.3,2.1-0.8,2.9
			c-0.5,0.9-1.3,1.5-2.2,2c-0.9,0.5-2,0.7-3.2,0.7c-1.2,0-2.3-0.2-3.3-0.7c-1-0.5-1.7-1.1-2.2-2c-0.5-0.9-0.8-1.8-0.8-2.9
			c0-1.1,0.3-2.1,0.8-2.9c0.5-0.9,1.3-1.5,2.2-2C388.6,177.3,389.7,177.1,391,177.1z M391,178.9c-0.8,0-1.6,0.2-2.2,0.5
			c-0.6,0.3-1.1,0.8-1.5,1.3c-0.4,0.6-0.5,1.2-0.5,2c0,0.7,0.2,1.4,0.5,2c0.4,0.6,0.9,1,1.5,1.4c0.7,0.3,1.4,0.5,2.2,0.5
			c0.8,0,1.5-0.2,2.2-0.5c0.6-0.3,1.1-0.8,1.5-1.4c0.4-0.6,0.5-1.2,0.5-2c0-0.7-0.2-1.4-0.5-2c-0.4-0.6-0.9-1-1.5-1.3
			C392.5,179,391.8,178.9,391,178.9z M404.4,175.9v13h-2.1v-13H404.4z M390.9,190.2v3.1h11.4v-3.1h2.1v9.7h-15.7v-9.7H390.9z
			 M390.9,198.1h11.4V195h-11.4V198.1z M427.7,182.7v1.8h-6.2v-1.8H427.7z M428.6,175.9v17.8h-2.1v-17.8H428.6z M429.3,197.9v1.8
			H413v-1.8H429.3z M415.2,192.2v6.6H413v-6.6H415.2z M416.5,180.9c0,1.5-0.3,2.8-0.9,4.1c-0.6,1.3-1.4,2.4-2.4,3.4
			c-1,1-2.2,1.7-3.6,2.2l-1.1-1.8c1.2-0.4,2.3-1,3.2-1.8c0.9-0.8,1.7-1.7,2.2-2.8c0.5-1.1,0.8-2.2,0.8-3.3v-2h1.8V180.9z
			 M416.9,180.9c0,1,0.3,2,0.8,3c0.5,1,1.2,1.9,2.1,2.6s2,1.4,3.1,1.8l-1.1,1.7c-1.3-0.5-2.5-1.2-3.5-2.1c-1-0.9-1.8-2-2.3-3.2
			c-0.6-1.2-0.8-2.5-0.8-3.8v-2h1.8V180.9z M422.3,177.9v1.8h-13.1v-1.8H422.3z M440.9,182.5c0,1.8-0.3,3.6-0.9,5.3
			c-0.6,1.7-1.5,3.2-2.5,4.5c-1.1,1.3-2.3,2.3-3.6,2.9l-1.4-1.8c1.2-0.6,2.3-1.4,3.3-2.5c1-1.1,1.8-2.4,2.4-3.9
			c0.6-1.5,0.9-3,0.9-4.5V178h1.8V182.5z M441.3,182.5c0,1.4,0.3,2.9,0.9,4.3c0.6,1.4,1.4,2.7,2.4,3.8c1,1.1,2.1,1.9,3.3,2.5
			l-1.3,1.7c-1.3-0.6-2.5-1.6-3.6-2.8c-1.1-1.3-1.9-2.7-2.6-4.3c-0.6-1.6-0.9-3.3-0.9-5.1V178h1.8V182.5z M452.7,175.9v24.3h-2.1
			v-24.3H452.7z M471.7,200.5h-2.1l-5.9-12.2V188h2.3L471.7,200.5z M471.7,175.7l-5.7,12.4h-2.3V188l5.9-12.2H471.7z M475.7,200.5
			h-2.1l-5.9-12.2V188h2.3L475.7,200.5z M475.7,175.7l-5.7,12.4h-2.3V188l5.9-12.2H475.7z M482,198v-19.8h6.7c1.5,0,2.8,0.3,3.8,0.8
			c1,0.5,1.8,1.2,2.3,2.1c0.5,0.9,0.7,2,0.7,3.2c0,1.2-0.2,2.2-0.7,3.2c-0.5,0.9-1.2,1.6-2.2,2.1c-1,0.5-2.2,0.8-3.7,0.8h-5.4v-2.2
			h5.3c1,0,1.9-0.1,2.5-0.4c0.7-0.3,1.1-0.7,1.4-1.3c0.3-0.6,0.4-1.3,0.4-2.1c0-0.8-0.2-1.5-0.5-2.1c-0.3-0.6-0.8-1-1.4-1.3
			s-1.5-0.5-2.5-0.5h-4.2V198H482z M491.4,189.1l4.9,8.9h-2.9l-4.8-8.9H491.4z M507.8,191.1c-0.1,0-0.2,0-0.4,0c-0.2,0-0.4,0-0.7,0
			c-0.5,0-1,0.1-1.5,0.1c-0.5,0-0.9,0.1-1.3,0.1c-1.1,0.1-2,0.3-2.6,0.7c-0.6,0.4-0.9,1-0.9,1.8c0,0.5,0.1,0.9,0.4,1.3
			c0.3,0.3,0.6,0.6,1.1,0.8c0.5,0.2,1,0.3,1.6,0.3c0.9,0,1.6-0.2,2.2-0.5c0.6-0.3,1.1-0.8,1.4-1.3c0.3-0.6,0.5-1.1,0.5-1.8V188
			c0-0.6-0.1-1.2-0.4-1.6c-0.3-0.4-0.6-0.8-1.1-1c-0.5-0.2-1.1-0.3-1.9-0.3c-0.6,0-1.1,0.1-1.6,0.3c-0.5,0.2-0.8,0.4-1.1,0.7
			c-0.3,0.3-0.5,0.6-0.6,1h-2.4c0.1-0.8,0.4-1.5,0.9-2.1c0.5-0.6,1.2-1.1,2.1-1.4c0.9-0.3,1.8-0.5,2.9-0.5c0.9,0,1.7,0.1,2.5,0.4
			c0.8,0.3,1.5,0.8,2.2,1.6c0.6,0.8,0.9,1.9,0.9,3.3v9.8h-2.3v-2h-0.1c-0.2,0.4-0.5,0.8-0.8,1.1c-0.4,0.4-0.9,0.7-1.5,0.9
			c-0.6,0.2-1.3,0.4-2.1,0.4c-0.9,0-1.8-0.2-2.6-0.5c-0.8-0.4-1.4-0.9-1.8-1.6c-0.4-0.7-0.7-1.5-0.7-2.4c0-1.5,0.5-2.6,1.6-3.2
			c1.1-0.6,2.4-1,4-1.1c0.5,0,1-0.1,1.6-0.1c0.6,0,1.2-0.1,1.8-0.1c0.2,0,0.4,0,0.5,0c0.1,0,0.2,0,0.3,0L507.8,191.1z M517.1,198
			l-4.5-14.9h2.5l3.2,11.3h0.2l3.1-11.3h2.5l3.1,11.3h0.2l3.2-11.3h2.5l-4.5,14.9h-2.3l-3.2-11.3h-0.2l-3.2,11.3H517.1z M543.7,198
			h-2.6l7.3-19.8h2.6l7.3,19.8h-2.6l-5.9-16.6h-0.2L543.7,198z M544.6,190.3h10.2v2.2h-10.2V190.3z M560.6,198v-14.9h2.3v2.3h0.2
			c0.2-0.5,0.5-0.9,0.8-1.3c0.4-0.4,0.8-0.7,1.4-0.9c0.5-0.2,1.1-0.3,1.7-0.3c0.2,0,0.4,0,0.6,0c0.2,0,0.4,0,0.6,0v2.4
			c-0.1,0-0.4-0.1-0.6-0.1c-0.3,0-0.5-0.1-0.8-0.1c-0.7,0-1.3,0.1-1.9,0.4c-0.6,0.3-1,0.7-1.3,1.2c-0.3,0.5-0.5,1.1-0.5,1.8v9.4
			H560.6z M576,198.3c-1.4,0-2.6-0.3-3.6-1c-1-0.7-1.8-1.6-2.3-2.7c-0.5-1.2-0.8-2.5-0.8-4c0-1.5,0.3-2.8,0.8-4
			c0.6-1.2,1.3-2.1,2.4-2.7c1-0.7,2.2-1,3.5-1c1,0,2,0.2,2.8,0.6c0.9,0.4,1.6,0.9,2.1,1.7c0.5,0.7,0.9,1.5,1,2.4h-2.3
			c-0.1-0.5-0.3-0.9-0.6-1.3c-0.3-0.4-0.7-0.7-1.2-0.9c-0.5-0.2-1-0.4-1.7-0.4c-0.9,0-1.6,0.2-2.3,0.7c-0.7,0.5-1.2,1.1-1.5,1.9
			c-0.4,0.8-0.6,1.8-0.6,2.9c0,1.1,0.2,2.1,0.5,3c0.4,0.8,0.9,1.5,1.5,2c0.7,0.5,1.4,0.7,2.3,0.7c0.6,0,1.1-0.1,1.6-0.3
			c0.5-0.2,0.9-0.5,1.2-0.9c0.3-0.4,0.6-0.8,0.7-1.4h2.3c-0.1,0.9-0.4,1.7-1,2.4c-0.5,0.7-1.2,1.3-2,1.7
			C578,198.1,577.1,198.3,576,198.3z M587.1,189.1v8.9h-2.4v-19.8h2.4v7.3h0.2c0.2-0.5,0.6-1,0.9-1.4c0.4-0.4,0.9-0.7,1.4-0.9
			s1.2-0.3,2-0.3c1,0,1.9,0.2,2.7,0.6c0.8,0.4,1.3,1,1.8,1.9c0.4,0.8,0.6,1.9,0.6,3.1v9.4h-2.4v-9.3c0-0.8-0.1-1.4-0.4-2
			c-0.3-0.5-0.7-1-1.2-1.3c-0.5-0.3-1.1-0.4-1.8-0.4c-0.7,0-1.4,0.2-2,0.5c-0.6,0.3-1,0.8-1.4,1.4
			C587.3,187.5,587.1,188.2,587.1,189.1z M600.5,198v-14.9h2.4V198H600.5z M601.7,180.7c-0.3,0-0.6-0.1-0.8-0.2
			c-0.3-0.1-0.5-0.3-0.6-0.6c-0.1-0.2-0.2-0.5-0.2-0.8s0.1-0.5,0.2-0.8c0.1-0.2,0.4-0.4,0.6-0.6c0.3-0.1,0.5-0.2,0.8-0.2
			c0.3,0,0.6,0.1,0.8,0.2c0.3,0.1,0.5,0.3,0.6,0.6c0.1,0.2,0.2,0.5,0.2,0.8s-0.1,0.5-0.2,0.8c-0.1,0.2-0.4,0.4-0.6,0.6
			C602.2,180.6,602,180.7,601.7,180.7z M618.8,183.1l-5.5,14.9h-2.4l-5.5-14.9h2.6l4.1,11.8h0.2l4.1-11.8H618.8z M627.6,198.3
			c-1.4,0-2.6-0.3-3.7-0.9c-1-0.6-1.8-1.5-2.4-2.7c-0.6-1.2-0.8-2.5-0.8-4c0-1.5,0.3-2.8,0.8-4c0.6-1.2,1.3-2.1,2.4-2.7
			c1-0.7,2.2-1,3.5-1c1.1,0,2.2,0.2,3.1,0.7c1,0.5,1.8,1.3,2.4,2.4c0.6,1.1,0.9,2.5,0.9,4.3v1h-11.5v-2h9.1c0-0.8-0.2-1.6-0.5-2.2
			c-0.3-0.7-0.8-1.2-1.4-1.5c-0.6-0.4-1.3-0.6-2.1-0.6c-0.9,0-1.6,0.2-2.3,0.6c-0.7,0.4-1.2,1-1.5,1.7c-0.4,0.7-0.5,1.5-0.5,2.3v1.4
			c0,1.1,0.2,2,0.6,2.8c0.4,0.8,0.9,1.4,1.6,1.8c0.7,0.4,1.5,0.6,2.4,0.6c0.6,0,1.1-0.1,1.5-0.2c0.5-0.1,0.8-0.4,1.2-0.6
			c0.3-0.3,0.6-0.5,0.8-0.9h2.5c-0.2,0.8-0.6,1.4-1.2,2c-0.6,0.6-1.2,1-2.1,1.3C629.5,198.2,628.6,198.3,627.6,198.3z M643.1,200.5
			l5.7-12.4h2.3v0.2l-5.9,12.2H643.1z M643.1,175.7h2.1l5.9,12.2v0.2h-2.3L643.1,175.7z M639.1,200.5l5.7-12.4h2.3v0.2l-5.9,12.2
			H639.1z M639.1,175.7h2.1L647,188v0.2h-2.3L639.1,175.7z"/>
		<line class="st2" x1="0" y1="237.2" x2="1011" y2="237.2"/>
		<path class="st1" d="M421.9,244.8c3.8,0,6.9-3.1,6.9-6.9c0-3.8-3.1-6.9-6.9-6.9c-3.8,0-6.9,3.1-6.9,6.9
			C415,241.7,418.1,244.8,421.9,244.8z"/>
		<path class="st1" d="M758.9,244.8c3.8,0,6.9-3.1,6.9-6.9c0-3.8-3.1-6.9-6.9-6.9c-3.8,0-6.9,3.1-6.9,6.9
			C752,241.7,755.1,244.8,758.9,244.8z"/>
		<line class="st2" x1="421.8" y1="237" x2="421.8" y2="292"/>
		<path class="st3" d="M0,187h342 M1009,187H667"/>
		<line class="st2" x1="758.8" y1="237" x2="758.8" y2="292"/>
		<path class="st2" d="M9.5,177.5L0,187l9.5,9.5"/>
		<path class="st2" d="M999.5,177.5l9.5,9.5l-9.5,9.5"/>
		<rect class="st1" width="1011" height="45"/>
		<path d="M407.4,27.4c1.9,0,3.6,0.2,4.9,0.5c1.4,0.3,2.4,0.8,3.1,1.4c0.7,0.6,1.1,1.4,1.1,2.2c0,0.9-0.4,1.6-1.1,2.2
			c-0.7,0.6-1.7,1-3.1,1.3c-1.3,0.3-3,0.5-4.9,0.5c-1.9,0-3.6-0.2-5-0.5c-1.4-0.3-2.4-0.7-3.1-1.3c-0.7-0.6-1.1-1.3-1.1-2.2
			c0-0.9,0.4-1.6,1.1-2.2c0.7-0.6,1.7-1.1,3.1-1.4C403.8,27.5,405.4,27.4,407.4,27.4z M407.4,29.4c-1.4,0-2.5,0.1-3.4,0.2
			c-0.9,0.2-1.6,0.4-2.1,0.7c-0.5,0.3-0.7,0.7-0.7,1.1c0,0.4,0.2,0.8,0.7,1.1c0.5,0.3,1.2,0.5,2.1,0.7c0.9,0.1,2.1,0.2,3.4,0.2
			c1.4,0,2.5-0.1,3.4-0.2c0.9-0.1,1.6-0.4,2.1-0.7c0.5-0.3,0.7-0.6,0.7-1.1c0-0.4-0.2-0.8-0.7-1.1c-0.5-0.3-1.2-0.5-2.1-0.7
			C409.9,29.5,408.7,29.4,407.4,29.4z M418,11.3v2.2h-21.4v-2.2H418z M407.4,14.5c2.8,0,4.9,0.3,6.4,1c1.5,0.6,2.2,1.6,2.2,2.8
			c0,0.8-0.3,1.5-1,2.1c-0.7,0.6-1.6,1-2.9,1.3c-1.3,0.3-2.8,0.4-4.7,0.4c-1.8,0-3.4-0.1-4.7-0.4c-1.3-0.3-2.3-0.7-2.9-1.3
			c-0.7-0.6-1-1.2-1-2.1c0-1.2,0.7-2.2,2.2-2.8C402.5,14.8,404.6,14.5,407.4,14.5z M407.4,16.4c-1.2,0-2.3,0.1-3.1,0.2
			c-0.8,0.1-1.5,0.3-1.9,0.6c-0.4,0.3-0.6,0.6-0.6,1c0,0.4,0.2,0.7,0.6,1c0.4,0.3,1.1,0.5,1.9,0.6c0.8,0.1,1.9,0.2,3.1,0.2
			c1.2,0,2.3-0.1,3.1-0.2c0.8-0.1,1.5-0.3,1.9-0.6c0.4-0.3,0.7-0.6,0.7-1c0-0.4-0.2-0.7-0.7-1c-0.4-0.3-1.1-0.5-1.9-0.6
			C409.7,16.4,408.6,16.4,407.4,16.4z M408.8,8.9v3.9H406V8.9H408.8z M419.4,23.7V26h-23.9v-2.2H419.4z M408.8,21.1v3.7H406v-3.7
			H408.8z M443.1,26.1v9.3h-2.8v-7.1h-15v-2.3H443.1z M443.1,9.2v15.5h-2.8V9.2H443.1z M428.9,10.8c1.3,0,2.5,0.3,3.6,0.8
			c1.1,0.5,1.9,1.3,2.5,2.2c0.6,0.9,0.9,2,0.9,3.2c0,1.2-0.3,2.3-0.9,3.3c-0.6,1-1.4,1.7-2.5,2.2c-1.1,0.5-2.2,0.8-3.6,0.8
			c-1.3,0-2.5-0.3-3.6-0.8c-1.1-0.5-1.9-1.3-2.5-2.2c-0.6-1-0.9-2-0.9-3.3c0-1.2,0.3-2.3,0.9-3.2c0.6-1,1.4-1.7,2.5-2.2
			C426.4,11,427.6,10.8,428.9,10.8z M428.9,13.2c-0.8,0-1.6,0.2-2.2,0.5c-0.6,0.3-1.2,0.8-1.5,1.4c-0.4,0.6-0.5,1.3-0.5,2
			c0,0.8,0.2,1.5,0.5,2.1c0.4,0.6,0.9,1.1,1.5,1.4c0.6,0.3,1.4,0.5,2.2,0.5c0.8,0,1.5-0.2,2.2-0.5c0.6-0.3,1.2-0.8,1.5-1.4
			c0.4-0.6,0.5-1.3,0.5-2.1c0-0.8-0.2-1.4-0.5-2c-0.4-0.6-0.9-1-1.5-1.4C430.4,13.3,429.7,13.2,428.9,13.2z M456.4,15.9
			c0,2.1-0.3,4.1-1,5.9c-0.6,1.9-1.5,3.5-2.7,5c-1.2,1.4-2.5,2.5-4,3.3l-1.7-2.3c1.4-0.6,2.6-1.5,3.6-2.8c1.1-1.2,1.9-2.6,2.5-4.2
			c0.6-1.6,0.9-3.2,0.9-4.9v-4.5h2.3V15.9z M456.9,15.9c0,1.6,0.3,3.1,0.9,4.7c0.6,1.5,1.4,2.9,2.5,4.1c1.1,1.2,2.3,2.1,3.6,2.7
			l-1.7,2.2c-1.5-0.7-2.8-1.7-3.9-3.1c-1.1-1.4-2-3-2.7-4.8c-0.6-1.8-1-3.7-1-5.7v-4.5h2.3V15.9z M469,9.2v26.3h-2.8V9.2H469z
			 M495,9.2v26.3h-2.8V9.2H495z M477.1,26.7c1.9,0,3.6,0,4.9-0.1c1.3,0,2.6-0.1,3.8-0.2c1.2-0.1,2.5-0.3,3.7-0.5l0.3,2.3
			c-1.9,0.3-3.7,0.6-5.6,0.7c-1.9,0.1-4.3,0.2-7.2,0.2h-2.2v-2.4H477.1z M487.5,11.7V14h-9.8v13.6h-2.8V11.7H487.5z M519.3,12.9
			c0,1.5-0.5,2.9-1.4,4.2c-0.9,1.3-2.2,2.3-3.8,3.2c-1.6,0.8-3.3,1.4-5.3,1.7l-1-2.2c1.6-0.2,3.1-0.7,4.5-1.4
			c1.4-0.7,2.5-1.5,3.3-2.5c0.8-1,1.2-2,1.2-3.1v-1h2.4V12.9z M520,12.9c0,1.1,0.4,2.1,1.2,3.1c0.8,1,1.9,1.8,3.3,2.5
			c1.4,0.7,2.9,1.1,4.6,1.4l-1,2.2c-1.9-0.3-3.7-0.9-5.3-1.7c-1.6-0.8-2.8-1.9-3.8-3.2c-0.9-1.3-1.4-2.7-1.4-4.2v-1h2.4V12.9z
			 M519.7,25.6v9.9H517v-9.9H519.7z M530.4,24v2.3h-23.9V24H530.4z M528.2,10.8V13h-19.5v-2.2H528.2z M553,9.2v19.1h-2.8V9.2H553z
			 M556.8,17v2.3h-4.6V17H556.8z M545.9,11.2c0,2.3-0.5,4.3-1.5,6.2c-1,1.9-2.4,3.5-4.2,4.8c-1.8,1.3-4.1,2.4-6.6,3.2l-1.2-2.2
			c2.2-0.7,4.1-1.5,5.7-2.6c1.6-1.1,2.8-2.3,3.6-3.7s1.3-2.9,1.3-4.4v-1.3H545.9z M544.4,11.2v2.3h-10.9v-2.3H544.4z M554.1,32.7
			v2.3h-17.8v-2.3H554.1z M539.2,26.4v7.3h-2.8v-7.3H539.2z M573.1,10.1c1.3,0,2.5,0.3,3.5,0.8c1,0.5,1.9,1.2,2.5,2.1
			c0.6,0.9,0.9,1.9,0.9,3c0,1.1-0.3,2.1-0.9,3c-0.6,0.9-1.4,1.6-2.5,2.1c-1,0.5-2.2,0.7-3.5,0.7c-1.3,0-2.5-0.2-3.6-0.7
			c-1.1-0.5-1.9-1.2-2.5-2.1c-0.6-0.9-0.9-1.9-0.9-3c0-1.1,0.3-2.2,0.9-3c0.6-0.9,1.4-1.6,2.5-2.1C570.6,10.4,571.8,10.1,573.1,10.1
			z M573.1,12.4c-0.8,0-1.5,0.1-2.2,0.4c-0.6,0.3-1.1,0.7-1.5,1.3c-0.4,0.5-0.5,1.2-0.5,1.9c0,0.7,0.2,1.3,0.5,1.9
			c0.4,0.5,0.9,1,1.5,1.3c0.6,0.3,1.4,0.4,2.2,0.4c0.8,0,1.5-0.1,2.1-0.4c0.6-0.3,1.1-0.7,1.5-1.3c0.4-0.5,0.5-1.2,0.5-1.9
			c0-0.7-0.2-1.3-0.5-1.9c-0.4-0.5-0.9-1-1.5-1.3C574.6,12.6,573.9,12.4,573.1,12.4z M587.4,9.2v13.4h-2.8V9.2H587.4z M587.4,23.8
			v6.6h-14.5v3.7h-2.7v-5.8h14.4V26h-14.5v-2.2H587.4z M588.3,32.9v2.2h-18v-2.2H588.3z M611.5,15.9v2.3h-5.7v-2.3H611.5z
			 M613.5,9.2v15.6h-2.8V9.2H613.5z M604.7,25.6c1.8,0,3.4,0.2,4.7,0.6c1.3,0.4,2.4,1,3.1,1.7c0.7,0.7,1.1,1.6,1.1,2.7
			c0,1-0.4,1.9-1.1,2.7c-0.7,0.7-1.7,1.3-3.1,1.7c-1.3,0.4-2.9,0.6-4.7,0.6c-1.8,0-3.4-0.2-4.8-0.6c-1.3-0.4-2.4-0.9-3.1-1.7
			c-0.7-0.7-1.1-1.6-1-2.7c0-1,0.3-1.9,1.1-2.7c0.7-0.7,1.7-1.3,3.1-1.7C601.3,25.8,602.8,25.6,604.7,25.6z M604.7,27.7
			c-1.3,0-2.4,0.1-3.3,0.3c-0.9,0.2-1.6,0.5-2.1,1c-0.5,0.4-0.7,0.9-0.7,1.5c0,0.6,0.2,1.1,0.7,1.5c0.5,0.4,1.2,0.7,2.1,0.9
			c0.9,0.2,2,0.3,3.3,0.3c1.3,0,2.4-0.1,3.3-0.3c0.9-0.2,1.6-0.5,2.1-0.9c0.5-0.4,0.7-0.9,0.7-1.5c0-0.6-0.3-1.1-0.7-1.5
			c-0.5-0.4-1.2-0.7-2.1-1C607,27.9,605.9,27.7,604.7,27.7z M600.4,13.9c0,1.6-0.3,3.2-0.9,4.6c-0.6,1.4-1.4,2.7-2.6,3.8
			c-1.1,1.1-2.4,1.9-3.9,2.4l-1.4-2.2c1.3-0.5,2.5-1.1,3.5-2c1-0.9,1.8-1.9,2.3-3c0.5-1.1,0.8-2.3,0.8-3.5v-2h2.3V13.9z M601,13.9
			c0,1.1,0.3,2.2,0.8,3.2c0.5,1,1.2,2,2.2,2.8c1,0.8,2.1,1.4,3.4,1.9l-1.4,2.2c-1.5-0.5-2.7-1.3-3.8-2.3c-1.1-1-1.9-2.2-2.5-3.6
			c-0.6-1.3-0.9-2.8-0.9-4.3v-2h2.3V13.9z M606.6,11v2.3h-14.2V11H606.6z"/>
	</g>
</g>
</svg>
