<svg width="57" height="44" viewBox="0 0 57 44" fill="none" xmlns="http://www.w3.org/2000/svg">
<path fill-rule="evenodd" clip-rule="evenodd" d="M53.0538 37.037C53.0538 38.4984 51.876 39.6831 50.4231 39.6831H6.57692C5.12399 39.6831 3.94615 38.4984 3.94615 37.037V22.1523V7.26773V7.26773C3.94615 7.21053 4.01319 7.18221 4.05589 7.22027L25.1202 25.994C27.1118 27.769 30.1074 27.769 32.099 25.994L51.3885 8.80211C52.0331 8.2276 53.0538 8.68517 53.0538 9.54864V22.1523V37.037ZM48.1692 6.36811C48.8551 5.75674 48.4227 4.62157 47.5038 4.62157H28.5H9.71539C8.79652 4.62157 8.36408 5.75674 9.05004 6.36811L27.7373 23.0232C28.2352 23.467 28.9841 23.467 29.482 23.0232L48.1692 6.36811ZM0 37.037C0 40.6905 2.94459 43.6523 6.57692 43.6523H50.4231C54.0554 43.6523 57 40.6905 57 37.037V22.1523V7.26773C57 3.61415 54.0554 0.652344 50.4231 0.652344H28.5H6.57692C2.94458 0.652344 0 3.61415 0 7.26773V22.1523V37.037Z" fill="black"/>
</svg>
