<svg width="46" height="46" viewBox="0 0 46 46" fill="none" xmlns="http://www.w3.org/2000/svg">
<path d="M32.8174 0H13.509C6.22868 0 0.326172 5.90251 0.326172 13.1828V32.4913C0.326172 39.7716 6.22868 45.6741 13.509 45.6741H32.8174C40.0977 45.6741 46.0002 39.7716 46.0002 32.4913V13.1828C46.0002 5.90251 40.0977 0 32.8174 0ZM41.7957 32.8309C41.7957 37.6628 37.879 41.5827 33.0438 41.5827H13.2826C8.45061 41.5827 4.5307 37.6661 4.5307 32.8309V13.0696C4.5307 8.23763 8.44737 4.31772 13.2826 4.31772H33.0438C37.8758 4.31772 41.7957 8.2344 41.7957 13.0696V32.8309Z" fill="black"/>
<path d="M23.1638 11.1035C16.6176 11.1035 11.3135 16.4109 11.3135 22.9538C11.3135 29.4967 16.6209 34.8041 23.1638 34.8041C29.7067 34.8041 35.0141 29.4967 35.0141 22.9538C35.0141 16.4109 29.7067 11.1035 23.1638 11.1035ZM23.1638 30.6384C18.9204 30.6384 15.4824 27.1971 15.4824 22.957C15.4824 18.7169 18.9237 15.2757 23.1638 15.2757C27.4039 15.2757 30.8451 18.7169 30.8451 22.957C30.8451 27.1971 27.4039 30.6384 23.1638 30.6384Z" fill="black"/>
<path d="M35.4085 13.4128C36.934 13.4128 38.1706 12.1762 38.1706 10.6507C38.1706 9.12528 36.934 7.88867 35.4085 7.88867C33.8831 7.88867 32.6465 9.12528 32.6465 10.6507C32.6465 12.1762 33.8831 13.4128 35.4085 13.4128Z" fill="black"/>
</svg>
