<svg width="581" height="692" viewBox="0 0 581 692" fill="none" xmlns="http://www.w3.org/2000/svg">
<path d="M326.991 691.765H0V444.317H230.506V445.798H1.48097V690.284H325.51V445.798H303.681V444.317H326.991V691.765Z" fill="white"/>
<path d="M232.342 290.059H167.55V0H505.315V1.48083H169.031V288.578H232.342V290.059Z" fill="white"/>
<path d="M580.26 288.578H306.184V290.059H580.26V288.578Z" fill="white"/>
<path d="M297.92 209.442H268.367V75.708H269.848V207.961H297.92V209.442Z" fill="white"/>
<path d="M95.3746 626.994H93.8936V546.747H65.3701V545.267H95.3746V626.994Z" fill="white"/>
<path d="M1.48097 629.149H0V545.267H30.1822V546.747H1.48097V629.149Z" fill="white"/>
<path d="M56.0249 658.787H54.5439V691.025H56.0249V658.787Z" fill="white"/>
<path d="M67.4136 658.787H65.9326V691.025H67.4136V658.787Z" fill="white"/>
<path d="M78.7954 658.787H77.3145V691.025H78.7954V658.787Z" fill="white"/>
<path d="M90.1841 658.787H88.7031V691.025H90.1841V658.787Z" fill="white"/>
<path d="M101.565 658.787H100.084V691.025H101.565V658.787Z" fill="white"/>
<path d="M112.954 658.787H111.473V691.025H112.954V658.787Z" fill="white"/>
<path d="M124.342 658.787H122.861V691.025H124.342V658.787Z" fill="white"/>
<path d="M135.724 658.787H134.243V691.025H135.724V658.787Z" fill="white"/>
<path d="M147.112 658.787H145.631V691.025H147.112V658.787Z" fill="white"/>
<path d="M49.8277 626.498H48.3467V658.736H49.8277V626.498Z" fill="white"/>
<path d="M61.2163 626.498H59.7354V658.736H61.2163V626.498Z" fill="white"/>
<path d="M72.5972 626.498H71.1162V658.736H72.5972V626.498Z" fill="white"/>
<path d="M83.9859 626.498H82.5049V658.736H83.9859V626.498Z" fill="white"/>
<path d="M95.3745 626.498H93.8936V658.736H95.3745V626.498Z" fill="white"/>
<path d="M106.755 626.498H105.274V658.736H106.755V626.498Z" fill="white"/>
<path d="M118.144 626.498H116.663V658.736H118.144V626.498Z" fill="white"/>
<path d="M129.526 626.498H128.045V658.736H129.526V626.498Z" fill="white"/>
<path d="M140.915 626.498H139.434V658.736H140.915V626.498Z" fill="white"/>
<path d="M194.03 543.808V545.215C192.416 545.118 178.82 545.118 177.206 545.215V543.808C177.954 543.867 181.271 543.882 184.789 543.882V542.845C182.227 542.727 180.338 542.053 180.338 540.75C180.338 539.365 182.649 538.632 185.611 538.632C188.573 538.632 190.883 539.365 190.883 540.75C190.883 542.06 188.98 542.734 186.418 542.845V543.882C189.942 543.882 193.275 543.86 194.022 543.808H194.03ZM192.467 537.973C190.794 537.914 180.435 537.914 178.761 537.973V536.663C180.435 536.737 190.794 536.737 192.467 536.663V537.973ZM191.638 548.561C191.638 550.22 189.269 551.005 185.611 551.005C181.953 551.005 179.583 550.212 179.583 548.561C179.583 546.999 181.953 546.192 185.611 546.192C189.269 546.192 191.638 546.999 191.638 548.561ZM189.831 548.524C189.831 547.828 188.313 547.429 185.618 547.429C182.923 547.429 181.405 547.836 181.405 548.524C181.405 549.213 182.923 549.657 185.618 549.657C188.313 549.657 189.831 549.213 189.831 548.524ZM189.217 535.841C188.313 535.782 182.923 535.782 182.034 535.841V534.516C182.923 534.575 188.313 534.575 189.217 534.516V535.841ZM185.618 541.653C187.506 541.653 189.106 541.387 189.106 540.713C189.106 540.039 187.506 539.787 185.618 539.787C183.73 539.787 182.13 540.039 182.13 540.713C182.13 541.387 183.73 541.653 185.618 541.653Z" fill="white"/>
<path d="M196.073 542.519C197.688 542.615 211.283 542.615 212.904 542.519V544.037C212.171 544 209.017 543.978 205.626 543.978C205.603 545.014 205.603 546.939 205.648 547.384H203.937C203.974 546.939 203.974 545.014 203.959 543.978C200.338 543.978 196.858 544 196.088 544.037V542.519H196.073ZM199.998 545.947C199.961 546.451 199.961 548.006 199.961 548.835C202.056 548.835 210.224 548.798 211.32 548.761V550.36C209.802 550.286 199.709 550.286 198.191 550.36C198.25 549.805 198.25 546.51 198.191 545.955H199.998V545.947ZM198.361 541.112C198.421 540.461 198.421 535.796 198.361 535.182C199.842 535.241 209.121 535.241 210.609 535.182C210.55 535.796 210.55 540.453 210.609 541.112C209.128 541.075 199.85 541.075 198.361 541.112ZM200.072 536.648V539.691H208.891V536.648H200.072Z" fill="white"/>
<path d="M226.374 544.178C223.605 544.504 219.273 544.778 215.037 544.83L214.919 543.386C216.015 543.408 217.444 543.386 218.94 543.327C218.94 542.135 218.881 539.632 218.844 539.114H220.554C220.517 539.617 220.48 542.039 220.495 543.275C222.687 543.157 224.886 543.008 226.367 542.831V544.178H226.374ZM223.235 541.653C223.427 540.269 223.56 538.536 223.583 537.344C222.931 537.344 217.192 537.366 216.481 537.404V535.886C217.326 535.945 223.953 535.908 225.182 535.863C225.182 537.885 224.99 540.173 224.819 541.661H223.242L223.235 541.653ZM220.517 546.155C220.495 546.54 220.48 548.058 220.48 549.006C222.427 548.984 229.743 548.947 230.491 548.887V550.502C229.144 550.464 220.154 550.464 218.806 550.502C218.844 549.924 218.844 546.725 218.806 546.148H220.517V546.155ZM232.009 540.498V542.098C231.565 542.076 230.18 542.061 229.41 542.061C229.41 544.312 229.432 546.259 229.469 546.622H227.737C227.811 545.733 227.811 535.241 227.737 534.36H229.469C229.432 534.805 229.41 537.707 229.41 540.595C230.203 540.572 231.587 540.535 232.009 540.498Z" fill="white"/>
<path d="M143.18 566.731H137.456V573.106H135.612V559.297H137.456V565.146H143.18V559.297H145.024V573.106H143.18V566.731Z" fill="white"/>
<path d="M147.364 567.96C147.364 564.65 149.097 562.48 152.14 562.48C155.184 562.48 156.961 564.628 156.961 567.96C156.961 571.291 155.184 573.394 152.14 573.394C149.097 573.394 147.364 571.314 147.364 567.96ZM155.125 567.96C155.125 565.398 154.14 563.924 152.14 563.924C150.141 563.924 149.156 565.412 149.156 567.96C149.156 570.507 150.186 571.95 152.14 571.95C154.095 571.95 155.125 570.462 155.125 567.96Z" fill="white"/>
<path d="M168.231 573.113H166.409V567.242C166.409 565.309 166.061 564.043 164.084 564.043C162.418 564.043 161.522 565.361 161.522 566.938V573.121H159.7V562.688H161.455V564.399H161.5C161.87 563.592 162.855 562.488 164.765 562.488C167.135 562.488 168.231 563.873 168.231 566.59V573.121V573.113Z" fill="white"/>
<path d="M178.465 572.387C178.465 571.928 178.487 571.447 178.531 571.047H178.465C178.05 571.906 177.102 572.913 175.288 572.913C172.637 572.913 170.993 570.966 170.993 567.737C170.993 564.509 172.637 562.48 175.288 562.48C176.976 562.48 177.917 563.332 178.487 564.235H178.531C178.487 563.932 178.487 563.362 178.487 563.095V562.68H180.264V572.587C180.264 576.178 178.865 577.452 175.577 577.452C172.467 577.452 171.304 576.03 171.193 573.942L172.926 573.72C173.015 575.016 173.674 576.023 175.577 576.023C177.835 576.023 178.472 574.927 178.472 572.846V572.387H178.465ZM175.68 564.058C173.792 564.058 172.785 565.375 172.785 567.693C172.785 570.011 173.859 571.373 175.68 571.373C177.502 571.373 178.576 570.077 178.576 567.671C178.576 565.39 177.48 564.058 175.68 564.058Z" fill="white"/>
<path d="M188.194 563.969H188.261C188.564 563.199 189.112 562.48 190.341 562.48C191.741 562.48 192.4 563.421 192.4 565.398V573.113H190.823V565.923C190.823 564.605 190.497 563.998 189.705 563.998C188.609 563.998 188.431 564.916 188.431 566.538V573.113H186.943V565.923C186.943 564.628 186.72 563.998 185.825 563.998C184.729 563.998 184.551 564.939 184.551 566.538V573.113H182.974V562.68H184.44V563.095C184.44 563.362 184.418 563.643 184.418 563.902H184.484C184.729 563.11 185.314 562.48 186.417 562.48C187.52 562.48 187.994 563.051 188.194 563.969Z" fill="white"/>
<path d="M195.251 562.68H197.073V568.618C197.073 570.544 197.376 571.817 199.353 571.817C201.019 571.817 201.893 570.499 201.893 568.922V562.673H203.715V573.105H201.96V571.439H201.915C201.545 572.254 200.575 573.35 198.672 573.35C196.302 573.35 195.251 571.965 195.251 569.248V562.673V562.68Z" fill="white"/>
<path d="M215.393 573.113H213.571V567.242C213.571 565.309 213.223 564.043 211.246 564.043C209.58 564.043 208.684 565.361 208.684 566.938V573.121H206.862V562.688H208.617V564.399H208.662C209.032 563.592 210.017 562.488 211.927 562.488C214.297 562.488 215.393 563.873 215.393 566.59V573.121V573.113Z" fill="white"/>
<path d="M234.215 571.884C236.541 571.884 237.414 570.285 237.414 567.412H233.734V565.924H239.08V573.114H237.548V572.588C237.548 572.284 237.57 571.951 237.592 571.537H237.57C236.866 572.61 235.904 573.402 233.993 573.402C230.75 573.402 228.78 571.033 228.78 566.257C228.78 561.482 230.691 559.023 234.238 559.023C237.044 559.023 238.532 560.623 239.058 562.859L237.281 563.17C236.844 561.615 235.896 560.586 234.193 560.586C231.757 560.586 230.661 562.511 230.661 566.198C230.661 569.885 231.801 571.899 234.208 571.899L234.215 571.884Z" fill="white"/>
<path d="M240.087 562.681H241.754L242.783 567.812C243.005 568.93 243.22 570.159 243.397 571.188H243.486C243.686 570.159 243.945 568.797 244.168 567.745L245.263 562.681H246.796L247.914 567.634C248.181 568.841 248.396 569.803 248.64 571.144H248.729C248.884 570.048 249.099 569.041 249.388 567.634L250.351 562.681H251.972L249.603 573.113H247.848L246.641 567.834C246.419 566.827 246.226 565.665 246.071 564.635H245.982C245.804 565.62 245.7 566.546 245.367 567.923L244.182 573.121H242.405L240.08 562.688L240.087 562.681Z" fill="white"/>
<path d="M262.687 573.158C262.465 573.224 262.095 573.269 261.614 573.269C260.518 573.269 260.036 572.765 259.925 571.884H259.881C259.355 572.521 258.481 573.35 256.571 573.35C254.423 573.35 252.979 572.255 252.979 570.285C252.979 568.116 254.668 567.39 257.297 566.953L258.237 566.798C259.488 566.598 259.792 566.531 259.792 565.813V565.724C259.792 564.606 259.177 563.947 257.556 563.947C255.934 563.947 255.142 564.762 255.12 566.072L253.342 565.961C253.365 563.569 255.186 562.474 257.615 562.474C259.807 562.474 261.562 563.155 261.562 565.65V570.907C261.562 571.655 261.762 571.958 262.354 571.958C262.465 571.958 262.598 571.958 262.68 571.936V573.143L262.687 573.158ZM259.792 567.723C259.592 567.901 259.2 568.027 258.585 568.138L257.141 568.419C255.742 568.701 254.883 569.145 254.883 570.196C254.883 571.336 255.697 571.951 257.052 571.951C258.541 571.951 259.792 571.055 259.792 569.367V567.723Z" fill="white"/>
<path d="M273.61 573.113H271.788V567.242C271.788 565.309 271.44 564.043 269.463 564.043C267.797 564.043 266.901 565.361 266.901 566.938V573.121H265.079V562.688H266.834V564.399H266.878C267.249 563.592 268.234 562.488 270.144 562.488C272.514 562.488 273.61 563.873 273.61 566.59V573.121V573.113Z" fill="white"/>
<path d="M393.295 358.762C392.547 358.725 389.251 358.703 385.764 358.703C385.727 360.399 385.727 364.227 385.786 364.9H383.957C384.016 364.227 384.016 360.399 383.979 358.703C380.492 358.703 377.219 358.725 376.471 358.762V357.185C378.085 357.245 391.68 357.245 393.295 357.185V358.762ZM377.352 353.987C379.877 353.913 382.913 352.565 383.839 350.773C381.217 350.773 378.811 350.796 378.277 350.81V349.248C379.507 349.322 390.251 349.322 391.488 349.248V350.81C390.932 350.788 388.481 350.773 385.83 350.773C385.83 350.773 385.823 350.786 385.808 350.81C386.652 352.424 389.348 353.72 392.332 353.89L391.392 355.505C388.252 354.794 386.134 353.75 384.846 352.269C383.172 354.253 380.477 355.253 378.337 355.66L377.352 353.987Z" fill="white"/>
<path d="M405.979 360.576L404.764 361.997C402.743 360.435 401.565 358.784 400.936 357.222C400.107 359.125 398.663 360.761 396.641 362.227L395.464 360.687C398.218 359.458 399.87 356.8 400.144 354.297C398.256 354.297 396.523 354.297 396.078 354.319V352.779C397.078 352.838 404.683 352.838 405.683 352.779V354.319C405.238 354.297 403.543 354.297 401.699 354.297C401.699 354.334 401.699 354.371 401.677 354.416C401.943 357.051 403.217 359.191 405.971 360.576H405.979ZM404.076 350.913C403.172 350.876 398.529 350.876 397.648 350.913V349.373C398.537 349.433 403.172 349.433 404.076 349.373V350.913ZM412.414 357.436C411.969 357.414 410.644 357.399 409.852 357.399C409.852 360.998 409.874 364.389 409.911 364.907H408.119C408.193 363.789 408.193 349.425 408.119 348.314H409.911C409.874 348.833 409.852 352.283 409.852 355.896C410.644 355.874 411.992 355.837 412.414 355.8V357.436Z" fill="white"/>
<path d="M415.146 358.266L414.109 356.763C416.731 355.896 418.656 353.623 419.041 351.276C417.153 351.276 415.42 351.276 414.976 351.298V349.795C415.975 349.855 423.521 349.855 424.528 349.795V351.298C424.106 351.276 422.432 351.276 420.618 351.276L420.559 351.543C420.774 353.409 422.558 355.467 424.817 356.318L423.736 357.644C421.87 356.429 420.581 355.104 419.848 353.66C418.848 355.622 417.094 357.125 415.153 358.258L415.146 358.266ZM429.067 362.02C429.067 363.945 426.49 364.966 422.929 364.966C419.367 364.966 416.79 363.945 416.79 362.02C416.79 360.094 419.367 359.095 422.929 359.095C426.49 359.095 429.067 360.176 429.067 362.02ZM427.297 361.997C427.297 361.094 425.468 360.494 422.929 360.494C420.389 360.494 418.56 361.094 418.56 361.997C418.56 362.901 420.389 363.463 422.929 363.463C425.468 363.463 427.297 362.908 427.297 361.997ZM431.281 353.49V355.089C430.822 355.067 429.474 355.052 428.682 355.052C428.704 356.785 428.704 358.251 428.741 358.54H427.031C427.105 357.77 427.105 349.084 427.031 348.314H428.741C428.704 348.699 428.682 351.165 428.682 353.586C429.474 353.564 430.837 353.527 431.281 353.49Z" fill="white"/>
<path d="M344.852 374.533C346.584 374.533 347.68 374.859 348.487 375.518C349.302 376.199 349.717 377.228 349.717 378.561C349.717 379.893 349.169 380.997 348.295 381.693C347.31 382.485 346.125 382.589 344.259 382.589H342.112V388.334H340.312V374.525H344.852V374.533ZM345.029 376.065H342.112V381.063H344.963C346.977 381.063 347.88 380.167 347.88 378.546C347.88 376.924 347.066 376.073 345.029 376.073V376.065Z" fill="white"/>
<path d="M361.506 388.386C361.283 388.453 360.913 388.497 360.432 388.497C359.336 388.497 358.855 387.994 358.744 387.113H358.699C358.173 387.75 357.3 388.579 355.389 388.579C353.242 388.579 351.798 387.483 351.798 385.514C351.798 383.344 353.486 382.619 356.115 382.182L357.055 382.026C358.307 381.826 358.61 381.76 358.61 381.041V380.953C358.61 379.835 357.996 379.176 356.374 379.176C354.752 379.176 353.96 379.99 353.938 381.301L352.161 381.189C352.183 378.798 354.004 377.702 356.433 377.702C358.625 377.702 360.38 378.383 360.38 380.879V386.135C360.38 386.883 360.58 387.187 361.172 387.187C361.283 387.187 361.417 387.187 361.498 387.165V388.372L361.506 388.386ZM358.61 382.952C358.41 383.129 358.018 383.255 357.403 383.366L355.959 383.648C354.56 383.929 353.701 384.373 353.701 385.425C353.701 386.565 354.515 387.179 355.871 387.179C357.359 387.179 358.61 386.284 358.61 384.595V382.952Z" fill="white"/>
<path d="M373.124 379.723C372.709 379.634 372.05 379.501 371.147 379.501C369.347 379.501 368.273 379.938 367.659 380.819C367.133 381.567 366.955 382.618 366.955 383.951V388.334H365.134V377.902H366.911V378.842C366.911 379.168 366.889 379.893 366.889 380.286H366.911C367.415 378.931 368.666 377.783 371.339 377.783C372.065 377.783 372.761 377.872 373.116 377.939V379.716L373.124 379.723Z" fill="white"/>
<path d="M385.816 388.343H383.602L380.055 383.041L378.255 384.796V388.35H376.456V373.445H378.255V382.849L383.12 377.917H385.468L381.343 381.886L385.816 388.35V388.343Z" fill="white"/>
<path d="M387.371 377.91H394.45V388.342H392.606V379.531H387.363V377.91H387.371ZM394.494 376.066H392.213V373.438H394.494V376.066Z" fill="white"/>
<path d="M408.149 388.342H406.327V382.47C406.327 380.538 405.979 379.272 404.002 379.272C402.336 379.272 401.44 380.59 401.44 382.167V388.349H399.618V377.917H401.373V379.627H401.418C401.788 378.82 402.773 377.717 404.683 377.717C407.053 377.717 408.149 379.101 408.149 381.819V388.349V388.342Z" fill="white"/>
<path d="M418.382 387.617C418.382 387.158 418.404 386.676 418.448 386.277H418.382C417.967 387.135 417.027 388.142 415.205 388.142C412.554 388.142 410.91 386.195 410.91 382.967C410.91 379.739 412.554 377.71 415.205 377.71C416.893 377.71 417.834 378.561 418.404 379.465H418.448C418.404 379.161 418.404 378.591 418.404 378.325V377.91H420.181V387.817C420.181 391.408 418.782 392.681 415.494 392.681C412.384 392.681 411.221 391.26 411.11 389.172L412.843 388.95C412.932 390.245 413.591 391.252 415.494 391.252C417.752 391.252 418.389 390.156 418.389 388.076V387.617H418.382ZM415.597 379.287C413.709 379.287 412.702 380.605 412.702 382.923C412.702 385.24 413.776 386.602 415.597 386.602C417.419 386.602 418.493 385.307 418.493 382.9C418.493 380.62 417.397 379.287 415.597 379.287Z" fill="white"/>
<path d="M437.301 374.533V386.787H444.247V388.342H435.479V374.533H437.301Z" fill="white"/>
<path d="M446.461 383.189C446.461 379.879 448.194 377.71 451.237 377.71C454.28 377.71 456.058 379.857 456.058 383.189C456.058 386.521 454.28 388.624 451.237 388.624C448.194 388.624 446.461 386.543 446.461 383.189ZM454.221 383.189C454.221 380.627 453.236 379.154 451.237 379.154C449.238 379.154 448.253 380.642 448.253 383.189C448.253 385.736 449.282 387.18 451.237 387.18C453.192 387.18 454.221 385.692 454.221 383.189Z" fill="white"/>
<path d="M463.093 379.487V385.055C463.093 386.743 463.796 387.046 465.373 387.046C466.247 387.046 466.995 386.935 467.432 386.846V388.335C466.839 388.468 465.943 388.557 465.062 388.557C462.345 388.557 461.271 388.076 461.271 384.855V379.487H457.694V377.91H461.271V374.444L463.093 374.163V377.91H467.432V379.487H463.093Z" fill="white"/>
<path d="M72.6638 57.0497C78.684 58.4935 82.0532 62.9064 82.0532 69.4073C82.0532 78.159 76.5144 83.6159 65.7551 83.6159H46.8135V33.0527H65.1923C74.8261 33.0527 80.5278 36.9844 80.5278 45.6547C80.5278 51.6743 77.1586 55.4504 72.6638 56.8942V57.0571V57.0497ZM64.0742 54.7248C70.8941 54.7248 73.8708 51.6742 73.8708 46.5357C73.8708 41.3972 71.1384 38.6725 64.4815 38.6725H53.3223V54.7248H64.0816H64.0742ZM64.8739 78.085C71.3754 78.085 75.3074 75.4343 75.3074 69.1777C75.3074 62.9212 71.6938 60.352 64.7925 60.352H53.3149V78.0924H64.8739V78.085Z" fill="white"/>
<path d="M116.811 83.6159H110.31V71.1769H87.8359V65.6385L109.591 33.0527H116.819V65.72H125.653V71.1769H116.819V83.6159H116.811ZM93.9375 65.794C96.5885 65.7126 99.232 65.7126 102.127 65.7126H110.473V50.223C110.473 46.6912 110.635 42.5967 110.791 40.1904H110.554C109.029 42.7596 106.778 46.21 104.371 49.9861L100.276 56.1686C97.7881 60.1002 95.6999 63.0693 93.9375 65.72V65.8014V65.794Z" fill="white"/>
<path d="M152.155 658.032H1.08105V659.513H152.155V658.032Z" fill="white"/>
<path d="M152.155 625.809H1.08105V627.289H152.155V625.809Z" fill="white"/>
<path d="M397.982 86.7325C399.033 86.7991 405.875 86.7991 407.053 86.7325C406.69 91.5452 404.787 96.2098 398.278 100.001L396.975 98.0757C402.128 96.1062 404.594 91.9376 404.979 88.465C403.846 88.4206 399.033 88.4206 397.982 88.5095V86.7325ZM415.961 94.3069C415.465 94.2847 413.991 94.2625 413.117 94.2625C413.117 98.3718 413.139 102.311 413.184 102.911H411.192C411.281 101.667 411.281 85.7033 411.192 84.4668H413.184C413.139 85.0443 413.117 88.6798 413.117 92.5966C413.991 92.5744 415.494 92.5299 415.961 92.4929V94.3144V94.3069Z" fill="white"/>
<path d="M428.556 94.3297C427.061 94.4334 421.255 94.9295 418.797 95.1442C418.864 94.1372 418.864 90.4351 418.797 89.1986C419.996 89.2431 424.128 89.2431 425.75 89.2208V87.1847C424.099 87.1625 419.996 87.1403 418.819 87.2069V85.5188C420.426 85.6224 425.861 85.6224 427.572 85.5188C427.505 86.696 427.505 89.6281 427.572 90.7831C426.246 90.7165 422.714 90.6943 420.618 90.7387V93.4338C423.099 93.2857 427.401 92.8785 428.556 92.7526V94.3371V94.3297ZM434.103 96.6176C434.058 97.2988 434.058 102.2 434.103 103.104H432.303L432.089 102.378C430.808 102.334 424.402 102.334 423.099 102.378L422.884 103.104H421.085C421.129 102.208 421.129 97.3062 421.085 96.6176C423.032 96.6843 432.148 96.6843 434.095 96.6176H434.103ZM432.281 100.808V98.0244H422.907V100.808H432.281ZM436.924 89.8502V91.6272C436.413 91.605 434.888 91.5828 434.014 91.5828C434.036 93.4412 434.036 95.0035 434.08 95.3293H432.2C432.289 94.4926 432.289 85.2966 432.2 84.46H434.08C434.036 84.8894 434.014 87.4364 434.014 89.9613C434.888 89.939 436.413 89.8946 436.924 89.8576V89.8502Z" fill="white"/>
<path d="M457.621 94.285V95.7806C455.821 95.6547 440.715 95.6547 438.916 95.7806V94.285C439.753 94.3516 443.433 94.3738 447.35 94.3738V93.3891C444.462 93.2854 442.344 92.619 442.344 91.3159C442.344 89.9017 444.936 89.1761 448.276 89.1761C451.615 89.1761 454.207 89.9017 454.207 91.3159C454.207 92.619 452.067 93.2854 449.179 93.3891V94.3738C453.096 94.3738 456.799 94.3516 457.636 94.285H457.621ZM455.888 88.4208C454.029 88.3542 442.515 88.3542 440.649 88.4208V86.9844C442.507 87.0733 454.022 87.0733 455.888 86.9844V88.4208ZM443.389 101.541C445.869 101.541 454.089 101.541 455.547 101.497V103.037C453.792 102.97 443.389 102.97 441.634 103.037C441.7 102.267 441.7 99.9121 441.634 99.1421C442.981 99.2087 450.749 99.1865 453.148 99.1865V98.1129C450.749 98.0907 442.981 98.0907 441.634 98.1351V96.8098C443.389 96.8764 453.148 96.8764 454.903 96.8098C454.836 97.5798 454.836 99.6974 454.903 100.467C453.533 100.401 445.788 100.423 443.389 100.423V101.534V101.541ZM452.267 86.1552C451.26 86.0885 445.269 86.0885 444.285 86.1552V84.7188C445.269 84.7854 451.26 84.7854 452.267 84.7188V86.1552ZM448.268 92.1007C450.364 92.1007 452.208 91.886 452.208 91.2418C452.208 90.5977 450.364 90.383 448.268 90.383C446.173 90.383 444.329 90.5755 444.329 91.2418C444.329 91.9082 446.165 92.1007 448.268 92.1007Z" fill="white"/>
<path d="M368.932 124.761C371.517 124.761 372.487 122.984 372.487 119.793H368.392V118.134H374.338V126.123H372.635V125.538C372.635 125.198 372.657 124.835 372.687 124.369H372.664C371.887 125.561 370.813 126.442 368.695 126.442C365.089 126.442 362.897 123.813 362.897 118.497C362.897 113.181 365.015 110.456 368.962 110.456C372.079 110.456 373.738 112.233 374.323 114.721L372.346 115.061C371.857 113.329 370.813 112.189 368.91 112.189C366.207 112.189 364.986 114.336 364.986 118.423C364.986 122.51 366.252 124.761 368.932 124.761Z" fill="white"/>
<path d="M387.422 126.167C387.178 126.241 386.763 126.286 386.23 126.286C385.016 126.286 384.475 125.723 384.357 124.753H384.305C383.72 125.456 382.742 126.382 380.625 126.382C378.24 126.382 376.626 125.16 376.626 122.969C376.626 120.555 378.499 119.755 381.424 119.266L382.468 119.096C383.861 118.874 384.201 118.8 384.201 118V117.904C384.201 116.66 383.52 115.935 381.713 115.935C379.906 115.935 379.033 116.838 379.01 118.297L377.041 118.178C377.063 115.52 379.084 114.306 381.795 114.306C384.231 114.306 386.178 115.061 386.178 117.837V123.687C386.178 124.516 386.4 124.857 387.052 124.857C387.171 124.857 387.319 124.857 387.415 124.834V126.175L387.422 126.167ZM384.209 120.125C383.986 120.318 383.55 120.466 382.868 120.592L381.261 120.91C379.699 121.229 378.751 121.717 378.751 122.887C378.751 124.153 379.655 124.834 381.165 124.834C382.824 124.834 384.209 123.835 384.209 121.962V120.133V120.125Z" fill="white"/>
<path d="M400.336 116.55C399.87 116.453 399.144 116.305 398.144 116.305C396.145 116.305 394.953 116.794 394.272 117.764C393.687 118.593 393.494 119.763 393.494 121.251V126.123H391.473V114.528H393.442V115.572C393.442 115.935 393.42 116.742 393.42 117.179H393.442C394.005 115.668 395.39 114.402 398.367 114.402C399.174 114.402 399.951 114.499 400.344 114.573V116.542L400.336 116.55Z" fill="white"/>
<path d="M413.739 126.167C413.494 126.241 413.08 126.286 412.547 126.286C411.332 126.286 410.792 125.723 410.673 124.753H410.621C410.036 125.456 409.059 126.382 406.941 126.382C404.557 126.382 402.942 125.16 402.942 122.969C402.942 120.555 404.816 119.755 407.741 119.266L408.785 119.096C410.177 118.874 410.518 118.8 410.518 118V117.904C410.518 116.66 409.836 115.935 408.03 115.935C406.223 115.935 405.349 116.838 405.327 118.297L403.357 118.178C403.379 115.52 405.401 114.306 408.111 114.306C410.547 114.306 412.495 115.061 412.495 117.837V123.687C412.495 124.516 412.717 124.857 413.368 124.857C413.487 124.857 413.635 124.857 413.731 124.834V126.175L413.739 126.167ZM410.525 120.125C410.303 120.318 409.866 120.466 409.185 120.592L407.578 120.91C406.015 121.229 405.068 121.717 405.068 122.887C405.068 124.153 405.971 124.834 407.482 124.834C409.14 124.834 410.525 123.835 410.525 121.962V120.133V120.125Z" fill="white"/>
<path d="M421.996 115.964H422.07C422.411 115.113 423.018 114.306 424.388 114.306C425.95 114.306 426.676 115.35 426.676 117.549V126.123H424.921V118.134C424.921 116.675 424.558 115.986 423.677 115.986C422.462 115.986 422.262 117.008 422.262 118.815V126.123H420.604V118.134C420.604 116.697 420.359 115.986 419.36 115.986C418.145 115.986 417.945 117.03 417.945 118.815V126.123H416.19V114.528H417.82V114.994C417.82 115.29 417.797 115.601 417.797 115.898H417.871C418.138 115.024 418.797 114.313 420.019 114.313C421.241 114.313 421.774 114.95 421.988 115.972L421.996 115.964Z" fill="white"/>
<path d="M450.889 119.03H444.528V126.123H442.484V110.774H444.528V117.283H450.889V110.774H452.933V126.123H450.889V119.03Z" fill="white"/>
<path d="M466.358 126.167C466.113 126.241 465.699 126.286 465.166 126.286C463.951 126.286 463.411 125.723 463.292 124.753H463.24C462.655 125.456 461.678 126.382 459.56 126.382C457.176 126.382 455.562 125.16 455.562 122.969C455.562 120.555 457.435 119.755 460.36 119.266L461.404 119.096C462.796 118.874 463.137 118.8 463.137 118V117.904C463.137 116.66 462.455 115.935 460.649 115.935C458.842 115.935 457.968 116.838 457.946 118.297L455.976 118.178C455.998 115.52 458.02 114.306 460.73 114.306C463.166 114.306 465.114 115.061 465.114 117.837V123.687C465.114 124.516 465.336 124.857 465.988 124.857C466.106 124.857 466.254 124.857 466.35 124.834V126.175L466.358 126.167ZM463.144 120.125C462.922 120.318 462.485 120.466 461.804 120.592L460.197 120.91C458.635 121.229 457.687 121.717 457.687 122.887C457.687 124.153 458.59 124.834 460.101 124.834C461.759 124.834 463.144 123.835 463.144 121.962V120.133V120.125Z" fill="white"/>
<path d="M468.816 109.552H475.103V124.413H479.242V126.115H468.816V124.413H473.082V111.278H468.816V109.545V109.552Z" fill="white"/>
<path d="M481.975 109.552H488.261V124.413H492.401V126.115H481.975V124.413H486.24V111.278H481.975V109.545V109.552Z" fill="white"/>
<path d="M514.956 691.765H0V0H581V691.025H579.519V1.48083H1.48097V690.284H514.956V691.765Z" fill="white"/>
<path d="M269.848 0.740234H268.367V39.2864H269.848V0.740234Z" fill="white"/>
<path d="M224.212 101.43H222.731V74.4271H168.29V72.9463H224.212V101.43Z" fill="white"/>
<path d="M224.212 187.193H168.29V185.712H222.731V157.473H224.212V187.193Z" fill="white"/>
<path d="M223.471 128.707H168.29V130.188H223.471V128.707Z" fill="white"/>
<path d="M60.9934 571.381H36.002V596.37H60.9934V571.381Z" fill="white"/>
<path d="M47.784 578.859H40.8086V592.653H47.784V578.859Z" fill="#231916"/>
<path d="M56.1805 578.859H49.2051V592.653H56.1805V578.859Z" fill="#231916"/>
<path d="M52.6635 577.43C52.545 577.43 52.4191 577.393 52.3228 577.312L50.1384 575.586C49.8941 575.394 49.857 575.046 50.0496 574.809C50.2421 574.572 50.5901 574.528 50.8271 574.72L52.6635 576.171L54.5665 574.668C54.8109 574.476 55.1589 574.52 55.344 574.757C55.5291 574.994 55.4921 575.35 55.2552 575.535L53.0041 577.312C52.9004 577.393 52.7819 577.43 52.6635 577.43Z" fill="#231916"/>
<path d="M42.0818 577.43C41.9189 577.43 41.756 577.356 41.6449 577.215C41.4524 576.971 41.4968 576.623 41.7338 576.438L43.9848 574.661C44.1848 574.505 44.4736 574.505 44.6735 574.661L46.8579 576.386C47.1023 576.578 47.1393 576.926 46.9468 577.163C46.7543 577.4 46.4062 577.445 46.1693 577.252L44.3329 575.801L42.4298 577.304C42.3261 577.385 42.2077 577.422 42.0892 577.422L42.0818 577.43Z" fill="#231916"/>
<path d="M504.789 207.961H334.84V209.442H504.789V207.961Z" fill="white"/>
<path d="M580.26 207.961H541.71V209.442H580.26V207.961Z" fill="white"/>
<path d="M193.126 92.96H198.636C199.087 92.96 199.524 93.071 199.768 93.4709C199.939 93.7004 202.353 100.69 202.671 101.615C202.856 102.126 202.612 102.8 201.99 103.052C201.405 103.281 200.709 102.993 200.465 102.282L199.183 98.6464C199.146 98.5501 199.035 98.328 198.828 98.402C198.658 98.4613 198.621 98.6094 198.68 98.7574C198.739 98.9277 200.324 103.392 200.813 104.888C201.042 105.569 200.472 106.058 199.961 106.058H199.109V112.203C199.109 113.277 198.28 113.677 197.636 113.677C196.992 113.677 196.333 113.284 196.333 112.203V106.621C196.333 106.354 196.199 106.058 195.881 106.058C195.563 106.058 195.429 106.362 195.429 106.621V112.203C195.429 113.277 194.77 113.677 194.126 113.677C193.482 113.677 192.652 113.284 192.652 112.203V106.058H191.801C191.29 106.058 190.727 105.569 190.949 104.888C191.438 103.4 193.023 98.9277 193.082 98.7574C193.141 98.6094 193.104 98.4539 192.934 98.402C192.726 98.328 192.615 98.5501 192.578 98.6464L191.297 102.282C191.053 103 190.357 103.281 189.772 103.052C189.15 102.808 188.906 102.126 189.091 101.615C189.409 100.69 191.823 93.7004 191.993 93.4709C192.238 93.0784 192.675 92.96 193.126 92.96Z" fill="white"/>
<path d="M195.881 91.9378C197.361 91.9378 198.561 90.7378 198.561 89.2575C198.561 87.7772 197.361 86.5771 195.881 86.5771C194.4 86.5771 193.2 87.7772 193.2 89.2575C193.2 90.7378 194.4 91.9378 195.881 91.9378Z" fill="white"/>
<path d="M192.289 150.379H199.472C201.13 150.379 202.019 151.32 202.019 152.319V160.012C202.019 160.656 201.508 161.16 200.871 161.16C200.234 161.16 199.723 160.649 199.723 160.012V155.488C199.723 155.377 199.664 155.244 199.516 155.244C199.368 155.244 199.309 155.377 199.309 156.103V170.134C199.309 170.593 198.457 170.985 197.872 170.985C197.176 170.985 196.347 170.593 196.347 169.512V162.87C196.347 162.53 196.176 162.359 195.895 162.359C195.628 162.359 195.421 162.53 195.421 162.87V169.512C195.421 170.585 194.592 170.985 193.896 170.985C193.311 170.985 192.459 170.593 192.459 169.512V155.481C192.459 155.37 192.4 155.237 192.252 155.237C192.104 155.237 192.045 155.37 192.045 155.481V160.005C192.045 160.649 191.534 161.153 190.897 161.153C190.26 161.153 189.749 160.642 189.749 160.005V152.312C189.749 151.312 190.638 150.372 192.296 150.372L192.289 150.379Z" fill="white"/>
<path d="M195.881 149.313C197.361 149.313 198.561 148.113 198.561 146.632C198.561 145.152 197.361 143.952 195.881 143.952C194.4 143.952 193.2 145.152 193.2 146.632C193.2 148.113 194.4 149.313 195.881 149.313Z" fill="white"/>
<path d="M204.611 518.389C203.796 518.389 203.13 517.722 203.13 516.908V476.903C203.13 476.089 203.796 475.422 204.611 475.422H265.612V245.567C265.612 244.752 266.279 244.086 267.093 244.086C267.908 244.086 268.574 244.752 268.574 245.567V476.903C268.574 477.717 267.908 478.384 267.093 478.384H206.092V516.908C206.092 517.722 205.425 518.389 204.611 518.389Z" fill="white"/>
<path d="M267.094 252.453C270.897 252.453 273.98 249.37 273.98 245.568C273.98 241.765 270.897 238.682 267.094 238.682C263.29 238.682 260.207 241.765 260.207 245.568C260.207 249.37 263.29 252.453 267.094 252.453Z" fill="white"/>
</svg>
