<?xml version="1.0" encoding="UTF-8"?><svg id="Layer_1" xmlns="http://www.w3.org/2000/svg" viewBox="0 0 784.62 934.29"><defs><style>.cls-1{fill:#dee6ec;stroke-width:0px;}</style></defs><polygon class="cls-1" points="441.59 934.29 0 934.29 0 600.09 311.29 600.09 311.29 602.09 2 602.09 2 932.29 439.59 932.29 439.59 602.09 410.11 602.09 410.11 600.09 441.59 600.09 441.59 934.29"/><polygon class="cls-1" points="313.77 391.75 226.27 391.75 226.27 0 682.41 0 682.41 2 228.27 2 228.27 389.75 313.77 389.75 313.77 391.75"/><rect class="cls-1" x="413.49" y="389.75" width="370.13" height="2"/><polygon class="cls-1" points="402.33 282.87 362.42 282.87 362.42 102.25 364.42 102.25 364.42 280.87 402.33 280.87 402.33 282.87"/><polygon class="cls-1" points="128.8 846.81 126.8 846.81 126.8 738.43 88.28 738.43 88.28 736.43 128.8 736.43 128.8 846.81"/><polygon class="cls-1" points="2 849.72 0 849.72 0 736.43 40.76 736.43 40.76 738.43 2 738.43 2 849.72"/><rect class="cls-1" x="73.66" y="889.75" width="2" height="43.54"/><rect class="cls-1" x="89.03" y="889.75" width="2" height="43.54"/><rect class="cls-1" x="104.41" y="889.75" width="2" height="43.54"/><rect class="cls-1" x="119.79" y="889.75" width="2" height="43.54"/><rect class="cls-1" x="135.16" y="889.75" width="2" height="43.54"/><rect class="cls-1" x="150.54" y="889.75" width="2" height="43.54"/><rect class="cls-1" x="165.92" y="889.75" width="2" height="43.54"/><rect class="cls-1" x="181.29" y="889.75" width="2" height="43.54"/><rect class="cls-1" x="196.67" y="889.75" width="2" height="43.54"/><rect class="cls-1" x="65.29" y="846.14" width="2" height="43.54"/><rect class="cls-1" x="80.67" y="846.14" width="2" height="43.54"/><rect class="cls-1" x="96.04" y="846.14" width="2" height="43.54"/><rect class="cls-1" x="111.42" y="846.14" width="2" height="43.54"/><rect class="cls-1" x="126.8" y="846.14" width="2" height="43.54"/><rect class="cls-1" x="142.17" y="846.14" width="2" height="43.54"/><rect class="cls-1" x="157.55" y="846.14" width="2" height="43.54"/><rect class="cls-1" x="172.92" y="846.14" width="2" height="43.54"/><rect class="cls-1" x="188.3" y="846.14" width="2" height="43.54"/><path class="cls-1" d="m262.03,734.46v1.9c-2.18-.13-20.54-.13-22.72,0v-1.9c1.01.08,5.49.1,10.24.1v-1.4c-3.46-.16-6.01-1.07-6.01-2.83,0-1.87,3.12-2.86,7.12-2.86s7.12.99,7.12,2.86c0,1.77-2.57,2.68-6.03,2.83v1.4c4.76,0,9.26-.03,10.27-.1Zm-2.11-7.88c-2.26-.08-16.25-.08-18.51,0v-1.77c2.26.1,16.25.1,18.51,0v1.77Zm-1.12,14.3c0,2.24-3.2,3.3-8.14,3.3s-8.14-1.07-8.14-3.3c0-2.11,3.2-3.2,8.14-3.2s8.14,1.09,8.14,3.2Zm-2.44-.05c0-.94-2.05-1.48-5.69-1.48s-5.69.55-5.69,1.48,2.05,1.53,5.69,1.53,5.69-.6,5.69-1.53Zm-.83-17.13c-1.22-.08-8.5-.08-9.7,0v-1.79c1.2.08,8.48.08,9.7,0v1.79Zm-4.86,7.85c2.55,0,4.71-.36,4.71-1.27s-2.16-1.25-4.71-1.25-4.71.34-4.71,1.25,2.16,1.27,4.71,1.27Z"/><path class="cls-1" d="m264.79,732.72c2.18.13,20.54.13,22.73,0v2.05c-.99-.05-5.25-.08-9.83-.08-.03,1.4-.03,4,.03,4.6h-2.31c.05-.6.05-3.2.03-4.6-4.89,0-9.59.03-10.63.08v-2.05Zm5.3,4.63c-.05.68-.05,2.78-.05,3.9,2.83,0,13.86-.05,15.34-.1v2.16c-2.05-.1-15.68-.1-17.73,0,.08-.75.08-5.2,0-5.95h2.44Zm-2.21-6.53c.08-.88.08-7.18,0-8.01,2,.08,14.53.08,16.54,0-.08.83-.08,7.12,0,8.01-2-.05-14.53-.05-16.54,0Zm2.31-6.03v4.11h11.91v-4.11h-11.91Z"/><path class="cls-1" d="m305.71,734.96c-3.74.44-9.59.81-15.31.88l-.16-1.95c1.48.03,3.41,0,5.43-.08,0-1.61-.08-4.99-.13-5.69h2.31c-.05.68-.1,3.95-.08,5.62,2.96-.16,5.93-.36,7.93-.6v1.82Zm-4.24-3.41c.26-1.87.44-4.21.47-5.82-.88,0-8.63.03-9.59.08v-2.05c1.14.08,10.09.03,11.75-.03,0,2.73-.26,5.82-.49,7.83h-2.13Zm-3.67,6.08c-.03.52-.05,2.57-.05,3.85,2.63-.03,12.51-.08,13.52-.16v2.18c-1.82-.05-13.96-.05-15.78,0,.05-.78.05-5.1,0-5.88h2.31Zm15.52-7.64v2.16c-.6-.03-2.47-.05-3.51-.05,0,3.04.03,5.67.08,6.16h-2.34c.1-1.2.1-15.37,0-16.56h2.34c-.05.6-.08,4.52-.08,8.42,1.07-.03,2.94-.08,3.51-.13Z"/><path class="cls-1" d="m193.36,765.42h-7.73v8.61h-2.49v-18.65h2.49v7.9h7.73v-7.9h2.49v18.65h-2.49v-8.61Z"/><path class="cls-1" d="m199.01,767.08c0-4.47,2.34-7.4,6.45-7.4s6.51,2.9,6.51,7.4-2.4,7.34-6.51,7.34-6.45-2.81-6.45-7.34Zm10.48,0c0-3.46-1.33-5.45-4.03-5.45s-4.03,2.01-4.03,5.45,1.39,5.39,4.03,5.39,4.03-2.01,4.03-5.39Z"/><path class="cls-1" d="m227.19,774.04h-2.46v-7.93c0-2.61-.47-4.32-3.14-4.32-2.25,0-3.46,1.78-3.46,3.91v8.35h-2.46v-14.09h2.37v2.31h.06c.5-1.09,1.83-2.58,4.41-2.58,3.2,0,4.68,1.87,4.68,5.54v8.82Z"/><path class="cls-1" d="m241.01,773.06c0-.62.03-1.27.09-1.81h-.09c-.56,1.16-1.84,2.52-4.29,2.52-3.58,0-5.8-2.63-5.8-6.99s2.22-7.1,5.8-7.1c2.28,0,3.55,1.15,4.32,2.37h.06c-.06-.41-.06-1.18-.06-1.54v-.56h2.4v13.38c0,4.85-1.89,6.57-6.33,6.57-4.2,0-5.77-1.92-5.92-4.74l2.34-.3c.12,1.75,1.01,3.11,3.58,3.11,3.05,0,3.91-1.48,3.91-4.29v-.62Zm-3.76-11.25c-2.55,0-3.91,1.78-3.91,4.91s1.45,4.97,3.91,4.97,3.91-1.75,3.91-5c0-3.08-1.48-4.88-3.91-4.88Z"/><path class="cls-1" d="m254.15,761.69h.09c.41-1.04,1.15-2.01,2.81-2.01,1.89,0,2.78,1.27,2.78,3.94v10.42h-2.13v-9.71c0-1.78-.44-2.6-1.51-2.6-1.48,0-1.72,1.24-1.72,3.43v8.88h-2.01v-9.71c0-1.75-.3-2.6-1.51-2.6-1.48,0-1.72,1.27-1.72,3.43v8.88h-2.13v-14.09h1.98v.56c0,.36-.03.74-.03,1.09h.09c.33-1.07,1.12-1.92,2.61-1.92s2.13.77,2.4,2.01Z"/><path class="cls-1" d="m263.68,759.95h2.46v8.02c0,2.6.41,4.32,3.08,4.32,2.25,0,3.43-1.78,3.43-3.91v-8.44h2.46v14.09h-2.37v-2.25h-.06c-.5,1.1-1.81,2.58-4.38,2.58-3.2,0-4.62-1.87-4.62-5.54v-8.88Z"/><path class="cls-1" d="m290.88,774.04h-2.46v-7.93c0-2.61-.47-4.32-3.14-4.32-2.25,0-3.46,1.78-3.46,3.91v8.35h-2.46v-14.09h2.37v2.31h.06c.5-1.09,1.83-2.58,4.41-2.58,3.2,0,4.68,1.87,4.68,5.54v8.82Z"/><path class="cls-1" d="m316.3,772.38c3.14,0,4.32-2.16,4.32-6.04h-4.97v-2.01h7.22v9.71h-2.07v-.71c0-.41.03-.86.06-1.42h-.03c-.95,1.45-2.25,2.52-4.83,2.52-4.38,0-7.04-3.2-7.04-9.65s2.58-9.77,7.37-9.77c3.79,0,5.8,2.16,6.51,5.18l-2.4.42c-.59-2.1-1.87-3.49-4.17-3.49-3.29,0-4.77,2.6-4.77,7.58s1.54,7.7,4.79,7.7Z"/><path class="cls-1" d="m324.23,759.95h2.25l1.39,6.93c.3,1.51.59,3.17.83,4.56h.12c.27-1.39.62-3.23.92-4.65l1.48-6.84h2.07l1.51,6.69c.36,1.63.65,2.93.98,4.74h.12c.21-1.48.5-2.84.89-4.74l1.3-6.69h2.19l-3.2,14.09h-2.37l-1.63-7.13c-.3-1.36-.56-2.93-.77-4.32h-.12c-.24,1.33-.38,2.58-.83,4.44l-1.6,7.02h-2.4l-3.14-14.09Z"/><path class="cls-1" d="m354.75,774.1c-.3.09-.8.15-1.45.15-1.48,0-2.13-.68-2.28-1.87h-.06c-.71.86-1.89,1.98-4.47,1.98-2.9,0-4.85-1.48-4.85-4.14,0-2.93,2.28-3.91,5.83-4.5l1.27-.21c1.69-.27,2.1-.36,2.1-1.33v-.12c0-1.51-.83-2.4-3.02-2.4s-3.26,1.1-3.29,2.87l-2.4-.15c.03-3.23,2.49-4.71,5.77-4.71,2.96,0,5.33.92,5.33,4.29v7.1c0,1.01.27,1.42,1.07,1.42.15,0,.33,0,.44-.03v1.63Zm-3.91-7.34c-.27.24-.8.41-1.63.56l-1.95.38c-1.89.38-3.05.98-3.05,2.4,0,1.54,1.1,2.37,2.93,2.37,2.01,0,3.7-1.21,3.7-3.49v-2.22Z"/><path class="cls-1" d="m369.5,774.04h-2.46v-7.93c0-2.61-.47-4.32-3.14-4.32-2.25,0-3.46,1.78-3.46,3.91v8.35h-2.46v-14.09h2.37v2.31h.06c.5-1.09,1.83-2.58,4.41-2.58,3.2,0,4.68,1.87,4.68,5.54v8.82Z"/><path class="cls-1" d="m531.13,484.54c-1.01-.05-5.46-.08-10.17-.08-.05,2.29-.05,7.46.03,8.37h-2.47c.08-.91.08-6.08.03-8.37-4.71,0-9.13.03-10.14.08v-2.13c2.18.08,20.54.08,22.72,0v2.13Zm-21.53-6.45c3.41-.1,7.51-1.92,8.76-4.34-3.54,0-6.79.03-7.51.05v-2.11c1.66.1,16.17.1,17.84,0v2.11c-.75-.03-4.06-.05-7.64-.05t-.03.05c1.14,2.18,4.78,3.93,8.81,4.16l-1.27,2.18c-4.24-.96-7.1-2.37-8.84-4.37-2.26,2.68-5.9,4.03-8.79,4.58l-1.33-2.26Z"/><path class="cls-1" d="m548.26,486.99l-1.64,1.92c-2.73-2.11-4.32-4.34-5.17-6.45-1.12,2.57-3.07,4.78-5.8,6.76l-1.59-2.08c3.72-1.66,5.95-5.25,6.32-8.63-2.55,0-4.89,0-5.49.03v-2.08c1.35.08,11.62.08,12.97,0v2.08c-.6-.03-2.89-.03-5.38-.03,0,.05,0,.1-.03.16.36,3.56,2.08,6.45,5.8,8.32Zm-2.57-13.05c-1.22-.05-7.49-.05-8.68,0v-2.08c1.2.08,7.46.08,8.68,0v2.08Zm11.26,8.81c-.6-.03-2.39-.05-3.46-.05,0,4.86.03,9.44.08,10.14h-2.42c.1-1.51.1-20.91,0-22.41h2.42c-.05.7-.08,5.36-.08,10.24,1.07-.03,2.89-.08,3.46-.13v2.21Z"/><path class="cls-1" d="m560.64,483.87l-1.4-2.03c3.54-1.17,6.14-4.24,6.66-7.41-2.55,0-4.89,0-5.49.03v-2.03c1.35.08,11.54.08,12.9,0v2.03c-.57-.03-2.83-.03-5.28-.03l-.08.36c.29,2.52,2.7,5.3,5.75,6.45l-1.46,1.79c-2.52-1.64-4.26-3.43-5.25-5.38-1.35,2.65-3.72,4.68-6.34,6.21Zm18.8,5.07c0,2.6-3.48,3.98-8.29,3.98s-8.29-1.38-8.29-3.98,3.48-3.95,8.29-3.95,8.29,1.46,8.29,3.95Zm-2.39-.03c0-1.22-2.47-2.03-5.9-2.03s-5.9.81-5.9,2.03,2.47,1.98,5.9,1.98,5.9-.75,5.9-1.98Zm5.38-11.49v2.16c-.62-.03-2.44-.05-3.51-.05.03,2.34.03,4.32.08,4.71h-2.31c.1-1.04.1-12.77,0-13.81h2.31c-.05.52-.08,3.85-.08,7.12,1.07-.03,2.91-.08,3.51-.13Z"/><path class="cls-1" d="m465.71,505.84c2.34,0,3.82.44,4.91,1.33,1.1.92,1.66,2.31,1.66,4.11s-.74,3.29-1.92,4.23c-1.33,1.07-2.93,1.21-5.45,1.21h-2.9v7.76h-2.43v-18.65h6.13Zm.24,2.07h-3.94v6.75h3.85c2.72,0,3.94-1.21,3.94-3.4s-1.1-3.34-3.85-3.34Z"/><path class="cls-1" d="m488.2,524.55c-.3.09-.8.15-1.45.15-1.48,0-2.13-.68-2.28-1.87h-.06c-.71.86-1.89,1.98-4.47,1.98-2.9,0-4.85-1.48-4.85-4.14,0-2.93,2.28-3.91,5.83-4.5l1.27-.21c1.69-.27,2.1-.36,2.1-1.33v-.12c0-1.51-.83-2.4-3.02-2.4s-3.26,1.1-3.29,2.87l-2.4-.15c.03-3.23,2.49-4.71,5.77-4.71,2.96,0,5.33.92,5.33,4.29v7.1c0,1.01.27,1.42,1.07,1.42.15,0,.33,0,.44-.03v1.63Zm-3.91-7.34c-.27.24-.8.41-1.63.56l-1.95.38c-1.89.38-3.05.98-3.05,2.4,0,1.54,1.1,2.37,2.93,2.37,2.01,0,3.7-1.21,3.7-3.49v-2.22Z"/><path class="cls-1" d="m503.89,512.85c-.56-.12-1.45-.3-2.67-.3-2.43,0-3.88.59-4.71,1.78-.71,1.01-.95,2.43-.95,4.23v5.92h-2.46v-14.09h2.4v1.27c0,.44-.03,1.42-.03,1.95h.03c.68-1.83,2.37-3.38,5.98-3.38.98,0,1.92.12,2.4.21v2.4Z"/><path class="cls-1" d="m521.03,524.49h-2.99l-4.79-7.16-2.43,2.37v4.8h-2.43v-20.13h2.43v12.7l6.57-6.66h3.17l-5.57,5.36,6.04,8.73Z"/><path class="cls-1" d="m523.13,510.4h9.56v14.09h-2.49v-11.9h-7.08v-2.19Zm9.62-2.49h-3.08v-3.55h3.08v3.55Z"/><path class="cls-1" d="m551.19,524.49h-2.46v-7.93c0-2.61-.47-4.32-3.14-4.32-2.25,0-3.46,1.78-3.46,3.91v8.35h-2.46v-14.09h2.37v2.31h.06c.5-1.09,1.83-2.58,4.41-2.58,3.2,0,4.68,1.87,4.68,5.54v8.82Z"/><path class="cls-1" d="m565.01,523.51c0-.62.03-1.27.09-1.81h-.09c-.56,1.16-1.83,2.52-4.29,2.52-3.58,0-5.8-2.63-5.8-6.99s2.22-7.1,5.8-7.1c2.28,0,3.55,1.15,4.32,2.37h.06c-.06-.41-.06-1.18-.06-1.54v-.56h2.4v13.38c0,4.85-1.89,6.57-6.33,6.57-4.2,0-5.77-1.92-5.92-4.74l2.34-.3c.12,1.75,1.01,3.11,3.58,3.11,3.05,0,3.91-1.48,3.91-4.29v-.62Zm-3.76-11.25c-2.55,0-3.91,1.78-3.91,4.91s1.45,4.97,3.91,4.97,3.91-1.75,3.91-5c0-3.08-1.48-4.88-3.91-4.88Z"/><path class="cls-1" d="m590.56,505.84v16.55h9.38v2.1h-11.84v-18.65h2.46Z"/><path class="cls-1" d="m602.93,517.53c0-4.47,2.34-7.4,6.45-7.4s6.51,2.9,6.51,7.4-2.4,7.34-6.51,7.34-6.45-2.81-6.45-7.34Zm10.48,0c0-3.46-1.33-5.45-4.03-5.45s-4.03,2.01-4.03,5.45,1.39,5.39,4.03,5.39,4.03-2.01,4.03-5.39Z"/><path class="cls-1" d="m625.39,512.53v7.52c0,2.28.95,2.69,3.08,2.69,1.18,0,2.19-.15,2.78-.27v2.01c-.8.18-2.01.3-3.2.3-3.67,0-5.12-.65-5.12-5v-7.25h-4.83v-2.13h4.83v-4.68l2.46-.38v5.06h5.86v2.13h-5.86Z"/><path class="cls-1" d="m98.13,77.05c8.13,1.95,12.68,7.91,12.68,16.69,0,11.82-7.48,19.19-22.01,19.19h-25.58V44.64h24.82c13.01,0,20.71,5.31,20.71,17.02,0,8.13-4.55,13.23-10.62,15.18v.22Zm-11.6-3.14c9.21,0,13.23-4.12,13.23-11.06s-3.69-10.62-12.68-10.62h-15.07v21.68h14.53Zm1.08,31.55c8.78,0,14.09-3.58,14.09-12.03s-4.88-11.92-14.2-11.92h-15.5v23.96h15.61Z"/><path class="cls-1" d="m157.75,112.93h-8.78v-16.8h-30.35v-7.48l29.38-44.01h9.76v44.12h11.93v7.37h-11.93v16.8Zm-30.89-24.07c3.58-.11,7.15-.11,11.06-.11h11.27v-20.92c0-4.77.22-10.3.43-13.55h-.32c-2.06,3.47-5.1,8.13-8.35,13.23l-5.53,8.35c-3.36,5.31-6.18,9.32-8.56,12.9v.11Z"/><rect class="cls-1" x="1.46" y="888.73" width="204.02" height="2"/><rect class="cls-1" x="1.46" y="845.21" width="204.02" height="2"/><path class="cls-1" d="m537.46,117.14c1.42.09,10.66.09,12.25,0-.49,6.5-3.06,12.8-11.85,17.92l-1.76-2.6c6.96-2.66,10.29-8.29,10.81-12.98-1.53-.06-8.03-.06-9.45.06v-2.4Zm24.28,10.23c-.67-.03-2.66-.06-3.84-.06,0,5.55.03,10.87.09,11.68h-2.69c.12-1.68.12-23.24,0-24.91h2.69c-.06.78-.09,5.69-.09,10.98,1.18-.03,3.21-.09,3.84-.14v2.46Z"/><path class="cls-1" d="m578.75,127.4c-2.02.14-9.86.81-13.18,1.1.09-1.36.09-6.36,0-8.03,1.62.06,7.2.06,9.39.03v-2.75c-2.23-.03-7.77-.06-9.36.03v-2.28c2.17.14,9.51.14,11.82,0-.09,1.59-.09,5.55,0,7.11-1.79-.09-6.56-.12-9.39-.06v3.64c3.35-.2,9.16-.75,10.72-.92v2.14Zm7.49,3.09c-.06.92-.06,7.54,0,8.76h-2.43l-.29-.98c-1.73-.06-10.38-.06-12.14,0l-.29.98h-2.43c.06-1.21.06-7.83,0-8.76,2.63.09,14.94.09,17.57,0Zm-2.46,5.66v-3.76h-12.66v3.76h12.66Zm6.27-14.8v2.4c-.69-.03-2.75-.06-3.93-.06.03,2.51.03,4.62.09,5.06h-2.54c.12-1.13.12-13.55,0-14.68h2.54c-.06.58-.09,4.02-.09,7.43,1.18-.03,3.24-.09,3.93-.14Z"/><path class="cls-1" d="m618,127.34v2.02c-2.43-.17-22.83-.17-25.26,0v-2.02c1.13.09,6.1.12,11.39.12v-1.33c-3.9-.14-6.76-1.04-6.76-2.8,0-1.91,3.5-2.89,8.01-2.89s8.01.98,8.01,2.89c0,1.76-2.89,2.66-6.79,2.8v1.33c5.29,0,10.29-.03,11.42-.12Zm-2.34-7.92c-2.51-.09-18.06-.09-20.58,0v-1.94c2.51.12,18.06.12,20.58,0v1.94Zm-16.88,17.72c3.35,0,14.45,0,16.42-.06v2.08c-2.37-.09-16.42-.09-18.79,0,.09-1.04.09-4.22,0-5.26,1.82.09,12.31.06,15.55.06v-1.45c-3.24-.03-13.73-.03-15.55.03v-1.79c2.37.09,15.55.09,17.92,0-.09,1.04-.09,3.9,0,4.94-1.85-.09-12.31-.06-15.55-.06v1.5Zm11.99-20.78c-1.36-.09-9.45-.09-10.78,0v-1.94c1.33.09,9.42.09,10.78,0v1.94Zm-5.4,8.03c2.83,0,5.32-.29,5.32-1.16s-2.49-1.16-5.32-1.16-5.32.26-5.32,1.16,2.48,1.16,5.32,1.16Z"/><path class="cls-1" d="m498.23,168.5c3.49,0,4.8-2.4,4.8-6.71h-5.53v-2.24h8.03v10.79h-2.3v-.79c0-.46.03-.95.07-1.58h-.03c-1.05,1.61-2.5,2.8-5.36,2.8-4.87,0-7.83-3.55-7.83-10.73s2.86-10.86,8.19-10.86c4.21,0,6.45,2.4,7.24,5.76l-2.67.46c-.66-2.34-2.07-3.88-4.64-3.88-3.65,0-5.3,2.9-5.3,8.42s1.71,8.56,5.33,8.56Z"/><path class="cls-1" d="m523.2,170.4c-.33.1-.89.16-1.61.16-1.64,0-2.37-.76-2.53-2.07h-.07c-.79.95-2.11,2.2-4.97,2.2-3.22,0-5.4-1.65-5.4-4.61,0-3.26,2.53-4.34,6.48-5l1.41-.23c1.88-.3,2.34-.4,2.34-1.48v-.13c0-1.68-.92-2.66-3.36-2.66s-3.62,1.22-3.65,3.19l-2.66-.16c.03-3.59,2.76-5.23,6.42-5.23,3.29,0,5.92,1.02,5.92,4.77v7.9c0,1.12.3,1.58,1.18,1.58.16,0,.36,0,.49-.03v1.81Zm-4.34-8.16c-.3.26-.89.46-1.81.63l-2.17.43c-2.11.43-3.39,1.09-3.39,2.67,0,1.71,1.22,2.63,3.26,2.63,2.24,0,4.11-1.35,4.11-3.88v-2.47Z"/><path class="cls-1" d="m540.64,157.41c-.63-.13-1.61-.33-2.96-.33-2.7,0-4.31.66-5.23,1.97-.79,1.12-1.05,2.7-1.05,4.71v6.58h-2.73v-15.66h2.66v1.41c0,.49-.03,1.58-.03,2.17h.03c.76-2.04,2.63-3.75,6.65-3.75,1.09,0,2.14.13,2.67.23v2.66Z"/><path class="cls-1" d="m558.74,170.4c-.33.1-.89.16-1.61.16-1.64,0-2.37-.76-2.53-2.07h-.07c-.79.95-2.11,2.2-4.97,2.2-3.22,0-5.4-1.65-5.4-4.61,0-3.26,2.53-4.34,6.48-5l1.41-.23c1.88-.3,2.34-.4,2.34-1.48v-.13c0-1.68-.92-2.66-3.36-2.66s-3.62,1.22-3.65,3.19l-2.66-.16c.03-3.59,2.76-5.23,6.42-5.23,3.29,0,5.92,1.02,5.92,4.77v7.9c0,1.12.3,1.58,1.18,1.58.16,0,.36,0,.49-.03v1.81Zm-4.34-8.16c-.3.26-.89.46-1.81.63l-2.17.43c-2.11.43-3.39,1.09-3.39,2.67,0,1.71,1.22,2.63,3.26,2.63,2.24,0,4.11-1.35,4.11-3.88v-2.47Z"/><path class="cls-1" d="m569.89,156.62h.1c.46-1.15,1.28-2.24,3.13-2.24,2.11,0,3.09,1.41,3.09,4.38v11.58h-2.37v-10.79c0-1.97-.49-2.9-1.68-2.9-1.64,0-1.91,1.38-1.91,3.82v9.87h-2.24v-10.79c0-1.94-.33-2.9-1.68-2.9-1.64,0-1.91,1.41-1.91,3.82v9.87h-2.37v-15.66h2.2v.63c0,.4-.03.82-.03,1.22h.1c.36-1.18,1.25-2.14,2.9-2.14s2.37.86,2.66,2.24Z"/><path class="cls-1" d="m608.91,160.76h-8.59v9.58h-2.76v-20.73h2.76v8.79h8.59v-8.79h2.76v20.73h-2.76v-9.58Z"/><path class="cls-1" d="m629.8,170.4c-.33.1-.89.16-1.61.16-1.64,0-2.37-.76-2.53-2.07h-.07c-.79.95-2.11,2.2-4.97,2.2-3.22,0-5.4-1.65-5.4-4.61,0-3.26,2.53-4.34,6.48-5l1.41-.23c1.88-.3,2.34-.4,2.34-1.48v-.13c0-1.68-.92-2.66-3.36-2.66s-3.62,1.22-3.65,3.19l-2.66-.16c.03-3.59,2.76-5.23,6.42-5.23,3.29,0,5.92,1.02,5.92,4.77v7.9c0,1.12.3,1.58,1.18,1.58.16,0,.36,0,.49-.03v1.81Zm-4.34-8.16c-.3.26-.89.46-1.81.63l-2.17.43c-2.11.43-3.39,1.09-3.39,2.67,0,1.71,1.22,2.63,3.26,2.63,2.24,0,4.11-1.35,4.11-3.88v-2.47Z"/><path class="cls-1" d="m633.12,147.96h8.49v20.07h5.59v2.3h-14.08v-2.3h5.76v-17.74h-5.76v-2.34Z"/><path class="cls-1" d="m650.89,147.96h8.49v20.07h5.59v2.3h-14.08v-2.3h5.76v-17.74h-5.76v-2.34Z"/><polygon class="cls-1" points="695.43 934.29 0 934.29 0 0 784.62 0 784.62 933.29 782.62 933.29 782.62 2 2 2 2 932.29 695.43 932.29 695.43 934.29"/><rect class="cls-1" x="362.42" y="1" width="2" height="52.06"/><polygon class="cls-1" points="302.78 136.99 300.78 136.99 300.78 100.52 227.27 100.52 227.27 98.52 302.78 98.52 302.78 136.99"/><polygon class="cls-1" points="302.78 252.82 227.27 252.82 227.27 250.82 300.78 250.82 300.78 212.68 302.78 212.68 302.78 252.82"/><rect class="cls-1" x="227.27" y="173.83" width="74.52" height="2"/><path class="cls-1" d="m48.62,771.7v33.75h33.75v-33.75h-33.75Zm18.96,4.63c.26-.33.73-.38,1.05-.12l2.48,1.96,2.57-2.03c.33-.26.8-.2,1.05.12s.2.8-.12,1.05l-3.04,2.4c-.14.11-.3.16-.46.16s-.33-.05-.46-.16l-2.95-2.33c-.33-.26-.38-.73-.12-1.05Zm-11.22,2.2l3.04-2.4c.27-.21.66-.21.93,0l2.95,2.33c.33.26.38.73.12,1.05s-.73.38-1.05.12l-2.48-1.96-2.57,2.03c-.14.11-.3.16-.46.16-.22,0-.44-.1-.59-.29-.26-.33-.2-.8.12-1.05Zm8.17,21.9h-9.42v-18.63h9.42v18.63Zm11.34,0h-9.42v-18.63h9.42v18.63Z"/><rect class="cls-1" x="452.19" y="280.87" width="229.51" height="2"/><rect class="cls-1" x="731.56" y="280.87" width="52.06" height="2"/><path class="cls-1" d="m260.81,125.55h7.44c.61,0,1.2.15,1.53.69.23.31,3.49,9.75,3.92,11,.25.69-.08,1.6-.92,1.94-.79.31-1.73-.08-2.06-1.04l-1.73-4.91c-.05-.13-.2-.43-.48-.33-.23.08-.28.28-.2.48.08.23,2.22,6.26,2.88,8.28.31.92-.46,1.58-1.15,1.58h-1.15v8.3c0,1.45-1.12,1.99-1.99,1.99s-1.76-.53-1.76-1.99v-7.54c0-.36-.18-.76-.61-.76s-.61.41-.61.76v7.54c0,1.45-.89,1.99-1.76,1.99s-1.99-.53-1.99-1.99v-8.3h-1.15c-.69,0-1.45-.66-1.15-1.58.66-2.01,2.8-8.05,2.88-8.28.08-.2.03-.41-.2-.48-.28-.1-.43.2-.48.33l-1.73,4.91c-.33.97-1.27,1.35-2.06,1.04-.84-.33-1.17-1.25-.92-1.94.43-1.25,3.69-10.69,3.92-11,.33-.53.92-.69,1.53-.69Z"/><circle class="cls-1" cx="264.53" cy="120.55" r="3.62"/><path class="cls-1" d="m259.68,203.1h9.7c2.24,0,3.44,1.27,3.44,2.62v10.39c0,.87-.69,1.55-1.55,1.55s-1.55-.69-1.55-1.55v-6.11c0-.15-.08-.33-.28-.33s-.28.18-.28,1.16v18.95c0,.62-1.15,1.15-1.94,1.15-.94,0-2.06-.53-2.06-1.99v-8.97c0-.46-.23-.69-.61-.69-.36,0-.64.23-.64.69v8.97c0,1.45-1.12,1.99-2.06,1.99-.79,0-1.94-.53-1.94-1.99v-18.95c0-.15-.08-.33-.28-.33s-.28.18-.28.33v6.11c0,.87-.69,1.55-1.55,1.55s-1.55-.69-1.55-1.55v-10.39c0-1.35,1.2-2.62,3.44-2.62Z"/><circle class="cls-1" cx="264.53" cy="198.04" r="3.62"/><path class="cls-1" d="m276.32,700.13c-1.1,0-2-.9-2-2v-54.03c0-1.1.9-2,2-2h82.38v-310.44c0-1.1.9-2,2-2s2,.9,2,2v312.44c0,1.1-.9,2-2,2h-82.38v52.03c0,1.1-.9,2-2,2Z"/><circle class="cls-1" cx="360.7" cy="331.66" r="9.3"/></svg>