<?xml version="1.0" encoding="utf-8"?>
<!-- Generator: Adobe Illustrator 28.0.0, SVG Export Plug-In . SVG Version: 6.00 Build 0)  -->
<svg version="1.1" id="Layer_1" xmlns="http://www.w3.org/2000/svg" xmlns:xlink="http://www.w3.org/1999/xlink" x="0px" y="0px"
	 viewBox="0 0 216 228" style="enable-background:new 0 0 216 228;" xml:space="preserve">
<style type="text/css">
	.st0{clip-path:url(#SVGID_00000047018050224384139950000013916560415602322087_);}
	.st1{fill:#FFFFFF;}
</style>
<g>
	<g>
		<defs>
			<rect id="SVGID_1_" width="215.8" height="227.3"/>
		</defs>
		<clipPath id="SVGID_00000143592773269760561220000016904717953644034448_">
			<use xlink:href="#SVGID_1_"  style="overflow:visible;"/>
		</clipPath>
		<g style="clip-path:url(#SVGID_00000143592773269760561220000016904717953644034448_);">
			<path class="st1" d="M74.5,0L21.7,0.1v19.6l52.8-0.1V0z"/>
			<path class="st1" d="M149.3,49.2c0-10.5,8.5-19,19-19s19,8.5,19,19s-8.5,19-19,19C157.8,68.1,149.3,59.6,149.3,49.2L149.3,49.2z
				 M168.3,96.6c26.2,0,47.5-21.3,47.4-47.5c0-26.2-21.3-47.4-47.5-47.4s-47.4,21.4-47.4,47.5C120.8,75.4,142.2,96.6,168.3,96.6
				L168.3,96.6z"/>
			<path class="st1" d="M92.7,21.9L3.5,22v25.5h6.8c-2.2,5.1-3.4,10.7-3.4,16.6c0,23.2,19,42.1,42.2,42.1S91.2,87.3,91.2,64
				c0-5.9-1.2-11.5-3.4-16.6h5L92.7,21.9L92.7,21.9z M49.1,77.8c-7.5,0-13.6-6.1-13.7-13.6c0-7.5,6.1-13.7,13.6-13.7
				s13.7,6.1,13.7,13.6C62.7,71.6,56.6,77.8,49.1,77.8z"/>
			<path class="st1" d="M98.9,215.6l-49.7-92.1L0,215.7l29.5,11.6l19.9-43.8l20,43.7L98.9,215.6z"/>
			<path class="st1" d="M159.3,158.1l48.2-0.1v-30.9l-80.3,0.1l0.1,96.1l80.3-0.1V192l-48.3,0.1V158.1z"/>
		</g>
	</g>
</g>
</svg>
