<?xml version="1.0" encoding="utf-8"?>
<!-- Generator: Adobe Illustrator 28.0.0, SVG Export Plug-In . SVG Version: 6.00 Build 0)  -->
<svg version="1.1" id="Layer_1" xmlns="http://www.w3.org/2000/svg" xmlns:xlink="http://www.w3.org/1999/xlink" x="0px" y="0px"
	 viewBox="0 0 142 74" style="enable-background:new 0 0 142 74;" xml:space="preserve">
<style type="text/css">
	.st0{fill:#FFFFFF;}
</style>
<path class="st0" d="M140.2,31.1L140.2,31.1c-1-1.5-4.1-6.1-4.1-6.2l-9.4-14.1c-0.2-0.3-2-3.2-4.3-6.5c-3.1-4.6-8.6-5-12.4-3.3
	c-3.5,1.5-5.7,5.8-5.7,8.9v16.4L92.6,8.9c-0.1-0.2-1-1.5-3.1-4.8c-1.5-2.3-3.9-3.7-6.8-4c-2.3-0.3-4.7,0.3-6.5,1.4
	c-3.4,2.1-4.6,5.8-4.6,8.3c0,1.9-0.1,5.7-0.1,5.8c0,0,0,0,0,0.1V31c-0.8-1.1-1.8-2.6-2.2-3.3l0,0l-12-18c-0.2-0.3-2-3.1-3.9-5.8
	C50.7,0,45.6-0.7,41.9,0.6c-3.6,1.3-6.3,5.3-6.3,9.2v19.4l0,0c0,0,0,0.7,0,1.5c-0.7-1.1-1.5-2.3-1.6-2.4L20.7,8.5
	c-0.2-0.3-1.5-2.4-2.8-4.2c-1.2-1.7-3.7-3.7-6.8-4.2C8.5-0.3,6,0.3,3.9,2c-5.3,4-4.2,10.6-2.4,13.2c0.8,1.2,1.3,2.1,1.4,2.1L3,17.4
	l29.7,44.3c0.1,0.1,0.1,0.2,0.2,0.3c0.2,0.2,1.1,1.4,3.7,5.6c3.2,5.1,8.3,6.7,13.4,4.2c3.2-1.5,5.2-4.9,5.2-8.7V43.7
	c0-0.1,0-0.9,0-1.6c0.4,0.6,0.7,1,0.7,1l12.3,18.4c0,0,2.8,4.1,4.8,7.1c2.3,3.4,6.1,4.9,10.5,4.1c3.2-0.6,5.1-2.9,5.9-3.9
	c0.1-0.1,0.1-0.1,0.2-0.2c0.7-0.8,2.2-3.3,2.7-4l12-17.9v11.2c0,0,0,3.5,0,4.9l0,0c0,3.5,1.6,7.8,6.4,9.6c1.2,0.4,2.3,0.6,3.4,0.6
	c3.9,0,7.1-2.5,8.6-4.7c1-1.4,2.3-3.4,2.4-3.7L137.7,46c0.1-0.2,1.3-1.9,2.6-3.8c1.7-2.5,1.7-4.5,1.7-5.4v-0.2
	C142,35.3,141.6,33.2,140.2,31.1L140.2,31.1z"/>
</svg>
