<svg width="216" height="228" viewBox="0 0 216 228" fill="none" xmlns="http://www.w3.org/2000/svg">
<g clip-path="url(#clip0_312_49)">
<path d="M74.5092 -0.001043L21.6992 0.0634766L21.7231 19.6435L74.5331 19.5789L74.5092 -0.001043Z" fill="white"/>
<path d="M149.291 49.16C149.281 38.69 157.791 30.16 168.251 30.15C178.721 30.14 187.251 38.65 187.261 49.12C187.271 59.59 178.761 68.12 168.291 68.13C157.831 68.13 149.291 59.63 149.281 49.16H149.291ZM168.331 96.6C194.511 96.57 215.781 75.25 215.741 49.08C215.711 22.91 194.391 1.63995 168.211 1.66995C142.041 1.69995 120.771 23.02 120.801 49.19C120.831 75.37 142.151 96.63 168.321 96.6H168.331Z" fill="white"/>
<path d="M92.7213 21.9302L3.53125 22.0402L3.56125 47.5502H10.3313C8.14125 52.6502 6.91125 58.2602 6.92125 64.1602C6.95125 87.3902 25.8713 106.26 49.1012 106.23C72.3312 106.2 91.2013 87.2802 91.1813 64.0602C91.1813 58.1602 89.9412 52.5502 87.7412 47.4502H92.7712L92.7412 21.9302H92.7213ZM49.0613 77.7602C41.5313 77.7702 35.4113 71.6502 35.4013 64.1302C35.4013 56.6002 41.5012 50.4802 49.0312 50.4702C56.5512 50.4702 62.6912 56.5702 62.6912 64.1002C62.6912 71.6302 56.5813 77.7502 49.0613 77.7602Z" fill="white"/>
<path d="M98.88 215.56L49.14 123.45L0 215.67L29.48 227.31L49.41 183.54L69.44 227.26L98.88 215.56Z" fill="white"/>
<path d="M159.34 158.13L207.59 158.07L207.56 127.22L127.25 127.31L127.37 223.43L207.67 223.34L207.63 192.09L159.37 192.15L159.34 158.13Z" fill="white"/>
</g>
<defs>
<clipPath id="clip0_312_49">
<rect width="215.75" height="227.31" fill="white"/>
</clipPath>
</defs>
</svg>
