<svg width="142" height="74" viewBox="0 0 142 74" fill="none" xmlns="http://www.w3.org/2000/svg">
<g clip-path="url(#clip0_382_396)">
<path d="M140.205 31.0779C140.205 31.0779 140.193 31.0622 140.189 31.0544C139.204 29.6038 136.135 24.9546 136.091 24.8881L126.644 10.7881C126.443 10.4714 124.607 7.60528 122.373 4.29339C119.245 -0.324494 113.737 -0.664677 109.951 0.969764C106.417 2.4869 104.23 6.79197 104.23 9.91227V26.331L92.5602 8.91909C92.4302 8.71576 91.5713 7.3824 89.4399 4.1448C87.927 1.86519 85.5237 0.437984 82.6633 0.129083C80.3664 -0.121166 77.9395 0.387153 76.1548 1.49372C72.731 3.62866 71.5136 7.30029 71.5136 9.79496C71.5136 11.6797 71.427 15.5116 71.427 15.5507C71.427 15.5702 71.427 15.5937 71.427 15.6133V30.8863C70.6626 29.7758 69.6698 28.2469 69.2482 27.5861C69.2364 27.5705 69.2285 27.5548 69.2167 27.5392L57.2908 9.70503C57.1017 9.41177 55.2815 6.58864 53.4298 3.93365C50.731 0.0391498 45.6014 -0.684227 41.9255 0.617851C38.3048 1.90429 35.5785 5.87309 35.5785 9.84579V29.2167C35.5785 29.2167 35.5785 29.2401 35.5785 29.2518C35.5785 29.2518 35.5863 29.9322 35.5942 30.7299C34.8772 29.6741 34.0577 28.4737 33.9513 28.3173L20.7174 8.53198C20.5362 8.25045 19.2085 6.16635 17.9517 4.30121C16.8012 2.59247 14.2443 0.637402 11.1318 0.129083C8.53153 -0.297123 6.0258 0.33632 3.87465 1.96685C-1.44806 6.04122 -0.289745 12.6259 1.49894 15.2301C2.3263 16.4539 2.83848 17.3142 2.86211 17.3494C2.88969 17.3963 2.91727 17.4432 2.94879 17.4862L32.6472 61.8155C32.7418 61.9563 32.7654 61.9993 32.8718 62.1127C33.0294 62.3121 33.9513 63.5204 36.5989 67.7277C39.8295 72.8617 44.8528 74.4414 50.0455 71.9506C53.2328 70.4218 55.2934 67.0238 55.2934 63.2897V43.7311C55.2934 43.5903 55.2973 42.8552 55.2973 42.1123C55.6755 42.6715 55.9828 43.1329 55.9868 43.1368L68.2515 61.5614C68.2515 61.5614 71.0093 65.6748 73.0581 68.7052C75.3786 72.1188 79.1924 73.6164 83.5183 72.8148C86.7174 72.2243 88.6046 69.8978 89.4083 68.9046C89.4714 68.8303 89.5265 68.76 89.5935 68.6778C90.279 67.845 91.8156 65.4207 92.3041 64.6426L104.258 46.738V57.9445C104.258 57.9797 104.289 61.4128 104.258 62.8048C104.258 62.8165 104.258 62.8283 104.258 62.84C104.226 66.2966 105.889 70.6407 110.652 72.4785C111.814 72.9282 112.949 73.1237 114.032 73.1237C117.929 73.1237 121.155 70.6094 122.629 68.4589C123.61 67.0356 124.926 65.014 125.076 64.7833L137.659 46.0498C137.805 45.8387 138.999 44.1143 140.248 42.214C141.903 39.7076 141.962 37.7369 141.989 36.7867L141.997 36.6107C142.041 35.3126 141.591 33.1776 140.201 31.0818L140.205 31.0779Z" fill="black"/>
</g>
<defs>
<clipPath id="clip0_382_396">
<rect width="142" height="74" fill="white"/>
</clipPath>
</defs>
</svg>
